<?xml version="1.0" encoding="UTF-8"?>
<svg width="50px" height="50px" viewBox="0 0 50 50" version="1.1" xmlns="http://www.w3.org/2000/svg" xmlns:xlink="http://www.w3.org/1999/xlink">
    <!-- Generator: Sketch 49.1 (51147) - http://www.bohemiancoding.com/sketch -->
    <title>a</title>
    <desc>Created with Sketch.</desc>
    <defs></defs>
    <g id="Finger" stroke="none" stroke-width="1" fill="none" fill-rule="evenodd">
        <g id="Finger-Alphabet">
            <g id="letters" transform="translate(11.000000, 0.000000)" fill="#000000" fill-rule="nonzero">
                <g id="a">
                    <path d="M5.40679278,14.2785723 C5.38835972,14.2828864 5.36934031,14.2857704 5.34984671,14.2870949 C5.22689268,14.2954497 5.01081113,14.3078701 4.72874035,14.3202641 C4.13912533,14.3461714 3.54118833,14.3588578 2.98166505,14.351068 C2.51187111,14.3445275 2.09350866,14.323634 1.73873528,14.2859307 C1.54376475,14.2652103 1.40240631,14.0894042 1.42300237,13.8932568 C1.44359843,13.6971094 1.61834969,13.5548976 1.81332023,13.575618 C2.14381633,13.6107413 2.5416288,13.6306085 2.99148926,13.6368715 C3.53568601,13.6444479 4.12067691,13.6320362 4.69776109,13.6066795 C4.81636069,13.6014683 4.92287161,13.596262 5.01511906,13.5913844 C4.95704534,13.4905321 4.90024505,13.3918475 4.87451465,13.3469034 C4.6868803,13.0191572 4.54941015,12.7702873 4.41814651,12.5164982 C4.1577732,12.0130846 3.94274422,11.5216611 3.7700755,11.0615032 C3.66571365,10.7833815 3.59816402,10.575626 3.56463396,10.4575594 C3.51077466,10.2679092 3.61993248,10.0702422 3.80844478,10.0160578 C3.99695707,9.96187345 4.19343806,10.0716902 4.24729736,10.2613404 C4.27565839,10.3612057 4.33716577,10.5503776 4.43430164,10.8092423 C4.59746244,11.2440618 4.80125333,11.709802 5.04796504,12.1868019 C5.17374993,12.4299982 5.30673064,12.6707406 5.48974623,12.9904191 C5.54516333,13.0872177 5.74880133,13.4404002 5.79204743,13.5158045 C5.91278813,13.7263292 6.00886545,13.8967728 6.10192524,14.0666626 C6.41990892,14.6471731 6.67663682,15.1775231 6.91388647,15.7654818 C7.93058228,18.2850857 8.77335602,19.4088354 10.1693247,19.2791031 L10.28106,19.2865635 C10.2670605,19.2835885 10.2670605,19.2835885 10.2582989,19.2823449 C10.3063923,19.2335931 10.3514581,19.1501925 10.3856583,19.0076543 C10.1204915,18.3765263 9.91258906,17.619545 9.74946797,16.7761448 C9.6755207,16.3940378 9.57532078,15.8877291 9.4551768,15.2876266 C9.34555794,14.7404315 9.24111439,14.2227478 9.13666921,13.7074951 C9.07748111,13.4157096 9.07748111,13.4157096 9.03570422,13.2102241 C9.00437501,13.0562794 9.00437501,13.0562794 8.99815593,13.0256919 C8.98806139,12.9785864 8.97709063,12.930803 8.96458368,12.8791723 C8.94480559,12.7975252 8.86343625,12.4830306 8.8607238,12.4723423 C8.81191999,12.2800325 8.77055182,12.1039478 8.72687285,11.8969485 C8.61183595,11.3517765 8.49569842,10.6551949 8.36635831,9.69413472 C8.27999332,9.05240072 8.17021076,8.54411905 8.04382591,8.15576821 C7.87231964,7.62876988 7.73971983,7.46251965 7.72474965,7.45736572 L7.65346473,7.42351803 C7.13477727,7.10198449 6.56476123,7.0663883 5.88502249,7.27798377 C5.34610412,7.44574335 4.8208227,7.72570228 3.97226294,8.25933033 C3.89105509,8.31039896 3.60446834,8.49173639 3.54786278,8.52739134 C3.3821927,8.63174431 3.25307217,8.71179609 3.12928956,8.78639503 C2.58965047,9.11161441 2.16165947,9.5981959 1.80582135,10.233937 C1.53475323,10.7182279 0.984988096,12.1174842 1.00771378,12.0705966 C0.758311492,12.5851631 0.660513433,13.3909765 0.733999388,14.0097189 C0.75947457,14.2242168 0.783340911,14.5691925 0.805981669,15.0133804 C0.819351353,15.2756796 0.831447969,15.5563427 0.842069883,15.8369538 C0.848442174,16.0052977 0.852911366,16.136341 0.854366944,16.2505046 C0.535533994,20.366789 0.847360926,23.1722449 1.655027,25.9340166 C1.70444732,26.1030068 2.3036878,27.9959067 2.42087064,28.4805359 C2.7657683,29.9069177 2.8408452,31.0572805 2.76089887,31.8970593 C2.75042899,32.0070378 2.73949638,32.0846506 2.73507466,32.1034104 C2.57439235,33.5417198 2.37120197,40.432201 2.16876218,49.6335372 C2.16442376,49.8307277 2.00201142,49.987044 1.80600406,49.9826794 C1.6099967,49.9783148 1.45461831,49.8149221 1.45895673,49.6177316 C1.66264184,40.3597928 1.86504326,33.4960663 2.0333284,31.9980748 C2.03772577,31.9743436 2.04570828,31.9176742 2.05415353,31.8289629 C2.12667634,31.0671629 2.05682147,29.9968147 1.73100917,28.6493635 C1.62075133,28.1933738 1.02958384,26.3259751 0.973914411,26.1356164 C0.142340876,23.2920944 -0.179147803,20.3997133 0.145636329,16.2339974 C0.143329814,16.1602918 0.138912994,16.0307842 0.132604824,15.8641342 C0.122092636,15.5864219 0.110125443,15.3087616 0.0969339827,15.049959 C0.0750859185,14.6213229 0.0520329306,14.2881038 0.0290344048,14.0944591 C-0.0595449563,13.348632 0.0547230098,12.4071138 0.369557764,11.7575471 C0.326557576,11.846265 0.887072271,10.4196491 1.18717952,9.88347684 C1.59907002,9.14759242 2.10748232,8.56958023 2.76443603,8.17365992 C2.88354852,8.10187547 3.00903594,8.02407614 3.17109648,7.92199676 C3.22679627,7.88691233 3.5136787,7.70538782 3.59593567,7.65365944 C4.49412895,7.08881868 5.06044273,6.78699076 5.67515638,6.59563692 C6.20563995,6.430503 6.7048767,6.38540656 7.17563119,6.47752208 C7.21657177,6.26084376 7.28437767,6.01662962 7.38041201,5.78140407 C7.64474331,5.13395359 8.08472526,4.61556117 8.7318322,4.31678334 C9.72342471,3.85926744 10.993134,3.71137149 11.8858554,3.99497673 C11.9048914,3.95761282 11.9253386,3.91811176 11.947165,3.87667739 C12.1145444,3.55893023 12.3047784,3.24104476 12.5154414,2.94262781 C13.0857545,2.13474473 13.6993794,1.60707559 14.3776329,1.50741247 C15.9351714,1.2785465 16.8576636,1.55486196 17.7853275,2.66552951 C17.9139372,2.81951057 18.0214755,3.00569698 18.1102028,3.2216389 C18.2076243,3.11352006 18.3211499,2.99892439 18.4498073,2.88420396 C19.0484945,2.35037002 19.7193239,2.05983474 20.4414255,2.16660346 C21.4245883,2.31197228 22.2673281,2.91673621 22.8048031,3.87296479 C23.4771556,0.834524289 24.7707657,-0.198963946 26.3507167,0.0308078831 C27.3055445,0.169787306 27.3783768,0.804644977 27.1529962,2.62466081 C27.1437484,2.69938476 27.1437484,2.69938476 27.1346397,2.77381696 C27.1180976,2.90967861 27.1057425,3.01700488 27.095141,3.11913071 C26.9871945,4.1596615 27.0976504,5.13117033 27.4682542,6.85356248 C27.7729814,8.26979154 27.7619829,8.77703518 27.4529889,9.59461887 C27.3152117,9.95807955 27.1960706,10.8907052 26.8282705,14.211519 C26.725535,15.1391026 26.6579519,15.7299293 26.5884855,16.2941927 C26.4684442,17.2716099 26.4339383,17.5397253 26.3816574,17.8730807 C26.2593811,18.6527435 26.1276244,19.038139 25.8358129,19.4275495 C25.7098434,19.5956507 25.5755035,19.7418527 25.2878113,20.0342247 C25.0799178,20.2454998 24.8808443,20.5174427 24.6400311,20.9075653 C24.5148163,21.1104161 24.063207,21.8852672 24.0060519,21.9809253 C23.7254849,22.4504984 23.4793191,22.8267563 23.2038858,23.1926904 C22.9659009,23.5088713 22.7155392,23.8028739 22.4443273,24.0801589 C21.0305314,25.525614 19.2082773,27.1218685 18.5728235,27.4809279 C17.8790055,27.8729657 17.0959166,29.0975319 17.0471451,30.3118707 C17.0143668,31.1280003 16.9580962,31.8588354 16.6806475,35.2495142 C16.6671961,35.4139777 16.6671961,35.4139777 16.6537667,35.5785738 C16.542235,36.9465984 16.4703405,37.8720519 16.4140337,38.6921679 C16.2905909,40.4906291 16.3128547,44.8623319 16.4008849,49.6362422 C16.4045213,49.8334471 16.2485623,49.9962789 16.0525406,49.9999373 C15.856519,50.0035957 15.6946641,49.8466952 15.6910277,49.6494904 C15.6024462,44.8456805 15.5801742,40.4723701 15.7057415,38.6429566 C15.7623132,37.8189817 15.834399,36.8910662 15.9461635,35.5201861 C15.959603,35.3554657 15.959603,35.3554657 15.9730617,35.1909135 C16.2489764,31.818981 16.3055853,31.0837531 16.3377446,30.2830341 C16.3967125,28.8148192 17.3214028,27.3688219 18.2251461,26.8581671 C18.7849338,26.5418623 20.5693623,24.9787422 21.9382644,23.5791864 C22.18725,23.3246252 22.4177778,23.0539138 22.6378724,22.7615015 C22.8958943,22.4186998 23.1289502,22.0624801 23.3975452,21.6129439 C23.4505709,21.524197 23.9059786,20.7428287 24.0368885,20.5307519 C24.3033434,20.0990893 24.5310743,19.7879991 24.783247,19.5317245 C25.0487735,19.2618789 25.1683275,19.1317682 25.2688899,18.9975718 C25.4780764,18.7184209 25.5745965,18.4360945 25.6803537,17.7617618 C25.7308333,17.4398919 25.7650764,17.173818 25.883877,16.2065033 C25.9529048,15.6458025 26.0202238,15.0572842 26.1226579,14.1324219 C26.5128799,10.6091644 26.6167417,9.79614368 26.7894856,9.34044005 C27.0441398,8.66663653 27.0521783,8.29590972 26.7743463,7.00467723 C26.3890647,5.21406928 26.2713668,4.17886401 26.3889996,3.04496386 C26.4001108,2.93792775 26.4129158,2.82669326 26.4299276,2.68697402 C26.4391723,2.61143058 26.4391723,2.61143058 26.4484632,2.53635893 C26.6155353,1.18720214 26.5693166,0.784327966 26.2490973,0.737718614 C24.9524655,0.549149812 23.9032316,1.49056828 23.3493849,4.79689587 C23.3333494,4.89262362 23.3302961,5.12286988 23.337704,5.41091953 C23.4112537,5.8302567 23.4424083,6.28312956 23.4250572,6.76553732 C23.4557316,7.05104681 23.4927371,7.28975558 23.5338522,7.4140646 C23.7559877,8.08567806 24.1427461,8.44746392 24.7545386,8.50761719 C24.9496643,8.52680253 25.0923854,8.70149076 25.0733152,8.89779427 C25.054245,9.09409778 24.8806049,9.23768042 24.6854792,9.21849508 C24.0795299,9.15891635 23.6088748,8.88965927 23.271584,8.44635014 C23.2038711,8.95187954 23.1154063,9.46744194 22.9975627,10.0823165 C22.997335,10.0835042 22.8885793,10.6463265 22.8587322,10.8047575 C22.6606876,11.8559932 22.5685114,12.5896574 22.5452587,13.5208105 C22.4839125,15.9774191 21.2687989,17.7682181 19.7884266,17.8540211 C19.1585563,17.890094 18.6643291,17.7191807 18.3195941,17.3863296 C18.3184102,17.4063502 18.317381,17.420634 18.3165215,17.4283226 C18.3265952,17.8059555 18.2547582,18.2625997 18.0239232,18.7159553 C17.6572493,19.4360963 16.9819797,19.9081746 15.9390997,20.0020248 C15.6330799,20.0025151 15.2019656,19.9397744 14.7630476,19.747202 C14.6641017,19.7037901 14.5697659,19.655327 14.4805153,19.6017003 C14.3436054,20.1029402 14.1118116,20.4629991 13.801209,20.6917788 C13.5022625,20.9119731 13.1886795,20.9769342 12.9189504,20.9548276 C11.9949227,21.0683535 11.2982215,20.6137886 10.7726723,19.7685902 C10.7594879,19.7818398 10.7459671,19.7945721 10.7321117,19.8067882 C10.5590343,19.9593878 10.367146,20.0088728 10.1953794,19.9937789 C8.36066428,20.1447058 7.38733193,18.8377296 6.25604554,16.0341442 C6.03016469,15.47436 5.78542111,14.9687673 5.48011178,14.4113951 C5.45604818,14.3674646 5.4317417,14.3234333 5.40679278,14.2785723 Z M22.7139529,6.78122368 C22.6698393,6.3623747 22.6404027,5.88017811 22.6298415,5.47529472 C22.3498212,3.96844791 21.447147,3.03724569 20.338188,2.87327687 C19.8596247,2.8025173 19.3777565,3.01121372 18.9207301,3.41873237 C18.7764609,3.54737348 18.6462637,3.68603324 18.5331563,3.82442613 C18.4664029,3.90610257 18.4213823,3.9677426 18.4005742,3.99902387 C18.383703,4.02438668 18.3641639,4.04687752 18.3425827,4.06637159 C18.3853912,4.31109994 18.4158034,4.57640941 18.4353254,4.86066787 C18.4781015,5.48352778 18.4643667,6.14537915 18.4156952,6.78307314 C18.3988236,7.00412542 18.381844,7.17044318 18.3723096,7.24216798 C18.3654542,7.35839681 18.3550658,7.57419844 18.3446465,7.87021899 C18.3029084,9.05603973 18.3029084,10.3316912 18.3723421,11.5408982 C18.4065108,12.1359544 18.4203645,12.8668636 18.4170134,13.7044218 C18.4143889,14.3603597 18.4014188,15.0541976 18.3808758,15.7570763 C18.4254664,15.8120845 18.4542408,15.880974 18.4596418,15.9571542 C18.5176902,16.7759276 18.9212876,17.1882612 19.7478328,17.1409247 C20.7973114,17.0800964 21.7824283,15.6282598 21.8355034,13.5028719 C21.8598595,12.5275305 21.9565652,11.7578145 22.161171,10.6717511 C22.1913859,10.5113683 22.3004775,9.94680769 22.3004236,9.94708854 C22.5235225,8.78302239 22.6375923,7.99212398 22.7058654,6.93217471 C22.7091324,6.88145505 22.7118252,6.83113667 22.7139529,6.78122368 Z M13.8707879,19.041726 C13.7352761,18.8475915 13.6348848,18.6233715 13.5757368,18.3676174 C13.2889875,17.1259696 13.1361263,16.2445888 13.0017876,15.0946291 C12.7654968,13.0706478 12.6090018,11.2923362 12.5586133,9.37157418 C12.542018,8.7389764 12.5447737,8.2545799 12.5611448,7.53911846 C12.5846761,6.51073476 12.5799948,6.25165657 12.5089975,5.85744323 C12.4712689,5.64795525 12.4138736,5.44263794 12.3304085,5.22224974 C12.256481,5.02922762 12.1144184,4.87972331 11.9012706,4.76932849 C11.2338967,4.42746313 9.97145638,4.5306281 9.02788917,4.96598536 C8.2901705,5.30659983 7.91542088,6.08066799 7.84899811,6.71459232 C7.90030253,6.74132334 7.95124387,6.77000393 8.00182641,6.80066068 C8.24377986,6.91307848 8.49831347,7.25675161 8.71856195,7.93352326 C8.85929332,8.36595756 8.9780901,8.91597412 9.06991832,9.59830262 C9.19703762,10.5428611 9.31032272,11.2223341 9.42137587,11.7486267 C9.46291278,11.9454746 9.50209459,12.1122529 9.54863701,12.2956518 C9.55010846,12.30145 9.6330475,12.6220115 9.65437502,12.7100549 C9.66831284,12.7675925 9.68069205,12.8215104 9.69292041,12.878658 C9.69990307,12.9129013 9.69990307,12.9129013 9.73127106,13.0670366 C9.77309046,13.2727311 9.77309046,13.2727311 9.83233043,13.5647724 C9.93687595,14.0805201 10.0414231,14.5987173 10.1390117,15.0858424 C10.2715993,15.7480789 10.372066,16.2557359 10.4463697,16.6396848 C10.88079,18.8858082 11.684826,20.4088945 12.8651412,20.2415607 L12.9739816,20.2430855 C13.0855555,20.2530338 13.2356089,20.2231422 13.3817947,20.1154665 C13.6148137,19.9438322 13.7922684,19.6065949 13.8707879,19.041726 Z M12.9933855,4.96668812 C13.0927019,5.22892301 13.1619621,5.47668397 13.2076023,5.7301018 C13.2906296,6.19111135 13.2957159,6.47260623 13.270936,7.55555644 C13.254811,8.2602669 13.2521155,8.73406126 13.2683454,9.35272989 C13.3180365,11.2469074 13.4729362,13.0070901 13.706917,15.0112849 C13.8381745,16.1348693 13.9865037,16.9901189 14.2672711,18.2058646 C14.3651116,18.628924 14.6358253,18.9121499 15.0468618,19.0924895 C15.2397443,19.1771154 15.4504417,19.2325256 15.6620558,19.2633222 C15.7782105,19.2802263 15.8694798,19.2866954 15.9231031,19.2876385 C16.6785001,19.2145368 17.136646,18.8918713 17.3920232,18.390315 C17.5597033,18.0609944 17.6140107,17.7157803 17.6074928,17.4666651 C17.6105345,17.3658423 17.6159945,17.2478749 17.6230266,17.0829672 C17.6347616,16.8077752 17.6464997,16.5021931 17.6574561,16.1745182 C17.6857516,15.3282762 17.7038984,14.4866825 17.7070398,13.7015468 C17.7103371,12.8774579 17.6967431,12.1602532 17.6635445,11.5820909 C17.592658,10.347584 17.592658,9.05109868 17.6351119,7.84494258 C17.6457407,7.54296891 17.6564003,7.32153489 17.6656331,7.17721754 C17.6759446,7.09326354 17.6918182,6.93777973 17.7077997,6.72838943 C17.7540469,6.12245818 17.7671026,5.49332801 17.7270346,4.90990008 C17.6694279,4.07109238 17.5053452,3.4406031 17.2417658,3.12502641 C16.4867206,2.22103063 15.8110108,2.01863425 14.4802431,2.21417833 C14.0452706,2.27809354 13.5620064,2.69366277 13.0942928,3.35620743 C12.9031227,3.62701141 12.7283831,3.91900552 12.5744967,4.21113793 C12.5540356,4.24998067 12.53496,4.28683927 12.5173106,4.32148712 C12.7320134,4.49188539 12.894165,4.707622 12.9933855,4.96668812 Z"></path>
                </g>
            </g>
            <g id="slices"></g>
        </g>
    </g>
</svg>