<?xml version="1.0" encoding="UTF-8"?>
<svg width="50px" height="50px" viewBox="0 0 50 50" version="1.1" xmlns="http://www.w3.org/2000/svg" xmlns:xlink="http://www.w3.org/1999/xlink">
    <!-- Generator: Sketch 49.1 (51147) - http://www.bohemiancoding.com/sketch -->
    <title>b</title>
    <desc>Created with Sketch.</desc>
    <defs></defs>
    <g id="Finger" stroke="none" stroke-width="1" fill="none" fill-rule="evenodd">
        <g id="Finger-Alphabet" transform="translate(-100.000000, 0.000000)">
            <g id="letters" transform="translate(11.000000, 0.000000)" fill="#1D1D1B" fill-rule="nonzero">
                <g id="b" transform="translate(104.000000, 0.000000)">
                    <path d="M12.0922678,26.8583874 C11.9602386,26.4419432 11.9018836,26.0632479 11.9000704,25.5004742 C11.6725302,25.3230851 11.5075549,24.9716731 11.3041513,24.3754632 C11.2373711,24.1797194 11.0067881,23.4548174 10.9792872,23.3710493 C10.9487911,23.2781579 10.919938,23.1922352 10.891837,23.1108989 C9.7774847,23.2279546 8.59540573,22.6741101 7.77205384,21.749794 C6.70961001,20.5569422 6.59839243,19.4835264 7.07937641,18.6346953 C7.1800845,18.4569677 7.28347146,18.331471 7.36012695,18.2595383 C7.43304333,18.1911143 7.537156,18.1645691 7.63505643,18.1894405 C7.63757851,18.1899804 7.64001794,18.1906346 7.64244556,18.1913191 C7.73233037,18.2141879 7.88415461,18.2534057 8.07770762,18.3044176 C8.40934207,18.3918215 8.7410306,18.4817624 9.05097162,18.5693422 C9.14354213,18.5954998 9.23295943,18.6211107 9.31887688,18.6460979 C10.0370218,18.8549546 10.4118638,18.9827616 10.5553913,19.1038691 C10.5621529,19.1094816 10.5687038,19.1154405 10.5750181,19.121744 C10.6363819,19.0974683 10.7310365,19.0978699 10.8500596,19.0919343 C11.0698227,19.0809747 11.3582711,19.0496663 11.7190313,19.000034 C11.8231776,18.9857059 11.9325338,18.9699728 12.0521024,18.9522102 C12.0807814,18.9479497 12.7883719,18.8396253 12.9218271,18.8219922 C13.7284796,18.7155831 14.2972299,18.8876727 14.8010776,19.4971109 C15.8800942,20.8023866 17.8018821,26.0123272 18.0249157,27.9343115 C18.1338395,28.873876 17.9903685,29.7692275 17.6319779,31.1113496 C17.5914706,31.2630437 17.4326049,31.3539745 17.2771415,31.3144494 C17.121678,31.2749242 17.0284876,31.1199104 17.0689949,30.9682163 C17.4100961,29.6908408 17.5452669,28.8472876 17.4468263,27.9981502 C17.235326,26.1755527 15.3505741,21.0660163 14.3482577,19.8535242 C13.9843906,19.4134021 13.6190441,19.3028574 12.999832,19.3845404 C12.8735592,19.4012245 12.1745423,19.5082364 12.139668,19.5134172 C12.0181162,19.5314745 11.9066933,19.5475049 11.8002562,19.5621482 C11.0986905,19.6586673 10.678588,19.6984225 10.4189674,19.6455189 C9.66130339,20.205611 8.85996023,20.0765006 7.86214235,19.5740834 C7.75736059,19.5249671 7.63022388,19.4176299 7.51565557,19.2348587 C7.50082134,19.2111936 7.48652706,19.1866929 7.47279265,19.1613476 C7.2597449,19.7599978 7.42384882,20.4934532 8.21116364,21.3774057 C9.40466349,22.7172595 11.4214133,23.1226046 12.5302316,21.4183089 C12.6163344,21.2859655 12.796086,21.2467878 12.9317179,21.3308031 C13.0673499,21.4148183 13.1075011,21.5902116 13.0213982,21.722555 C12.5885502,22.3878587 12.046607,22.7937762 11.4631686,22.9879305 C11.4858939,23.0545736 11.5091399,23.124175 11.5333339,23.1978702 C11.5624523,23.2865653 11.791618,24.0070114 11.8561496,24.1961642 C12.0429037,24.7435718 12.1989189,25.0345185 12.2827547,25.0684017 C12.2861574,25.0694914 12.2895322,25.0706405 12.2928777,25.0718479 C12.3755758,25.0984433 12.4839514,25.116648 12.610713,25.1258085 C12.7777163,25.137877 12.9606307,25.1336828 13.1368895,25.1192027 C13.1982169,25.1141645 13.243163,25.1092286 13.2661293,25.1061958 C13.425332,25.0851726 13.5718575,25.1940601 13.5934032,25.3494028 C13.6149488,25.5047455 13.5033556,25.6477183 13.3441529,25.6687415 C13.3119509,25.6729939 13.2573894,25.6789857 13.185699,25.6848753 C12.981397,25.7016591 12.7695637,25.7065165 12.5677436,25.6919319 C12.5396276,25.6899001 12.5119804,25.687504 12.4848127,25.6847259 C12.5006509,26.2011169 12.579753,26.5303489 12.7484803,26.9776052 C12.7654682,27.0225262 12.7654682,27.0225262 12.782679,27.0679926 C12.8241391,27.1777641 12.9339728,27.3634822 13.0918279,27.5934835 C13.1250807,27.6419343 13.1601656,27.6919404 13.1968601,27.7432531 C13.2988912,27.8859309 13.4085926,28.0321709 13.5183324,28.1736847 C13.5841269,28.2585291 13.6350999,28.3226757 13.6637387,28.3580481 C13.7633285,28.4810535 13.7418686,28.6595451 13.6158068,28.7567202 C13.4897449,28.8538954 13.3068181,28.8329558 13.2072283,28.7099505 C13.1762198,28.6716512 13.12281,28.6044381 13.0543979,28.5162181 C12.9404603,28.3692912 12.8264843,28.2173528 12.7197497,28.0680978 C12.680998,28.0139084 12.6438256,27.9609269 12.6084316,27.9093563 C12.4904299,27.7374229 12.3953475,27.5863679 12.3261746,27.456723 C12.1713712,27.6763161 12.0023339,28.0226295 11.893462,28.388571 C11.8486735,28.5391148 11.6872929,28.6257266 11.5330084,28.582024 C11.3787238,28.5383215 11.2899598,28.3808537 11.3347483,28.23031 C11.5054809,27.6564415 11.7904498,27.1275871 12.0922678,26.8583874 Z M9.73391398,19.3682132 C9.57041803,19.3153762 9.37032529,19.2534132 9.15269902,19.1901213 C9.06828057,19.1655701 8.98030661,19.1403726 8.88914264,19.1146125 C8.59683664,19.0320157 8.28424173,18.9471011 7.97067996,18.8642424 C7.98375127,18.89087 7.99753913,18.9156516 8.01196047,18.9386581 C8.06561396,19.0242516 8.10669904,19.0589384 8.12147211,19.0659906 C8.77383712,19.3943873 9.28394838,19.5239514 9.73391398,19.3682132 Z M12.0073977,3.27346761 C12.2511682,2.99123093 12.5960292,2.83429339 13.0478235,2.85421622 C14.6346734,2.92434701 15.2872278,3.9761843 15.788782,7.59238637 C15.8424365,7.97933282 15.8985847,8.35956418 15.9581146,8.74116362 C16.1007973,9.65579183 16.6001132,12.4610934 16.6921272,13.0609705 C16.8729141,14.2395959 16.9749707,15.2679919 17.0122761,16.427195 C17.0620185,17.9710473 17.2156861,18.9919717 17.5171642,20.1961341 C17.5472425,20.3162724 17.6950947,20.8889684 17.7342368,21.0475591 C17.8317478,21.4426419 17.8985986,21.7632066 17.9512588,22.1160497 C17.9550022,22.155201 17.9622628,22.2290445 17.9727671,22.3326151 C17.9902978,22.5054658 18.0105265,22.6981281 18.0331785,22.9056317 C18.0978794,23.4983218 18.1689958,24.0909319 18.2442923,24.6434996 C18.3499739,25.4190499 18.4551999,26.0506551 18.556079,26.4835362 C18.8909991,27.9208282 18.741067,29.9045724 18.1651915,31.6873763 C17.9738161,32.2797994 17.6620771,33.4550639 17.2650617,35.0547229 C17.2302185,35.1951136 17.1948497,35.3382531 17.1589909,35.4839774 C16.9301696,36.4138709 16.6907844,37.4103808 16.4552786,38.4069179 C16.3728465,38.7557271 16.2967897,39.0796148 16.2289114,39.3702659 C16.1881954,39.5446093 16.159262,39.6690944 16.1490779,39.7059559 C16.0520353,40.5130277 16.1305011,41.6285889 16.4131654,43.1068746 C16.6408192,44.2974266 17.3526857,46.587479 18.4085009,49.6249173 C18.460103,49.7733697 18.3786,49.9345317 18.2264588,49.9848827 C18.0743176,50.0352336 17.909151,49.9557067 17.8575488,49.8072544 C16.7923942,46.7429476 16.0758507,44.4378496 15.8412549,43.2109932 C15.5487339,41.6811583 15.4664577,40.5114252 15.5764257,39.610355 C15.5918543,39.5436945 15.6208705,39.4188532 15.6616729,39.2441395 C15.7296586,38.9530289 15.8058266,38.6286677 15.8883758,38.2793629 C16.124245,37.2812882 16.3640126,36.2831864 16.5932893,35.3514422 C16.6292349,35.205365 16.6646922,35.0618672 16.6996261,34.9211114 C17.0998686,33.3084495 17.4135641,32.125809 17.6103218,31.5167243 C18.1568866,29.8246611 18.2992094,27.9415946 17.9887797,26.6094019 C17.8830574,26.1557382 17.7754251,25.5096896 17.667588,24.7183206 C17.5915481,24.1602971 17.5198677,23.5629881 17.4546714,22.965759 C17.4318594,22.7567909 17.4114839,22.5627295 17.3938154,22.3885204 C17.3832001,22.2838551 17.375836,22.2089587 17.3738196,22.183629 C17.3258587,21.864744 17.2623452,21.5601828 17.1686279,21.1804706 C17.1303719,21.02547 16.9828353,20.4539967 16.9520042,20.3308513 C16.6413619,19.0900854 16.4818645,18.0304298 16.4307833,16.4450226 C16.3942349,15.309343 16.2943433,14.3027627 16.1167561,13.1449977 C16.0260513,12.5536558 15.5269012,9.74928529 15.3829599,8.82659005 C15.3229557,8.44194931 15.2663497,8.0586183 15.2122565,7.66850823 C14.7441111,4.29318311 14.2365185,3.4750065 13.0215289,3.42131005 C12.6215723,3.40367312 12.3874478,3.60995781 12.2518148,4.01204343 C12.1720861,4.24840013 12.1450745,4.49806156 12.1472622,4.6844654 L12.1475436,4.68784955 C12.2204113,5.56355247 12.2930584,6.28849942 12.3741082,6.97842458 C12.4057685,7.24792794 12.4376638,7.50404276 12.4773069,7.81078169 C12.4881221,7.89446413 12.5554034,8.40951025 12.5742738,8.55679636 C12.6608318,9.2323916 12.7169704,9.7447555 12.7695061,10.3812458 C12.8210321,11.0050897 12.8223198,11.7649909 12.7839266,12.6930387 C12.7655176,13.1380247 12.7398678,13.5890959 12.7010328,14.1861882 C12.5818513,16.0186158 12.5771277,16.1063604 12.5990188,16.4011366 C12.6033032,16.4624784 12.6114672,16.5706305 12.6230272,16.7098997 C12.6422895,16.9419616 12.6639874,17.1739448 12.6876002,17.3899365 C12.7032542,17.5331263 12.7192396,17.6643712 12.7354365,17.7809334 C12.7570216,17.9362709 12.6454647,18.0792707 12.4862673,18.1003324 C12.3270699,18.1213941 12.1805168,18.012542 12.1589318,17.8572045 C12.1419265,17.7348251 12.1253052,17.5983598 12.1091025,17.4501499 C12.0849054,17.2288135 12.0627773,16.9922309 12.0431463,16.7557269 C12.0313703,16.6138566 12.0230283,16.5033447 12.0186731,16.4409524 C11.9938004,16.1060677 11.996621,16.0536722 12.1204211,14.1502341 C12.1589973,13.5571201 12.1844259,13.1099392 12.2026202,12.6701422 C12.2401496,11.7629732 12.2388968,11.0236233 12.1896053,10.4268329 C12.1378281,9.79953229 12.0825636,9.29514559 11.9969877,8.62721579 C11.9782232,8.48075669 11.910997,7.96613244 11.9000987,7.88180688 C11.8602016,7.57310331 11.8280528,7.31495219 11.7961134,7.04307254 C11.7149457,6.35214425 11.6421616,5.62672747 11.5693277,4.75366176 C11.5675948,4.74266171 11.5665054,4.73144514 11.5660992,4.72004821 L11.5659832,4.71351228 C11.2845478,1.34078572 10.9415168,0.471239051 9.82211174,0.579625867 C8.92502716,0.666150029 8.65839002,0.995130215 8.6498573,1.68752995 C8.64840677,1.80523553 8.65298093,1.91065393 8.66597691,2.11288401 C8.6858641,2.42211804 8.69030255,2.83625654 8.68483066,3.36100269 C8.68195186,3.63707621 8.67643267,3.93152146 8.66904329,4.23147549 C8.66511576,4.39090373 8.66090776,4.54178676 8.65669886,4.67941239 C8.65417082,4.76207616 8.65220632,4.82188178 8.65107046,4.85454784 C8.65018546,4.87999316 8.64589422,4.90454229 8.63863863,4.92779236 C8.64695114,5.28885975 8.62220857,5.72790512 8.57687437,6.26128361 C8.54479591,6.63870191 8.52773405,6.87537193 8.51666307,7.13109644 C8.44927582,8.68533837 8.54480724,11.3269159 8.6530384,12.1071489 C8.75046642,12.8103317 8.86039218,13.8749831 8.91043922,14.8767281 C8.98975563,16.4643306 8.91228709,17.6099502 8.59871203,18.1689511 C8.52157613,18.306459 8.34480307,18.3569163 8.20387835,18.2816506 C8.06295363,18.2063849 8.01124257,18.0338979 8.08837847,17.8963901 C8.32922157,17.4670463 8.40292628,16.3770867 8.32934949,14.9043685 C8.28020962,13.9207816 8.17187581,12.8715486 8.07650962,12.1832469 C7.96336797,11.3676144 7.86664254,8.69302109 7.93540245,7.10711982 C7.94688532,6.84188107 7.96440437,6.59886932 7.99708506,6.21436541 C8.15274229,4.38298394 8.0629376,4.00605295 7.25709828,3.90459476 C6.68457923,3.83245027 6.37301994,3.99813392 6.1586953,4.43458921 C5.96758585,4.82376861 5.88338923,5.27142123 5.73848244,6.46119471 C5.70723041,6.71831698 5.67378346,7.01561541 5.63845376,7.34866768 C5.60738835,7.64152049 5.57511546,7.95967239 5.54190056,8.29925977 C5.47861339,8.94630441 5.41490193,9.63978038 5.35393259,10.3332862 C5.33259126,10.5760368 5.31311806,10.8014409 5.29590766,11.0037078 C5.28558577,11.1250169 5.27830868,11.2116936 5.27449023,11.2577181 L5.27431176,11.2597779 C5.27297063,11.501474 5.25702834,11.7587504 5.22616125,12.0301497 C4.96737623,14.3056528 4.91557639,15.7668562 5.0928578,17.0455379 C5.10291998,17.1181252 5.11368064,17.194333 5.13523882,17.3466363 C5.18822829,17.7223016 5.21706765,17.9479031 5.24052338,18.1916751 C5.38916164,19.7364507 5.11663909,20.7463627 4.09323661,21.3624174 C3.95650835,21.4447233 3.77728812,21.4032928 3.69293702,21.2698796 C3.60858592,21.1364665 3.65104599,20.9615916 3.78777424,20.8792857 C4.57296132,20.4066288 4.79141395,19.5970887 4.6612909,18.2447389 C4.63882609,18.0112655 4.61081079,17.7921103 4.5588924,17.4240384 C4.53737966,17.2720589 4.52650271,17.1950277 4.51632887,17.1216349 C4.33111639,15.7857486 4.38429274,14.2857156 4.64793099,11.9675379 C4.67638963,11.7173149 4.69231627,11.4853633 4.69610207,11.2719763 C4.69347883,11.2524416 4.69291252,11.2323419 4.69460756,11.2119116 L4.69697933,11.1834284 C4.69950913,9.84447577 4.20208608,9.27516681 3.30877542,9.55352584 C2.84723564,9.69739502 2.43127261,11.1677346 2.14327963,13.5325428 C2.03641951,14.4100076 1.79768526,17.036729 1.75831495,17.3276827 C1.74478359,17.4276819 1.73146293,17.5118251 1.71788113,17.5817803 C1.67051896,17.8256305 1.63696394,18.0553705 1.60718342,18.3251729 C1.59583067,18.4280253 1.58547229,18.5315731 1.57131066,18.680926 C1.44184729,20.0462868 1.33326007,20.7632343 0.949313942,22.3538545 C0.554268486,23.9901112 0.508506404,25.5517906 0.667155932,26.8835714 C0.697503053,27.1383198 0.727491843,27.3165674 0.750003878,27.4258732 L0.898440513,28.4721436 C1.2275541,31.0112983 1.6134413,33.0602673 2.05168354,34.7169093 C2.427596,36.1379324 2.81912954,37.2001803 3.27239325,38.1399321 C3.40825145,38.4216069 4.04663814,39.6098739 4.16954921,39.9112457 C4.21503267,40.0227689 4.25356793,40.1310595 4.28595642,40.2395867 C4.53340098,41.0685133 5.02563418,44.5456491 5.64954195,49.5328553 C5.66900824,49.6884591 5.55551254,49.8299989 5.39604221,49.8489932 C5.23657188,49.8679875 5.09151508,49.7572436 5.07204878,49.6016398 C4.45672338,44.6830367 3.96091305,41.1806321 3.72738343,40.3983198 C3.70034291,40.3077125 3.66785248,40.216409 3.62899901,40.1211422 C3.51947997,39.852607 2.89326757,38.6870006 2.74599617,38.3816628 C2.27717352,37.4096528 1.87331499,36.3139666 1.48836728,34.8587884 C1.04357614,33.1773903 0.653300808,31.1051213 0.321708181,28.5466839 L0.176999809,27.5222793 C0.170975028,27.4938515 0.161095363,27.4420463 0.148673873,27.3682154 C0.128341877,27.2473658 0.108100906,27.1072158 0.0892670275,26.9491151 C-0.0766417751,25.5563965 -0.0289914512,23.9302789 0.383032312,22.2236989 C0.759999899,20.6619895 0.864831715,19.9698371 0.992005055,18.6286277 C1.00641271,18.4766801 1.0170199,18.3706451 1.02874885,18.2643844 C1.06009184,17.9804265 1.0957913,17.7360043 1.14627201,17.4760978 C1.1575758,17.4178759 1.16931918,17.3436959 1.18154088,17.2533754 C1.21887674,16.9774567 1.45715811,14.3557182 1.56556439,13.4655574 C1.89407467,10.7680478 2.31897256,9.26612542 3.13176269,9.01276599 C3.91012653,8.77022484 4.48920933,8.95241395 4.84780012,9.46381401 C4.88579529,9.04757778 4.92434452,8.63800691 4.96275237,8.24532712 C4.99610674,7.90431375 5.02852994,7.58468009 5.05976564,7.29022193 C5.095373,6.95455222 5.1291262,6.65453159 5.16075972,6.39427073 C5.31454534,5.13159648 5.40346655,4.65882439 5.63403383,4.18929224 C5.95675108,3.5321039 6.50974093,3.23803026 7.33158101,3.34159229 C7.65642222,3.38249101 7.90830425,3.45325863 8.10035177,3.57111799 C8.10142871,3.49805036 8.10234288,3.42601075 8.103081,3.35522699 C8.10841648,2.84356148 8.10409166,2.44002504 8.0880505,2.19058191 C8.07146918,1.93260531 8.06644283,1.81676578 8.06811957,1.68070439 C8.08001765,0.715217403 8.55304771,0.131587093 9.76477326,0.0147157068 C11.1767548,-0.121999963 11.6931621,0.673118857 12.0073977,3.27346761 Z"></path>
                </g>
            </g>
            <g id="slices"></g>
        </g>
    </g>
</svg>