<?xml version="1.0" encoding="UTF-8"?>
<svg width="50px" height="50px" viewBox="0 0 50 50" version="1.1" xmlns="http://www.w3.org/2000/svg" xmlns:xlink="http://www.w3.org/1999/xlink">
    <!-- Generator: Sketch 49.1 (51147) - http://www.bohemiancoding.com/sketch -->
    <title>c</title>
    <desc>Created with Sketch.</desc>
    <defs></defs>
    <g id="Finger" stroke="none" stroke-width="1" fill="none" fill-rule="evenodd">
        <g id="Finger-Alphabet" transform="translate(-150.000000, 0.000000)">
            <g id="letters" transform="translate(11.000000, 0.000000)" fill="#1D1D1B" fill-rule="nonzero">
                <g id="c" transform="translate(150.000000, 0.000000)">
                    <path d="M19.6991788,20.4263594 C19.797656,20.5265062 19.8954211,20.6352839 19.9879456,20.7509292 C20.2016575,21.0180453 20.3611641,21.2879439 20.4433079,21.5587044 C20.4926303,21.7212798 20.4020288,21.8934269 20.2409436,21.9432056 C20.0798584,21.9929844 19.9092894,21.9015446 19.8599669,21.7389692 C19.8042695,21.5553808 19.6822648,21.3489384 19.5132938,21.1377435 C19.4234012,21.0253878 19.3263836,20.9192375 19.2294468,20.8232413 C19.2212887,20.8151623 19.213408,20.8074234 19.2058251,20.8000345 C19.1062871,20.8152752 18.9820089,20.8327177 18.8401859,20.8501335 C18.5747305,20.8827312 18.3131671,20.9064894 18.0667992,20.9176378 C17.4616334,20.9450222 17.0231044,20.8992681 16.7594885,20.725165 C16.5790358,20.6059891 16.4025716,20.4165367 16.2223873,20.1615225 C15.9169107,19.7291826 15.5998022,19.1061855 15.2755409,18.3380791 C15.0560428,17.8181348 14.8462096,17.2623392 14.6529682,16.706712 C14.585374,16.5123584 14.5246521,16.3318258 14.4717003,16.1696666 C14.4398041,16.0719878 14.4174967,16.0018482 14.4056825,15.9638124 L14.2601699,11.575266 C14.30184,11.3848464 14.3507623,11.2217334 14.4138857,10.9991182 C14.5193134,10.6273094 14.6247745,10.2269537 14.7231486,9.81372382 C14.8393464,9.32562368 14.9377619,8.85211999 15.0127304,8.40601907 C15.1256517,7.73408012 15.1803811,7.15344276 15.1677198,6.69366838 C15.0400276,6.77460222 14.908702,6.85197368 14.7738463,6.92561 C14.7655472,6.94625406 14.7563003,6.96900849 14.7461144,6.99377545 C14.6892187,7.13211692 14.6222533,7.28587904 14.5455451,7.45127098 C14.3263502,7.92388077 14.0723214,8.39663839 13.7854761,8.83954674 C13.4767343,9.31626472 13.1509084,9.72686864 12.8068437,10.0560711 C12.8145568,10.073627 12.8225643,10.0919778 12.8308455,10.1110954 C12.8404824,10.1333429 12.8501186,10.1557853 12.8597468,10.1784132 C12.8933039,10.1896255 12.9306715,10.2023109 12.9712738,10.2163561 C13.1564535,10.2804136 13.3417971,10.3499147 13.5159483,10.4228112 C13.769413,10.528907 13.9781665,10.6332603 14.1321287,10.7376358 C14.1879501,10.7754788 14.2370668,10.8136738 14.2795173,10.853153 C14.4034059,10.9683702 14.4112917,11.1631329 14.2971307,11.2881677 C14.1829697,11.4132025 13.9899923,11.4211612 13.8661037,11.3059441 C13.8485094,11.2895813 13.8235288,11.2701554 13.7919532,11.2487494 C13.678357,11.1717392 13.5015683,11.0833646 13.2822279,10.9915527 C13.239266,10.9735697 13.1953967,10.955746 13.1508589,10.9381341 C13.2388836,11.1969821 13.3126478,11.4497003 13.3683722,11.6917702 C13.4041973,11.8473965 13.4321318,11.9969479 13.4514454,12.1397851 C13.4742241,12.3082493 13.3573746,12.4634531 13.1904547,12.4864426 C13.0235348,12.509432 12.8697536,12.3915015 12.8469749,12.2230373 C12.8303402,12.1000125 12.8058673,11.9689932 12.7741263,11.8311083 C12.7126734,11.5641536 12.6256986,11.2782722 12.5197791,10.9835116 C12.4668715,10.8362763 12.4113657,10.6926571 12.3550266,10.5551283 C12.3523106,10.5490749 12.3497867,10.5429309 12.3474601,10.5367063 C12.3368976,10.5110577 12.3263086,10.4856266 12.3157048,10.4604291 C12.2461574,10.5086206 12.1759141,10.553532 12.1049667,10.5950543 C12.1009216,10.6237409 12.0963059,10.6551619 12.0910835,10.6891971 C12.060469,10.8887141 12.0188748,11.1103862 11.9646284,11.3487977 C11.8146808,12.007813 11.5985077,12.6671798 11.3030139,13.2879156 C11.5658568,13.9778922 11.5332118,14.9187978 11.2754029,16.0589081 C11.1442062,16.6391003 10.9579028,17.25276 10.7306918,17.8821036 C10.5675254,18.3340526 10.392839,18.7678598 10.2180801,19.1684661 C10.1563368,19.3100023 10.1025181,19.4295075 10.058943,19.5238979 C10.3142773,19.9545266 10.422301,20.5059912 10.4143878,21.1491041 C10.4081804,21.6535795 10.3310039,22.1882107 10.2064531,22.7229462 C10.1611489,22.9174513 10.1125916,23.0984627 10.0639236,23.2615385 C10.055701,23.2890909 10.0479605,23.3145404 10.04077,23.3377896 C11.1335609,25.3828983 10.9638277,29.0920819 9.98502409,31.1807386 C9.91299529,31.3344399 9.731147,31.4001084 9.57885458,31.3274132 C9.42656215,31.254718 9.36149563,31.0711874 9.43352444,30.917486 C10.3528009,28.9558537 10.500627,25.3475091 9.44590995,23.525956 C9.4007773,23.4480095 9.39181958,23.3539976 9.42140732,23.2687991 C9.43247525,23.2369288 9.45297375,23.173763 9.47977277,23.0839653 C9.52496568,22.9325337 9.57026931,22.7636511 9.61256861,22.5820471 C9.72773438,22.0876046 9.79877534,21.5954767 9.80436184,21.1414585 C9.81013961,20.6718962 9.74470802,20.2749444 9.60302888,19.9693718 C8.88643497,20.3393407 8.13322216,20.3047455 7.42868216,20.025294 C7.2284903,19.945889 7.07851021,19.8651275 6.98996301,19.8070651 C6.84869436,19.7144319 6.80857912,19.5237576 6.90036311,19.381182 C6.9921471,19.2386064 7.18107359,19.1981201 7.32234223,19.2907532 C7.37856631,19.3276206 7.49302387,19.3892539 7.65183106,19.4522438 C8.23638214,19.6841025 8.84569316,19.7016728 9.41144527,19.3739806 C9.43155287,19.3623339 9.4515799,19.3502545 9.47152552,19.3377373 C9.51721966,19.2407058 9.58169575,19.0992387 9.65972705,18.9203647 C9.82941207,18.5313895 9.99916958,18.1098225 10.1574841,17.6713126 C10.3765688,17.0644777 10.5556254,16.4746881 10.6806225,15.9219125 C10.8426736,15.2052728 10.9056569,14.5848854 10.8592592,14.0889855 C10.5264496,14.6056826 10.135299,15.0501235 9.6802014,15.4064587 C9.54709472,15.5106795 9.35547729,15.4862646 9.25221189,15.3519264 C9.14894649,15.2175883 9.17313764,15.0241981 9.30624432,14.9199774 C9.86489066,14.4825648 10.3218553,13.883313 10.6853693,13.159801 C10.6911588,13.1456567 10.6979907,13.1319366 10.705819,13.1187694 C10.7122605,13.1057399 10.718672,13.0926709 10.7250538,13.0795625 C11.0135401,12.487001 11.2248219,11.8491848 11.3700315,11.2109926 C11.4208743,10.98754 11.4597533,10.7803383 11.488197,10.5949686 C11.505027,10.4852862 11.5145451,10.4084083 11.518315,10.3698906 C11.5285456,10.2653648 11.5908726,10.173316 11.6836454,10.1257191 C11.8640306,10.033173 12.0426723,9.91055605 12.218781,9.76072227 C12.2303142,9.7489937 12.2428868,9.73811143 12.2564465,9.72822834 C12.6084018,9.42041014 12.9499718,9.00425066 13.2748135,8.50267332 C13.5444956,8.08626602 13.7851878,7.63832829 13.9930084,7.19024274 C14.1174789,6.92186976 14.2028105,6.71438672 14.2458002,6.59878396 C14.2722437,6.52767543 14.3237988,6.46894222 14.3905538,6.43387625 C15.9953024,5.59091133 17.0590645,4.18551884 17.3931051,2.55013244 C17.479719,2.12629412 17.4697222,1.80370105 17.3839968,1.55991682 C17.3687566,1.53392129 17.3572622,1.5056368 17.3500922,1.47593773 C17.3162831,1.40235236 17.2746607,1.33688906 17.2259528,1.27876601 C17.2221137,1.28819167 17.2181429,1.29784629 17.214041,1.30771903 C17.149524,1.46300055 17.0742083,1.61847154 16.9878501,1.7653731 C16.8870658,1.93681446 16.7773522,2.08599059 16.6562462,2.2069797 C16.5300574,2.33298015 16.3900171,2.43867612 16.2388727,2.52548611 C15.8852749,2.72857537 15.5312317,2.8074193 15.248077,2.81765743 C15.172009,2.86527413 15.0683125,2.93045103 14.94441,3.00876555 C14.662436,3.18699168 14.3804962,3.36724479 14.1175867,3.53819684 C14.0763923,3.5649998 14.0763923,3.5649998 14.0352699,3.5918276 C13.4655034,3.96379598 13.0667476,4.2417736 12.989894,4.32220973 C12.8679875,4.44979695 12.5101019,4.76804592 11.6709466,5.5028662 C10.7474206,6.31155017 10.5335108,6.50021493 10.3966555,6.63113603 C10.3238032,6.70084274 10.2310793,6.82990021 10.1155481,7.02103737 C10.0677628,7.10009426 10.0191405,7.18419371 9.95058086,7.30540261 C9.66049772,7.81825038 9.60607859,7.90930618 9.48152359,8.06091134 C9.36889716,8.19797108 8.69426875,9.25100403 7.69208002,10.8462843 L7.66087224,10.8959673 C7.26454334,11.5270066 6.84176865,12.2031896 6.42025922,12.8793821 C6.27272622,13.116057 6.13589167,13.3358243 6.01321751,13.5330451 C5.88709604,13.7358811 5.88709604,13.7358811 5.85914393,13.7808921 C5.7696768,13.9249599 5.58142989,13.9685515 5.43868269,13.8782567 C5.39764694,13.8522995 5.36483842,13.8181037 5.34104356,13.7791284 C5.05842262,14.5544004 4.85776878,15.0643846 4.70020739,15.4005641 C3.97848344,16.9406248 1.73682173,26.5942957 0.859164681,32.4594123 C0.426562612,35.3513696 0.586759021,37.3142776 1.11012013,39.0523965 C1.41027685,40.0495136 2.56834909,43.079534 3.05963117,44.0905805 C3.19940543,44.5044363 3.36860627,45.1074653 3.56372239,45.8727271 C3.61950849,46.0915249 3.67705411,46.3222199 3.73633196,46.5643342 C3.96139849,47.4835957 4.48120817,49.7443782 4.42577508,49.5132055 C4.46540174,49.6784606 4.36478782,49.8448472 4.2010476,49.8848405 C4.04164381,49.9237746 3.8811774,49.8285683 3.83622883,49.6710281 C3.81794417,49.5838797 3.35263182,47.5638757 3.14407219,46.712035 C3.08524457,46.4717596 3.02817249,46.242963 2.97289703,46.026168 C2.78137,45.2749829 2.61573985,44.6846798 2.49734064,44.3260944 C2.0056848,43.3201314 0.835763598,40.259109 0.526398589,39.2314021 C-0.0228137375,37.4074294 -0.190545829,35.3521857 0.255929951,32.3674822 C1.14208052,26.445606 3.39400231,16.7477503 4.1487141,15.137298 C4.34366369,14.7213455 4.62062384,13.9915082 5.05603516,12.7664932 C5.12106302,12.5835396 6.02612159,10.0075565 6.31520199,9.20300948 C6.5265365,8.61483904 6.72110869,8.08380554 6.90724878,7.58893138 C7.96916249,4.76571557 8.72960958,3.17061983 9.34401006,2.76092631 C9.37673788,2.73909819 9.41661603,2.7160846 9.463111,2.69201101 C9.78391301,2.00967042 10.446023,1.39291007 11.205861,1.17773174 C13.5929187,0.50206622 16.3514751,-0.105329341 17.1554336,0.0154162472 C17.5865618,0.0800856769 18.6766626,0.472740379 20.2375389,1.09550047 C20.5117345,1.09354034 20.7751025,1.12178281 21.0772792,1.18811107 C21.4106929,1.26126587 21.681282,1.47321786 21.8712031,1.76161934 C22.0277931,1.82668914 22.1743263,1.8879239 22.3086221,1.94432809 C22.4129645,1.9881519 22.4872237,2.01951332 22.5270891,2.03643066 C22.5876903,2.0621479 22.6384377,2.10693627 22.6717712,2.16412339 C22.7100114,2.22972845 22.7619682,2.3376375 22.8127572,2.47982014 C22.865374,2.62712004 22.9045154,2.77728546 22.9272434,2.92876496 C22.972921,2.99549272 23.0312932,3.096671 23.08867,3.22656421 C23.2909676,3.68453788 23.3350485,4.17457648 23.1091155,4.64342531 C22.9170518,5.04198959 22.5443243,5.37504622 21.9794645,5.62982615 C21.201003,5.98096766 18.8310916,5.58150791 17.017482,4.93859405 C16.6692557,5.43706592 16.2437694,5.88905468 15.7490592,6.28111638 C15.8194526,6.85157821 15.7658424,7.60670912 15.6142134,8.50897894 C15.5367531,8.96990704 15.4355661,9.45674529 15.3163403,9.95756491 C15.2157905,10.3799339 15.1081188,10.7886815 15.0004137,11.1685218 C14.9460264,11.3603282 14.9016673,11.5099034 14.8715384,11.6081246 L15.0003356,15.8194512 C15.0123428,15.8573339 15.0293768,15.910364 15.0511184,15.9769453 C15.1028884,16.1354852 15.1623608,16.312303 15.2286096,16.5027883 C15.4177768,17.0467007 15.6230601,17.5904448 15.836795,18.0967375 C16.1452146,18.827318 16.4446718,19.4156372 16.7191019,19.8040371 C16.8590998,20.0021756 16.9872472,20.1397549 17.0935417,20.2099547 C17.2105149,20.2872088 17.5637633,20.3240651 18.0394732,20.3025387 C18.2687489,20.2921637 18.5153657,20.2697632 18.7664995,20.2389241 C18.9054318,20.2218633 19.026285,20.2048309 19.1209234,20.1902699 C19.1642929,20.1244058 19.2189499,20.0436511 19.2836831,19.951297 C19.4696971,19.6859134 19.6730448,19.4204526 19.8879625,19.1716069 C20.267485,18.7321709 20.6420626,18.3912718 21.0074848,18.1849207 C21.0428917,18.1649267 21.0781814,18.1462302 21.1133614,18.1288627 C21.2722345,17.4431516 21.8428634,16.5218263 23.0902999,15.6213947 C23.2468486,15.5083938 23.4119833,15.3981177 23.5859085,15.2907631 C25.1095625,14.3503008 26.3625144,14.2577664 27.3043459,14.8525169 C27.9727092,15.2745768 28.4239634,16.0457923 28.5042482,16.6376649 C28.6098304,17.4160335 26.7082194,19.8797872 25.8245386,20.3273474 C25.7741154,20.398456 25.7051134,20.4939956 25.6210622,20.6075467 C25.4272041,20.8694441 25.2234362,21.131436 25.0188153,21.3767547 C24.8912009,21.5297508 24.7670282,21.6716205 24.6473503,21.8002373 C24.5252515,21.9314558 24.408834,22.0478023 24.2985596,22.1478115 C24.0839529,22.3424057 23.7583872,22.668293 23.354074,23.0895256 C23.3114802,23.1339351 23.3114802,23.1339351 23.2689301,23.1784255 C23.0064262,23.4530872 22.7298064,23.7476074 22.4563994,24.0421597 C22.2923496,24.2188971 22.165911,24.3562784 22.1190803,24.4037155 C21.6716722,25.0412199 21.2542768,25.5410145 20.8183784,25.9815424 C20.6491832,26.1525346 20.4835073,26.3088184 20.2843802,26.4881042 C20.2250842,26.541492 19.9056751,26.8249463 19.820052,26.9028762 C19.5619748,27.1377649 19.3817196,27.322757 19.2112046,27.5360907 C19.1183871,27.6521967 17.7743817,29.7946266 17.1616828,30.6145446 C16.0689246,32.0768814 14.9571835,33.113644 13.7382483,33.6431779 C13.450061,33.7684437 13.3380987,36.5363086 13.6090519,37.6860291 C14.1667605,40.0526004 15.7923629,44.2081727 18.1695236,49.5662537 C18.2383704,49.7214332 18.1695371,49.9035589 18.01578,49.9730426 C17.8620228,50.0425264 17.6815667,49.9730562 17.6127199,49.8178766 C15.2196468,44.4239295 13.5851667,40.2456628 13.0155356,37.8285 C12.6725776,36.3732451 12.793518,33.3834284 13.4969866,33.0776531 C14.5994744,32.5987066 15.6398955,31.6284541 16.6746038,30.2438001 C17.114261,29.6554476 17.9761037,28.3103178 18.4369875,27.6000187 C18.445001,27.5727289 18.4569287,27.5461117 18.4729415,27.5209608 C18.6184698,27.2923839 18.6935139,26.4534468 18.5691703,25.5587427 C18.4013859,24.3514635 17.9248597,23.1493869 17.1109583,22.1080405 C17.0066222,21.9745477 17.0292664,21.7809669 17.1615355,21.6756655 C17.2938047,21.5703642 17.485611,21.5932179 17.5899471,21.7267107 C18.7463687,23.2062945 19.2919961,25.1959145 19.2718374,26.574961 C19.3162489,26.5330161 19.3626725,26.4900528 19.4114828,26.4456282 C19.5005783,26.3645379 19.8216951,26.079568 19.8782524,26.0286462 C20.0692784,25.8566542 20.2267265,25.7081317 20.3866994,25.5464599 C20.7983548,25.1304325 21.1936222,24.6571341 21.6459992,24.0169788 C21.7185573,23.9376326 21.8460064,23.7991534 22.0111728,23.6212131 C22.2864594,23.3246359 22.5650412,23.0280266 22.8298366,22.7509673 C22.8728256,22.706018 22.8728256,22.706018 22.915887,22.661121 C23.3294572,22.2302439 23.6628577,21.8965142 23.8908141,21.6898152 C23.9872122,21.6023905 24.0916326,21.4980338 24.2026364,21.3787391 C24.314244,21.2587953 24.4312182,21.1251501 24.5520978,20.9802282 C24.7483285,20.7449685 24.9450356,20.492055 25.1323136,20.2390471 C25.244622,20.0873212 25.328515,19.9697216 25.3743981,19.903537 C25.410934,19.8508352 25.4629079,19.8110065 25.5230213,19.7896438 C26.1042604,19.5830873 27.9654852,17.2053239 27.899813,16.7211778 C27.8429643,16.3020801 27.4874173,15.6944329 26.9807497,15.374481 C26.2524502,14.9145724 25.2440175,14.9890482 23.9042108,15.8160324 C23.7427139,15.9157156 23.5897881,16.0178387 23.4452009,16.1222055 C22.7318961,16.6370872 22.2481505,17.1828023 21.9489038,17.7231326 C21.8189283,17.9578209 21.7447725,18.1481486 21.7089048,18.2785554 L22.4719562,19.3716498 C22.5689834,19.5106442 22.5359951,19.7027051 22.3982749,19.8006299 C22.2605547,19.8985547 22.0702543,19.8652613 21.9732272,19.7262669 L21.2818125,18.7357944 C20.9950779,18.9035755 20.6763445,19.1958277 20.3478522,19.5761776 C20.1477127,19.8079122 19.956632,20.0573589 19.7817346,20.3068828 C19.7517716,20.3496306 19.7242011,20.3895917 19.6991788,20.4263594 Z M11.1737867,5.12304731 C11.2032608,5.09723515 11.2335158,5.07074099 11.2645763,5.04354292 C12.0749849,4.33389522 12.4489539,4.00134415 12.5507412,3.89481357 C12.6771031,3.76256131 13.0694401,3.48905835 13.703919,3.07484287 C13.7455237,3.04770046 13.7455237,3.04770046 13.7871722,3.02060204 C14.0525241,2.84806184 14.3365789,2.66645657 14.6205993,2.48693701 C14.7603485,2.39860634 14.8746824,2.32680276 14.9532127,2.27771372 L15.4017259,1.69997993 C13.3522869,2.09784576 10.2096597,2.92159095 9.68033898,3.27462629 C9.23038379,3.57466468 8.46899966,5.17172593 7.47760768,7.80745186 C7.29263904,8.29921157 7.09909413,8.82744141 6.88872927,9.41291318 C6.60054545,10.2149649 5.69598426,12.7895323 5.63027872,12.9743926 L5.61673682,13.0124765 C5.70669058,12.8679592 5.80277458,12.7137 5.90387774,12.5515086 C6.32572696,11.874771 6.74885451,11.1980237 7.14559545,10.5663282 L7.17684175,10.516584 C8.22356905,8.85040736 8.87235117,7.8377181 9.01191202,7.66788075 C9.10229353,7.55787069 9.15832805,7.46411196 9.4207606,7.0001486 C9.49201041,6.87418366 9.5432014,6.78564132 9.59473434,6.70038421 C9.73635022,6.46609211 9.85496629,6.30099668 9.97694293,6.18428674 C10.0891541,6.07694115 10.2346932,5.94658116 10.710992,5.5286357 L10.2403163,4.86116124 C10.1426336,4.72263541 10.1747141,4.53041792 10.3119701,4.43183147 C10.4492261,4.33324501 10.6396816,4.36562227 10.7373643,4.5041481 L11.1737867,5.12304731 Z M15.9632661,1.97498 C16.0589378,1.91735351 16.1472437,1.84908945 16.2271169,1.76933558 C16.3071273,1.68940236 16.3869297,1.58089607 16.463173,1.45120067 C16.5263066,1.34380576 16.583577,1.22801553 16.6338461,1.11120003 L15.9632661,1.97498 Z M17.3755355,4.36016732 C17.4407866,4.37080376 17.5128881,4.38183647 17.5911348,4.39289425 C17.9646928,4.44568526 18.3441968,4.47901994 18.7160183,4.48630115 C18.7281447,4.48576979 18.7404039,4.4859694 18.7527438,4.48693575 C18.9967627,4.490588 19.2372694,4.48289356 19.4703957,4.4619798 C20.0401674,4.41086557 20.5226533,4.28277331 20.8900082,4.07036505 C21.602471,3.65844627 21.6989473,2.78812357 21.4479599,2.2458871 C21.3716948,2.19572608 21.3230533,2.11441779 21.3120734,2.02619981 C21.213172,1.90568412 21.0896681,1.8209287 20.9476511,1.78976854 C20.6765757,1.73026707 20.4494666,1.70734601 20.2081557,1.71162213 L20.2018872,1.71173844 C20.1932834,1.71230787 20.1846288,1.71250916 20.1759456,1.71233268 C19.9484694,1.71834939 19.7037918,1.746168 19.0784283,1.8238539 C18.9812737,1.83477004 18.8875279,1.84466001 18.7929647,1.85386864 C18.6436704,1.86841966 18.4221609,1.84796815 18.1300199,1.80283009 C18.103224,1.79868991 18.076556,1.79445549 18.0500013,1.79013246 C18.0757738,2.0513762 18.0577162,2.3460882 17.9906082,2.67447567 C17.8693226,3.26826231 17.661705,3.83449796 17.3755355,4.36016732 Z M17.3517397,4.40345857 C17.2528853,4.5815848 17.1449587,4.75497162 17.0282664,4.92310608 C17.0448929,4.92634062 17.0629593,4.92979323 17.08242,4.93343901 C17.2086971,4.95709584 17.350995,4.98068168 17.5065352,5.00266254 C17.9026075,5.05863526 18.3051479,5.0941163 18.7021759,5.10195728 C19.8753796,5.32215251 20.678587,5.34549995 21.3324468,5.14594316 C20.4690617,5.20106793 18.7336802,4.87454041 17.3517397,4.40345857 Z M15.9665132,0.972472581 L16.1996712,0.672139717 C15.0312168,0.831593933 13.0599536,1.29239802 11.3706416,1.77056401 C11.0477753,1.86199644 10.7413074,2.05490284 10.490112,2.29912749 C11.9854284,1.81561619 14.471021,1.21815209 15.9665132,0.972472581 Z M17.5790818,0.760926719 C17.6910682,0.867655657 17.7853039,0.991126317 17.8599129,1.13141316 C18.2459666,1.20489097 18.5944311,1.25463727 18.7343469,1.24100033 C18.7832747,1.2362357 18.832007,1.23127928 18.8811845,1.22607812 C18.3490507,1.02380247 17.9068212,0.865324212 17.5790818,0.760926719 Z M22.9272434,2.92876496 L22.5900825,4.30552268 C22.682014,4.18384304 22.7560488,4.05487518 22.812573,3.91938875 C22.9484915,3.59359696 22.9766532,3.25807569 22.9272434,2.92876496 Z M22.1602809,2.54897197 C22.2557565,3.21790043 22.0417021,3.9773567 21.4125561,4.45848579 C21.5106958,4.41379083 21.6043128,4.36187182 21.6951117,4.30268598 C21.9759043,4.11968677 22.1541601,3.91091892 22.2503085,3.68045469 C22.3802788,3.36892049 22.3585481,3.02375626 22.2388412,2.68863884 C22.2210369,2.63879618 22.2035043,2.59572178 22.1878528,2.56058636 L22.1602809,2.54897197 Z M3.8328193,49.658034 C3.83386875,49.6624105 3.83500604,49.6667424 3.83622883,49.6710281 C3.83756282,49.6773862 3.83651741,49.6734562 3.8328193,49.658034 Z"></path>
                </g>
            </g>
            <g id="slices"></g>
        </g>
    </g>
</svg>