<?xml version="1.0" encoding="UTF-8"?>
<svg width="50px" height="50px" viewBox="0 0 50 50" version="1.1" xmlns="http://www.w3.org/2000/svg" xmlns:xlink="http://www.w3.org/1999/xlink">
    <!-- Generator: Sketch 49.1 (51147) - http://www.bohemiancoding.com/sketch -->
    <title>d</title>
    <desc>Created with Sketch.</desc>
    <defs></defs>
    <g id="Finger" stroke="none" stroke-width="1" fill="none" fill-rule="evenodd">
        <g id="Finger-Alphabet" transform="translate(-200.000000, 0.000000)">
            <g id="letters" transform="translate(11.000000, 0.000000)" fill="#000000" fill-rule="nonzero">
                <g id="d" transform="translate(204.000000, 0.000000)">
                    <path d="M16.3062676,26.0576743 C16.1792631,25.5919069 16.0479339,25.0748281 15.9103817,24.5034397 C15.7171856,23.7009076 15.016001,20.5469763 14.9456948,20.3295461 C14.9012732,20.2174931 14.8376786,20.0212802 14.7748966,19.7568978 C14.6573032,19.2616976 14.5935112,18.7255168 14.6117445,18.1698978 C14.6498796,17.0071936 13.2918049,16.7098418 12.2562608,18.3307714 C12.2365343,18.3625319 12.1990079,18.428262 12.1495698,18.5241851 C12.0657307,18.6868552 11.9815816,18.8723568 11.9029575,19.0768347 C11.6662876,19.6923432 11.5304939,20.3412421 11.5461447,20.9877464 C11.5817322,22.434452 11.7411023,23.1011132 12.2236875,23.9372353 C12.3555612,24.1659997 12.4492026,24.3918659 12.5100816,24.6248662 C12.6439986,25.1374032 12.6353794,25.3671634 12.5054704,26.6203596 C12.4984797,26.6877968 12.4922926,26.7490849 12.4864865,26.8087242 C12.4714126,26.9635583 12.3368403,27.0765403 12.1859107,27.0610765 C12.034981,27.0456127 11.9248482,26.907559 11.939922,26.7527249 C11.9458538,26.6917943 11.9521593,26.6293343 11.9592666,26.5607715 C12.0804609,25.3916435 12.0881563,25.1865112 11.9795266,24.7707562 C11.9317746,24.587996 11.8577391,24.4094202 11.7509663,24.2241988 C11.2163829,23.2979852 11.0348344,22.5385493 10.9970332,21.0018491 C10.9801261,20.303454 11.1174957,19.6132622 11.358596,18.9587733 C10.8871488,18.9491368 10.5314024,18.7348143 10.2956121,18.3752196 C10.2895011,18.3831615 10.2832777,18.391025 10.2769413,18.3988104 C9.62814092,19.1961097 8.06842661,19.0478804 7.46774015,18.1710438 C7.1732403,18.5820167 6.63402197,18.7920625 5.85147695,18.7308115 C5.76532643,18.7311105 5.67195423,18.7251211 5.57283903,18.7115969 C5.53842537,18.944414 5.45972704,19.199051 5.31637018,19.4511232 C5.03157581,19.9518928 4.54706408,20.3100658 3.8421635,20.4603745 C3.69365715,20.492041 3.54824549,20.3942093 3.51737746,20.2418611 C3.48650944,20.0895129 3.58187414,19.9403395 3.73038048,19.9086729 C4.28275284,19.7908885 4.63551613,19.5301098 4.84192968,19.1671616 C4.95704153,18.9647541 5.01532025,18.7560765 5.03599392,18.5753215 C4.90822135,18.5281812 4.77634288,18.4689978 4.64243195,18.3960236 C4.42674182,18.558142 4.15304932,18.6070687 3.84820312,18.5647079 C3.63477654,18.5350505 3.41427699,18.4623333 3.19297222,18.36006 C3.02118055,18.2806687 2.88416686,18.2010941 2.80048885,18.1453389 C2.67328449,18.0605818 2.63714152,17.8860854 2.71976126,17.7555903 C2.80238099,17.6250952 2.97247703,17.5880172 3.09968139,17.6727743 C3.16167136,17.7140786 3.27533722,17.7800933 3.41858018,17.8462912 C3.59549952,17.9280523 3.76791297,17.9849115 3.92193246,18.0063138 C3.98228831,18.0147007 4.03742029,18.0175463 4.08761436,18.0147382 C3.79184213,17.7631695 3.53150077,17.4482961 3.31541117,17.0651746 C3.23944643,16.9304911 3.28429414,16.7581338 3.41558134,16.6802038 C3.54686854,16.6022739 3.71487943,16.6482818 3.79084417,16.7829654 C3.99979109,17.153423 4.25376932,17.4442392 4.54323387,17.6657122 C4.60232615,17.7109244 4.66227946,17.7528159 4.72291673,17.7915218 C4.73858694,17.7992774 4.75374665,17.8086755 4.76816997,17.8197428 C4.96431034,17.9392101 5.16707542,18.0260524 5.37056873,18.0847715 C5.38410189,18.0874538 5.39730433,18.0911629 5.41008977,18.0958211 C5.4229255,18.0992953 5.43576262,18.1026588 5.44859963,18.1059128 C5.63255511,18.1525429 5.77348358,18.1675869 5.84852878,18.1673268 C5.84821138,18.1673281 5.84821138,18.1673281 5.87027258,18.1681214 C6.65432738,18.2287503 7.01439251,18.0089507 7.13421561,17.6088371 C7.18531734,17.4381981 7.18832456,17.2471671 7.16134784,17.0705565 C7.15739712,17.0446921 7.15363955,17.0244684 7.15080186,17.0108905 C7.14983508,17.0065454 7.14886086,17.0021915 7.14787921,16.9978289 C7.14771408,16.9971556 7.14755728,16.9965308 7.14740931,16.9959555 C7.14588813,16.9900416 7.14456196,16.984122 7.14342673,16.9782039 C7.11454857,16.8519487 7.07954498,16.7185019 7.03877112,16.5785911 C6.37813665,15.0768806 5.69738056,14.8207258 4.25287619,15.0837103 C4.1877135,15.0955737 4.13222246,15.1060264 4.01879753,15.1276475 C3.88014744,15.1540772 3.82501224,15.1644589 3.75079914,15.1778753 C2.89142259,15.3332353 2.33980024,16.9112729 1.8852138,19.6535782 C1.8103391,20.1042969 1.73053162,20.391361 1.58902289,20.7751597 C1.13888486,21.9960201 0.961710669,22.7997508 0.662865557,25.7300129 C0.228907849,29.9850927 1.08027635,33.9693237 2.51791818,36.914859 C2.777849,37.4474224 2.95008667,37.9065775 3.06011718,38.365417 C3.30293333,39.3779874 3.32123639,38.7832863 3.03638684,43.4260012 C3.02290264,43.645778 3.01030203,43.8612174 2.99837174,44.0771354 C2.89568206,45.9356457 2.87723245,47.8505345 2.91857542,49.7006772 C2.92205162,49.8562408 2.8019406,49.9852409 2.65029996,49.988807 C2.49865931,49.9923731 2.37291226,49.8691549 2.36943606,49.7135913 C2.32778232,47.8495415 2.3463714,45.9201774 2.44996841,44.045246 C2.46196538,43.8281212 2.47463413,43.6115169 2.48818802,43.3906043 C2.76561241,38.8689107 2.74850326,39.4248193 2.52673623,38.5000261 C2.42718816,38.0848996 2.26942014,37.664318 2.02676182,37.1671436 C0.54483493,34.1308741 -0.32908605,30.0411021 0.116563759,25.6713779 C0.420134712,22.6947776 0.607691164,21.843949 1.07526259,20.5758058 C1.20497028,20.2240138 1.27523289,19.9712822 1.34372068,19.5590105 C1.85198994,16.4928619 2.42808215,14.8448229 3.65547137,14.6229327 C3.72741544,14.6099265 3.78152404,14.5997381 3.91845054,14.573637 C4.0332959,14.5517451 4.08982031,14.5410978 4.1568959,14.5288861 C4.47827289,14.4703767 4.77243821,14.4362113 5.04351392,14.4318165 C5.05226337,13.5782319 5.28287902,12.6979213 5.68680206,11.9823684 C6.14439584,11.1735967 6.88193275,11.0282198 8.20185712,11.3079028 C8.42523609,11.3553877 8.6253484,11.4638817 8.8056504,11.6272723 C8.85291369,11.4203052 8.91118108,11.215609 8.98190875,11.019672 C9.25368291,10.2667759 9.65834382,9.76723527 10.2499001,9.68399217 C11.7234994,9.4767429 12.1986293,9.55246455 12.8034687,10.3269863 C12.9969984,10.5748091 13.1211748,10.7837054 13.2009704,10.9996058 C13.3011434,11.2706408 13.3257317,11.4860809 13.3429598,12.0245425 C13.3585684,12.5123908 13.3653393,12.6681831 13.390054,12.9878982 C13.4197765,13.3746133 13.4643947,13.8522869 13.521012,14.4002834 C13.524041,14.4296008 13.5271002,14.4590789 13.530189,14.4887132 C13.5806991,14.2689995 13.6284345,13.9961715 13.6725268,13.6666503 C13.7627353,12.9924828 13.8045396,12.5407936 13.8967397,11.3725766 C13.9325975,10.9182421 13.9537893,10.664724 13.9804124,10.385435 C14.0542352,9.61099795 14.1436592,8.97211265 14.2784467,8.32324339 C14.6038277,6.75685446 14.7327462,5.17105866 14.6865084,3.99589392 C14.6836285,3.92156618 14.679128,3.83396967 14.6684519,3.63138657 C14.6403552,3.0787221 14.63639,2.68835284 14.6695809,2.27546739 C14.7825503,0.870159902 15.3290342,0 16.5049876,0 C17.7283575,0 18.2523925,1.21607137 18.3790603,3.27071776 C18.4135081,3.82948696 18.4168842,4.32335816 18.4046791,5.15144115 C18.399164,5.5256277 18.3983859,5.58850857 18.3983859,5.72015631 C18.3983859,8.28457926 18.260338,11.3869566 17.9801462,12.9835397 C17.788955,14.070699 17.7439625,15.0648199 17.7695628,16.6409372 C17.7719209,16.786117 17.774053,16.9000971 17.77923,17.1654516 C17.7917224,17.8057704 17.7959458,18.095909 17.7959458,18.4595629 C17.7959458,20.2985743 17.6464016,22.3354285 17.4498573,23.182116 C17.3897312,23.4403043 17.3020747,23.8476121 17.1943491,24.3653758 C17.1837914,24.4161498 17.1837914,24.4161498 17.1732441,24.4669899 C17.1004644,24.817995 17.0236781,25.1941871 16.947699,25.5703953 C16.9115041,25.7496131 16.8818697,25.8971899 16.8612001,26.0005513 C16.9059989,26.1630956 16.9502161,26.3189486 16.9939313,26.4682262 C17.5053555,28.2146255 17.3566656,29.1829633 16.710575,30.1789298 C16.6717286,30.2388126 16.5352023,30.4432438 16.5074897,30.4858283 C16.3872155,30.6706475 16.2910957,30.8790688 16.1670701,31.2080848 C16.1339102,31.2960518 16.0155276,31.6198391 15.9992147,31.6638236 C15.9264179,31.8601062 15.863647,32.0209621 15.7948432,32.1842053 C15.6158868,32.6087948 15.413095,33.0046698 15.154164,33.4151919 C14.2380759,34.8676035 13.4960139,37.2893875 13.6887538,38.539898 C13.8360541,39.4955939 14.221817,44.0714503 14.6632339,49.6956265 C14.6754073,49.850729 14.562711,49.9865881 14.4115198,49.9990764 C14.2603286,50.0115646 14.1278955,49.8959529 14.1157222,49.7408504 C13.6775409,44.1579005 13.2899753,39.5606607 13.1462103,38.6279022 C12.9288028,37.2173462 13.7101595,34.6673206 14.6930006,33.1090754 C14.9345981,32.7260347 15.1233131,32.3576392 15.2906705,31.9605693 C15.3558025,31.8060381 15.4157053,31.6525317 15.4858339,31.4634435 C15.501253,31.421869 15.6203889,31.0960213 15.6547592,31.0048434 C15.7920861,30.6405415 15.903304,30.3993824 16.0506553,30.1729551 C16.0808896,30.1264956 16.2171127,29.9225185 16.253295,29.8667425 C16.8096926,29.0090401 16.9317258,28.2143035 16.4678739,26.6303532 C16.4206068,26.4689464 16.3728268,26.3002283 16.324428,26.1240315 C16.3158158,26.1029291 16.3096656,26.0806598 16.3062677,26.0576745 Z M16.5458242,24.7873134 C16.5763144,24.6384723 16.6064719,24.4920671 16.6359805,24.3497519 C16.6465666,24.2987245 16.6465666,24.2987245 16.6571655,24.2477522 C16.7657639,23.7257938 16.8541698,23.3150035 16.915562,23.051379 C17.0998833,22.2573466 17.2466622,20.2581564 17.2466622,18.4595629 C17.2466622,18.1008985 17.242476,17.8133161 17.2300563,17.1767273 C17.224867,16.9107383 17.2227272,16.796348 17.2203554,16.6503252 C17.1942075,15.0404945 17.2406271,14.0148405 17.4395715,12.8835951 C17.7120837,11.3307713 17.8491023,8.25152745 17.8491023,5.72015631 C17.8491023,5.58431475 17.8498854,5.52102256 17.8554582,5.14292192 C17.8674576,4.32880006 17.8641586,3.8462207 17.8308719,3.30628445 C17.7213739,1.53014499 17.30482,0.563493464 16.5049876,0.563493464 C15.6912973,0.563493464 15.3094777,1.17146022 15.2170062,2.32177996 C15.1863289,2.70339703 15.1900803,3.07272252 15.21699,3.60203818 C15.227593,3.80304591 15.2323142,3.89493766 15.2353519,3.97334071 C15.2834218,5.19507088 15.1506752,6.82795562 14.8156677,8.44068715 C14.685668,9.06650769 14.5990557,9.68530462 14.5270883,10.4402777 C14.5008459,10.7155732 14.4798559,10.9666772 14.4442318,11.4180514 C14.3512088,12.5966951 14.3087643,13.0553004 14.2167074,13.7432818 C14.1687233,14.101888 14.115977,14.4003532 14.0588677,14.6436214 C13.9536614,15.0917679 13.8116987,15.3918755 13.6430366,15.5264843 C13.6721435,15.7847574 13.7018689,16.0424007 13.7315946,16.2950789 C13.7469133,16.4252932 13.7613325,16.5465155 13.7746056,16.6570187 C14.5655275,16.6296822 15.1928645,17.2087151 15.1607173,18.1888521 C15.1442969,18.6892294 15.2021197,19.1752389 15.3085728,19.6235258 C15.3645665,19.8593222 15.4197475,20.029576 15.4605616,20.1340357 C15.5469894,20.3991242 16.2577767,23.5962484 16.4436443,24.3683377 C16.4781002,24.5114668 16.5121509,24.6511119 16.5458242,24.7873134 Z M9.25552214,12.2125983 C9.42611871,12.5138323 9.5742508,12.8816228 9.70534411,13.3063748 C9.85870938,13.8032895 9.94302434,14.1903809 10.0726157,14.8870932 C10.0914985,14.988611 10.1204263,15.1128761 10.1650355,15.287696 C10.1842705,15.3630764 10.2728898,15.7019205 10.2965709,15.7945291 C10.361938,16.0501575 10.4106968,16.2572053 10.4511192,16.4584562 C10.5348182,16.8751693 10.5756413,17.2349372 10.5614875,17.5421102 C10.5749484,17.6515111 10.6160264,17.8127885 10.6982378,17.9699474 C10.8685326,18.2954905 11.1418342,18.4542828 11.6054495,18.3776894 C11.6249097,18.3376924 11.644439,18.2987187 11.663982,18.2608001 C11.720622,18.1509034 11.7656008,18.07212 11.7949339,18.0249356 C12.2258392,17.350425 12.7394834,16.944568 13.2341766,16.7652726 C13.2195661,16.6439466 13.2034814,16.5089148 13.186268,16.3625946 C13.1327638,15.9077905 13.0792589,15.4369493 13.0293078,14.9749306 C13.0102446,14.7986065 12.9920322,14.626582 12.9747879,14.4596753 C12.9176946,13.9070722 12.8726384,13.424708 12.8424797,13.0323177 C12.8168842,12.7012102 12.8098568,12.5395131 12.7939718,12.0430279 C12.7787042,11.5658393 12.7590011,11.3932027 12.6873653,11.1993799 C12.6301057,11.0444545 12.5349952,10.8844544 12.374785,10.6792987 C11.9291863,10.1086913 11.6221578,10.05976 10.3245264,10.2422609 C9.98727579,10.2897184 9.7056361,10.6373933 9.49700894,11.2153533 C9.41091974,11.4538463 9.34447994,11.7120096 9.29580414,11.9705406 C9.2777736,12.0663059 9.26455519,12.1484544 9.25552214,12.2125983 Z M8.72763202,12.4126196 C8.5331363,12.0993986 8.31897194,11.9082625 8.09057652,11.8597112 C6.97631805,11.6236074 6.46822501,11.7237583 6.16199908,12.2649955 C5.80074799,12.9049548 5.59465499,13.7035295 5.59255404,14.4702853 C5.86792421,14.517415 6.1168068,14.6088289 6.34542176,14.7527151 C6.33211912,14.7231623 6.31880746,14.6937921 6.30549607,14.6646183 C6.2267658,14.4920697 6.16580107,14.3647839 6.13153865,14.2959155 C6.06258587,14.1573187 6.11621021,13.9876205 6.25131196,13.9168839 C6.38641372,13.8461474 6.5518326,13.901159 6.62078538,14.0397558 C6.65775284,14.1140613 6.72144038,14.247032 6.80297733,14.4257318 C6.93857988,14.722924 7.07415611,15.039757 7.20086449,15.3634812 C7.31897268,15.665233 7.42347535,15.958234 7.51073776,16.237474 C7.65535953,16.7002643 7.74841644,17.1110774 7.77924144,17.4594507 C7.85834941,18.3483132 9.35864668,18.6479932 9.85528941,18.0376777 C9.94599661,17.926229 9.99686619,17.7560649 10.0095356,17.5295628 C10.0095234,17.5198886 10.0099936,17.5103121 10.0109244,17.5008595 C10.021032,17.2542944 9.98777445,16.943772 9.91313739,16.5721758 C9.87500724,16.3823368 9.8283638,16.1842718 9.76526414,15.9375106 C9.74211418,15.8469791 9.65344567,15.507947 9.63365664,15.4303954 C9.58616536,15.2442808 9.55479251,15.1095126 9.53306697,14.9927112 C9.40741947,14.317202 9.32649122,13.9456591 9.1816817,13.4764657 C9.05269494,13.0585391 8.90722034,12.7113967 8.74828996,12.4464695 C8.74064909,12.4357177 8.73374116,12.4244065 8.72763202,12.4126196 Z"></path>
                </g>
            </g>
            <g id="slices"></g>
        </g>
    </g>
</svg>