<?xml version="1.0" encoding="UTF-8"?>
<svg width="50px" height="50px" viewBox="0 0 50 50" version="1.1" xmlns="http://www.w3.org/2000/svg" xmlns:xlink="http://www.w3.org/1999/xlink">
    <!-- Generator: Sketch 49.1 (51147) - http://www.bohemiancoding.com/sketch -->
    <title>e</title>
    <desc>Created with Sketch.</desc>
    <defs></defs>
    <g id="Finger" stroke="none" stroke-width="1" fill="none" fill-rule="evenodd">
        <g id="Finger-Alphabet" transform="translate(-250.000000, 0.000000)">
            <g id="letters" transform="translate(11.000000, 0.000000)" fill="#000000" fill-rule="nonzero">
                <g id="e" transform="translate(252.000000, 0.000000)">
                    <path d="M18.2669374,11.0175359 C18.2668272,11.0279914 18.266248,11.0385317 18.265182,11.0491352 C18.2647463,11.0530191 18.2633212,11.0709676 18.2619552,11.0954072 C18.2465028,11.3718594 18.2696399,11.6994058 18.3598501,12.0018963 C18.5256581,12.5578791 18.8588216,12.8523046 19.4739723,12.8355911 C20.6542395,12.8040188 20.9701131,12.3426174 21.2988405,10.6765461 C21.3328402,10.5034095 21.3509376,10.41147 21.3681947,10.3255844 C21.562388,9.35911868 21.6193639,8.79651052 21.6063043,8.54474247 C21.5913647,8.40943847 21.6552851,8.27838744 21.7710331,8.20638025 C21.8771721,8.14035086 22.0476136,8.01309606 22.2163431,7.8451007 C22.4054514,7.65681515 22.5381761,7.46517325 22.5930919,7.28741476 C22.6506415,7.10113107 22.8501032,6.99622316 23.0386022,7.05309638 C23.2271012,7.10996961 23.3332566,7.30708724 23.2757071,7.49337094 C23.1816554,7.7978094 22.9866516,8.07937631 22.7228986,8.34198177 C22.5821315,8.48213641 22.4421148,8.59852289 22.3205789,8.68791704 C22.3114347,9.03783665 22.2396789,9.60977182 22.0682466,10.4629601 C22.0513057,10.5472721 22.0335271,10.6375915 21.9993676,10.8115353 C21.6138749,12.7653063 21.1127242,13.4973448 19.4934357,13.540661 C18.6481834,13.5636264 18.0873146,13.1683747 17.7908477,12.5130973 C17.3899546,13.1426018 16.7486921,13.4446725 15.8103922,13.3945818 C15.0258039,13.3526968 14.4799558,13.1073113 14.1191161,12.7010361 C13.8577108,13.3846293 13.2661752,13.7345429 12.1803264,13.7345429 C11.2940372,13.7345429 10.6648622,13.3026342 10.2779369,12.6065715 C10.2372165,12.5333173 10.2005482,12.4602622 10.1676281,12.388079 C10.1209238,12.4205706 10.0707544,12.4513308 10.0170275,12.4804793 C8.55231087,13.2751346 6.37874375,11.9950418 5.70004442,9.62670878 L5.67870243,9.52406226 C5.47915925,9.45764455 5.2981212,9.3800282 5.13490964,9.29301558 C4.76996715,9.09845459 4.5470449,8.89281653 4.43946068,8.73649315 C4.3286217,8.57544049 4.37088052,8.35608473 4.5338484,8.24654834 C4.69681628,8.13701196 4.9187806,8.17877415 5.02961958,8.3398268 C5.07498228,8.40574029 5.21343434,8.53345752 5.473774,8.67225183 C5.48407501,8.67774359 5.49448208,8.68319398 5.50499576,8.68860213 L5.40806807,8.22241841 C5.36840029,8.03163211 5.49274528,7.84519007 5.68580039,7.80598847 C5.87885551,7.76678687 6.06751469,7.88967054 6.10718248,8.08045685 L6.39291988,9.45949868 C6.95170949,11.4065149 8.65954957,12.4123241 9.6735609,11.8621908 C9.80324648,11.7918322 9.88566252,11.6725495 9.92131702,11.4935519 C9.92108303,11.4582057 9.92621025,11.4238308 9.9360051,11.3912719 C9.97219728,11.0062537 9.83679615,10.3945558 9.53338301,9.48010336 C9.50967619,9.40865372 9.49313531,9.35927448 9.45238153,9.23811922 C9.21028195,8.51912395 9.14458916,8.31492914 9.06202025,7.99637546 C9.01125765,7.80053159 8.96760664,7.60718114 8.92326064,7.38816061 C8.89845795,7.26566258 8.82523186,6.88377559 8.82236758,6.86919708 C8.67118262,6.09970114 8.52369412,5.77526836 8.07720508,5.52460165 C8.04146286,5.51245439 8.0081346,5.49481743 7.97835036,5.47262564 C7.91263408,5.44015972 7.84115857,5.40855011 7.76319401,5.37690163 C6.43948292,4.83956199 5.38865271,5.07764908 4.59532203,6.26212933 C4.2392456,6.79376828 4.05430645,7.64997307 3.9679347,8.91925313 C3.94504651,9.25560752 3.93548289,9.46422233 3.90849326,10.142229 C3.86530738,11.227102 3.82808503,11.675223 3.71656358,12.0713419 C3.65971651,12.27326 3.5982513,12.4732572 3.52788946,12.6870714 C3.42539768,12.9985215 3.01046751,14.1639519 2.97428101,14.2682342 C2.71258119,15.0224016 2.47705736,15.7612137 2.21494446,16.6749189 C1.60242271,18.8101221 1.37367242,19.8577755 1.24467406,20.8849776 C1.21151303,21.1469405 1.15975475,21.5633558 1.09448205,22.0923397 C1.05072766,22.4469838 1.00656786,22.8061123 0.962506199,23.1652433 C0.91553902,23.5483237 0.91553902,23.5483237 0.904960921,23.6334341 C0.431446307,28.8179521 0.851845823,31.5279199 1.94744045,34.0205288 C2.59222899,35.4874999 3.01991041,37.6911186 3.24100134,40.3319124 C3.32350691,41.3173901 3.31617187,42.3888184 3.24212034,45.5398477 C3.22852072,46.1185369 3.22065761,46.4677592 3.21315124,46.8394685 C3.19051553,47.9603707 3.18158218,48.8424425 3.18802846,49.6445327 C3.18959376,49.8392987 3.03109607,49.9984417 2.83401396,49.9999886 C2.63693185,50.0015355 2.4758963,49.8449005 2.47433099,49.6501346 C2.46782276,48.8403349 2.47681658,47.9522925 2.49957335,46.8253951 C2.50709926,46.4527181 2.51497628,46.1028781 2.52859277,45.5234711 C2.60181618,42.4076798 2.6091343,41.3387237 2.52971177,40.3900711 C2.3145162,37.8196937 1.89967296,35.6822234 1.29281093,34.3015397 C0.14881421,31.6988102 -0.289963038,28.8703763 0.195265954,23.5593994 C0.206991051,23.4635646 0.206991051,23.4635646 0.253975287,23.0803451 C0.298054627,22.72107 0.342232783,22.3617922 0.38360576,22.026449 C0.451367867,21.4772891 0.503195289,21.0603174 0.536431018,20.7977657 C0.670289652,19.7318603 0.906505623,18.6500148 1.52828485,16.4825408 C1.79404015,15.5561385 2.03341413,14.8052489 2.29915494,14.0394362 C2.33780046,13.9280674 2.74979377,12.7708859 2.84915976,12.4689344 C2.91648369,12.2643518 2.97499649,12.0739612 3.02896125,11.8822809 C3.11912254,11.5620322 3.1548015,11.1324921 3.19532492,10.1145031 C3.22259985,9.42932936 3.23231739,9.21735692 3.2558231,8.87192775 C3.35007593,7.48683097 3.55519956,6.53717894 4.00016498,5.87282452 C4.95119921,4.45288542 6.29011717,4.09682968 7.82280416,4.64374266 C7.83075329,4.23893702 7.87699192,3.80819565 7.97988242,3.38845852 C8.26217339,2.23686533 8.91200264,1.47975606 10.0147824,1.40511462 C11.241403,1.32209104 12.1052965,1.4906059 12.6564466,1.93937406 C12.7786224,1.70722627 12.92174,1.47709712 13.0870688,1.25861501 C13.6765318,0.479639756 14.4260847,0 15.3437929,0 C17.1931398,0 18.6204164,0.958610661 18.6204164,2.14445383 C18.6204164,2.48518066 18.6060505,3.26780791 18.5812583,4.36273712 C18.5811161,4.36898178 18.5809781,4.37504031 18.5808441,4.38092374 C18.61231,4.31677205 18.6383487,4.26425231 18.6551492,4.23157022 C19.2358598,3.1019175 19.8624702,2.49027584 20.8660265,2.42191813 C22.6240603,2.30216882 23.2468165,2.55525667 24.0259626,3.96052545 C24.7763647,5.31395154 24.8414912,6.24199162 24.5539534,9.28925707 C24.538449,9.41707024 24.5112837,9.64382911 24.476347,9.94028938 C24.4181158,10.4344183 24.3598859,10.9398075 24.3055514,11.427165 C24.2875678,11.5888908 24.2875678,11.5888908 24.2696998,11.7514219 C24.2301814,12.112018 24.1951415,12.4429986 24.1654333,12.7379166 C24.1120536,13.267826 24.0889596,13.7125936 24.0796324,14.2723049 C24.0774176,14.4052104 24.0761502,14.5194687 24.0740448,14.7513783 C24.0664695,15.5857806 24.0567168,15.9980857 24.0202613,16.6463487 C24.0182333,16.6824096 24.0107914,16.7169033 23.9987585,16.749102 C24.0389522,16.9210372 24.0769164,17.1004243 24.1126999,17.2874169 C24.5365036,19.5020729 25.5031896,22.9558103 25.5506914,23.3692358 C25.5647218,23.4913468 25.5739934,23.6120162 25.5785521,23.7335964 C25.6413995,25.4097013 25.1727396,26.1520031 22.0530731,28.901619 C17.5932257,32.8324455 16.6632475,33.830515 16.4940434,35.2680194 C16.4858377,35.3377317 16.480873,35.4071377 16.4791484,35.4763562 C16.4581514,36.3190843 16.487501,36.7163171 16.8715361,41.3151437 C16.9260602,41.96807 16.9697478,42.5065538 17.0097081,43.0235667 C17.1464213,44.7923828 17.2290771,46.1901547 17.257758,47.3747829 C17.2718735,47.957804 17.3231022,48.6390744 17.4094702,49.4173185 C17.4309567,49.6109297 17.2895557,49.7850962 17.0936421,49.8063302 C16.8977285,49.8275643 16.7214909,49.687825 16.7000043,49.4942138 C16.6115777,48.69742 16.5588931,47.9967882 16.5442422,47.3916542 C16.5159176,46.2217421 16.4339069,44.8348793 16.2980611,43.0772852 C16.2582269,42.5619042 16.2146486,42.0247671 16.1602342,41.3731546 C15.7709588,36.7115748 15.7436463,36.3419139 15.7656447,35.4589943 C15.7679055,35.3682537 15.7744009,35.277449 15.7851037,35.1865222 C15.9856858,33.4824406 16.9147927,32.4853061 21.5780191,28.3752252 C24.5543325,25.751958 24.9184012,25.1753163 24.8653217,23.7597149 C24.8614393,23.656175 24.8535373,23.5533306 24.8415285,23.4488134 C24.8017024,23.1021922 23.8449077,19.6837944 23.4114103,17.4184821 C23.0669364,15.6183764 22.5409116,14.6768419 21.8491229,14.3463082 C21.3208447,14.093899 20.7319602,14.1537728 19.5861505,14.4938955 C18.9722903,14.6758492 18.217898,14.7810788 17.343842,14.8244146 C16.5026882,14.8661191 15.6429261,14.8498122 14.6562536,14.79458 C14.472757,14.7843082 13.9767693,14.7535495 13.9124064,14.7500189 C13.2297425,14.7125709 12.9506792,15.697391 13.818636,16.7415989 C14.1757159,17.171189 14.7264656,17.6060985 15.4167808,18.0289154 C15.8868053,18.3168047 16.3923405,18.5816614 16.8980732,18.8167548 C17.2011895,18.9576605 17.4358291,19.0568365 17.5362069,19.097687 C18.8030705,19.464375 19.6542845,19.1156351 20.2316993,18.2957681 C20.3827801,18.0812497 20.5021836,17.8494046 20.5923162,17.6176045 C20.6457302,17.4802359 20.676791,17.3762532 20.6890416,17.3232472 C20.7329266,17.1333649 20.924263,17.0145926 21.1164034,17.0579619 C21.3085437,17.1013311 21.4287284,17.2904189 21.3848434,17.4803012 C21.3122386,17.7944488 21.1370721,18.2449364 20.8174997,18.6986947 C20.3509022,19.361213 19.7211649,19.7951857 18.9201788,19.9119281 L18.9201788,20.5772821 C18.9626838,20.8138144 19.1230783,20.8983166 19.4643198,20.8857435 C19.6275602,20.8797289 19.8095326,20.8474823 19.9942399,20.7971861 C20.1202464,20.7628743 20.2179689,20.7289766 20.2694985,20.7082663 C20.4520661,20.6348901 20.6602569,20.7216679 20.7345057,20.9020899 C20.8087544,21.082512 20.7209447,21.2882561 20.5383771,21.3616323 C20.4627242,21.3920381 20.3394048,21.4348148 20.183833,21.4771773 C19.9500817,21.5408282 19.7161158,21.5822883 19.4909113,21.590586 C19.284015,21.5982092 19.0929737,21.5765954 18.9246622,21.5237058 C18.893058,21.8353742 18.9858319,22.0474456 19.1617184,22.2026985 C19.254576,22.2846629 19.3469452,22.3311885 19.3932078,22.3457239 C19.581032,22.404737 19.6848851,22.6030488 19.6251702,22.7886657 C19.5654553,22.9742826 19.3647852,23.0769152 19.176961,23.0179021 C19.0426791,22.9757116 18.8642316,22.8858291 18.6862726,22.7287468 C18.2923785,22.3810612 18.1101723,21.8648508 18.2550092,21.2029791 C18.2604519,21.178107 18.2684256,21.1544199 18.2786057,21.1321244 C18.2333219,21.0730038 18.2064589,20.9993397 18.2064589,20.9194751 L18.2064589,20.6228997 C18.2053533,20.6067822 18.2053741,20.5908126 18.2064589,20.5750724 L18.2064589,19.9333994 C17.9232052,19.9119497 17.6226709,19.8564333 17.3046012,19.764063 C17.2671737,19.7494275 17.1995111,19.72197 17.1058943,19.6824006 C16.9512564,19.6170393 16.7792973,19.5410088 16.5942809,19.4550026 C16.065428,19.2091617 15.5363776,18.931985 15.0407888,18.6284377 C14.2897221,18.1684105 13.6822185,17.6886842 13.2671295,17.1893055 C12.0515328,15.7268644 12.5496926,13.9688483 13.9519627,14.0457707 C14.0196314,14.0494827 14.5161588,14.0802749 14.6966168,14.0903766 C15.660115,14.1443115 16.4969599,14.1601838 17.3080799,14.1199683 C18.1295882,14.0792378 18.8307155,13.9814381 19.3809692,13.818338 C20.6925458,13.429009 21.4151929,13.3555351 22.1597867,13.711299 C22.6359732,13.9388189 23.0329347,14.3412077 23.3584248,14.9428356 C23.3590913,14.8795824 23.3597295,14.8137801 23.3603535,14.7450503 C23.3624745,14.5114267 23.3637559,14.3959035 23.3660092,14.2606907 C23.3756397,13.6827775 23.3997172,13.2190705 23.4552238,12.6680463 C23.4851546,12.3709183 23.5204033,12.0379654 23.5601293,11.6754757 C23.5780727,11.5122589 23.5780727,11.5122589 23.5961244,11.3499206 C23.6506366,10.8609688 23.7090282,10.3541753 23.7674185,9.85869696 C23.8024546,9.56139286 23.8297127,9.33386013 23.8443106,9.21454999 C24.1182898,6.30971655 24.0608561,5.49129714 23.4000436,4.29945498 C22.7717126,3.16619643 22.4196071,3.02310092 20.9151036,3.1255809 C20.2290093,3.17231454 19.7697765,3.62057688 19.2914655,4.55103245 C19.2157833,4.69825653 18.9075301,5.34337637 18.825295,5.49907244 C18.7066956,5.72310721 18.6038613,6.16670597 18.5225062,6.76583857 C18.521476,6.78372665 18.519104,6.80124403 18.5154901,6.81829701 C18.4920827,6.99598434 18.4705234,7.18679341 18.4509549,7.38912669 C18.4040885,7.87371049 18.3708661,8.39438134 18.3490576,8.91526034 C18.3359691,9.22786981 18.3296109,9.47056612 18.3275635,9.59473801 C18.340058,10.1214889 18.3211934,10.5963414 18.2669374,11.0175359 Z M17.5597313,10.9470354 C17.609489,10.5648162 17.6262133,10.1162883 17.6139779,9.59796864 C17.6145042,9.56153006 17.6158436,9.4943289 17.6182955,9.40073657 C17.6223664,9.24534975 17.6281498,9.07235209 17.6359478,8.88610113 C17.6582472,8.35349722 17.6922443,7.82068515 17.7404727,7.32201824 C17.7616583,7.10296562 17.7848413,6.89679642 17.8103321,6.70413663 C17.8134634,6.58356684 17.8184417,6.38912538 17.824688,6.14041587 C17.8360885,5.68647689 17.8474891,5.21893484 17.8581288,4.76354508 C17.8629512,4.55619391 17.8629512,4.55619391 17.8677169,4.34695809 C17.8923664,3.25833607 17.9066965,2.47765945 17.9066965,2.14445383 C17.9066965,1.41887772 16.8442977,0.705332241 15.3437929,0.705332241 C14.6857048,0.705332241 14.1258897,1.06355861 13.6586416,1.68102691 C13.4885694,1.90577723 13.3440656,2.14843242 13.2256489,2.39106939 C13.1942083,2.45549141 13.1677849,2.51308172 13.1463422,2.56225436 C13.2962668,2.86868263 13.3832828,3.23736773 13.4123363,3.6711512 C13.4899646,4.83017788 13.6689477,6.20470827 13.8459779,7.27049225 C14.0414035,8.44702327 14.2399925,9.98414465 14.2399925,10.6693954 C14.2399925,10.8420426 14.2472858,11.0042379 14.2630663,11.1557549 C14.2701432,11.1804484 14.274585,11.2062938 14.2760579,11.2329952 C14.2769722,11.2495706 14.2778277,11.2660657 14.2786237,11.2824804 C14.4023073,12.1511201 14.8409228,12.6364664 15.8488909,12.6902764 C16.8623922,12.7443818 17.3839458,12.2175933 17.5539827,10.9898374 C17.5543117,10.9861496 17.5546372,10.9826812 17.5549588,10.9794008 C17.5560609,10.9684384 17.5576598,10.9576434 17.5597313,10.9470354 Z M13.5670331,11.3428568 C13.5392375,11.1311459 13.5262726,10.9061656 13.5262726,10.6693954 C13.5262726,10.037056 13.3303549,8.52061165 13.1416836,7.38474431 C12.9612491,6.29846488 12.7795818,4.90332034 12.7001747,3.7177352 C12.6136804,2.42633443 11.9548181,1.98078828 10.0635506,2.10879836 C9.32912738,2.15850766 8.8904627,2.66959131 8.67353892,3.55452199 C8.55751505,4.02783611 8.52362136,4.53202973 8.53879308,4.97540937 C9.11469434,5.33521453 9.34450014,5.82622062 9.52300291,6.73475784 C9.5264871,6.75249155 9.59916263,7.13150726 9.62310791,7.24977061 C9.66513723,7.45734927 9.70611288,7.63884936 9.75341774,7.82135312 C9.83004286,8.11697547 9.89381503,8.31520036 10.1295917,9.01541766 C10.170647,9.13746835 10.1874847,9.18773385 10.2115749,9.26033882 C10.5590418,10.3075642 10.7311097,11.0507515 10.6548965,11.5843891 C10.6620267,11.6186781 10.6709643,11.657695 10.6819416,11.7006435 C10.7315887,11.8948869 10.8044448,12.0888047 10.9034828,12.2669699 C11.173261,12.7522898 11.5766603,13.0292106 12.1803264,13.0292106 C13.348104,13.0292106 13.6247202,12.5844641 13.5670331,11.3428568 Z"></path>
                </g>
            </g>
            <g id="slices"></g>
        </g>
    </g>
</svg>