<?xml version="1.0" encoding="UTF-8"?>
<svg width="50px" height="50px" viewBox="0 0 50 50" version="1.1" xmlns="http://www.w3.org/2000/svg" xmlns:xlink="http://www.w3.org/1999/xlink">
    <!-- Generator: Sketch 49.1 (51147) - http://www.bohemiancoding.com/sketch -->
    <title>f</title>
    <desc>Created with Sketch.</desc>
    <defs></defs>
    <g id="Finger" stroke="none" stroke-width="1" fill="none" fill-rule="evenodd">
        <g id="Finger-Alphabet" transform="translate(-300.000000, 0.000000)">
            <g id="letters" transform="translate(11.000000, 0.000000)" fill="#000000" fill-rule="nonzero">
                <g id="f" transform="translate(304.000000, 0.000000)">
                    <path d="M15.1775707,23.5997103 C15.1900533,23.617615 15.200584,23.6368727 15.2089138,23.6571475 C15.2853385,23.7948291 15.3698843,23.9303698 15.4618751,24.063579 C15.6251219,24.2999718 15.800205,24.5112915 15.9748539,24.6940148 C16.0781825,24.8021206 16.156829,24.8753737 16.1983919,24.9105074 C16.3251856,25.0176879 16.3403297,25.2064754 16.2322172,25.332176 C16.1241047,25.4578767 15.9336756,25.4728903 15.8068818,25.3657098 C15.7497304,25.3173988 15.6556267,25.2297486 15.5368479,25.1054784 C15.406475,24.9690779 15.2762951,24.8189381 15.1499864,24.6557888 C15.1179207,25.2684467 15.1360169,25.9001468 15.2276051,26.4957348 C15.2527177,26.6590397 15.1395396,26.8116068 14.9748146,26.836503 C14.8100897,26.8613992 14.6561958,26.7491967 14.6310832,26.5858918 C14.5084839,25.7886419 14.5084839,24.944845 14.5815435,24.153014 C14.5937834,24.0203565 14.6060957,23.9107395 14.61671,23.8279332 C14.2771223,23.1772477 14.0939579,22.4781214 14.1247703,21.7427018 C14.2040456,19.8505834 14.3651584,18.5899797 14.769926,17.8617313 C14.7652474,17.8592263 14.7605671,17.8566813 14.7558856,17.854096 C14.7184314,17.8334122 14.6826834,17.8110647 14.6486833,17.7870522 C14.2991222,17.9970523 13.9656771,17.9948655 13.7168469,17.7372729 C13.5127929,17.5260332 13.4067461,17.1713614 13.3603603,16.6690057 C13.2882043,15.8875594 13.3631657,14.740841 13.5544614,13.2360851 C13.6097267,12.8013612 13.6736942,12.3444758 13.7491512,11.838307 C13.7784141,11.6420104 14.0848189,9.67552579 14.1268258,9.34132338 C14.182929,8.8949718 14.2293477,8.45550192 14.2735163,7.96939754 C14.2907604,7.77961507 14.3071216,7.58926704 14.3267919,7.35222362 C14.3314121,7.29654562 14.3648342,6.88985061 14.3744544,6.77504517 C14.4544074,5.82089862 14.5171742,5.29656378 14.6289838,4.77766238 C14.6426788,4.71410475 14.6981955,4.46192687 14.7056075,4.42797069 C14.7397974,4.27133761 14.7676241,4.13988809 14.7944089,4.00680135 C14.8879225,3.54215483 14.9533262,3.12977295 14.988604,2.74066769 C15.1127915,1.37090837 14.8410355,0.633660834 14.0811933,0.600806348 C13.1106299,0.558840574 12.763964,1.09349499 12.5287506,2.54156114 C12.5137526,2.63389492 12.5156129,2.62193351 12.4737419,2.89308302 C12.4089275,3.31281031 12.3702673,3.52892971 12.3128561,3.75730843 C12.209635,4.1679166 11.620265,6.10388237 11.5923725,6.19963628 C11.2521487,7.3676101 11.0229749,8.33065034 10.8883068,9.25519137 C10.8643337,9.41977403 10.8437559,9.5813874 10.8253283,9.75065693 C10.7420595,10.5253215 10.7233474,11.1586078 10.7186675,12.5666989 C10.7121059,14.5410151 10.6624012,15.3821458 10.4183078,16.3797392 C10.1443251,17.5010241 9.47934535,17.9092851 9.02503226,17.1052856 C8.716765,16.5597439 8.63655809,15.5259712 8.85851294,14.5130708 C9.00315395,13.8529955 9.10365838,12.8499275 9.16473509,11.6017741 C9.22562494,10.3574393 9.24118442,9.05032615 9.23160126,7.93627658 C9.23075337,7.83770898 9.2299078,7.76865354 9.23044032,7.70223687 C9.23430661,7.65801965 9.24194566,7.57611519 9.25336046,7.46188703 C9.27233131,7.27204524 9.29508204,7.06064001 9.32161872,6.83302296 C9.39748241,6.18230586 9.48854364,5.53141149 9.59498906,4.92272457 C9.63927292,4.66949611 9.68545288,4.42838792 9.73356237,4.20112766 C9.99851749,2.94952904 9.64521027,2.1688192 9.15334328,2.1688192 C8.38804265,2.1688192 7.77384705,2.64901542 7.58888288,3.81399711 C7.49530451,4.40339282 7.45422109,4.6024394 7.02928017,6.59233539 C7.00061168,6.72658304 6.97526365,6.8457846 6.95119015,6.95966309 C6.65930164,8.34042718 6.4977913,9.22382329 6.429492,9.9030511 C6.39558369,10.2402648 6.34792797,10.5673403 6.27679956,10.9755588 C6.25975535,11.0733785 6.24182541,11.173489 6.21787762,11.3052052 C6.18775377,11.4703968 6.17075098,11.5636227 6.15745062,11.6371625 C5.90045951,13.0581069 5.80626252,14.0333305 5.85007162,15.5581961 C5.92804301,18.27215 5.61407121,19.0609691 4.47385875,19.4011471 C3.8007598,19.6019635 3.45204374,18.8043382 3.13964889,17.2820423 C3.05274096,16.8585411 2.97848621,16.4062381 2.91663483,15.9541367 C2.89500736,15.7960511 2.87646253,15.649202 2.86099214,15.5172747 C2.85166557,15.4377403 2.84540782,15.3805641 2.8422575,15.3498583 C2.83441444,15.27446 2.82073705,15.1390879 2.8031682,14.958544 C2.7738999,14.6577722 2.74463255,14.3414869 2.71730712,14.0244478 C2.69994014,13.82295 2.68390918,13.6273877 2.66948963,13.4398422 C2.61979727,12.793527 2.59175756,12.2779253 2.59175756,11.936182 C2.59175756,11.6828186 2.57862419,11.770732 2.77568349,10.5663425 C2.82791726,10.2470994 2.8642322,10.0019665 2.89278412,9.76368686 C3.05228904,8.43254089 2.89358092,7.75091386 2.3639659,7.69547225 C1.23310833,7.57709086 0.807704244,8.76529364 0.636027175,12.1984637 C0.551556527,13.8950706 0.630136149,15.0798315 0.889315856,17.1588808 C0.919646071,17.4015622 0.935522955,17.5287146 0.949640982,17.6429762 C0.972176286,17.8253613 0.99065213,17.9783959 1.00772975,18.1251343 C1.05670834,18.5459802 1.09288487,18.9056534 1.12005242,19.2568845 C1.17694563,19.9924189 1.17936086,20.3635446 1.13386945,20.7444484 C1.11649259,20.8899464 1.02189796,21.4756546 1.00086654,21.6218621 C0.932204814,22.0991889 0.872508883,22.648692 0.815270211,23.390171 C0.775949933,23.8995323 0.739395185,24.4830941 0.705714278,25.1529987 C0.455360151,30.1324776 0.883998325,34.1110454 2.01510278,37.1642607 C2.51927164,38.5251748 2.82099766,39.6907692 2.98959589,40.8943085 C3.16454492,42.143183 3.1951717,43.0916697 3.1951717,45.7661188 C3.1951717,46.7851916 3.2527479,48.0971771 3.35690525,49.6270099 C3.36812666,49.7918267 3.2424512,49.9344554 3.07620127,49.9455801 C2.90995133,49.9567047 2.76608238,49.8321127 2.75486097,49.6672959 C2.64986902,48.1252048 2.59175756,46.8010223 2.59175756,45.7661188 C2.59175756,43.1203257 2.56166307,42.1883235 2.39191794,40.9765971 C2.22942843,39.8166649 1.93840584,38.6924188 1.44868202,37.3704965 C0.285890255,34.231747 -0.15101408,30.1764536 0.103048303,25.1232185 C0.136985563,24.4482152 0.173869513,23.859398 0.213615385,23.3445235 C0.271830848,22.5903909 0.332929109,22.0279793 0.403496057,21.5374077 C0.426072228,21.3804613 0.518999863,20.8050747 0.534640892,20.674111 C0.574747012,20.3382988 0.572563702,20.0028096 0.518404603,19.3026228 C0.491892456,18.959865 0.456451787,18.6075078 0.408292295,18.1937 C0.391396593,18.0485246 0.373080565,17.8968139 0.35070355,17.7157098 C0.336640299,17.6018915 0.320820825,17.4751989 0.290457853,17.2322544 C0.0273813631,15.1219465 -0.0531922306,13.9071221 0.0333499434,12.1689084 C0.223423822,8.36784171 0.740363006,6.92397081 2.42733002,7.10056733 C3.46231607,7.20891262 3.68960003,8.18506233 3.49198522,9.83425371 C3.46223953,10.0824959 3.42479978,10.3352216 3.37131267,10.6621248 C3.18764449,11.7846704 3.1951717,11.734284 3.1951717,11.936182 C3.1951717,12.2586685 3.22255945,12.7622816 3.27115848,13.3943766 C3.28543079,13.580007 3.30131378,13.7737643 3.31853046,13.9735183 C3.34565374,14.288212 3.37472428,14.6023703 3.40379386,14.9011001 C3.42122775,15.0802571 3.43477471,15.2143383 3.44253111,15.2889063 C3.45441615,15.4047376 3.47844626,15.6096598 3.5145744,15.8737377 C3.57477579,16.3137786 3.64698436,16.7536178 3.73095029,17.1627827 C3.84448844,17.7160525 3.97068212,18.1678453 4.10545768,18.4761202 C4.22241877,18.7436477 4.30580285,18.826572 4.29997051,18.8283121 C5.10355756,18.588565 5.31799641,18.0498113 5.24690208,15.5752276 C5.2017716,14.0043686 5.29976016,12.9898909 5.56350816,11.5315865 C5.5769012,11.4575343 5.59400356,11.3637625 5.624033,11.1990897 C5.64774328,11.0686798 5.66543972,10.9698731 5.68219139,10.8737323 C5.75106319,10.4784648 5.79677168,10.1647538 5.82905393,9.84371093 C5.90019264,9.13624572 6.06433239,8.23846773 6.36060624,6.83695906 C6.38477191,6.72264456 6.4102024,6.60305517 6.43895044,6.46843504 C6.86019226,4.49586106 6.90173945,4.29456753 6.9928075,3.72098288 C7.22560671,2.25471608 8.10061744,1.57060691 9.15334328,1.57060691 C10.1220278,1.57060691 10.6568194,2.75234616 10.3241114,4.32399682 C10.2775287,4.54404464 10.2326585,4.77831446 10.1895342,5.02491202 C10.0852555,5.62120933 9.99569597,6.26136949 9.92104239,6.90170692 C9.89489802,7.12595895 9.87249357,7.33414644 9.85383511,7.52086222 C9.84267231,7.6325686 9.83525963,7.71204595 9.83269149,7.72346227 C9.83327117,7.76077903 9.83413347,7.8312009 9.83499346,7.93117525 C9.84466601,9.05561641 9.82898331,10.3730806 9.76744044,11.6307604 C9.70486547,12.9095321 9.60164803,13.9396769 9.44817362,14.6400638 C9.25499568,15.5216395 9.32394059,16.4102582 9.55147093,16.8129195 C9.61898114,16.8654227 9.73444609,16.6375512 9.83187735,16.23881 C10.0608594,15.3029755 10.1088555,14.4907589 10.1152567,12.5647279 C10.1200046,11.1361635 10.1391268,10.4889962 10.2279788,9.66605694 C10.2445596,9.51038213 10.2660685,9.34145577 10.2910872,9.16969409 C10.4303981,8.21327888 10.6653957,7.22576553 11.0126476,6.03366488 C11.044491,5.92434785 11.6283263,4.00656248 11.7273509,3.61264748 C11.7788112,3.40794129 11.8152419,3.20428535 11.8772768,2.80255787 C11.9195215,2.52898818 11.917638,2.54109833 11.9330112,2.44645477 C12.2114296,0.732401642 12.7230757,-0.0566977101 14.107486,0.00316220959 C15.3469994,0.0567569946 15.7408996,1.12536985 15.5895953,2.79422043 C15.5521131,3.20764031 15.4835516,3.63993293 15.3861594,4.12385111 C15.3586522,4.26052754 15.3301937,4.39496175 15.2953708,4.5544945 C15.2877092,4.58959425 15.2324463,4.84061887 15.2190844,4.90263068 C15.1142104,5.38934477 15.0537166,5.89469144 14.9757971,6.82456982 C14.966225,6.93880256 14.9328307,7.34515882 14.9281744,7.40127069 C14.9083868,7.6397277 14.8919017,7.83151783 14.8744972,8.02306664 C14.8297508,8.51553017 14.7826335,8.96161309 14.725609,9.41529416 C14.6823182,9.75971138 14.3740428,11.7382013 14.3460816,11.9257666 C14.2712093,12.4280131 14.2078137,12.8808136 14.1531396,13.3108869 C13.9670337,14.7748197 13.8942304,15.8885236 13.961262,16.614473 C13.9961084,16.9918583 14.0695536,17.2374942 14.1526523,17.3235192 C14.1749489,17.346601 14.2059978,17.3520244 14.2790504,17.3123182 C14.1295846,16.9303791 14.1546685,16.3991263 14.38963,15.7175219 C15.0881445,13.6911883 15.4914512,13.2325287 16.6750212,13.2325287 C18.5034969,13.2325287 19.7510903,13.9357863 19.6493776,15.7739759 C19.6560413,16.0617395 19.5785172,16.4164958 19.3517898,16.7757434 C19.350068,16.8033931 19.3479286,16.8355706 19.3453286,16.871984 C19.3350609,17.0157822 19.3209889,17.1757243 19.3025148,17.3478557 C19.2496548,17.8403774 19.1719683,18.3332617 19.064213,18.7956255 C19.0121726,19.0189239 18.9541091,19.2301569 18.8895586,19.4274758 C18.3988629,20.9274396 18.3124049,21.209684 18.3437111,21.3641623 C18.3497815,21.3840412 18.3558877,21.4033839 18.3620307,21.4222051 C18.3669358,21.4342719 18.3709904,21.4464707 18.3742225,21.4587359 C18.3918949,21.5105097 18.4098727,21.5581154 18.4281798,21.6018969 C18.4960905,21.7643055 18.5404919,21.8320449 18.6777929,22.0059115 C19.0347691,22.4579567 19.1763505,22.9433785 19.2904042,24.4557116 C19.3207858,24.8585667 19.3551687,25.2503182 19.3952988,25.6605913 C19.7726797,29.5187825 19.7501482,29.0858104 19.4490633,29.9992491 C19.3980381,30.1540504 19.336267,30.3078926 19.2626816,30.4633995 C19.0519085,30.9088232 16.8413977,33.8168226 16.7816195,33.9003521 C15.9413774,35.0744421 15.3168672,36.101655 14.8914899,37.0724299 C14.4582235,38.061209 14.2566242,38.946119 14.3123153,39.7214956 C14.4196191,41.2154671 14.9362467,44.7826957 15.7203448,49.6537134 C15.7466038,49.8168411 15.6344999,49.9701857 15.4699538,49.9962184 C15.3054077,50.022251 15.1507295,49.9111136 15.1244705,49.7479859 C14.3369151,44.8554905 13.8195299,41.28303 13.7104251,39.763984 C13.6469166,38.8797669 13.8692091,37.904025 14.3380406,36.834081 C14.7828871,35.8188744 15.4271826,34.7591181 16.2894861,33.5542012 C16.3984237,33.4019801 18.536785,30.5888958 18.7163921,30.2093348 C18.779617,30.0757226 18.8322477,29.9446446 18.8754959,29.813437 C19.1358676,29.0235156 19.1561901,29.4140407 18.7947018,25.718329 C18.7541635,25.3038822 18.7194005,24.9077999 18.6886695,24.5003129 C18.5827053,23.0952459 18.4720251,22.7157709 18.2026647,22.3746751 C18.0344462,22.1616571 17.9642633,22.0545852 17.8707626,21.8309778 C17.8448671,21.7690484 17.819854,21.7021065 17.7956335,21.629528 C17.7524263,21.5251962 17.7210338,21.4548365 17.7151105,21.3559353 C17.6478782,21.0980735 17.5867893,20.7835646 17.5294483,20.3957952 C17.3073645,18.8939507 17.1991808,18.2025885 16.9690275,17.8954916 C16.9630149,17.8885076 16.9573099,17.8812275 16.9519386,17.8736674 C16.7632818,17.6432281 16.4931754,17.6511805 16.0215156,17.6804967 C15.8540574,17.6909052 15.7068692,17.7481031 15.5775752,17.854499 C15.5510118,17.8986347 15.5132772,17.9355013 15.4681193,17.9611568 C15.0183739,18.473478 14.814335,19.6989052 14.7276646,21.767528 C14.7009157,22.4059609 14.8673771,23.0213344 15.1775707,23.5997103 Z M18.076464,19.9752537 C18.1444414,19.7658286 18.2236892,19.5238088 18.3155762,19.2429277 C18.3744648,19.0629165 18.4279934,18.8681814 18.476287,18.6609598 C18.5652985,18.2790228 18.6331517,17.8712796 18.6825371,17.460081 C18.4416188,17.6230066 18.1539267,17.7594247 17.8137444,17.8659622 L17.6406908,17.9061118 C17.8054527,18.3467585 17.9287611,19.0047685 18.076464,19.9752537 Z M18.7873139,16.5366916 C18.7975958,16.5170542 18.8100006,16.4987173 18.8242143,16.481966 C18.9130026,16.343909 18.9732614,16.2006652 19.0096968,16.0570972 C19.0388981,15.9420339 19.0476656,15.8509859 19.04645,15.7977594 L19.0466979,15.7710346 C19.1242546,14.3490539 18.2047569,13.830741 16.6750212,13.830741 C15.8215835,13.830741 15.5849476,14.0998546 14.9606215,15.9109741 C14.6643834,16.7703366 14.762167,17.1728018 15.0495288,17.3314949 C15.0873487,17.3523806 15.1262222,17.3679128 15.1632636,17.3790319 C15.3861036,17.2001682 15.6560392,17.1038262 15.9837581,17.0834567 C16.6350281,17.0429767 17.0398271,17.0758291 17.3250545,17.3653093 L17.6537228,17.2896339 C18.1543106,17.1321211 18.5047003,16.8969219 18.7348864,16.6066917 C18.7532423,16.5835477 18.7707101,16.5602061 18.7873139,16.5366916 Z"></path>
                </g>
            </g>
            <g id="slices"></g>
        </g>
    </g>
</svg>