<?xml version="1.0" encoding="UTF-8"?>
<svg width="50px" height="50px" viewBox="0 0 50 50" version="1.1" xmlns="http://www.w3.org/2000/svg" xmlns:xlink="http://www.w3.org/1999/xlink">
    <!-- Generator: Sketch 49.1 (51147) - http://www.bohemiancoding.com/sketch -->
    <title>g</title>
    <desc>Created with Sketch.</desc>
    <defs></defs>
    <g id="Finger" stroke="none" stroke-width="1" fill="none" fill-rule="evenodd">
        <g id="Finger-Alphabet" transform="translate(-350.000000, 0.000000)">
            <g id="letters" transform="translate(11.000000, 0.000000)" fill="#1D1D1B" fill-rule="nonzero">
                <g id="g" transform="translate(344.000000, 16.000000)">
                    <path d="M28.017174,8.63044168 C28.0028153,8.63571953 27.9889907,8.64072615 27.9756898,8.64546797 C27.9036232,8.66315998 27.775445,8.69398411 27.606342,8.73357122 C27.3246119,8.79952436 27.0324126,8.8654793 26.744855,8.92707838 C26.6275476,8.95220736 26.5131703,8.97613851 26.4023208,8.9986983 C25.7781715,9.12572344 25.3048877,9.20204764 25.0276503,9.21130709 C24.6283328,9.22468362 24.2681157,9.15865681 23.8025394,8.96473482 C23.6848809,8.9157277 23.6292281,8.78061859 23.6782352,8.66296018 C23.7272423,8.54530176 23.8623514,8.48964889 23.9800098,8.538656 C24.3846446,8.70719459 24.679078,8.76116344 25.0122202,8.75000368 C25.2548849,8.74189892 25.711648,8.66823893 26.3102721,8.54640862 C26.4195193,8.52417492 26.5323604,8.50056519 26.6481751,8.47575597 C26.9326265,8.41482228 27.222058,8.3494921 27.5011346,8.28416012 C27.6685155,8.24497616 27.7951057,8.21453391 27.8402792,8.20501527 C27.9169233,8.17653371 28.0531124,8.12306693 28.2288105,8.04917343 C28.5217326,7.92597892 28.814523,7.79137112 29.086796,7.65019839 C29.5489407,7.41057782 29.9018468,7.17726208 30.0940505,6.9710383 C30.126578,6.93613816 30.1537149,6.90276768 30.1753054,6.87129839 C30.2234192,6.80159677 30.2467403,6.76749902 30.2710772,6.73030153 C30.5651046,6.28089864 30.5679143,5.94469574 30.0763535,5.4459947 C29.54968,5.48617894 29.0370498,5.5155881 28.5461962,5.53172994 C26.4995461,5.5990345 25.1509338,5.43984965 24.6846155,4.91554572 C24.5999105,4.82030781 24.6084491,4.67443524 24.703687,4.58973022 C24.7989249,4.50502519 24.9447975,4.51356378 25.0295025,4.60880168 C25.3589461,4.97921083 26.654467,5.13212899 28.5310259,5.07041791 C29.2442155,5.04696451 30.0060247,4.99496866 30.7907218,4.92232001 C31.1345766,4.89048532 31.461232,4.85670777 31.7825508,4.8207953 C31.9470633,4.80240842 32.2743725,4.76421002 32.289293,4.76260117 C32.998899,4.6861044 35.7390104,4.6404903 36.9712048,4.72600544 C37.1755054,4.74015833 37.3676623,4.75873999 37.6541743,4.79018818 C39.1320371,4.95240166 39.4250686,4.89445289 39.5223297,4.27399161 C39.6557938,3.42336026 38.837309,2.85699829 37.3506102,2.6395808 C36.811127,2.56083253 36.2534048,2.51116028 35.7037111,2.48508001 C35.3436065,2.46799481 35.0430432,2.46328052 34.8279892,2.46529113 C34.7439778,2.46093467 34.7439778,2.46093467 34.635099,2.44754968 C34.528678,2.43452821 34.4085293,2.42001556 34.2771891,2.4043849 C33.9019214,2.35972469 33.5122762,2.31506477 33.1285767,2.27339319 C32.965816,2.25571661 32.8072794,2.23892829 32.653884,2.2231627 C32.0095705,2.15694182 31.4833588,2.11148639 31.1186218,2.09295168 C30.6560035,2.06944298 29.4333084,1.96587925 27.6784097,1.8055806 C27.5456073,1.79343929 27.5456073,1.79343929 27.4130191,1.78127692 C26.6600355,1.71215047 25.8683301,1.63809058 25.0866416,1.5640312 C24.8130542,1.53811076 24.5602578,1.51404155 24.3343468,1.49244049 C24.1023223,1.47022068 24.1023223,1.47022068 24.0509881,1.46527802 C23.9791414,1.4478765 23.9328111,1.43334392 23.8670514,1.41294628 C23.7572401,1.37888449 23.6332537,1.34091304 23.4977265,1.30001171 C23.1104959,1.18314777 22.7086117,1.06628696 22.3132328,0.957283784 C22.1481306,0.91176626 21.9873138,0.868507681 21.8317018,0.827847219 C21.0168502,0.614931516 20.3899805,0.484909809 20.0426036,0.466889146 C19.4460987,0.43595253 18.6610949,0.540848067 17.685494,0.761349177 C17.31205,0.845753384 16.9190519,0.944954726 16.4712858,1.06590253 C16.1546485,1.15143064 15.1772658,1.42543725 15.1475967,1.4336148 C13.1574425,1.98213357 11.7557165,2.52136232 10.7113035,3.08688474 C10.1088182,3.41311481 8.82654361,4.31108725 8.94436966,4.23766326 C8.83695574,4.30459887 8.73517201,4.36122448 8.63194078,4.41058939 C7.87649096,4.77195449 4.53919142,5.79352393 0.332325747,7.01539301 C0.209927283,7.05094321 0.081884596,6.98053877 0.0463344003,6.85814031 C0.0107842046,6.73574185 0.0811886362,6.60769916 0.2035871,6.57214897 C4.34971949,5.36791965 7.71365519,4.3381967 8.43279419,3.99420068 C8.51968916,3.95264773 8.60668183,3.90425087 8.70026231,3.84593565 C8.56218041,3.93198219 9.86101893,3.0224101 10.4915301,2.68100475 C11.5690742,2.09754266 13.0029837,1.54593329 15.0249539,0.988645527 C15.0527177,0.980993098 16.0317403,0.706526765 16.3509253,0.620310501 C16.8043948,0.497822119 17.2033249,0.397123396 17.5837404,0.311143513 C18.5971272,0.0821022109 19.4185402,-0.0276584725 20.0665125,0.00594740854 C20.455685,0.0261362773 21.103267,0.160453996 21.9483874,0.381278753 C22.1060745,0.422481431 22.2688767,0.466274046 22.4359055,0.512322723 C22.8351821,0.622400487 23.2405327,0.740269247 23.6310823,0.858134883 C23.7677782,0.899388907 23.8928886,0.93770457 24.0037935,0.97210557 C24.0535049,0.987525288 24.0923973,0.999680684 24.1193835,1.00816678 C24.1538256,1.01147986 24.1878576,1.01473893 24.3782798,1.03297469 C24.6040625,1.05456349 24.8567268,1.07862012 25.1301763,1.1045275 C25.9114503,1.17854761 26.7027252,1.25256722 27.4552145,1.3216483 C27.5877013,1.33380136 27.5877013,1.33380136 27.7203956,1.34593279 C29.4669173,1.50546626 30.6885476,1.6089398 31.1420466,1.63198509 C31.5165889,1.65101807 32.0494579,1.69704857 32.7010735,1.76401994 C32.8553841,1.77987959 33.014798,1.79676081 33.1784114,1.81453 C33.5638213,1.85638734 33.9549972,1.9012227 34.3317342,1.94605776 C34.4635956,1.96175045 34.5842464,1.97632376 34.6911567,1.98940509 C34.8006752,2.00286868 34.8006752,2.00286868 34.7920534,2.00414128 C35.0470146,2.00166182 35.3561886,2.00651117 35.7255853,2.02403723 C36.2893412,2.05078469 36.8616757,2.10175835 37.4173385,2.18286837 C39.1257905,2.43271543 40.1655485,3.15219044 39.9783177,4.34550333 C39.8221885,5.34150309 39.3312111,5.4385969 37.6038148,5.24899407 C37.3229562,5.21816641 37.1360557,5.20009305 36.9392778,5.18646129 C35.7338294,5.10280234 33.0209473,5.14796316 32.3387696,5.22150311 C32.3263053,5.22284712 32.0002377,5.26090061 31.8338184,5.2795006 C31.5097564,5.31571967 31.1802448,5.34979256 30.833272,5.38191592 C30.7701268,5.38776202 30.7071244,5.39347606 30.6442774,5.39905402 C31.0549876,5.95365376 31.0048458,6.45182596 30.6573164,6.98300332 C30.6299546,7.02482419 30.6035778,7.06338965 30.555914,7.1324037 C30.5206865,7.18374972 30.4791961,7.23477068 30.4316993,7.28573215 C30.1946407,7.54008267 29.8047009,7.79788248 29.2992537,8.05995525 C29.0338919,8.19754449 28.7517744,8.3282884 28.4686432,8.44886663 C28.5409517,8.99128477 28.2658554,9.49572859 27.7607188,9.99119539 C27.6678688,10.0822679 27.570655,10.1696257 27.462256,10.2611772 C27.3974119,10.3159432 27.1788652,10.4944401 27.2278907,10.4540741 C26.7027473,10.8864252 26.2409147,11.2266072 25.7926771,11.5048871 C25.7803044,11.5347463 25.7614297,11.5624698 25.7361397,11.5858495 C24.483872,12.743523 22.8727175,13.883848 21.8522652,14.2989735 C21.2802101,14.5316886 20.283756,14.5466277 18.8907689,14.4086405 C18.4822844,14.3681767 18.0534596,14.3158865 17.5663483,14.2492234 C17.3945158,14.2257075 17.2220897,14.2013535 17.0126231,14.1712014 C16.9530729,14.1626294 16.6139919,14.1135494 16.52472,14.1007637 C16.2002277,14.0542685 15.6622941,13.999792 14.9463371,13.9392788 C14.5010389,13.9016419 13.9933501,13.8622145 13.4350187,13.8215375 C12.6757995,13.7662249 11.8621855,13.7113901 11.0485484,13.6595143 C10.7637573,13.6413566 10.4993139,13.6248663 10.2620073,13.6103529 C10.1196627,13.6016473 10.0180262,13.595537 9.98816818,13.5924893 C9.3441324,13.6222201 8.48014261,13.8257478 7.35757178,14.2319544 C6.44801749,14.5610997 3.72888594,15.9563111 0.340345817,17.7832206 C0.228155865,17.8437071 0.0881739544,17.8017932 0.0276874675,17.6896032 C-0.0327990194,17.5774133 0.0091149199,17.4374313 0.121304871,17.3769449 C3.54136774,15.5330401 6.25867602,14.1387642 7.20051572,13.7979356 C8.36315737,13.3772293 9.27009208,13.1635851 9.99116645,13.1315769 C10.0455963,13.1347996 10.1475298,13.1409278 10.2901832,13.1496523 C10.5278734,13.1641892 10.792712,13.1807041 11.077917,13.1988882 C11.8928401,13.250846 12.7077863,13.3057706 13.4685566,13.3611962 C14.0285443,13.4019939 14.5379549,13.4415549 14.98521,13.4793572 C15.7095761,13.5405812 16.2544074,13.5957563 16.5901723,13.6438666 C16.6798429,13.6567094 17.0191519,13.7058224 17.0783855,13.7143489 C17.2868796,13.744361 17.4583097,13.7685743 17.6289314,13.7919245 C18.1108023,13.8578704 18.5342041,13.9094993 18.9362678,13.9493272 C20.2527662,14.0797375 21.2012512,14.0655175 21.6783403,13.8714351 C22.3407031,13.6019824 23.2927129,12.9900271 24.2184071,12.2676365 C24.143362,12.2949307 24.0672602,12.3215742 23.9899152,12.3476804 C23.5855289,12.4841287 23.2000327,12.4591158 22.7655923,12.3337163 C22.7242568,12.3217849 22.5074711,12.2534879 22.4806962,12.2481335 C22.3557141,12.22314 22.2746573,12.1015608 22.2996508,11.9765787 C22.3246443,11.8515966 22.4462236,11.7705398 22.5712057,11.7955333 C22.6266817,11.8066272 22.8762622,11.8852561 22.8935945,11.890259 C23.2459866,11.9919755 23.5432566,12.0112639 23.8423276,11.9103512 C24.9362836,11.5411088 25.7630127,11.0622507 26.9345884,10.0976858 C26.8882852,10.1358099 27.1029877,9.96045324 27.1644377,9.90855385 C27.2646931,9.82388028 27.3536562,9.74393684 27.4375148,9.66168354 C27.8031904,9.30300797 28.0093973,8.95951989 28.017174,8.63044168 Z"></path>
                </g>
            </g>
            <g id="slices"></g>
        </g>
    </g>
</svg>