<?xml version="1.0" encoding="UTF-8"?>
<svg width="50px" height="50px" viewBox="0 0 50 50" version="1.1" xmlns="http://www.w3.org/2000/svg" xmlns:xlink="http://www.w3.org/1999/xlink">
    <!-- Generator: Sketch 49.1 (51147) - http://www.bohemiancoding.com/sketch -->
    <title>h</title>
    <desc>Created with Sketch.</desc>
    <defs></defs>
    <g id="Finger" stroke="none" stroke-width="1" fill="none" fill-rule="evenodd">
        <g id="Finger-Alphabet" transform="translate(-400.000000, 0.000000)">
            <g id="letters" transform="translate(11.000000, 0.000000)" fill="#000000" fill-rule="nonzero">
                <g id="h" transform="translate(396.000000, 0.000000)">
                    <path d="M13.571528,12.2243975 C13.5773931,12.2240133 13.583303,12.2237918 13.5892533,12.2237374 C13.6303927,12.2233614 13.7080026,12.2224502 13.816863,12.2208484 C13.9985505,12.218175 14.2010646,12.2145004 14.4191793,12.2096697 C15.0421643,12.195872 15.6650602,12.1755939 16.2458358,12.1476208 C17.2935639,12.0971569 18.086586,12.0269453 18.5018008,11.9374999 C19.0853769,11.8117862 20.4681306,11.785673 22.5663516,11.8261116 C23.1168574,11.8367213 23.6922596,11.8514232 24.3677499,11.8712875 C24.5588897,11.8769084 24.7490931,11.8826665 24.9919246,11.8901389 C25.2841287,11.8991607 25.4318655,11.9037195 25.5520003,11.9073777 C25.963253,11.9199008 26.215578,11.9268544 26.4077314,11.9305983 C26.4923343,11.9322467 26.8449175,11.9400215 26.9080287,11.9413422 C28.0920902,11.9661212 29.0050574,11.961956 29.942727,11.906478 C31.7653602,11.7986405 33.0387925,11.5042353 33.4957065,11.0220337 C34.5157731,9.94551202 34.0973507,8.13526224 32.785329,8.04463806 C32.2115315,8.00478237 31.4708479,7.92151494 30.3481193,7.77802516 C30.1914551,7.75795766 30.1914551,7.75795766 30.0352545,7.73780988 C27.8430882,7.45469949 27.4899991,7.41279417 27.1455454,7.41279417 C26.2273408,7.41279417 23.2210981,7.11841362 21.279943,6.82005777 C20.7928222,6.74513267 20.6838561,6.72336073 19.0565753,6.38708311 C18.9092527,6.35663889 18.7820643,6.33053658 18.6606039,6.30586427 C17.6054763,6.09153559 16.8927114,5.96916363 16.3238788,5.91730402 C15.7255942,5.86275932 15.271537,5.919609 14.652141,6.09196183 C14.5356803,6.12436811 14.007634,6.28001667 14.1186216,6.24763547 C13.6716586,6.37810098 13.3459102,6.45728066 12.9605895,6.51838142 C12.484895,6.59371939 12.1248417,6.65657375 11.7981221,6.71918281 C11.7116679,6.73574996 11.2848099,6.82076449 11.176109,6.84032522 C11.0182571,6.86873071 10.8717576,6.89026506 10.6900308,6.91101878 C10.459886,6.93730197 10.1642041,6.96317653 9.72680144,6.99528674 C8.95714028,7.05203012 8.32313972,7.06521469 7.85619812,7.05382085 C7.80331066,7.05253034 7.76660862,7.05121385 7.74677697,7.05028398 C7.57469734,7.04221541 7.44170567,6.89543835 7.44973178,6.72244824 C7.45775788,6.54945814 7.60376243,6.41576281 7.77584206,6.42383138 C7.79107952,6.42454584 7.82314073,6.42569587 7.87133569,6.42687187 C8.31873173,6.43778878 8.93257421,6.42502342 9.68127052,6.36982568 C10.1111413,6.33826839 10.3993576,6.31304713 10.6196152,6.28789309 C10.7881012,6.2686515 10.9214258,6.24905377 11.0661882,6.22300375 C11.1681333,6.2046587 11.5898658,6.120665 11.6813099,6.10314162 C12.0146653,6.03926096 12.3812931,5.9752589 12.8634487,5.89889765 C13.2156397,5.84305031 13.5162768,5.77019922 13.9371266,5.6475752 C13.8512724,5.67255875 14.3667302,5.52066574 14.4857246,5.48755441 C15.1722099,5.29653334 15.6987677,5.23060632 16.3802221,5.29273349 C16.9781966,5.34724992 17.7078093,5.47251442 18.7841594,5.69115405 C18.9063807,5.71598093 19.0342281,5.74221848 19.1821855,5.77279387 C20.7918121,6.10542327 20.9031855,6.12767618 21.3742596,6.2001331 C23.2868608,6.49410021 26.264303,6.78566053 27.1455454,6.78566053 C27.4978958,6.78566053 27.7917663,6.8167628 29.547447,7.04263676 C29.5736903,7.01149291 29.6064529,6.98501805 29.6449899,6.96548473 C29.6740743,6.95074263 29.7329537,6.91675074 29.8114641,6.86405184 C29.9450025,6.77441625 30.0788665,6.6669603 30.203051,6.54278084 C30.7356808,6.01017266 30.9206337,5.37173736 30.576296,4.57996398 C30.2145068,3.74806258 29.2647912,3.2145194 27.6822068,2.80207322 C27.4090407,2.73088187 27.1278411,2.66517132 26.76195,2.58511841 C26.8240877,2.59871346 26.0820281,2.43832866 25.8964303,2.39610198 C25.6250476,2.3343578 25.412209,2.28058809 25.2267542,2.22532015 C22.9310485,1.54117016 17.9237029,0.58150416 16.0592528,0.628741604 C14.2816778,0.67324186 14.5375474,0.60246051 8.11864102,2.57840912 C7.97467267,2.64456401 7.86840444,2.68086621 7.7270999,2.72737825 C7.49195644,2.80477848 7.24483295,2.88217393 6.9970232,2.95451736 C6.8418068,2.99982989 6.69100227,3.04175861 6.54608802,3.07962412 C6.34617113,3.13186161 6.16031187,3.17562826 5.99097026,3.20967577 C4.52207355,3.50500951 3.47626603,4.29351517 3.26593988,5.98807666 C3.09620926,7.35556694 2.71281627,8.10708129 2.06761121,8.61588979 C1.99424663,8.67374507 1.91875926,8.72804659 1.82932268,8.78847974 C1.78108661,8.82107331 1.62640985,8.92278287 1.61483848,8.93049012 C1.51293324,8.99836533 1.44464991,9.04773741 1.38442809,9.09853906 C0.617445838,9.74554651 0.342657507,10.7777646 0.960706185,12.4069296 C1.59915151,14.0898597 1.62904459,14.1757759 1.70265011,14.6487596 C1.77249448,15.0975743 1.76040054,15.4863675 1.66603509,16.4980051 C1.59039889,17.3088571 2.16079688,19.219577 3.28800498,22.1907447 C3.3882763,22.4550463 3.49356373,22.7295799 3.6062904,23.0209442 C3.75004978,23.3925186 3.89702209,23.7687375 4.09069624,24.2618752 C4.14684624,24.4048457 4.20909115,24.5631778 4.32474195,24.8573334 C4.41768166,25.0937846 4.4845831,25.2642315 4.5488846,25.4285067 C4.89710699,26.3181328 5.11599975,26.8933084 5.27053502,27.3344785 C5.29395907,27.3866339 5.33369256,27.4796164 5.38431789,27.6057539 C5.46822463,27.8148151 5.55205762,28.041466 5.63040094,28.2781896 C5.74428162,28.6222935 5.83683112,28.958518 5.90048763,29.2772962 C5.94087939,29.4795695 5.96897429,29.6718726 5.98338979,29.8529618 C6.00970559,30.183544 6.01882877,30.4105677 6.032484,30.9342582 C6.04238913,31.3141289 6.04946504,31.4924795 6.06583098,31.7014275 C6.08888927,31.9958183 6.12740782,32.2571571 6.19003327,32.5221003 C6.29718675,32.9754238 6.40675854,33.2430524 6.67035143,33.7675884 C6.83492857,34.0951983 6.90966564,34.2543613 6.99179124,34.4624382 C7.28724715,35.2123746 7.60499134,40.7961759 7.94470969,49.5325462 C7.95143867,49.7055922 7.81735041,49.8513574 7.64521518,49.858122 C7.47307994,49.8648866 7.32808184,49.7300889 7.32135286,49.5570429 C6.9932975,41.1206039 6.66398384,35.3334894 6.41186344,34.6935485 C6.33852343,34.5077314 6.2701782,34.3621807 6.13265595,34.0884156 C5.82977066,33.4856886 5.70396145,33.1784002 5.5831003,32.6670851 C5.51256338,32.3686716 5.46938192,32.0756961 5.44392298,31.7506556 C5.42643134,31.5273355 5.41905013,31.3412899 5.40886528,30.9506916 C5.39549499,30.4379289 5.3866934,30.2189075 5.36154486,29.9029887 C5.34921706,29.7481254 5.32465127,29.5799783 5.28885696,29.400728 C5.23072257,29.1096034 5.14480999,28.7974902 5.03846862,28.4761672 C4.96448158,28.2526067 4.88510346,28.038 4.80579911,27.840406 C4.75849778,27.7225505 4.72206609,27.6372948 4.69228389,27.5683466 C4.53111038,27.1116092 4.31413125,26.5414619 3.96837759,25.6581429 C3.90420608,25.4941998 3.8374007,25.3239976 3.74456051,25.0877996 C3.62893847,24.7937172 3.56664611,24.6352643 3.51045055,24.4921779 C3.31642073,23.9981345 3.16909636,23.6210144 3.02488515,23.2482721 C2.91168522,22.9556846 2.80591109,22.679882 2.70512556,22.414225 C1.53117766,19.3198575 0.955975988,17.3930462 1.04492702,16.4394535 C1.13447243,15.4794888 1.14547304,15.125844 1.08631382,14.7456912 C1.02296764,14.3386333 0.99086829,14.246376 0.377823475,12.6304012 C-0.335584606,10.7498706 0.0142635206,9.43569701 0.983425908,8.61813534 C1.06524742,8.54911272 1.15044349,8.48751193 1.27027947,8.40769374 C1.28479528,8.39802531 1.43698889,8.29794857 1.48131836,8.26799473 C1.55904193,8.21547618 1.62263687,8.16972942 1.68257784,8.12245999 C2.19037878,7.72200834 2.49654476,7.12187184 2.64690714,5.91042815 C2.89725143,3.8934474 4.16564473,2.93711911 5.86862656,2.59472065 C6.02538583,2.56320291 6.19998494,2.52208784 6.38915535,2.47265836 C6.52806881,2.43636083 6.67324893,2.39599589 6.82305229,2.3522636 C7.06355166,2.2820543 7.30411086,2.20671468 7.53297966,2.13137984 C7.67008247,2.08625084 7.77246315,2.05127667 7.74434126,2.07670221 L7.83935435,2.02798115 C14.4578013,-0.0291779483 14.1768646,0.0485377224 16.0436291,0.00180468697 C17.9884204,-0.0474682855 23.0507709,0.922739488 25.4040593,1.62404988 C25.5741994,1.67475381 25.7749214,1.72546249 26.0341333,1.78443763 C26.2158692,1.82578564 26.9535071,1.98521475 26.8946138,1.97232957 C27.2678181,2.05398251 27.5562939,2.12139337 27.8387566,2.19500754 C29.5928321,2.65214699 30.6857747,3.26615404 31.147889,4.32874394 C31.6060174,5.3821685 31.3440778,6.28635255 30.6429931,6.98740877 C30.5807316,7.04966774 30.5184962,7.10711181 30.4572952,7.15979412 C31.5513656,7.29941552 32.2753206,7.38058432 32.8282102,7.41898778 C34.7261803,7.55008464 35.2989762,10.0282114 33.9474046,11.454585 C33.3378796,12.0978439 31.9661206,12.4149812 29.9793788,12.5325283 C29.0213823,12.5892089 28.0943634,12.5934383 26.8950452,12.56834 C26.8312246,12.5670045 26.4792917,12.559244 26.3956427,12.5576142 C26.2005153,12.5538123 25.9465754,12.5468142 25.5331126,12.5342238 C25.4128299,12.5305611 25.2649382,12.5259975 24.9728378,12.516979 C24.7302644,12.5095145 24.5403209,12.5037642 24.3495091,12.498153 C23.6759413,12.4783453 23.1025066,12.4636936 22.5543941,12.45313 C21.8419527,12.4393993 21.2105509,12.4336606 20.6687154,12.4367637 C20.6763218,12.543038 20.6846842,12.6739626 20.6930262,12.827121 C20.774427,14.3216278 20.7504777,15.9524287 20.5459733,17.4922076 C20.3881086,18.6808207 20.1312941,19.7185007 19.7583765,20.5656938 C19.7856061,20.6345116 19.788829,20.7132383 19.7617478,20.7883441 L19.1555373,22.4695781 L19.0940562,22.5725752 C19.0364767,22.6368406 18.9206929,22.802668 18.765186,23.0909285 C18.4970681,23.5879342 18.2266608,24.2487385 17.9727411,25.0939911 C17.9172676,25.2786521 17.8631339,25.4705263 17.8104607,25.669745 C17.5874951,26.513038 17.5044094,27.316094 17.5341709,28.1886865 C17.5639075,29.0605502 17.544617,28.9280359 17.997497,31.7100096 C18.0526196,32.0486201 18.098545,32.3437421 18.1409248,32.6355182 C18.354077,34.1030279 20.0692843,41.717338 21.9502753,49.613333 C21.9903956,49.7817491 21.8871098,49.9509732 21.7195802,49.9913057 C21.5520505,50.0316382 21.383717,49.927806 21.3435968,49.7593899 C19.4556454,41.8341767 17.7408923,34.221883 17.5236376,32.726129 C17.4818301,32.4382923 17.436439,32.1466039 17.3818536,31.8112941 C16.9218619,28.9856338 16.9418316,29.1228136 16.9107044,28.2101767 C16.8789051,27.2778367 16.9683383,26.413429 17.2075613,25.5086479 C17.2620146,25.3026963 17.3180489,25.1040857 17.3755466,24.9126862 C17.8148184,23.4504308 18.2625647,22.5934531 18.5886919,22.2013762 L18.7583372,21.7308901 C18.1785996,22.919067 16.7855837,23.8854912 14.5054099,24.3653401 C14.2847674,24.411773 14.0705411,24.4525062 13.8630792,24.4877388 C13.6979712,24.985062 13.2310906,25.6547268 12.3035899,26.3078549 C11.8455904,26.6303694 11.3047251,26.9192985 10.6747167,27.1670848 C10.5142909,27.2301813 10.3333595,27.1505922 10.270595,26.9893176 C10.2078306,26.8280429 10.2870009,26.6461542 10.4474267,26.5830577 C11.0319397,26.353165 11.5289118,26.0876835 11.9456824,25.7942016 C12.4552261,25.4353907 12.8186871,25.0553066 13.0618833,24.6794512 C13.0808279,24.6501727 13.0984583,24.6219241 13.1148335,24.5947702 C11.1178346,24.8233786 9.91690183,24.4715648 9.91690183,23.7707598 C9.91690183,23.5975816 10.0565516,23.457193 10.2288183,23.457193 C10.401085,23.457193 10.5407348,23.5975816 10.5407348,23.7707598 C10.5407348,23.7579421 10.7383915,23.8922571 11.1637879,23.9730431 C11.8730124,24.1077302 12.9429067,24.0534322 14.3775895,23.7515118 C17.0396337,23.1913006 18.2916876,21.989984 18.4339427,20.6335508 C18.5526413,19.5024483 17.6623175,18.7128229 15.5581976,18.6990067 C14.6707028,18.7273223 13.8680808,18.7234991 12.8102348,18.6991454 C11.9408824,18.6791313 11.9866114,18.6800652 11.7626363,18.6800652 C10.2241324,18.6800652 8.04756139,18.5274221 6.85749779,18.2402497 C6.68998929,18.1998285 6.58679223,18.0305497 6.6270007,17.8621549 C6.66720917,17.6937601 6.83559705,17.5900171 7.00310555,17.6304383 C8.13283444,17.9030514 10.2700088,18.0529316 11.7626363,18.0529316 C11.9940208,18.0529316 11.9459245,18.0519493 12.8245173,18.0721762 C13.8398463,18.095551 14.6154403,18.0998205 15.4588862,18.074638 C15.4729281,18.0726936 15.4872683,18.0716889 15.5018418,18.0716889 C15.5178329,18.0716889 15.533772,18.0717335 15.5496591,18.0718225 C15.7089628,18.0666977 15.8710446,18.0605222 16.0379389,18.0532275 C17.7674715,17.9776326 18.4035946,17.1666149 18.5704739,14.904341 C18.576568,14.6234432 18.5277472,14.2470698 18.376893,13.8878032 C18.1529072,13.3543704 17.7613284,13.0193271 17.1297747,12.9438653 C16.4624527,12.8641296 14.9947785,12.8381937 12.9830005,12.855423 C12.1202852,12.8628115 11.1986306,12.8778041 10.2605798,12.8981546 C9.7788823,12.9086047 9.32375822,12.9198013 8.90931876,12.9309971 C8.66074537,12.9377121 8.4810496,12.9429322 8.39063417,12.945652 C8.06074877,12.9549948 7.69378397,12.9298117 7.3175155,12.8420556 C7.1497057,12.8029177 7.0452295,12.6344337 7.08416137,12.465736 C7.12309325,12.2970383 7.29069048,12.1920094 7.45850028,12.2311472 C7.77510578,12.3049883 8.09240437,12.3267631 8.33842748,12.3200329 C8.46270417,12.3160694 8.64317502,12.3108268 8.89256111,12.3040898 C9.30805411,12.2928655 9.76426806,12.2816421 10.2471205,12.2711669 C11.1877,12.2507616 12.1119855,12.2357262 12.9776862,12.2283121 C13.1812877,12.2265685 13.379306,12.2252588 13.571528,12.2243975 Z M18.124546,12.6328586 C18.497295,12.8662811 18.7708099,13.2133085 18.9516205,13.6439175 C19.1426189,14.0987893 19.2019944,14.5565322 19.1942968,14.9126612 C19.193973,14.9253298 19.193973,14.9253298 19.1931939,14.9404271 C19.0552724,16.8122181 18.562229,17.8969663 17.4918502,18.3806821 C18.5937583,18.7932467 19.1308339,19.5906581 19.0628914,20.6001101 C19.068138,20.5755606 19.0764237,20.5512535 19.0879188,20.52769 C19.4871833,19.7092468 19.7628169,18.650123 19.9276276,17.4092112 C20.1261621,15.9143818 20.1495753,14.3200804 20.0701263,12.8614082 C20.0609636,12.6931813 20.0518268,12.553265 20.0438346,12.4451923 C19.3713505,12.4604055 18.89239,12.4947299 18.632512,12.5507127 C18.4944334,12.5804575 18.3243136,12.6077778 18.124546,12.6328586 Z M18.9849966,21.1022843 L19.0906368,20.8093068 C19.0701713,20.7692712 19.058371,20.7250598 19.05631,20.6798299 C19.0556762,20.6863199 19.0550179,20.6928184 19.0543351,20.6993252 C19.0400644,20.8353989 19.0169805,20.9698221 18.9849966,21.1022843 Z M14.1205526,6.24707153 L14.1186216,6.24763547 C14.1221708,6.24659996 14.1263736,6.24537216 14.1312642,6.2439419 C14.1276858,6.24498839 14.1241154,6.24603159 14.1205526,6.24707153 Z"></path>
                </g>
            </g>
            <g id="slices"></g>
        </g>
    </g>
</svg>