<?xml version="1.0" encoding="UTF-8"?>
<svg width="50px" height="50px" viewBox="0 0 50 50" version="1.1" xmlns="http://www.w3.org/2000/svg" xmlns:xlink="http://www.w3.org/1999/xlink">
    <!-- Generator: Sketch 49.1 (51147) - http://www.bohemiancoding.com/sketch -->
    <title>i</title>
    <desc>Created with Sketch.</desc>
    <defs></defs>
    <g id="Finger" stroke="none" stroke-width="1" fill="none" fill-rule="evenodd">
        <g id="Finger-Alphabet" transform="translate(-450.000000, 0.000000)">
            <g id="letters" transform="translate(11.000000, 0.000000)" fill="#000000" fill-rule="nonzero">
                <g id="i" transform="translate(453.000000, 0.000000)">
                    <path d="M5.3505238,13.5621119 C5.5433491,13.3534285 5.75407564,13.1434462 5.9787136,12.9419452 C6.46809951,12.5029643 6.96359633,12.1573227 7.45322523,11.945988 C7.65038074,11.8608913 7.84451613,11.7987629 8.03529017,11.761716 C9.99990516,11.3802026 10.64216,11.8357318 11.0292238,14.5899379 C11.0300349,14.59618 11.0300349,14.59618 11.0344375,14.6290237 C11.0535043,14.7701626 11.0810043,14.961739 11.1170076,15.1970004 C11.1697655,15.5417437 11.2311703,15.9166976 11.3012886,16.3151006 C11.492089,17.3992034 11.7185689,18.4963223 11.9811347,19.5521262 C12.0176853,19.6991 11.9269428,19.8479208 11.7784557,19.8845267 C11.6299686,19.9211326 11.4799659,19.8316618 11.4434153,19.684688 C11.1775434,18.6155897 10.948581,17.5064455 10.7557375,16.4107337 C10.6848942,16.0082113 10.6228381,15.6292802 10.5694862,15.2806555 C10.5329873,15.0421558 10.5050367,14.8474403 10.4855553,14.7032326 C10.4809687,14.6690172 10.4809687,14.6690172 10.4803621,14.6642437 C10.1373192,12.2233669 9.79286805,11.9790596 8.14039731,12.2999569 C7.99113872,12.3289418 7.83508501,12.3788831 7.6732784,12.4487224 C7.24721748,12.6326198 6.79825344,12.9458017 6.34982115,13.348047 C6.11270867,13.5607377 5.89108398,13.7845203 5.69157324,14.005103 C5.62958875,14.0736342 5.57695045,14.1337223 5.53454846,14.1833675 C5.6405093,14.4799335 5.76586311,14.7523227 5.90718986,15.0011395 C6.01702325,15.1945098 6.12777055,15.3566917 6.23340859,15.488539 C6.29429705,15.5645342 6.33799004,15.6118608 6.35840065,15.6313169 C6.46843171,15.7362024 6.47154085,15.9098112 6.36534511,16.0190829 C6.25914937,16.1283546 6.08386292,16.1319104 5.97383186,16.0270248 C5.83888472,15.8983884 5.63895084,15.6488499 5.42437614,15.2710743 C4.9119693,14.3689418 4.5943714,13.1985097 4.5990272,11.7462606 C4.60033852,11.3372297 4.60393191,10.9258628 4.60966607,10.5106585 C4.62355687,9.50483923 4.64858261,8.53624329 4.68580496,7.43135318 C4.6887103,7.34511236 4.74978782,5.63596179 4.75882223,5.2966214 C4.76241381,5.16171877 4.77289534,5.00282642 4.79307506,4.75593565 C4.79872588,4.68680012 4.80602381,4.59993673 4.81997164,4.43401667 C4.83131532,4.29803603 4.83985603,4.19170587 4.84780256,4.0856885 C4.88306384,3.61525573 4.89969653,3.22965884 4.89531271,2.86340723 C4.87766933,1.38936967 4.51489687,0.598071997 3.6811127,0.550994594 C2.61211671,0.490943773 2.19067695,2.01502271 2.01736612,6.04933758 C1.99599151,6.54689401 1.90075101,9.34157204 1.86272294,10.1898171 C1.77777021,12.0847524 1.67773702,13.0791611 1.50774014,13.9766779 C1.48807014,14.0805278 1.46718596,14.185451 1.44164803,14.3097085 C1.05340604,16.1987423 0.915968379,17.1755887 0.667027455,20.6192101 C0.209659196,26.9460251 1.19080195,32.1432326 2.63356802,34.703091 C3.47107718,36.1890594 3.69678006,37.8885555 3.96436647,42.8881557 C4.06281825,44.7276345 4.10157514,47.139822 4.09927491,49.72524 C4.09914016,49.8767035 3.97506523,49.9997176 3.8221458,49.9999995 C3.66922638,50.0002815 3.54536994,49.8777246 3.54550469,49.726261 C3.54779682,47.1499508 3.50917205,44.7459861 3.41137229,42.9186898 C3.14954883,38.0267649 2.92687562,36.3500816 2.14986294,34.9714503 C0.651118743,32.3122716 -0.349993499,27.0092838 0.114671687,20.5815298 C0.365351433,17.1138551 0.506088516,16.1135579 0.899018922,14.2017121 C0.924032013,14.0800082 0.944388619,13.9777356 0.963474391,13.8769702 C1.12803233,13.0081689 1.22560969,12.038173 1.30949778,10.1669852 C1.34735856,9.32247163 1.4425759,6.52847339 1.46409642,6.0275204 C1.6544648,1.59614143 2.11966341,-0.0861853469 3.71406052,0.0033798805 C4.94564747,0.0729181406 5.42834185,1.1257956 5.44904423,2.85540096 C5.45364692,3.23993837 5.43638916,3.6400265 5.40005254,4.12480577 C5.39197351,4.23259084 5.38332018,4.3403231 5.3718605,4.47769424 C5.35786445,4.64419226 5.35063058,4.73029333 5.34503885,4.79870584 C5.32562679,5.03620454 5.31565298,5.18740027 5.3124002,5.30957739 C5.30328843,5.65182323 5.24208902,7.36438477 5.2392673,7.44814333 C5.20215678,8.54971437 5.17721968,9.51487932 5.1633847,10.5166567 C5.15767652,10.92998 5.15409987,11.3394302 5.15279484,11.7464979 C5.15063771,12.4193567 5.221551,13.0236769 5.3505238,13.5621119 Z M19.447356,12.1207673 C19.3749259,12.2543598 19.2070313,12.3047975 19.072353,12.233423 C18.9376747,12.1620485 18.8872126,11.9958899 18.9596427,11.8622973 C18.9729508,11.8377515 18.997789,11.7928224 19.0330992,11.7303232 C19.0915827,11.6268073 19.1584062,11.5113799 19.2325195,11.3868458 C19.4443294,11.0309371 19.6725134,10.6726509 19.9089393,10.3341795 C20.1155075,10.0384529 20.3191645,9.77135611 20.5176019,9.5401758 C20.9873956,8.99286439 21.4069436,8.66374881 21.8029488,8.6080939 C23.1807285,8.41445959 23.7797683,9.48416295 23.1402188,11.2618333 C23.0513773,11.5085485 22.9868016,11.7691285 22.9448936,12.041557 C22.8174192,12.8702213 22.9021137,13.7271683 23.0952755,14.4870763 C23.128819,14.6190382 23.1566203,14.7119475 23.17884,14.7805532 C23.1850729,14.805715 23.1950931,14.8503206 23.2074924,14.9125256 C23.3244753,15.4994095 23.3795201,16.2077054 23.2961585,16.9423701 C23.1760891,18.0005391 23.2358226,21.3630754 23.3909776,22.6529597 C23.4005719,22.7327218 23.4088476,22.7993301 23.426166,22.9374156 C23.5453745,23.8897233 23.5389123,24.2251784 23.3109587,24.7023335 C23.1744137,24.9881511 22.9563602,25.2761666 22.6244405,25.6136024 C21.4769104,26.7809988 19.5860187,28.9848331 18.9949194,29.8929136 C18.0504072,31.3439273 17.5917076,31.975925 16.6460859,33.0436548 C16.2229021,33.5217497 16.0463712,34.2752236 16.0701634,35.260026 C16.0835034,35.8121945 16.1456817,36.3098208 16.2764074,37.0931359 C16.3380898,37.4627401 16.3419393,37.486308 16.3580013,37.6005953 C16.4387864,38.1754113 17.6031679,43.0616702 19.1717233,49.5140857 C19.207498,49.6612486 19.1159735,49.8096001 18.9672975,49.845438 C18.8186216,49.8812759 18.6690948,49.7910292 18.6333201,49.6438662 C17.0434827,43.1039053 15.8944623,38.2821083 15.8095155,37.67768 C15.7944389,37.5704051 15.790477,37.546149 15.7300442,37.1840325 C15.5953587,36.3769897 15.5306768,35.8593262 15.5165514,35.2746505 C15.4897475,34.1651897 15.695594,33.2865907 16.2301721,32.6826472 C17.1543165,31.6391682 17.5987688,31.0268004 18.5297395,29.59659 C19.1448946,28.6515534 21.057058,26.4229269 22.2282503,25.2314588 C22.5208434,24.9340031 22.7036444,24.6925509 22.8105179,24.4688421 C22.9780467,24.1181688 22.9830782,23.85698 22.8766007,23.0063754 C22.859253,22.8680619 22.8508365,22.8003202 22.8410936,22.7193219 C22.681171,21.3898027 22.6206973,17.9855975 22.7458547,16.8825874 C22.8220017,16.2115054 22.7710967,15.5564786 22.664198,15.0201855 C22.6271858,14.8747661 22.5953891,14.7685042 22.5582416,14.6223645 C22.348646,13.7978052 22.2571722,12.8722639 22.3974465,11.9603916 C22.4445273,11.6543371 22.5175315,11.3597458 22.6186623,11.078903 C23.1336793,9.64737898 22.7845399,9.02392185 21.8792702,9.1511492 C21.6603796,9.18191228 21.3255279,9.44458764 20.9390877,9.89479185 C20.7536893,10.1107816 20.5608377,10.3637072 20.3640604,10.645417 C20.1360354,10.9718615 19.914819,11.3192075 19.709379,11.6644127 C19.5862102,11.8713757 19.4959814,12.0310809 19.447356,12.1207673 Z M6.42268574,17.0631106 C6.37371202,16.919758 6.45144746,16.7639057 6.59631272,16.7150048 C6.74117798,16.6661039 6.89831552,16.7426722 6.94728924,16.8860249 C6.95653549,16.9130902 6.95653549,16.9130902 6.99870607,17.0357798 C7.03979454,17.155114 7.08579603,17.2880793 7.1356022,17.4312438 C7.27788129,17.8402157 7.42210475,18.2488814 7.55937527,18.629709 C7.59148963,18.7188034 7.6229014,18.8054713 7.6535389,18.8894912 C7.86787044,19.4772721 8.03642334,19.9140032 8.14076793,20.1450557 C8.21471205,20.3087917 8.27474161,20.5560044 8.38054097,21.0811874 C8.39647313,21.1602739 8.4539466,21.448755 8.45806225,21.4693265 C8.49064423,21.632183 8.51699645,21.7616334 8.54383885,21.8897456 C8.61315139,22.2205573 8.678723,22.5074882 8.74864082,22.7789125 C9.14077466,24.3011947 9.6334318,25.1221861 10.2402046,25.1089422 C11.7662416,25.0756335 11.9052138,24.8982973 11.6715167,23.2795123 C11.649879,23.1296318 11.7550568,22.9904225 11.9064377,22.9685797 C12.0578186,22.9467369 12.1980778,23.050532 12.2197154,23.2004126 C12.4989604,25.1347005 12.1214064,25.6164803 10.2508871,25.657308 C9.26370187,25.6788552 8.66808708,24.6862894 8.21203725,22.9158823 C8.1398149,22.6355116 8.07248477,22.3408856 8.00160862,22.0026113 C7.97437691,21.8726411 7.94772035,21.7416956 7.91484319,21.5773637 C7.91062708,21.55629 7.85326006,21.2683433 7.83746439,21.1899343 C7.74196197,20.7158648 7.68459877,20.4796327 7.63516099,20.3701615 C7.52340139,20.1226899 7.35159438,19.6775271 7.13263877,19.0770653 C7.10176495,18.9923972 7.07012502,18.9050998 7.0377886,18.8153894 C6.89975289,18.432439 6.75488425,18.021945 6.61199046,17.6112063 C6.56198613,17.4674721 6.51579634,17.3339626 6.4745259,17.2140999 C6.43212442,17.0907386 6.43212442,17.0907386 6.42268574,17.0631106 Z M19.2562015,15.8258557 C19.2431159,15.9612248 19.2307391,16.071044 19.2191897,16.1522722 C19.1380921,16.7219532 19.128369,18.1527695 19.1577561,20.2053264 C19.1815268,21.8656084 18.5204984,23.1024312 17.0308498,23.3612307 C16.5448971,23.4456563 16.1424397,23.3771784 15.8250212,23.1881358 C15.8521368,23.4356434 15.8506573,23.7070457 15.8008737,23.9801972 C15.6570607,24.7692673 15.141195,25.304028 14.1952021,25.3841023 C12.4461015,25.5321562 11.7136144,24.4868948 11.6044113,22.6313596 C11.60604,22.5891748 11.6081182,22.5073386 11.6093458,22.390817 C11.6114044,22.1954119 11.6100183,21.9751998 11.6038938,21.7351622 C11.5863954,21.0493475 11.5345043,20.3433854 11.438116,19.6575468 C11.4170404,19.5075862 11.522738,19.3687632 11.6741982,19.3474768 C11.8256584,19.3261905 11.9655263,19.4305016 11.9866019,19.5804622 C12.0861297,20.2886397 12.1394964,21.0146771 12.1574875,21.7198022 C12.1637844,21.9665937 12.1652113,22.1933046 12.163086,22.3950361 C12.1618033,22.5167967 12.1595966,22.6036955 12.1574991,22.6241908 C12.2505273,24.1861819 12.7877941,24.9528632 14.1495519,24.8375963 C14.8284991,24.7801263 15.1541575,24.4425396 15.2559202,23.8841908 C15.3089435,23.5932636 15.2916909,23.2908387 15.2432144,23.0437325 C15.2395373,23.0249887 15.2365298,23.0113296 15.2329642,22.9953494 C15.2235776,22.9460773 15.2062781,22.8534508 15.1824129,22.7227343 C15.1464909,22.5259791 15.1074043,22.3066886 15.0661497,22.0687545 C15.0524196,22.0072096 15.0424523,21.9480511 15.0357383,21.8922575 C14.8635413,20.886714 14.7062553,19.862499 14.5845837,18.9001344 C14.4629215,17.9378448 14.3853947,17.1010462 14.361778,16.4256174 C14.3444121,15.9289587 14.3357219,15.4455164 14.3334828,14.9348449 C14.331576,14.499968 14.3412233,13.1254663 14.3397695,12.8584152 C14.3369344,12.3376096 14.3215246,11.9354054 14.2866044,11.5800591 C14.2840216,11.5659546 14.2825326,11.5514813 14.2822257,11.5367307 C14.2730171,11.4480802 14.2625505,11.3622215 14.2507146,11.2780052 C14.113627,10.3025755 13.1386492,9.85033671 11.6141365,9.95902234 C11.066866,9.99802284 10.5885068,10.3937753 10.1908887,11.039431 C10.0540132,11.2616906 9.93751332,11.4968532 9.84168657,11.7291038 C9.78452683,11.867639 9.74743394,11.9729632 9.73012852,12.0294908 C9.68572071,12.1745474 9.5310976,12.2568045 9.38476812,12.2132171 C9.23843865,12.1696297 9.15581481,12.0167035 9.20022262,11.8716469 C9.2222934,11.7995534 9.26501074,11.6782587 9.32915309,11.5228001 C9.43549648,11.2650609 9.56477424,11.0041053 9.71834176,10.754741 C10.1999607,9.97268399 10.8119466,9.46638049 11.5758958,9.41193868 C13.0322745,9.30811047 14.1399394,9.68096145 14.5958301,10.5514543 C15.0197754,9.87815879 15.8070271,9.53470706 16.9955934,9.70155947 C17.9013474,9.82871033 18.5523721,10.1884017 18.9727676,10.7219921 C19.3308841,11.1765345 19.4758716,11.6816868 19.4920396,12.1333774 C19.4936032,12.1770627 19.4933541,12.209954 19.492291,12.2327633 C19.4898302,12.2782781 19.4898302,12.2782781 19.478812,12.4780872 C19.4681088,12.6710762 19.4562049,12.8822862 19.4434099,13.1049929 C19.4137631,13.619252 19.3848133,14.092986 19.3572003,14.5097648 C19.3693128,14.5660055 19.3893305,14.648676 19.4176039,14.7495684 C19.4764308,14.9594901 19.5494391,15.167015 19.6364767,15.3554902 C19.738132,15.5756192 19.8517763,15.7531378 19.9728184,15.8735806 C20.0805518,15.9807805 20.0799092,16.1544256 19.9713832,16.2614278 C19.8628571,16.36843 19.6875443,16.3682698 19.579811,16.2610699 C19.459955,16.1418074 19.3527609,15.9953744 19.2562015,15.8258557 Z M18.8008007,14.5319203 C18.8004101,14.5154759 18.8015235,14.4992337 18.8040344,14.4833496 C18.831737,14.0658106 18.8608634,13.5900027 18.8905372,13.0752748 C18.9033074,12.8529994 18.9151913,12.6421451 18.9258755,12.4494999 C18.9368706,12.2501091 18.9368706,12.2501091 18.9392069,12.2070485 C18.9394962,12.2007927 18.9396332,12.1827089 18.9386168,12.1543129 C18.9262248,11.8081163 18.812245,11.4109977 18.5358414,11.0601701 C18.2053112,10.640642 17.6834493,10.3523132 16.9164103,10.2446353 C15.8764487,10.0986442 15.2949222,10.3888717 15.0047432,10.946856 C14.9340771,11.0827396 14.8867857,11.2256876 14.858975,11.3657682 C14.8458152,11.4320534 14.8393122,11.4840975 14.8369076,11.5164784 C14.8743525,11.8931316 14.8905903,12.3135814 14.8935319,12.8539535 C14.8950097,13.1254264 14.8853597,14.500312 14.887248,14.9309585 C14.889464,15.4363637 14.8980559,15.9143407 14.9152167,16.4051312 C14.9381668,17.0614941 15.0142904,17.8831477 15.1340654,18.830511 C15.2546371,19.7841754 15.4108087,20.8010992 15.5818059,21.7996061 C15.5825362,21.8033854 15.5831894,21.8071954 15.5837638,21.8110346 C15.5887898,21.8403592 15.5938285,21.8696677 15.5988793,21.8989579 C15.6020106,21.9171161 15.60513,21.9351705 15.6082373,21.9531193 C15.6404367,22.0931687 15.7008629,22.2554539 15.7979798,22.4059291 C16.0232315,22.7549391 16.3738525,22.9187596 16.9366302,22.8209871 C18.0997106,22.6189229 18.6244087,21.6371821 18.6040413,20.2146078 C18.5740024,18.1165219 18.5837009,16.6893247 18.670841,16.0771971 C18.7059806,15.8300574 18.751017,15.2770743 18.8008007,14.5319203 Z M4.53302465,18.7915532 C4.39984965,18.7174723 4.35281793,18.5503207 4.42797636,18.4182098 C4.50313478,18.2860989 4.67202239,18.2390562 4.80519739,18.3131371 C4.82781004,18.3257158 4.87805641,18.3506095 4.95327714,18.3828883 C5.08251698,18.4383478 5.23162022,18.4915116 5.39789754,18.5375391 C5.9858182,18.7002827 6.62269147,18.7328102 7.27623122,18.5732208 C7.4247992,18.5369416 7.57459985,18.626743 7.61082035,18.7737978 C7.64704085,18.9208525 7.55596523,19.0694741 7.40739725,19.1057532 C6.65358657,19.2898281 5.92166708,19.2524462 5.24748946,19.0658256 C4.91801233,18.9746224 4.67351541,18.8697036 4.53302465,18.7915532 Z"></path>
                </g>
            </g>
            <g id="slices"></g>
        </g>
    </g>
</svg>