<?xml version="1.0" encoding="UTF-8"?>
<svg width="50px" height="50px" viewBox="0 0 50 50" version="1.1" xmlns="http://www.w3.org/2000/svg" xmlns:xlink="http://www.w3.org/1999/xlink">
    <!-- Generator: Sketch 49.1 (51147) - http://www.bohemiancoding.com/sketch -->
    <title>j</title>
    <desc>Created with Sketch.</desc>
    <defs></defs>
    <g id="Finger" stroke="none" stroke-width="1" fill="none" fill-rule="evenodd">
        <g id="Finger-Alphabet" transform="translate(-500.000000, 0.000000)">
            <g id="letters" transform="translate(11.000000, 0.000000)" fill-rule="nonzero">
                <g id="j" transform="translate(499.000000, 0.000000)">
                    <g id="Group">
                        <path d="M3.85552624,30.8425407 C1.44461869,27.8821412 0,24.1091286 0,20 C0,12.1387908 5.2872819,5.50776095 12.5126053,3.44331856 L12.1838093,4.15182472 C5.64780538,6.31316339 1.11538462,12.9912933 1.11538462,20 C1.11538462,23.8652403 2.486829,27.5120182 4.92375041,30.3861263 L4.55706131,28.1498164 C4.50740907,27.8470046 4.71357961,27.5614302 5.0175561,27.5119682 C5.32153259,27.4625062 5.60820532,27.6678868 5.65785756,27.9706986 L6.27037509,31.7062311 C6.33345067,32.0909072 5.98963925,32.4190108 5.60654495,32.3397325 L1.36467045,31.4619114 C1.06310382,31.3995046 0.869420998,31.1053826 0.932067769,30.8049713 C0.994714539,30.5045601 1.28996784,30.3116194 1.59153448,30.3740261 L3.85552624,30.8425407 Z" id="arrow" fill="#716951"></path>
                        <path d="M18.6844484,20.1897436 C18.6380697,20.2168872 18.588257,20.2441516 18.5349533,20.271229 C17.9404523,20.5732262 17.1692429,20.7088642 16.2133306,20.5925541 C16.0592978,20.5738123 15.9496812,20.4342291 15.9684952,20.2807865 C15.9873091,20.1273438 16.1274291,20.0181472 16.2814619,20.0368891 C17.1263306,20.139688 17.7849194,20.0238574 18.2796704,19.7725317 C18.4126828,19.7049634 18.5128234,19.6393911 18.5818027,19.5855638 C18.5680323,19.4876824 18.5554062,19.388835 18.5438803,19.2891891 C18.5302343,19.2893585 18.5164068,19.2885383 18.5024784,19.2866673 L17.9295129,19.2097009 C17.59915,19.1653705 17.113644,18.6806408 16.3608187,17.7689287 C16.2771205,17.6675656 16.191334,17.5620683 16.1037178,17.4528472 C15.8110087,17.0879603 15.5104695,16.6975236 15.2184227,16.3071522 C15.1162401,16.1705672 15.0223926,16.0437132 14.9389399,15.9298123 C14.8887551,15.8613173 14.8531032,15.8122437 14.8340482,15.7858185 C14.7435159,15.6602697 14.7722938,15.4853826 14.8983255,15.3951972 C15.0243572,15.3050118 15.1999169,15.3336795 15.2904492,15.4592283 C15.3087015,15.4845402 15.3435253,15.532474 15.3928456,15.5997891 C15.4752348,15.7122386 15.5679808,15.8376035 15.6690042,15.972639 C15.9575463,16.3583259 16.2543792,16.7439475 16.5427141,17.1033817 C16.6287239,17.2106003 16.712849,17.3140544 16.7948088,17.4133122 C17.3999895,18.1462187 17.8947471,18.6401853 18.0045707,18.6549222 L18.4902713,18.7201663 C18.480787,18.5919206 18.4729088,18.4629098 18.4665492,18.3334658 C18.4483271,17.962571 18.444544,17.6357719 18.4489863,17.3785876 C18.4501681,17.3206923 18.4501681,17.3206923 18.4506069,17.306928 C18.4555821,17.1524245 18.5853469,17.0311924 18.7404447,17.0361486 C18.8955425,17.0411048 19.0172409,17.1703724 19.0122656,17.324876 C19.0119455,17.3346778 19.0119455,17.3346778 19.0108507,17.3882182 C19.0066097,17.6337526 19.0102524,17.9484264 19.027825,18.3061012 C19.0500861,18.7592049 19.0916209,19.2059682 19.1560826,19.6291844 C19.1588295,19.6414577 19.1607431,19.6538893 19.1618179,19.6663881 C19.1703152,19.7208521 19.1791965,19.7749151 19.1884696,19.8285402 C19.3333507,20.6663622 19.5616923,21.3213198 19.8721107,21.7206481 C19.947073,21.7087032 20.0256327,21.7185519 20.1076406,21.7552854 C20.2491689,21.8186797 20.3123115,21.9843627 20.2486734,22.1253487 C20.1983785,22.2367739 20.0839466,22.2994255 19.9683055,22.289505 C19.9636628,22.2929214 19.9589384,22.2961773 19.95414,22.2992727 C19.9538227,22.3026738 19.9506286,22.3072373 19.9445774,22.3142036 C19.8660559,22.4046009 19.7712746,22.5677054 19.6729522,22.7775358 C19.6084827,22.9151205 19.546474,23.0637755 19.4895034,23.2125893 C19.4553333,23.3018456 19.4306367,23.3707664 19.4194319,23.403552 C18.7187202,25.6087034 19.2190207,26.5902588 20.1766561,26.6974009 C20.3853903,26.7207545 20.5967416,26.6119811 20.7985943,26.4003636 C20.9174801,26.2757266 21.0030096,26.1497781 21.0356688,26.0910223 C21.0496416,26.0600742 21.0758458,26.0024328 21.1127414,25.921904 C21.1741386,25.7878975 21.2431422,25.6386275 21.3182145,25.4778953 C21.5327707,25.0185242 21.7530804,24.5590891 21.9669357,24.1298418 C22.0250562,24.013183 22.0820267,23.9001312 22.1377002,23.7910533 C22.3296185,23.4150387 22.5030852,23.0921019 22.6541751,22.8325215 C23.1886183,21.915184 23.2065682,20.8668618 22.8239445,19.7960346 C22.6685106,19.3618032 22.5571475,18.7602285 22.3709328,17.5012554 C22.3592455,17.4222392 22.3413447,17.300691 22.311689,17.0994539 C22.1535698,16.0287055 22.0580742,15.4729196 21.9368951,14.9987111 C21.768953,14.3403362 21.4358719,14.2032518 20.1312121,14.1225723 C19.3543068,14.0745288 19.0674692,14.049735 18.6092517,13.9743926 C18.3453001,13.9310066 18.0603524,13.918942 17.757344,13.9361151 C17.1081327,13.9729095 16.405381,14.1403101 15.6957634,14.3968659 C15.4101097,14.5001413 15.1432109,14.6108307 14.9028259,14.721364 C14.8725712,14.7352756 14.8441739,14.7485089 14.8177059,14.7609921 C14.8620402,14.887711 14.8094281,15.0314822 14.6873988,15.0981873 C14.5513571,15.172552 14.3805571,15.1229755 14.3059064,14.9874551 C14.273295,14.9282527 14.2432699,14.8409798 14.2159101,14.7309941 C14.2012399,14.6976846 14.1936059,14.6628274 14.1924655,14.6282025 C14.1381949,14.3695723 14.0958343,14.0173079 14.0661213,13.6213622 C14.0629753,13.6032297 14.0616774,13.5850118 14.0621375,13.5669567 C13.9983263,12.6735949 13.9978257,11.5735208 14.0688617,10.823967 C14.3052748,8.32939601 14.5079921,6.64886909 14.7096221,6.44584013 C14.7257896,6.42956044 14.8088819,6.26403965 14.9023976,6.04322765 C14.9210109,5.99927746 14.9402067,5.9530147 14.9598939,5.90471561 C15.0168046,5.76509534 15.0752166,5.61498097 15.1318047,5.46479567 C15.1657645,5.37466603 15.1914979,5.30473483 15.1985151,5.28843245 C16.1522721,1.69792556 15.7486234,0.559794586 14.5020861,0.559794586 C14.1219711,0.559794586 13.8863675,1.01627514 13.5766164,2.2391063 C13.5530467,2.33238106 13.5530467,2.33238106 13.5294659,2.42588348 C13.3640789,3.08072061 13.268693,3.39429412 13.1229495,3.6879795 C12.9134398,4.10965307 12.7253984,4.60518853 12.4709153,5.37282105 C12.4108557,5.55398719 12.1888807,6.23540532 12.2027774,6.19294438 C12.0917672,6.5321339 12.0050907,6.79029091 11.916369,7.04296812 C11.8590372,7.20624798 11.8028879,7.36114524 11.7466849,7.51059848 C11.6364158,7.80382247 11.5124178,8.09334156 11.345695,8.45624648 C10.5713198,10.1418264 10.4961372,10.3437516 10.5515803,10.8729452 C10.5664854,11.015212 10.579722,11.1660735 10.5913926,11.3244723 C10.6193624,11.7040947 10.6372958,12.1097654 10.6472551,12.5152854 C10.650738,12.6571005 10.6529776,12.7888216 10.6542229,12.9071278 C10.6549727,12.9783695 10.6552239,13.0295069 10.6552239,13.0572087 C10.6552239,13.7101281 10.587915,14.0903961 10.0383491,16.8572897 C9.99099461,17.0957049 9.8385902,17.8338443 9.83721612,17.8406038 C9.76523311,18.1947081 9.71722605,18.4517275 9.67795813,18.7024019 C9.56710237,19.4100714 9.53509171,20.0446628 9.58450622,20.8392905 C9.6294088,21.5610919 10.0626821,24.8867951 10.0591696,24.8566465 C10.1764962,25.8637034 10.2714774,26.865185 10.3487778,27.969646 C10.440255,29.2766625 10.6329454,30.118923 10.967997,30.9703166 C11.0283515,31.1236824 11.2327915,31.6117557 11.261993,31.6842217 C11.5705808,32.4500079 11.6939215,33.0521225 11.6745883,33.9986046 C11.6295722,36.2024305 11.9363339,39.8535228 12.1734841,40.6903831 C12.2888155,41.0973666 12.7815875,44.5307556 13.4870757,49.682235 C13.5080514,49.8353993 13.4004137,49.9765024 13.2466604,49.9973977 C13.092907,50.018293 12.9512612,49.9110678 12.9302855,49.7579035 C12.2425184,44.7358229 11.7361265,41.207538 11.6326723,40.8424668 C11.3776837,39.9426582 11.0667112,36.241449 11.112757,33.9872162 C11.1304653,33.1202822 11.0222319,32.5919172 10.7404943,31.8927621 C10.7135546,31.8259089 10.50791,31.3349599 10.4448154,31.1746312 C10.0891075,30.2707481 9.88366951,29.3727672 9.78819105,28.008581 C9.71151157,26.9129927 9.61733577,25.9200027 9.50096874,24.921182 C9.50679314,24.9711749 9.06990735,21.6177429 9.02363412,20.8739085 C8.97166235,20.0381579 9.00571542,19.3630771 9.12273008,18.6160912 C9.16353419,18.3556101 9.2129353,18.0911273 9.28644784,17.7294988 C9.28819236,17.720917 9.4402233,16.9845865 9.48708851,16.7486347 C10.022056,14.0552394 10.0932762,13.6528739 10.0932762,13.0572087 C10.0932762,12.9523396 10.0913286,12.7672971 10.0854756,12.5289769 C10.0757232,12.1318805 10.0581755,11.7349349 10.0309524,11.3654487 C10.0196855,11.2125271 10.0069456,11.0673267 9.9926684,10.931054 C9.92126076,10.2494817 9.99565444,10.0496753 10.8347163,8.22329225 C10.9963911,7.87137528 11.1155843,7.59307465 11.2204506,7.31421762 C11.2751455,7.1687748 11.3299079,7.01770342 11.3859339,6.85814284 C11.4731062,6.60987785 11.5586291,6.35515703 11.6685075,6.01942552 C11.6541874,6.06318041 11.876715,5.38006575 11.9373129,5.19727584 C12.1994934,4.40642447 12.3951349,3.89086098 12.6192555,3.43978066 C12.740643,3.19517442 12.8294282,2.9033003 12.9845017,2.28929889 C13.0080041,2.1961069 13.0080041,2.1961069 13.0317479,2.10214317 C13.4149306,0.589419441 13.7191482,0 14.5020861,0 C16.2295715,0 16.7756121,1.53962039 15.7345054,5.45483808 C15.719421,5.49657956 15.6928332,5.56883248 15.657913,5.661511 C15.5997012,5.81600596 15.5395569,5.97057187 15.4805561,6.11531984 C15.4599495,6.16587448 15.439792,6.21445505 15.4201541,6.26082469 C15.2903911,6.56722481 15.1992539,6.74877116 15.1091096,6.83954085 C15.065558,6.88339463 14.7912475,9.15743022 14.6283217,10.8765821 C14.5708443,11.4830692 14.5662711,12.3788583 14.6010556,13.1576012 C14.6396856,13.141682 14.6807581,13.1249159 14.7242535,13.1073405 C15.129183,12.9437187 15.6036608,12.7678243 16.1441875,12.586308 C16.6186699,12.4269702 17.3241636,12.1654293 18.3583989,11.7699491 C18.409461,11.7504192 18.409461,11.7504192 18.4605079,11.7308792 C18.7396444,11.624009 19.7097602,11.2509055 19.8958741,11.179622 C20.3965406,10.9878617 20.7169615,10.867329 20.9296164,10.7917181 C22.0385023,10.3974457 23.069979,10.3438658 23.7964982,10.8244286 C23.8695952,10.7717593 23.9726999,10.7077543 24.1010848,10.6443928 C24.4151083,10.4894136 24.7426165,10.4079589 25.0689142,10.4326801 C25.1367364,10.287211 25.2617756,10.1044919 25.4602207,9.92463422 C25.8298771,9.58960171 26.3366341,9.3899384 26.9698934,9.39046424 C27.273775,9.38069497 27.6478218,9.47978694 28.0089711,9.78281066 C28.6045771,10.2825563 28.949793,11.1937394 28.949793,12.5947624 C28.949793,13.4582855 28.9573614,14.1483166 28.9724378,14.9462448 C29.0019475,16.5080598 28.9994646,16.3400299 28.9925968,16.7639372 C28.9873597,17.087194 28.973744,17.3989867 28.9490911,17.7457792 C28.8342559,19.3611635 28.931774,21.0706583 29.2426168,22.0552911 C29.4219979,22.6235028 29.3240719,23.4129 29.0162663,24.5225393 C28.952939,24.7508342 28.8820624,24.9883811 28.7935593,25.272513 C28.7550714,25.3960752 28.5695883,25.981458 28.5233127,26.1314935 C28.4313637,26.4296119 28.3708266,26.6445356 28.331405,26.8190226 C28.3227228,26.8579464 28.3227228,26.8579464 28.3139671,26.8990528 C28.2966149,26.9813616 28.2789381,27.0721575 28.2544859,27.20321 C28.2594014,27.1770375 28.1923032,27.5392426 28.175004,27.6302674 C28.1072954,27.9865344 28.0444937,28.280602 27.9681307,28.5832667 C27.7608954,29.4046437 27.4841353,30.149653 27.0923657,30.85747 C26.6791562,31.604023 26.1528357,32.2763645 25.493175,32.8667388 C24.4943282,33.7606732 23.9668635,34.7497103 23.753681,35.9404841 C23.6326085,36.6167588 23.6155319,37.1730223 23.6395676,38.3764123 C23.647232,38.7601425 23.6496516,38.9193709 23.6496516,39.1241556 C23.6496516,40.8750189 24.8025971,46.6769059 25.5752398,49.3293558 C25.618485,49.4778148 25.5327296,49.6330874 25.3836996,49.6761669 C25.2346697,49.7192464 25.0787998,49.6338195 25.0355546,49.4853605 C24.2492413,46.7859799 23.0877039,40.9408569 23.0877039,39.1241556 C23.0877039,38.9243835 23.0853196,38.7674791 23.0777312,38.3875482 C23.0529738,37.1480277 23.070833,36.5662701 23.2004623,35.8421996 C23.434999,34.5321485 24.0226284,33.4302977 25.1176195,32.4503174 C25.7291501,31.903018 26.2166358,31.2802854 26.6002631,30.5871793 C26.9665567,29.9253901 27.2269086,29.2245501 27.4231331,28.4468143 C27.496412,28.1563734 27.5570473,27.8724499 27.6228643,27.5261358 C27.6363752,27.4550447 27.6811155,27.2139107 27.6966909,27.1297317 C27.6975242,27.1249448 27.6984036,27.1202173 27.6992749,27.1155378 L27.7001526,27.1108164 C27.7258799,26.972645 27.7449226,26.8745691 27.7640162,26.7839999 C27.7735272,26.7393446 27.7735272,26.7393446 27.7831708,26.6961082 C27.8264676,26.5044685 27.8903106,26.2778081 27.9861481,25.9670823 C28.0332031,25.8145199 28.2190076,25.2281227 28.2568553,25.1066157 C28.3437639,24.8276032 28.4130689,24.5953236 28.4746179,24.3734392 C28.7542229,23.3654632 28.842499,22.6538554 28.7065528,22.2232291 C28.3702742,21.1580253 28.2691652,19.385581 28.3885472,17.7062358 C28.4124789,17.3695889 28.4256504,17.0679699 28.4307224,16.7549039 C28.4374265,16.3410975 28.4398695,16.5064277 28.4105897,14.9567794 C28.3954512,14.1555686 28.3878453,13.4621194 28.3878453,12.5947624 C28.3878453,11.3464946 28.1024196,10.593125 27.6469563,10.2109667 C27.4050566,10.0079998 27.1643302,9.94422686 27.0010054,9.94938443 C26.4780426,9.94973299 26.1056852,10.0964426 25.8383936,10.3386982 C25.7409675,10.4269989 25.6709783,10.5138236 25.6249539,10.5854546 C25.6259938,10.5859643 25.6270337,10.5864753 25.6280734,10.5869876 C26.0817095,10.8105083 26.456474,11.2677072 26.7389639,11.9788319 C27.364276,13.552958 27.4713557,14.3832499 27.3942072,15.7220826 C27.3866902,15.8525321 27.3843771,15.8938686 27.3811927,15.9576375 C27.3738586,16.10451 27.3702077,16.2244024 27.3702077,16.3411317 C27.3702077,17.9783338 27.1570692,20.2737283 26.8317178,20.9295075 C26.792146,21.0092685 26.7517958,21.1248524 26.7035916,21.2940054 C26.6743518,21.3966104 26.566687,21.8048101 26.5560135,21.8441188 C26.4886047,22.0923745 26.4280794,22.2921522 26.3583169,22.4871699 C25.9862806,23.5271784 25.4130689,24.1924878 24.4520063,24.4138446 L24.3887119,24.4210388 L23.5294449,24.4210388 C23.4508878,24.644507 23.3871805,24.8595643 23.3357783,25.0772994 C23.2108118,25.6053778 22.8646139,25.9420779 22.3858524,26.1078529 C22.1156013,26.2014296 21.8397606,26.2312717 21.5921944,26.2237389 C21.5714456,26.2690833 21.554563,26.305909 21.5391872,26.3387525 C21.4759174,26.4555518 21.3641738,26.6201026 21.205965,26.7859649 C20.8948491,27.1121311 20.5294501,27.3001864 20.1139368,27.2536979 C18.7730467,27.1036765 18.0838867,25.7515915 18.8854309,23.2293032 C18.9005235,23.1849078 18.9275561,23.1094676 18.9644423,23.0131167 C19.0258988,22.8525852 19.0929278,22.6918949 19.1637479,22.5407574 C19.2522837,22.3518126 19.3399749,22.1916522 19.4288465,22.0649508 C19.0854046,21.624681 18.8450273,20.9855038 18.6844484,20.1897436 Z M21.8559079,25.6537501 C21.9737657,25.6415806 22.0900455,25.6176311 22.2013528,25.57909 C22.5095452,25.4723759 22.7113899,25.2760687 22.7887884,24.9490016 C22.8527074,24.6782463 22.9338222,24.4121563 23.0356694,24.1340803 C23.229269,23.6054901 24.2514774,21.4183156 24.2321743,21.4616945 C24.5206989,20.8139065 24.6646653,20.0761235 24.6990761,19.2036527 C24.7221562,18.618466 24.7017753,18.1026897 24.6348819,17.1374155 C24.6256534,17.0046363 24.6256534,17.0046363 24.6165747,16.8731593 C24.5925907,16.5236299 24.583506,16.2660598 24.5702391,15.6950961 C24.568444,15.6178811 24.568444,15.6178811 24.5666015,15.5409283 C24.5360244,14.2814779 24.4549286,13.5325315 24.1656972,12.3826133 C23.8099575,10.968273 22.6033249,10.7910025 21.1185174,11.3189365 C20.9115785,11.3925151 20.5939498,11.5119975 20.0975411,11.702127 C19.9119242,11.7732201 18.9417626,12.1463412 18.6621061,12.2534105 C18.6109556,12.2729902 18.6109556,12.2729902 18.559781,12.2925631 C17.5182771,12.6908228 16.8079989,12.9541374 16.3236977,13.1167724 C15.7940446,13.2946372 15.3301277,13.4666166 14.9354801,13.6260838 C14.8163051,13.6742394 14.7167175,13.7157826 14.6371767,13.749851 C14.6505409,13.9171498 14.666024,14.071059 14.6834306,14.2057102 C14.9332821,14.0913498 15.2090998,13.9772923 15.5040507,13.8706555 C16.2609319,13.5970121 17.0144465,13.4175194 17.7254245,13.3772243 C18.0678626,13.3578165 18.3938159,13.3716172 18.7007525,13.4220688 C19.1336972,13.4932556 19.4084472,13.5170047 20.1660294,13.5638532 C21.6957002,13.6584473 22.2310196,13.8787658 22.4815044,14.8607289 C22.6091862,15.3603841 22.7065681,15.9271484 22.8676533,17.0179816 C22.8973545,17.2195271 22.9152221,17.34085 22.9268781,17.4196545 C23.1065237,18.6342148 23.2156143,19.2235138 23.3533014,19.6081665 C23.7871955,20.822481 23.7663701,22.0387324 23.1402568,23.1134159 C22.995138,23.3627375 22.8262441,23.6771613 22.6386178,24.0447668 C22.5837932,24.1521817 22.5276348,24.263622 22.4702994,24.3787047 C22.2681145,24.7845273 22.0596848,25.2184899 21.8559079,25.6537501 Z M24.2238668,11.2144736 C24.4372762,11.4782924 24.6032958,11.819166 24.7107946,12.2465571 C25.0116157,13.4425534 25.0968884,14.2300743 25.1283848,15.5273936 C25.1302386,15.6048165 25.1302386,15.6048165 25.1320363,15.6821421 C25.145113,16.2449228 25.1539846,16.4964493 25.1772141,16.8349836 C25.1862554,16.9659192 25.1862554,16.9659192 25.1954952,17.0988621 C25.2637301,18.0834927 25.2847033,18.6142596 25.2605905,19.2256298 C25.2235979,20.1635596 25.0664537,20.9688753 24.7458707,21.6886401 C24.7533362,21.6718631 24.1075425,23.0534801 23.7561381,23.8612442 L24.3556386,23.8612442 C25.0787963,23.683446 25.5191141,23.1654602 25.8289751,22.2992597 C25.8930535,22.1201316 25.9496515,21.9333167 26.0135598,21.6979529 C26.0229603,21.6633324 26.1319702,21.2500332 26.1630046,21.1411305 C26.2198112,20.9417908 26.2697207,20.7988245 26.3279389,20.6814795 C26.5989217,20.1352859 26.8082601,17.880817 26.8082601,16.3411317 C26.8082601,16.2139214 26.8121789,16.0852291 26.8199391,15.9298253 C26.8232219,15.8640836 26.825577,15.8219986 26.8331831,15.6900015 C26.9059445,14.4273029 26.8091697,13.6769149 26.2164414,12.1848133 C25.9815859,11.5936011 25.6957117,11.244845 25.3789304,11.0887569 C25.0578583,10.9305546 24.7031616,10.9719797 24.3505511,11.1460028 C24.3030263,11.1694575 24.2605309,11.1927558 24.2238668,11.2144736 Z" id="J" fill="#000000"></path>
                    </g>
                </g>
            </g>
            <g id="slices"></g>
        </g>
    </g>
</svg>