<?xml version="1.0" encoding="UTF-8"?>
<svg width="50px" height="50px" viewBox="0 0 50 50" version="1.1" xmlns="http://www.w3.org/2000/svg" xmlns:xlink="http://www.w3.org/1999/xlink">
    <!-- Generator: Sketch 49.1 (51147) - http://www.bohemiancoding.com/sketch -->
    <title>k</title>
    <desc>Created with Sketch.</desc>
    <defs></defs>
    <g id="Finger" stroke="none" stroke-width="1" fill="none" fill-rule="evenodd">
        <g id="Finger-Alphabet" transform="translate(-550.000000, 0.000000)">
            <g id="letters" transform="translate(11.000000, 0.000000)" fill="#000000" fill-rule="nonzero">
                <g id="k" transform="translate(549.000000, 0.000000)">
                    <path d="M9.98284172,26.5174271 C9.97946471,26.5131168 9.97489474,26.50731 9.96902367,26.4998725 C9.97259252,26.5043935 9.97608469,26.5088315 9.97950271,26.5131906 L9.98284172,26.5174271 Z M10.0910341,26.6685919 C10.1719124,26.8015936 10.2027689,26.9008724 10.1080378,27.0442557 C10.0760174,27.0927154 10.0438431,27.15285 10.0126649,27.2217579 C9.946522,27.3679421 9.89860281,27.5178811 9.88170636,27.5725791 C9.71960773,29.1486863 10.0760074,30.1271729 10.7160891,30.5075748 C11.1623915,30.7728131 11.6687737,30.6563269 11.7379754,30.3968879 C11.807976,30.1346685 11.8795821,29.7115157 11.948967,29.177014 C11.9937694,28.8318826 12.0349925,28.4614387 12.0716481,28.0909027 C12.0936449,27.8685452 12.1092095,27.6958 12.1164345,27.6209187 L12.1164345,22.2324961 C12.1164345,20.9586467 11.5244076,20.6649549 9.83601504,20.6649549 C9.58465136,20.6649549 9.33211937,20.6618658 9.05327535,20.6557995 C8.89708654,20.6524017 8.73453646,20.6481351 8.53740541,20.6423939 C8.41840207,20.638928 8.27532927,20.6345826 8.00433237,20.6263398 C7.11534989,20.5996122 6.50947025,20.5879775 5.72395788,20.5879775 C5.33856877,20.5879775 4.9658288,20.5404826 4.36167573,20.4315583 C4.27520477,20.4158995 4.27520477,20.4158995 4.18917633,20.4001762 C2.14489142,20.0264525 1.4582289,20.1849654 0.940754398,21.6338481 C0.577881099,22.6498613 0.506748765,23.1207023 0.593225801,23.6061567 C0.616805017,23.7385228 0.748304022,24.2771496 0.755321653,24.3083516 C0.912718094,25.0081715 0.985042216,25.7472195 0.960719791,26.8572759 C0.933667287,28.0919309 1.02433385,29.4497366 1.33734942,33.1609975 C1.35143813,33.3280806 1.35143813,33.3280806 1.36550623,33.4952716 C1.75212993,38.0937922 1.83843504,40.1088045 1.57404088,41.2330351 C1.31129,42.3502784 1.28368014,45.5009257 1.41702365,49.7112184 C1.42191733,49.8657354 1.30062367,49.9949633 1.14610667,49.999857 C0.991589664,50.0047507 0.86236177,49.883457 0.857468087,49.72894 C0.721909522,45.4487074 0.749560343,42.2933852 1.02907267,41.1048707 C1.27280246,40.068507 1.18604744,38.0429905 0.807638346,33.5421747 C0.793578672,33.3750839 0.793578672,33.3750839 0.779493965,33.2080482 C0.464238649,29.4702319 0.373327862,28.1087687 0.401018007,26.8450123 C0.424353833,25.7799835 0.356469236,25.086301 0.209129535,24.4311956 C0.205658494,24.4157626 0.0693073965,23.8572613 0.0420662307,23.7043382 C-0.0642111614,23.107731 0.0207606166,22.5452835 0.413535145,21.4455496 C1.0542044,19.6517324 2.00616421,19.4319768 4.28985363,19.849467 C4.37560916,19.8651403 4.37560916,19.8651403 4.46100851,19.880605 C5.03429312,19.983964 5.38099718,20.0281413 5.72395788,20.0281413 C6.51602718,20.0281413 7.12704676,20.0398748 8.02115645,20.0667565 C8.29246975,20.0750088 8.43511041,20.0793411 8.55370315,20.082795 C8.74956887,20.0884994 8.91081463,20.0927317 9.06545166,20.0960958 C9.34045453,20.1020785 9.58899169,20.1051188 9.83601504,20.1051188 C11.7941637,20.1051188 12.6762706,20.542713 12.6762706,22.2324961 L12.6762706,24.4501068 C12.6762706,26.8282158 12.6762706,26.8282158 12.6753002,27.644206 C12.6668812,27.7450537 12.6510655,27.9205869 12.6287648,28.1460159 C12.591591,28.5217907 12.5497643,28.8976577 12.504145,29.249083 C12.4317855,29.8064986 12.3569216,30.2489034 12.2788846,30.5412269 C12.1008037,31.2088573 11.1632076,31.4245382 10.4300747,30.9888358 C9.57699576,30.4818494 9.14241625,29.2887217 9.33189936,27.4752455 C9.34014872,27.4426594 9.355152,27.389386 9.37669243,27.3219861 C9.4125221,27.2098751 9.45439537,27.097536 9.50260938,26.9909769 C9.51989236,26.9527793 9.53770335,26.9159864 9.55610265,26.8807005 C9.60173772,26.9389276 9.27321126,26.5279841 9.18590618,26.4098753 C8.97054642,26.1185304 8.81849064,25.856196 8.73385358,25.5947814 C8.59323074,25.1604461 8.6591614,24.7611748 8.98401399,24.4541009 C9.15159823,24.295809 9.27507681,24.1783169 9.35845616,24.0980083 C9.37329741,24.0712765 9.39280545,24.0465397 9.41690974,24.0250352 C9.42862241,24.0145851 9.42862241,24.0145851 9.46402662,23.9836048 C9.49439115,23.9571962 9.51542729,23.9397085 9.53487079,23.926484 C9.5247467,23.8972855 9.5247467,23.8972855 9.87204568,23.939181 C9.98778027,24.2601378 9.98778027,24.2601378 9.93769862,24.2971796 C9.88981059,24.360392 9.88981059,24.360392 9.87026822,24.3802992 C9.85360912,24.3872334 9.84815418,24.391854 9.83255554,24.4050428 C9.77584918,24.4743413 9.62180633,24.6217639 9.36851105,24.8610143 C9.21613047,25.0050553 9.1875012,25.1784321 9.26646974,25.4223386 C9.32883839,25.6149738 9.45356213,25.8301536 9.6360998,26.0770958 C9.71747261,26.1871793 10.043667,26.595062 9.98284172,26.5174271 C10.0303133,26.5779906 10.0647362,26.625346 10.0910341,26.6685919 Z M9.85395151,24.3866823 C9.85416859,24.3863328 9.85233052,24.3876193 9.84971957,24.3893952 C9.85203048,24.3934846 9.85398067,24.3969357 9.8543119,24.3996883 L9.85395151,24.3866823 Z M17.0978119,17.8433095 C17.0948542,18.5624596 17.1028003,19.4162852 17.1303218,20.2332214 C17.1731783,21.5053578 17.2632694,22.4141567 17.3687138,22.5884572 C17.6830428,23.1089699 17.8354282,24.3657851 17.8354282,25.3122106 C17.8354282,25.3332956 17.8357641,25.3752407 17.8368073,25.5038319 C17.8471441,26.9197124 17.8069738,28.3542897 17.6596794,29.815905 C17.4719494,31.6787671 17.1441493,33.0772321 16.6247994,33.8577651 C16.2603607,34.4057469 16.1508281,34.5385846 14.9402743,35.95413 C13.3446433,37.8199604 12.69598,38.8915534 12.6762318,40.0965462 C12.6630491,40.887943 12.6291856,41.417054 12.5720749,41.8996767 C12.558687,42.0128125 12.5150413,42.3434023 12.5081754,42.4003809 C12.4633381,42.7724748 12.4536829,43.0884114 12.4816574,43.6572799 C12.5212745,44.4629022 12.6420946,47.1036631 12.7485768,49.4986185 C12.7554435,49.6530604 12.6358101,49.7838268 12.4813682,49.7906935 C12.3269263,49.7975601 12.1961599,49.6779267 12.1892932,49.5234848 C12.0828485,47.1293719 11.9620581,44.4892624 11.922497,43.684777 C11.8930139,43.0852304 11.9036319,42.7377883 11.95236,42.3334052 C11.9597585,42.2720071 12.0032995,41.9422104 12.0161177,41.833888 C12.0709332,41.370662 12.1035955,40.86032 12.116472,40.0872973 C12.1391521,38.7034143 12.833636,37.5561255 14.5148038,35.5902738 C15.7037694,34.1999723 15.8128643,34.0676654 16.158676,33.5476917 C16.6115622,32.8670473 16.9237446,31.5352107 17.1026646,29.7597718 C17.2475053,28.3225037 17.2871881,26.9053375 17.2769861,25.5079189 C17.2759494,25.3805375 17.2755921,25.3359139 17.2755921,25.3122106 C17.2755921,24.4734368 17.1305301,23.2770222 16.8895953,22.8780463 C16.7074951,22.5770335 16.6190819,21.6851598 16.5708031,20.2520708 C16.5431969,19.432619 16.5351085,18.5786422 16.5379194,17.8562798 L15.548191,17.9617709 L14.9271277,18.314015 C14.9268605,18.3272193 14.926531,18.3404818 14.9261392,18.3538025 C14.9115761,18.8411685 14.913079,19.1252065 14.9306052,19.4107551 C14.9372941,19.5197349 15.0595376,20.8067036 15.1191961,21.6353728 C15.2492875,23.4423667 15.0523632,24.9208355 14.6074173,26.68868 C14.4665968,27.2469061 14.4665968,27.6347625 14.5537452,28.4079454 C14.5765918,28.6106411 14.5837289,28.6768484 14.5929572,28.7791551 C14.6081169,28.947219 14.6159202,29.0937358 14.6159202,29.2374455 C14.6159202,30.1348971 14.1016202,30.4410932 13.133109,30.4410932 C12.7879259,30.4410932 12.4953274,30.3473376 12.2580052,30.1900478 C12.1107237,30.0924343 12.0122642,29.9910836 11.957544,29.9132236 C11.8686523,29.7867415 11.8991252,29.6121466 12.0256073,29.5232548 C12.1520893,29.4343631 12.3266843,29.464836 12.415576,29.5913181 C12.4327005,29.6156841 12.483206,29.6676726 12.567286,29.7233982 C12.715566,29.8216736 12.901518,29.8812571 13.133109,29.8812571 C13.832823,29.8812571 14.0560841,29.7483354 14.0560841,29.2374455 C14.0560841,29.1123008 14.0491433,28.9819793 14.0353848,28.8294494 C14.0266734,28.7328733 14.019774,28.6688705 13.9974318,28.4706497 C13.9033393,27.6358588 13.9033393,27.1909445 14.0645499,26.5518903 C14.4961925,24.8369015 14.6858743,23.4128078 14.5608052,21.6755732 C14.5018458,20.8566151 14.3792224,19.5656469 14.3718206,19.4450518 C14.3531104,19.1402134 14.3515224,18.8400867 14.366549,18.3372139 C14.3681173,18.283881 14.3685938,18.2318888 14.3679425,18.1812143 C14.3662438,18.1652445 14.3659395,18.1492404 14.3669809,18.1333787 C14.3377537,17.070474 13.7904589,16.6034796 12.3775102,16.5081527 C11.3263471,16.4372342 9.88431698,16.7715804 7.23482306,17.5983506 C7.10496279,17.6388733 6.96990307,17.681205 6.80354953,17.733486 C6.61856897,17.7916518 6.61856897,17.7916518 6.4340201,17.8497076 C6.24977069,17.9076332 6.17479129,17.9311762 6.06628636,17.9651488 C5.78931386,18.051868 5.55859582,18.1234059 5.34018071,18.1900917 C5.19232417,18.2352348 5.03586708,18.151969 4.99072402,18.0041125 C4.94558096,17.8562559 5.02884669,17.6997989 5.17670323,17.6546558 C5.39368463,17.5884078 5.62320255,17.517242 5.89901071,17.4308873 C6.00725055,17.3969977 6.08202671,17.3735185 6.26606965,17.3156578 C6.45054102,17.2576264 6.45054102,17.2576264 6.63570018,17.1994045 C6.80238533,17.1470192 6.93778434,17.1045812 7.06805786,17.0639295 C9.79249649,16.213773 11.2662521,15.872071 12.4151948,15.9495863 C13.9231564,16.0513235 14.7051797,16.6085871 14.8864975,17.6934485 L15.322594,17.4461108 L15.4310213,17.4112524 L16.5468923,17.2939017 C17.106422,17.2939017 17.9950695,17.2491186 19.1193723,17.1698968 C19.4275739,17.14818 19.748779,17.1241909 20.0797473,17.0983073 C20.6282586,17.0554107 21.1770074,17.0094422 21.6997223,16.9634744 C21.88266,16.9473868 22.0492604,16.9324498 22.1962437,16.9190473 C22.3464108,16.9052699 22.3464108,16.9052699 22.402952,16.9010158 C22.5138825,16.9002262 22.5653673,16.9006897 22.9085039,16.9047343 C23.8422527,16.9157404 24.43616,16.9048106 25.0957606,16.8432379 C26.5377687,16.7086285 27.4871966,16.3540604 27.7780124,15.7576422 C28.21477,14.8618427 28.1029601,14.3309313 27.7483303,14.1925699 C27.6251544,14.1444214 27.5208535,14.1163147 27.4154742,14.101661 C27.2500734,14.078661 27.2403644,14.0789886 26.6187708,14.1173139 C26.2307115,14.1459549 25.5746461,14.1057291 24.6815698,14.0163706 C24.4792473,13.9961268 24.2683602,13.9736681 24.0511011,13.9493695 C23.7043655,13.9105901 23.3582435,13.8690564 23.0289373,13.8275214 C22.8312585,13.8025883 22.6829697,13.7831763 22.633352,13.7745141 C22.5300635,13.7729086 22.3391812,13.7700971 22.0765577,13.7664815 C21.6387916,13.7604548 21.1609821,13.7544279 20.6589855,13.7488028 C19.8196502,13.7393977 18.9989695,13.7320861 18.2289564,13.7276787 C17.730228,13.7248241 17.2666435,13.7232609 16.8422331,13.7230676 C16.8389673,13.7233404 16.8356844,13.7235577 16.8323854,13.7237186 C16.8196605,13.724339 16.8070927,13.7240997 16.7947384,13.7230516 C15.3557821,13.7227421 14.3752049,13.7384353 14.0133857,13.7732591 C13.4857279,13.8240704 13.1901326,13.9254643 12.740573,14.1664862 C12.7707642,14.1502998 12.6430009,14.2193219 12.5466361,14.2708919 C12.5347182,14.2784599 12.5222624,14.2851068 12.5093883,14.2907855 C12.4909276,14.3006206 12.475216,14.3089446 12.4642452,14.3146777 C12.1908212,14.4575631 11.9539955,14.5591009 11.6631189,14.6478994 C10.6593925,14.954316 9.93161612,15.2213394 8.85934443,15.6772801 C8.56956914,15.8004955 8.44603251,15.8526008 8.28916816,15.9171144 C7.77383483,16.1290555 7.34370462,16.2852286 6.83650516,16.4376291 C6.28015891,16.604797 5.64164641,16.762439 4.84933453,16.9254973 C3.74353184,17.1530035 3.28809004,17.450492 2.68874472,18.1677004 C2.65661238,18.2061517 2.5364184,18.351315 2.50932998,18.3837982 C2.43591583,18.4718333 2.37539153,18.5427969 2.31390518,18.6123115 C2.15649559,18.7902739 2.00436356,18.9447553 1.83556263,19.0935797 C1.70506671,19.2087004 1.59579983,19.3298084 1.50606401,19.4561617 C1.19921992,19.8882163 1.1357213,20.3423308 1.20920525,20.7417401 C1.21813767,20.7902908 1.22633197,20.8219941 1.23018695,20.8338897 C1.27784611,20.9809545 1.19726192,21.1388094 1.05019711,21.1864686 C0.903132309,21.2341278 0.745277347,21.1535436 0.697618187,21.0064788 C0.686475739,20.9720958 0.672173898,20.9167627 0.658610181,20.8430395 C0.559986101,20.3069852 0.644523913,19.7024077 1.04962572,19.1320004 C1.16442724,18.9703531 1.3026167,18.8171882 1.46526581,18.6737026 C1.72766792,18.4423542 1.76350678,18.4018359 2.25915952,17.8087115 C2.93526584,16.9996468 3.49826663,16.6319023 4.73650126,16.3771497 C5.51338925,16.2172656 6.13601939,16.0635448 6.67540401,15.9014735 C6.78610036,15.868212 6.89294488,15.8347775 6.99781546,15.800564 C6.99159111,15.7503502 6.99889972,15.6978369 7.02176756,15.6485592 C7.03660758,15.6165807 7.03660758,15.6165807 7.10369716,15.471497 C7.16894412,15.3302553 7.24165542,15.1724155 7.31996294,15.0018748 C7.54368066,14.5146547 7.76738973,14.0233474 7.97612349,13.5591817 C7.99973053,13.5066684 7.99973053,13.5066684 8.02331853,13.4541235 C8.38226806,12.6542339 8.65262146,12.0321808 8.79987141,11.6605729 C8.8436418,11.5499507 8.88588947,11.4396135 8.93706798,11.3031305 C8.95184301,11.2637284 9.0387732,11.0304794 9.06371942,10.9642427 C9.11949246,10.8161553 9.16498275,10.6992443 9.21157311,10.5856364 C9.50464396,9.87099988 9.85929207,9.27667859 10.5129499,8.47004788 C11.3954142,7.38106397 12.076008,6.33982216 12.8990232,4.95278251 C12.948191,4.87712776 13.0345408,4.74507419 13.1464065,4.57538462 C13.3328593,4.29255355 13.521446,4.0096914 13.7005634,3.74547417 C13.7282721,3.70462611 13.7282721,3.70462611 13.7560239,3.6638207 C14.0153985,3.28270199 14.2284381,2.98034483 14.3809787,2.78015417 C14.5463436,2.56341986 14.7056958,2.38048022 15.0101117,2.04775001 C15.0404475,2.01460277 15.0404475,2.01460277 15.0707149,1.98154006 C15.5010681,1.51136936 15.695835,1.27972254 15.8859995,0.987787522 C16.181717,0.534237416 16.4532859,0.234185032 16.768744,0.0880424388 C17.2276282,-0.12454537 17.6821346,0.0488232904 18.0583227,0.597619591 C18.7716203,1.63918255 18.2258557,3.73254855 16.9310526,5.57421972 C16.471575,6.22776047 16.2597771,6.59438435 16.083634,7.00709719 C16.0652231,7.05023487 16.0464307,7.09548569 16.0254058,7.14714801 C16.0049298,7.19746185 15.9176552,7.4156539 15.8929559,7.47645967 C15.8350097,7.61911457 15.7814379,7.7459958 15.7208467,7.88240677 C15.5657455,8.23159142 15.3759493,8.61601287 15.1217184,9.08712504 C14.7400428,9.79440339 14.437957,10.3532588 14.2058137,10.7818109 C14.6275349,10.5760753 15.081844,10.5009864 15.5590967,10.6044482 C16.761116,10.8650295 16.9974156,11.3694985 17.0851808,13.1587058 C17.0852584,13.1603059 17.0853351,13.1618868 17.0854109,13.1634489 C17.4427365,13.1640381 17.8255649,13.1655245 18.2321607,13.1678518 C19.0032912,13.1722656 19.8249671,13.179586 20.6652583,13.1890018 C21.1677588,13.1946325 21.6460414,13.2006654 22.0842642,13.2066985 C22.347234,13.2103188 22.5384455,13.2131352 22.6750794,13.2172185 C22.7562347,13.2281529 22.9029772,13.2473625 23.0989938,13.2720859 C23.4258466,13.3133115 23.7694125,13.3545384 24.113326,13.3930022 C24.3285146,13.4170692 24.5372582,13.4392997 24.7373071,13.459316 C25.5954016,13.5451744 26.2336207,13.5843059 26.5388279,13.5612985 C27.2642992,13.5166137 27.2712285,13.5163798 27.4925811,13.5471603 C27.6428931,13.5680622 27.7894468,13.607555 27.9519816,13.6710888 C28.6572956,13.9462719 28.8463404,14.8439217 28.2812195,16.0029973 C27.874052,16.8380349 26.7740268,17.2488442 25.1477943,17.4006506 C24.4633331,17.4645441 23.854128,17.4757554 22.9019055,17.4645315 C22.5640311,17.4605489 22.5125807,17.4600858 22.4310798,17.4596221 C22.398015,17.4627227 22.398015,17.4627227 22.2470806,17.4765705 C22.099516,17.490026 21.9323197,17.5050164 21.7487654,17.5211582 C21.2243605,17.5672747 20.6738516,17.6133906 20.1233963,17.6564392 C19.7910541,17.6824303 19.4684279,17.7065255 19.1587224,17.7283483 C18.3308354,17.7866837 17.6291673,17.8265579 17.0978119,17.8433095 Z M16.5248881,13.1632932 C16.4479982,11.619415 16.3136916,11.3408742 15.4404871,11.1515754 C14.9457818,11.0443301 14.4687507,11.2072569 14.0277834,11.5550812 C13.9028868,11.6535966 13.7910538,11.7595412 13.6945051,11.8651618 C13.6525084,11.9111047 13.6207999,11.9486179 13.6001431,11.9745226 L12.9597852,13.442947 C13.2612665,13.3225043 13.5568989,13.2547912 13.9597377,13.2159994 C14.3204472,13.1812824 15.2122226,13.1649051 16.5248881,13.1632932 Z M13.1113896,11.6972815 L13.2757875,11.3207216 C13.3045816,11.2683847 13.3830353,11.1245458 13.5315911,10.8508037 C13.7794601,10.3940586 14.1384461,9.73037304 14.6290414,8.8212569 C14.8766426,8.36243016 15.0601073,7.99083278 15.209212,7.65514831 C15.2671603,7.52468735 15.3184506,7.4032096 15.3742772,7.26577295 C15.3982017,7.20687456 15.4855678,6.98845379 15.5068661,6.93611959 C15.5290033,6.88172377 15.5489744,6.83363495 15.5687325,6.78734061 C15.7615416,6.33557853 15.9925067,5.93577601 16.473076,5.25223528 C17.6472153,3.58219113 18.1370452,1.70337131 17.5964895,0.91404745 C17.363708,0.57445761 17.1919926,0.508957861 17.0040732,0.596015499 C16.8118586,0.685062973 16.5967029,0.92278527 16.3550259,1.29345189 C16.1428241,1.61921804 15.9344007,1.86710718 15.4836789,2.35953114 C15.4533667,2.39264268 15.4533667,2.39264268 15.4231599,2.42564904 C15.1295474,2.74657102 14.9783151,2.92018881 14.8261666,3.11960108 C14.6813213,3.30969273 14.4729862,3.60537297 14.2188464,3.97879972 C14.191388,4.01917381 14.191388,4.01917381 14.1639551,4.05961526 C13.9863436,4.32161118 13.7990399,4.60254884 13.6138149,4.88351757 C13.5026739,5.05210788 13.4169783,5.18316089 13.3744804,5.24812242 C12.5445591,6.64726434 11.8519232,7.70692944 10.9479026,8.82251433 C10.3282557,9.58717471 10.0017024,10.1344145 9.72954477,10.7980554 C9.68531366,10.9059105 9.64165541,11.0181131 9.58763034,11.1615593 C9.56309999,11.2266918 9.4763643,11.4594189 9.46126219,11.4996933 C9.40899863,11.6390699 9.36561681,11.7523691 9.32038768,11.8666779 C9.16907671,12.2485345 8.89634333,12.8760637 8.53408401,13.6833289 C8.51040367,13.7360795 8.51040367,13.7360795 8.48670803,13.7887899 C8.27730632,14.2544409 8.05301311,14.7470311 7.82872856,15.2354856 C7.77675204,15.3486818 7.72723269,15.4563011 7.68071209,15.5572138 C7.80827444,15.5080544 7.93899975,15.4557946 8.07622972,15.3993561 C8.23034819,15.3359718 8.35256109,15.2844248 8.6402781,15.1620846 C9.73030974,14.6985921 10.4765902,14.4247796 11.4996598,14.1124579 C11.7452802,14.0374751 11.9456922,13.9526044 12.1795403,13.8317176 L13.0916076,11.7425927 C13.0967789,11.7271222 13.1033636,11.7119569 13.1113895,11.6972815 Z M7.42783773,25.1576767 C7.42102782,25.1530039 7.41443496,25.1480377 7.40807738,25.1427963 C7.21272561,25.0008443 6.87685374,24.7615377 6.44003125,24.4524869 L6.42694863,24.4432315 C6.17011484,24.2615422 5.89489429,24.0674159 5.61966796,23.8736655 C5.45452975,23.7574137 5.32610123,23.6671309 5.25274713,23.6156186 C5.12623174,23.5267744 5.09569327,23.3521908 5.18453755,23.2256754 C5.27338184,23.09916 5.44796535,23.0686216 5.57448075,23.1574659 C5.64800079,23.2090946 5.77660202,23.2994988 5.94193063,23.4158848 C6.21748234,23.6098641 6.49303983,23.8042281 6.75026554,23.9861947 L6.76337177,23.9954668 C7.16074024,24.2766039 7.47483019,24.5002036 7.67766722,24.6467893 L8.80132835,24.6467893 C8.95592283,24.6467893 9.08124642,24.7721129 9.08124642,24.9267074 C9.08124642,25.0813019 8.95592283,25.2066255 8.80132835,25.2066255 L8.03471031,25.2066255 C8.03868325,25.5982757 7.67620145,26.0454931 7.14696218,26.3600983 C6.85096498,26.536241 6.24677207,26.5780236 5.35784218,26.5421504 C5.03785232,26.5292371 4.69736042,26.5059592 4.35018201,26.4752916 C4.15769775,26.4582887 3.97516683,26.4400731 3.80832634,26.4218469 C3.7079236,26.4108785 3.63479808,26.4023105 3.59471507,26.3973439 C3.44129388,26.3783335 3.33233235,26.2385502 3.35134267,26.085129 C3.37035299,25.9317078 3.51013635,25.8227463 3.66355753,25.8417566 C3.70106051,25.8464036 3.77152222,25.8546594 3.86912322,25.8653217 C4.03228896,25.8831466 4.21101132,25.9009821 4.39944263,25.9176269 C4.73833878,25.9475629 5.07019682,25.9702506 5.38041624,25.9827696 C6.1418797,26.0134988 6.69945225,25.9749402 6.86078311,25.8789351 C7.34499156,25.5910984 7.53674949,25.2545751 7.42783773,25.1576767 Z M9.5417285,26.8621853 C9.53783878,26.8572099 9.5337967,26.8520654 9.5295999,26.8467489 C9.5373949,26.8566236 9.5431018,26.8638811 9.54693418,26.8687861 L9.5417285,26.8621853 Z M10.9354219,20.6113072 C10.8305226,20.724866 10.6534274,20.7318858 10.5398686,20.6269865 C10.4263099,20.5220872 10.41929,20.344992 10.5241893,20.2314333 L11.375773,19.3095511 C11.4806723,19.1959924 11.6577676,19.1889725 11.7713263,19.2938718 C11.8848851,19.3987711 11.8919049,19.5758663 11.7870056,19.6894251 L10.9354219,20.6113072 Z"></path>
                </g>
            </g>
            <g id="slices"></g>
        </g>
    </g>
</svg>