<?xml version="1.0" encoding="UTF-8"?>
<svg width="50px" height="50px" viewBox="0 0 50 50" version="1.1" xmlns="http://www.w3.org/2000/svg" xmlns:xlink="http://www.w3.org/1999/xlink">
    <!-- Generator: Sketch 49.1 (51147) - http://www.bohemiancoding.com/sketch -->
    <title>l</title>
    <desc>Created with Sketch.</desc>
    <defs></defs>
    <g id="Finger" stroke="none" stroke-width="1" fill="none" fill-rule="evenodd">
        <g id="Finger-Alphabet" transform="translate(-600.000000, 0.000000)">
            <g id="letters" transform="translate(11.000000, 0.000000)" fill="#000000" fill-rule="nonzero">
                <g id="l" transform="translate(598.000000, 0.000000)">
                    <path d="M14.633485,14.180443 C14.1062401,14.0748726 13.4510801,14.1770702 12.7449601,14.4220082 C12.5726927,14.4817641 12.2385723,14.7604791 11.8250167,15.1886001 C11.7259337,15.2911728 11.6231674,15.4012209 11.5174443,15.5176858 C11.3026159,15.7543414 11.0848374,16.0070539 10.8738783,16.2611499 C11.1517081,16.3004847 11.3796044,16.4134429 11.5629616,16.5912175 C11.5713308,16.3369447 11.5867733,16.1263737 11.6103992,15.9655852 C11.6336535,15.8073254 11.7807997,15.6978819 11.9390595,15.7211362 C12.0973193,15.7443905 12.2067628,15.8915367 12.1835085,16.0497965 C12.145635,16.3075489 12.1306307,16.7499856 12.1354355,17.3168788 C12.1376863,17.5824323 12.1441366,17.863701 12.1537031,18.1497831 C12.1717484,18.32628 12.1824661,18.513074 12.1863786,18.7093118 C12.1958586,19.1847932 12.1650037,19.6812822 12.1050628,20.2202288 C12.0854614,20.3964715 12.0256639,20.8640636 12.0256639,20.879005 C12.0256639,20.9622774 11.9752552,21.8139143 11.9743577,21.8305245 C11.9442709,22.3873894 11.9266167,22.8799228 11.9241728,23.3490883 C11.9223834,23.6926071 11.9291872,24.006399 11.9456591,24.2869213 C11.9737834,24.765888 12.0238397,25.2422322 12.0895479,25.7029405 C12.1153371,25.8837598 12.1423988,26.054194 12.169824,26.2123964 C12.2692644,26.6064445 12.5811555,26.8434202 13.2611831,26.8414783 C13.9297199,26.8397654 14.4959447,26.0041754 14.7211192,24.2011856 C14.8580178,23.1023929 14.9416511,22.7239713 15.1910668,21.8519922 C15.296436,21.4836125 15.3535434,21.2343946 15.4109003,20.8491025 C15.443654,20.6290806 15.6299654,19.5721636 15.6593823,19.395902 C15.7653542,18.7609351 15.840412,18.2215219 15.8883743,17.7069489 C15.998708,16.5232134 15.9464586,15.6132646 15.6965443,15.0325338 C15.5097004,14.5981237 15.1934243,14.3382832 14.7884247,14.2186131 C14.7848464,14.2187441 14.7812515,14.2188101 14.7776413,14.2188101 C14.7251588,14.2188101 14.6759366,14.204851 14.633485,14.180443 Z M14.4882296,13.5587132 L14.4893301,11.7051608 C14.49864,11.6079984 14.5159536,11.4389407 14.5400956,11.2218446 C14.5803391,10.8599575 14.6250488,10.4979762 14.6731055,10.1594957 C14.743605,9.66294237 14.8151691,9.26010563 14.8876814,8.97932611 C15.046327,8.36270116 15.143781,6.56837074 15.143781,5.46730123 L15.1460048,2.05146702 C15.1187971,1.69088957 15.1360182,1.3787507 15.2200727,1.07539957 C15.398359,0.431968061 15.8391438,0.0146390462 16.5676239,0.000558567769 C18.1351033,-0.0297385698 18.8224624,1.17170426 18.850504,3.79157879 C18.8596681,4.64777068 18.8835878,5.75529854 18.9253121,7.37633248 C18.9302318,7.56746703 18.9333165,7.68596021 18.9413912,7.99432822 C19.0261951,11.2261363 19.0362482,11.6463353 19.0362482,12.2374403 C19.0362482,12.7338771 19.0290125,12.9747264 18.981247,14.2979097 C18.9347642,15.5855603 18.9181001,16.3836652 18.9300019,17.3043609 C18.9372179,17.8494576 18.9336189,18.4525108 18.9209911,19.2281803 C18.9170628,19.4694801 18.9129034,19.6945741 18.9055783,20.0721687 C18.8696504,21.9241873 18.8657202,22.5638511 18.9028542,23.1591394 C18.9053761,23.2038901 18.9151352,23.2905706 18.9365007,23.4044833 C18.9722827,23.5952589 19.0279593,23.7855907 19.1066157,23.960395 C19.3287876,24.4541448 19.6759128,24.7198028 20.2152802,24.6913643 C21.25853,24.6363584 21.8275577,24.4764043 22.8603786,24.0401816 C23.0534486,23.958633 23.1333848,23.9252212 23.2220332,23.8891122 C23.369506,23.8290424 23.5421468,23.740923 23.8024108,23.5959558 C23.8807554,23.5523179 24.2158816,23.3631844 24.1567063,23.3965001 C24.3095643,23.3104411 24.4278046,23.2449422 24.5473883,23.1806019 C25.523443,22.65545 26.3226226,22.3698411 27.1863821,22.3279663 C29.7091034,22.2056653 31.2518883,22.440073 31.7768939,23.438356 C32.083646,24.0223365 31.9726891,24.5606374 31.5331399,24.9484714 C31.2009471,25.24158 30.6934642,25.4313065 30.1951382,25.4812162 C30.1423551,25.4860233 30.0457082,25.4976168 29.9202487,25.5174987 C29.7111233,25.5506393 29.5023388,25.5949836 29.3097255,25.6514722 C29.1401629,25.7012005 28.9920457,25.7579505 28.8722514,25.8207662 C28.7427527,25.8886706 27.7851887,26.5635134 27.4024123,26.7912003 C26.8778347,27.1032347 26.3414494,27.352418 25.7513139,27.5397068 C24.0410909,28.0824729 22.6927175,28.7644562 21.9455047,29.5130033 C21.4624608,29.9969098 20.9460616,30.4034971 20.229754,30.8868639 C20.0558158,31.004238 19.8743495,31.1236267 19.625412,31.2852067 C19.66305,31.2607767 19.1347638,31.6028937 18.9837406,31.7014748 C18.4897805,32.0237297 18.0003982,32.453321 17.3885213,33.0730625 C17.4244148,33.0367076 16.3307215,34.1729923 16.0550203,34.431229 C15.9548766,34.5250289 15.8429202,34.6176847 15.7046884,34.72332 C15.6599055,34.7575426 15.1386537,35.1395801 14.9839506,35.2628742 C14.1293523,35.9439656 13.6762008,36.6819074 13.550762,37.9391982 C13.3941496,39.5089469 13.5149059,43.8090846 13.7881075,49.6969379 C13.7955218,49.8567251 13.6719991,49.9922687 13.5122119,49.9996829 C13.3524247,50.0070972 13.2168811,49.8835745 13.2094669,49.7237873 C12.9339925,43.786954 12.813452,39.4944992 12.9743604,37.8816911 C13.1165109,36.4568968 13.6534352,35.5825339 14.6229246,34.8098774 C14.7886826,34.6777728 15.3166876,34.2907858 15.3529649,34.2630631 C15.4770527,34.1682364 15.5748864,34.0872687 15.6590287,34.0084565 C15.9218437,33.7622897 17.0020329,32.6400351 16.9763132,32.6660854 C17.6147635,32.0194288 18.1314635,31.5658575 18.667172,31.2163664 C18.8191711,31.1171483 19.3484789,30.7743697 19.3100351,30.7993227 C19.5563231,30.6394624 19.7352062,30.5217732 19.9057368,30.4066986 C20.5937243,29.9424423 21.0825517,29.5575636 21.5355385,29.1037679 C22.3621367,28.2756937 23.785121,27.5559735 25.5760883,26.9875819 C26.1213388,26.8145381 26.617907,26.5838522 27.1062785,26.2933542 C27.457395,26.0844996 28.4325461,25.3972623 28.6032463,25.3077534 C28.7604887,25.2253013 28.9431195,25.1553277 29.1467084,25.0956203 C29.3656307,25.031416 29.5977772,24.9821097 29.8295829,24.9453749 C29.968682,24.9233315 30.0778029,24.9102417 30.1399994,24.9045892 C30.5236829,24.8661523 30.917977,24.7187424 31.1498888,24.5141162 C31.3929006,24.2996959 31.444226,24.0506938 31.2641407,23.7078556 C30.8992737,23.0140717 29.4714463,22.7971304 27.2144317,22.90655 C26.4546386,22.9433846 25.7285904,23.2028579 24.8218484,23.6907171 C24.7060773,23.7530061 24.5907985,23.8168645 24.4408883,23.9012639 C24.5016435,23.8670588 24.1642912,24.0574485 24.0842845,24.1020123 C23.8048881,24.2576362 23.6153747,24.3543677 23.4405508,24.4255784 C23.3548192,24.4604992 23.2766791,24.4931603 23.1397611,24.5509889 C21.9964668,25.0338748 21.3674875,25.2106814 20.2457798,25.269824 C19.4399855,25.31231 18.890511,24.8917923 18.5783669,24.1980904 C18.4790989,23.9774793 18.410845,23.7441518 18.3671653,23.5112681 C18.3408537,23.3709853 18.3283536,23.2599581 18.3246118,23.1934708 C18.2861325,22.5767024 18.2900784,21.9344871 18.3264241,20.0609335 C18.3337382,19.6839032 18.3378887,19.4592898 18.3418047,19.2187512 C18.3543476,18.4482919 18.357916,17.8503689 18.3507882,17.3119385 C18.3387333,16.3794003 18.3555618,15.5734229 18.4023608,14.2770125 C18.4497929,12.9630644 18.456985,12.723669 18.456985,12.2374403 C18.456985,11.6544292 18.4467976,11.2286193 18.3623273,8.00952308 C18.3542497,7.70104312 18.3511631,7.58247806 18.3462407,7.3912374 C18.3044448,5.76742244 18.2804782,4.65772629 18.2712739,3.79777851 C18.2462171,1.45676275 17.7316986,0.557430092 16.5788181,0.579713626 C16.1324981,0.588340353 15.8933918,0.814722907 15.7783026,1.23007761 C15.714692,1.45964708 15.7008695,1.71018349 15.7162931,1.92837721 C15.7175498,1.94615473 15.7198001,3.12579607 15.7230443,5.46730123 C15.7230443,6.62133713 15.6241888,8.44147093 15.4486092,9.12391461 C15.3827229,9.37903757 15.3143107,9.764132 15.2466172,10.2409215 C15.1994775,10.5729436 15.1554554,10.929358 15.11581,11.2858667 C15.0920188,11.499808 15.0749985,11.6660017 15.0672729,11.7327861 L15.0672729,13.6770226 C15.5685556,13.8503936 15.9724674,14.2079808 16.2286518,14.8036069 C16.5269012,15.4966549 16.5838015,16.4876008 16.4651376,17.7607079 C16.4156811,18.2913108 16.338825,18.8436483 16.230743,19.4912585 C16.2001973,19.674283 16.0152526,20.7234477 15.9838497,20.9343951 C15.9223749,21.3473491 15.8598159,21.6203578 15.7479952,22.0112927 C15.5061597,22.8567708 15.4286872,23.2073163 15.2959277,24.2728871 C15.0391201,26.3291659 14.301235,27.4180787 13.2627523,27.4207394 C12.8430085,27.421938 12.506073,27.3413251 12.2459972,27.1972608 C12.1118643,28.0003028 11.4551595,28.5960998 10.5343697,28.6935226 C9.73711951,28.7775935 9.17828407,28.5496401 8.84904938,28.1086559 C8.84774761,28.1069123 8.84645148,28.1051686 8.84516097,28.1034251 C8.65163122,28.308255 8.38761702,28.437052 8.05487465,28.4557189 C7.03725393,28.5128074 6.06656349,27.7443563 5.50032463,26.1950018 C5.36035207,25.8115973 4.85384131,24.3638568 4.74019553,24.0752805 C4.67689545,23.9145451 4.61599457,23.7720759 4.55253983,23.6375168 C4.31903492,23.6338128 4.01801023,23.5853627 3.65938672,23.5016387 C3.51765856,23.468551 3.36951352,23.4304722 3.21694527,23.3883595 C3.02378595,23.3350428 2.83326422,23.2780123 2.65342893,23.2209687 C2.54524828,23.1866539 2.46427995,23.1598275 2.41870508,23.144206 C2.26738808,23.09234 2.18676717,22.9276276 2.23863323,22.7763106 C2.29049929,22.6249936 2.4552117,22.5443726 2.6065287,22.5962387 C2.64809319,22.6104855 2.72488607,22.6359286 2.82857094,22.6688173 C3.00184486,22.7237797 3.18550163,22.7787552 3.37107256,22.8299774 C3.51656811,22.8701377 3.65733436,22.9063199 3.79107981,22.937544 C3.94882078,22.9743701 4.09311725,23.0034059 4.22074115,23.0237868 C4.06485303,22.7515321 3.91115582,22.4760778 3.76418508,22.2072596 C3.65530795,22.0081168 3.5739241,21.8563786 3.52862821,21.770631 C3.45391401,21.629193 3.50800436,21.453967 3.64944237,21.3792528 C3.79088038,21.3045386 3.96610636,21.358629 4.04082055,21.500067 C4.08489021,21.5834932 4.1649845,21.7328271 4.27244516,21.929379 C4.45163929,22.2571358 4.64094359,22.5948583 4.83162876,22.9237547 C4.8806881,23.0083729 4.92676131,23.092226 4.97064837,23.176713 C5.08068575,23.3885462 5.17781617,23.6056611 5.2791697,23.8630242 C5.39768011,24.1639531 5.90787995,25.6222379 6.04442587,25.9962565 C6.52912682,27.3225052 7.2824515,27.9188778 8.022429,27.877365 C8.23555868,27.8654085 8.3771865,27.7807755 8.4774839,27.6405533 C8.53447165,27.5608808 8.56768609,27.4798576 8.58196382,27.4260215 C8.58190645,27.4249089 8.58184827,27.4237823 8.58178927,27.4226418 L8.50278869,26.2069546 C8.48201177,25.9372889 8.45922747,25.6722015 8.43444677,25.4176961 C8.40161844,25.0805391 8.3665452,24.7773211 8.33008416,24.5165363 C8.32905188,24.5112625 8.32815889,24.5059301 8.32740962,24.5005422 C8.32456607,24.4800948 8.32374957,24.4742235 8.31705603,24.4255665 C8.25734057,24.0186729 8.19423439,23.7263015 8.13140628,23.5848116 C8.08872577,23.4886945 7.88191184,23.0431657 7.82405411,22.9126599 C7.49069949,22.1607339 7.29394564,21.491306 7.1942384,20.5923384 C7.14114956,20.1136857 7.05365185,19.7431158 6.94334808,19.4675817 C6.8426171,19.2159601 6.75853752,19.1102023 6.77125227,19.113797 C6.74373953,19.1019884 6.70744172,19.0866796 6.6631605,19.0683196 C6.65520416,19.0654341 6.64734775,19.0621881 6.63961643,19.0585813 C6.57207627,19.0307104 6.48833658,18.9966987 6.39077591,18.9578778 C6.09507452,18.8402137 5.78209204,18.7225363 5.46622966,18.6128437 C5.22676758,18.5296833 4.99494102,18.4544197 4.77424947,18.3889423 C4.59786216,18.3366096 4.43035347,18.291062 4.27325321,18.2530406 C4.14874238,18.2229587 4.01077996,18.2284306 3.85824852,18.2693558 C3.51591239,18.3612069 3.12585461,18.6234473 2.72596745,19.0040231 C2.53930247,19.1816736 2.36315586,19.3729068 2.20354522,19.5641292 C2.10820757,19.6783489 2.04026484,19.7662488 2.02067451,19.7908908 C1.6245553,20.4648489 1.38620223,21.3423036 1.13254237,22.9762143 C1.07178484,23.3675745 1.00893208,23.8065824 0.927339915,24.4030767 C0.887956312,24.6909976 0.730783519,25.8571075 0.69299196,26.1347405 C0.596525296,26.8434259 0.562820905,27.6070324 0.586594635,28.4200031 C0.632380445,29.9857029 0.882298214,31.6461458 1.28885322,33.4427968 C1.43842965,34.103806 1.52628265,34.4521203 1.7993853,35.5008832 C1.95469072,36.0972837 2.02083725,36.4254876 2.04747765,36.7617734 C2.08157306,37.1921649 1.88774095,40.0116792 1.89665211,39.8466347 C1.86233394,40.4822452 1.83295355,41.1738265 1.80859174,41.9547965 C1.7471992,43.9228662 1.72836161,46.5683575 1.74240416,49.6359441 C1.7431364,49.7959015 1.61405887,49.9261662 1.45410142,49.9268985 C1.29414397,49.9276307 1.16387924,49.7985532 1.163147,49.6385957 C1.14907541,46.5646669 1.1679555,43.9132073 1.22961014,41.9367356 C1.25410832,41.1513938 1.2836752,40.4554228 1.31823137,39.8154043 C1.31344337,39.9040834 1.50016501,37.1879991 1.47002356,36.8075191 C1.44668397,36.5128998 1.3862394,36.2129878 1.23881658,35.6468579 C0.96410655,34.5919223 0.875305974,34.2398512 0.723874253,33.570643 C0.309759604,31.7405844 0.0546159166,30.0454207 0.00757892376,28.4369353 C-0.0170795342,27.5937103 0.0180122587,26.7986708 0.119021813,26.0566113 C0.156734376,25.7795587 0.313941573,24.6131935 0.353420943,24.3245725 C0.435445662,23.724916 0.498741522,23.2828132 0.56013604,22.8873499 C0.824264664,21.1860062 1.07817728,20.2512719 1.53667419,19.4738728 C1.57889105,19.4157755 1.65465496,19.317757 1.75883891,19.1929389 C1.93176425,18.9857649 2.12258407,18.7786017 2.32662371,18.5844156 C2.79035197,18.1430818 3.25310154,17.8319698 3.7081375,17.7098806 C3.94965624,17.6450794 4.184844,17.6357513 4.40940112,17.6900045 C4.57670168,17.7304946 4.75361189,17.7785986 4.93901338,17.8336057 C5.16871626,17.9017567 5.40885266,17.9797181 5.65626295,18.0656387 C5.98088255,18.1783726 6.30173624,18.2990094 6.60494133,18.4196594 C6.6339726,18.4312114 6.66183773,18.4423592 6.68864778,18.4531596 C6.70471872,18.4360251 6.72174325,18.4178008 6.73962819,18.3985693 C6.87922245,18.2484644 7.01876377,18.0929967 7.14854007,17.9408478 C7.19933922,17.8812912 7.24769886,17.8233253 7.29325591,17.7672863 C7.47150694,17.5480225 7.60011729,17.3662275 7.66056306,17.2451201 C7.97024674,16.6246467 8.8444836,16.2446518 10.1507147,16.2308975 C10.2087175,16.1585165 10.282859,16.0671334 10.3701984,15.9612251 C10.6041413,15.6775444 10.8475778,15.3937887 11.0885419,15.1283419 C11.1981254,15.0076244 11.3049445,14.8932364 11.4083898,14.7861477 C11.8875827,14.2900777 12.264739,13.9754632 12.5551228,13.8747353 C13.2465324,13.6349 13.9089826,13.5102333 14.4882296,13.5587132 Z M11.564842,26.1063548 C11.5482447,26.0031353 11.5319293,25.8958005 11.5160879,25.7847298 C11.4482248,25.3089121 11.3965125,24.8168097 11.3673919,24.3208764 C11.3501323,24.0269386 11.3430679,23.7011298 11.3449174,23.3460709 C11.3474179,22.8660391 11.3653859,22.3647516 11.3959381,21.7992731 C11.3986982,21.748189 11.4464006,20.9422726 11.4464006,20.879005 C11.4464006,20.8209237 11.5156087,20.2797447 11.5293493,20.1561988 C11.5768577,19.7290361 11.6051823,19.3313163 11.608475,18.9537821 C11.6081823,18.9504938 11.607944,18.9471886 11.607761,18.9438672 C11.606084,18.9134195 11.6032174,18.8579945 11.5995252,18.7807578 C11.5933854,18.6523192 11.5872485,18.5103306 11.5815213,18.3587651 C11.5794331,18.3035046 11.5774495,18.2483266 11.575578,18.1933029 C11.4842204,17.3384203 11.2036141,16.8603584 10.722727,16.8274245 C9.28550051,16.728995 8.408315,17.0440683 8.17885649,17.5038048 C8.09467913,17.6724602 7.94585623,17.8828264 7.74273068,18.1326879 C7.69417978,18.1924096 7.64291552,18.253857 7.58926006,18.3167624 C7.46546377,18.4619004 7.3340129,18.608987 7.20193064,18.7519287 C7.29450382,18.8638795 7.39105394,19.0273165 7.4811198,19.2522971 C7.61193993,19.5790802 7.7113818,20.0002359 7.7699712,20.5284821 C7.8104421,20.8933706 7.86764014,21.2159095 7.94513977,21.5219095 C7.88689184,21.0141077 7.84692469,20.6122007 7.82915037,20.3404575 C7.78209458,19.624442 7.76904706,19.1392967 7.77479131,18.8526642 C7.77561419,18.8186353 7.77561419,18.8186353 7.77598767,18.8094119 C7.78267474,18.6495926 7.91765481,18.5254544 8.0774741,18.5321415 C8.23729338,18.5388286 8.36143157,18.6738087 8.3547445,18.8336279 C8.35461733,18.83637 8.35461733,18.83637 8.35393825,18.8642705 C8.3485427,19.1335034 8.36114937,19.6022564 8.40717258,20.3025601 C8.43171197,20.6777309 8.50199477,21.3273031 8.60587735,22.1698655 C8.61964621,22.2815408 8.63391482,22.3958517 8.64863685,22.5124982 C8.70387152,22.9501368 8.76306814,23.4018209 8.82226616,23.8419514 C8.84298604,23.9960012 8.86222451,24.1375915 8.87948705,24.2635277 C8.88125939,24.2764164 8.88285474,24.2880179 8.88429466,24.2984888 C8.92958972,24.5993135 8.97142139,24.9552448 9.01098351,25.3615598 C9.03451293,25.6032142 9.0562375,25.853848 9.07616621,26.1086674 C9.07708232,26.1154156 9.07776885,26.1222435 9.07821724,26.1291435 L9.08055506,26.1652286 C9.09638842,26.3708922 9.1110578,26.5790399 9.12456789,26.7871689 C9.13559756,26.9570862 9.14505305,27.1148912 9.15293624,27.256576 C9.15655192,27.3215608 9.15925338,27.3724815 9.16104102,27.4075559 L9.16177089,27.4188215 C9.16973156,27.4930559 9.21286353,27.627694 9.31321847,27.7621116 C9.51678989,28.0347797 9.87438144,28.1806441 10.4735222,28.1174641 C11.266304,28.0335849 11.7513794,27.4783298 11.691798,26.7956063 C11.6803886,26.7441878 11.6609605,26.6496794 11.6361995,26.5174158 C11.6247801,26.4564178 11.6133655,26.393324 11.6020139,26.328249 C11.5853061,26.2573028 11.5730111,26.1838593 11.5650324,26.1082158 C11.5649669,26.1075952 11.5649035,26.1069748 11.564842,26.1063548 Z"></path>
                </g>
            </g>
            <g id="slices"></g>
        </g>
    </g>
</svg>