<?xml version="1.0" encoding="UTF-8"?>
<svg width="50px" height="50px" viewBox="0 0 50 50" version="1.1" xmlns="http://www.w3.org/2000/svg" xmlns:xlink="http://www.w3.org/1999/xlink">
    <!-- Generator: Sketch 49.1 (51147) - http://www.bohemiancoding.com/sketch -->
    <title>m</title>
    <desc>Created with Sketch.</desc>
    <defs></defs>
    <g id="Finger" stroke="none" stroke-width="1" fill="none" fill-rule="evenodd">
        <g id="Finger-Alphabet" transform="translate(-650.000000, 0.000000)">
            <g id="letters" transform="translate(11.000000, 0.000000)" fill="#1D1D1B" fill-rule="nonzero">
                <g id="m" transform="translate(652.000000, 0.000000)">
                    <path d="M17.1828453,14.7074177 C17.143768,14.6870578 17.1055062,14.6657802 17.0680611,14.6436218 C17.0305122,14.6214019 16.9954976,14.5993249 16.9629899,14.5776226 C16.6468665,15.0400135 16.1373093,15.3630383 15.4001851,15.5731592 C14.5778421,15.8075247 13.9254971,15.6305434 13.3932274,15.1329172 C13.3577494,15.2654407 13.2982053,15.3865952 13.2129236,15.497028 C13.3227842,16.031213 13.1449362,16.507123 12.6525694,16.7243888 C12.3971619,16.8370692 12.1381451,16.9151133 11.8760635,16.9598069 C10.6801428,17.1637511 9.56360632,16.707123 8.32303184,15.7645405 C8.32777227,15.7681422 7.24372558,14.8880393 7.0868092,14.8058436 C7.10760694,14.8200724 7.04642127,14.8366159 6.95561794,14.8708597 C6.93872056,14.8772321 6.7487069,14.9503502 6.68228075,14.9751021 C6.5567498,15.0218778 6.44209387,15.061631 6.32307323,15.0986304 C6.09437287,15.1697256 5.8657847,15.2251877 5.62682393,15.2639778 C5.33971725,15.3106109 5.04229743,15.3144622 4.72783933,15.2774492 L4.72776716,15.2776259 C4.70174568,15.3412753 4.65331709,15.4440756 4.58197972,15.5724858 C4.46401862,15.7848205 4.3222845,15.9943028 4.15533927,16.1873886 C3.64781148,16.7743861 3.01500066,17.0925417 2.26736163,16.9815606 C2.09765756,16.9563694 1.98050675,16.7983756 2.00569797,16.6286715 C2.03088919,16.4589674 2.18888303,16.3418166 2.35858709,16.3670078 C2.86573262,16.4422895 3.30426526,16.2218104 3.68536315,15.7810394 C3.82207526,15.6229207 3.94036337,15.4480915 4.03887455,15.2707674 C4.06247526,15.2282852 4.08274944,15.1897943 4.09966981,15.1562263 C3.62857879,15.0330444 3.11627388,14.8333673 2.5447225,14.562337 C2.38970501,14.4888276 2.3236297,14.3035698 2.39713917,14.1485523 C2.47064864,13.9935348 2.65590636,13.9274595 2.81092385,14.000969 C3.95343518,14.5427492 4.81250824,14.7668138 5.52724593,14.650723 C5.7359756,14.6168403 5.93651849,14.5681828 6.13864229,14.5053494 C6.24566155,14.4720807 6.34981914,14.4359675 6.46534625,14.3929195 C6.52794922,14.3695922 6.71639696,14.2970766 6.73638923,14.2895371 C7.00829241,14.1869968 7.1171752,14.1598111 7.27147867,14.2111633 C7.43069175,14.2641297 7.5934603,14.3779144 7.89507428,14.6227831 C7.95962197,14.6751869 8.21340004,14.8842053 8.26911391,14.9296831 C8.42856089,15.0598357 8.56305788,15.1666361 8.69889782,15.2698467 C9.81534868,16.1181206 10.7866154,16.515338 11.7716213,16.3473618 C11.9832047,16.3112798 12.1930788,16.2480428 12.4017706,16.1559724 C12.4999282,16.1126586 12.5664516,16.0424368 12.5995912,15.9471726 C12.5394348,15.9744046 12.4757976,16.0004498 12.4086078,16.0253359 C11.1611443,16.4875975 10.1310039,15.9712594 9.36483674,14.4150524 C8.95621532,13.5851622 8.53955401,12.7878649 8.1553174,12.1018474 C7.33261898,11.4537184 5.70956063,10.6828922 4.73735199,10.659771 C4.31396906,10.6497006 3.9791206,10.8142012 3.48379741,11.2307467 C3.38721332,11.3119698 2.99688633,11.6538158 3.04875852,11.6087726 C1.88420651,12.6202382 1.4747541,13.1979618 1.20520927,14.3669264 C1.13233464,14.6828304 1.06855189,14.9204331 1.00562632,15.1199974 C0.969086949,15.2358796 0.873395068,15.5072973 0.877672903,15.4945245 C0.806161226,15.7080439 0.766442111,15.9337347 0.704862288,16.5495745 C0.653419705,17.0640453 0.630668819,17.3755967 0.624205911,17.6854425 C0.612327174,18.254935 0.631006319,18.521988 0.82227742,20.7388267 C1.06497678,23.5523674 1.80567849,26.2998953 2.91734505,28.1794468 C3.96626609,29.9529113 4.95984445,32.2742055 5.00882336,32.8409616 C5.02106017,32.9826811 5.01532188,33.0241483 4.88647491,33.8521328 C4.78206188,34.5231023 4.7214739,34.9831642 4.68359314,35.4668704 C4.64389459,35.9737884 4.64070063,36.4145176 4.67996642,36.7839016 C4.74854689,37.4291734 4.80771262,38.0830351 4.85736195,38.7121385 C4.87474067,38.932343 4.88969191,39.1337709 4.90220004,39.3122391 C4.90971957,39.419529 4.91476274,39.4954719 4.91790785,39.551724 L5.03655943,49.4456866 C5.03861672,49.6172378 4.90121472,49.7579754 4.72966346,49.7600327 C4.5581122,49.76209 4.41737466,49.624688 4.41531736,49.4531367 C4.36917508,45.6054846 4.36917508,45.6054846 4.29726037,39.5750171 C4.294798,39.5360044 4.28984974,39.4614907 4.28243361,39.3556761 C4.27004898,39.17897 4.2552319,38.9793496 4.23800106,38.7610189 C4.18876597,38.1371643 4.13009435,37.4887632 4.06215981,36.8495689 C4.01831171,36.4370779 4.02176742,35.9602296 4.06420287,35.4183638 C4.1036197,34.9150431 4.1659113,34.4420452 4.27257682,33.756601 C4.3769772,33.0857128 4.39506923,32.9549725 4.38984173,32.8944308 C4.35111856,32.4463482 3.38708553,30.1940807 2.38259027,28.4957292 C1.21756854,26.5259674 0.453363693,23.6912579 0.203289884,20.7922274 C0.00926055777,18.5434208 -0.00951346347,18.2750114 0.00305428402,17.6724863 C0.00992545567,17.3430674 0.0337294374,17.0170949 0.0866584059,16.4877589 C0.152459737,15.8297012 0.199244479,15.5638623 0.288549374,15.297216 C0.287257722,15.3010726 0.380326068,15.0370962 0.413097359,14.9331642 C0.470859925,14.7499741 0.530453647,14.5279763 0.59981516,14.2273013 C0.903255788,12.9113371 1.38629302,12.2297877 2.64138197,11.1396867 C2.58465866,11.1889424 2.98174057,10.8411805 3.08392396,10.7552486 C3.58824859,10.3311333 3.99389455,10.1036595 4.47090494,10.0503372 L4.19877583,6.89557334 C4.19287405,6.80698026 4.18709433,6.65513805 4.18693694,6.45889433 C4.18661014,6.05141401 4.21210007,5.64122935 4.27374659,5.2591144 C4.38198573,4.58819587 4.58663135,4.08082277 4.94018388,3.79247257 C6.16584569,2.79231448 7.73561134,2.31355999 8.50547895,3.21513939 C8.63093297,3.36201001 8.7958127,3.60380461 8.98445523,3.90919401 C8.89713286,3.55301122 8.82739275,3.22970074 8.77389784,2.93782001 C8.66885688,2.36469212 8.64344069,2.01900777 8.65865019,1.82682006 C8.86306489,0.555645436 10.2514024,-0.0818631522 12.4230305,0.00842287422 C13.2228448,0.041623412 13.8471596,0.62990701 14.3486311,1.64633278 C14.3739164,1.58520814 14.400521,1.52495328 14.4284859,1.46584341 C14.7029925,0.885614152 15.0615893,0.50179341 15.5480781,0.435485534 C15.6581257,0.420490246 15.773314,0.406294039 15.8930779,0.392866675 C16.233632,0.354685364 16.5961623,0.324203825 16.9577006,0.300602317 C17.1745825,0.286444097 17.3433346,0.277702901 17.4405751,0.273652044 L17.514159,0.279361887 C17.5835207,0.293170798 17.6974878,0.321003802 17.8410267,0.364806592 C18.0798561,0.43768852 18.3166977,0.53052741 18.5371507,0.646402137 C18.9720627,0.875001026 19.2936338,1.16567491 19.4479405,1.5394376 C19.7842564,2.35393776 19.9836742,3.53373798 20.1714125,5.71034981 C20.2530582,6.65643007 20.3079425,7.29254381 20.4205189,8.59742803 L20.4700395,9.17141798 L23.8345984,13.8530287 C23.878164,13.9087251 23.9511572,14.0073338 24.0431455,14.1406544 C24.1957333,14.3618031 24.3460574,14.6009006 24.4837259,14.8501297 C24.7118569,15.2631281 24.8826433,15.662872 24.9753783,16.0378336 C25.0603612,16.3814504 25.0777695,16.6970537 25.0131611,16.9801692 C24.8899156,17.5202894 24.6153298,18.124202 24.0556656,19.1854192 C24.0091574,19.2735115 24.0091574,19.2735115 23.962647,19.3613473 C23.433545,20.3601636 23.2791104,20.6659033 23.1208114,21.0634775 C23.0840567,21.1557815 22.3007626,23.3500285 21.9771795,24.1471491 C21.435453,25.4816483 20.9203,26.4569118 20.3850859,27.0491337 C19.4577141,28.0751657 19.0412527,29.8738479 19.0151862,31.8050265 C19.0112323,32.1080462 19.0122947,32.4318342 19.0177872,32.7902335 C19.0222215,33.0795846 19.0292322,33.3790867 19.0399099,33.7594578 C19.0419362,33.8316424 19.0625507,34.5354635 19.0678105,34.7338154 C19.0773331,35.0929207 19.0827067,35.373651 19.0842382,35.6272491 C19.0878017,36.2145185 19.6918393,43.1602449 20.3049261,49.6601644 C20.3210368,49.8309699 20.195632,49.9824954 20.0248265,49.9986061 C19.854021,50.0147169 19.7024955,49.889312 19.6863847,49.7185066 C19.068715,43.1699982 18.4667041,36.2475775 18.4629628,35.6310099 C18.4614613,35.3823655 18.4561619,35.1055142 18.4467421,34.7502846 C18.4415096,34.5529638 18.4209156,33.8498432 18.4188678,33.7768915 C18.4081224,33.394107 18.4010548,33.0921718 18.3965734,32.7997537 C18.3909964,32.4358442 18.3899153,32.1063175 18.3939542,31.7967809 C18.4219024,29.7261867 18.867514,27.8016063 19.924157,26.6325503 C20.3971422,26.1091856 20.8854614,25.1847224 21.4015159,23.9134642 C21.718679,23.1321588 22.5010406,20.9405242 22.543599,20.8336449 C22.713891,20.40595 22.8713968,20.09413 23.4136334,19.0705188 C23.4599574,18.9830348 23.4599574,18.9830348 23.5061188,18.8955995 C24.0390347,17.8851015 24.3007683,17.3094554 24.4074448,16.8419487 C24.4479113,16.6646231 24.4357182,16.4435674 24.3722631,16.1869954 C24.2943817,15.8720927 24.1438733,15.5198113 23.9398915,15.1505316 C23.8129506,14.9207234 23.6733631,14.6987029 23.5317715,14.4934912 C23.4472521,14.3709955 23.3815391,14.2822219 23.3376682,14.2257197 L20.5744189,10.3811553 L20.6154856,10.857077 C20.7683997,12.6287978 19.8317146,13.6325737 18.5882106,13.7388282 C18.0930241,13.7811407 17.668266,13.6934932 17.3461517,13.4705873 C17.3240896,13.6632858 17.2873799,13.8425384 17.2351657,14.0090093 C17.2724459,14.0377467 17.3221614,14.0720702 17.3844646,14.1089386 C17.4445671,14.1445048 17.5077331,14.1771756 17.5740288,14.2066418 C17.5946227,14.210219 17.615162,14.2159399 17.6353658,14.2239263 C17.6570394,14.2324937 17.6772121,14.2432274 17.6957336,14.2557808 C18.1054013,14.4051693 18.6234771,14.4386408 19.2632122,14.2943202 C19.43057,14.2565652 19.5968467,14.3616291 19.6346017,14.5289869 C19.6723567,14.6963447 19.5672928,14.8626214 19.399935,14.9003764 C18.8280534,15.0293896 18.3229004,15.0368113 17.8854171,14.9508424 C17.9400981,15.0514839 18.0252294,15.1581129 18.1480319,15.2698747 C18.3671325,15.4692767 18.686742,15.6651317 19.0922476,15.8400904 L20.6838741,16.3431214 C20.847462,16.394823 20.9381637,16.5693497 20.886462,16.7329376 C20.8347603,16.8965256 20.6602336,16.9872272 20.4966457,16.9355256 L18.8765301,16.4219323 C18.3822393,16.2106363 18.003991,15.9788478 17.729857,15.7293602 C17.3456129,15.3796621 17.1869842,15.0218287 17.1828453,14.7074177 Z M19.8588213,9.31487202 C19.8585137,9.31183079 19.8582512,9.30878739 19.8580337,9.30574286 C19.8431349,9.13305491 19.8254815,8.92843378 19.8015359,8.6508805 C19.6889554,7.34594931 19.6340716,6.70984123 19.5524252,5.7637534 C19.3699597,3.64827353 19.1782758,2.51422915 18.8736758,1.77653932 C18.7847206,1.56107159 18.5662186,1.36356366 18.2480879,1.19634748 C18.0655639,1.10040901 17.8638853,1.02135363 17.6596885,0.959040262 C17.5614387,0.929058062 17.4812639,0.908301226 17.4274658,0.896108719 C17.3310897,0.90051812 17.1827557,0.908519705 16.9981725,0.920569437 C16.6455258,0.943590493 16.2922054,0.97329767 15.9623,1.0102851 C15.8472576,1.02318311 15.736928,1.03678051 15.6319718,1.05108204 C15.4088389,1.08149481 15.1835461,1.32263475 14.990093,1.73153986 C14.9014396,1.91892813 14.8269543,2.12525849 14.7669203,2.33380208 C14.745306,2.40888462 14.7284384,2.4737058 14.7161731,2.52480479 C14.8088411,2.78336247 14.8966921,3.05935885 14.9802144,3.35161684 C15.140242,3.91157958 15.2737409,4.49796846 15.3935941,5.12814566 C15.4542695,5.44717168 15.5762542,6.15854604 15.5843113,6.19896066 C15.6006863,6.2810557 15.621022,6.36788185 15.6450457,6.45886323 C15.6882995,6.62267235 15.7427938,6.79736957 15.8063017,6.97912903 C15.8778454,7.18388722 15.9568594,7.38659045 16.0372758,7.57769238 C16.0853495,7.69193498 16.122914,7.77628365 16.1528196,7.84256334 C16.1647072,7.8739828 16.1863774,7.93259518 16.2162977,8.01565698 C16.2658831,8.15331154 16.3206428,8.3099041 16.3790447,8.48269807 C16.5458005,8.97607913 16.7086279,9.5011721 16.8552748,10.0362677 C16.9984725,10.5587773 17.1185768,11.0636825 17.2098043,11.5411099 C17.223245,11.6120604 17.223245,11.6120604 17.2362032,11.6829947 C17.2714897,11.8780559 17.3001528,12.0650259 17.321859,12.2441633 C17.3264939,12.2584162 17.3301533,12.2731809 17.3327474,12.2883938 C17.4428082,12.9338244 17.8424596,13.1790001 18.5353158,13.1197972 C19.4500692,13.0416337 20.1186017,12.325217 19.9964997,10.9104964 C19.9204312,10.0289406 19.9000894,9.79319968 19.8588213,9.31487205 Z M7.451891,10.9168101 C7.29694213,10.6749947 7.1554672,10.4703958 7.03188325,10.3116028 C6.95095265,10.2075788 6.8660281,10.0973824 6.7775661,9.98167357 C6.74049646,9.93315163 6.74049646,9.93315163 6.70349852,9.88459113 C6.46622143,9.57295687 6.21703203,9.23991551 5.97109442,8.9073048 C5.82353677,8.70774502 5.70978143,8.55257721 5.64507191,8.46373644 C5.54406297,8.32505962 5.57459882,8.13075592 5.71327564,8.02974698 C5.85195246,7.92873804 6.04625616,7.95927389 6.1472651,8.09795071 C6.21115094,8.18566062 6.3240452,8.33965388 6.47065024,8.53792533 C6.71498377,8.86836665 6.96249634,9.19916693 7.1978109,9.50822364 C7.23444786,9.55631036 7.23444786,9.55631036 7.27113379,9.60433003 C7.35857391,9.71870224 7.44243796,9.82752259 7.52221238,9.93006044 C8.10836615,10.6832096 9.0317386,12.3320812 9.92222654,14.1406188 C10.556728,15.429392 11.2674566,15.7856311 12.1927733,15.4427446 C12.3826096,15.3724319 12.5261332,15.2970482 12.6271844,15.2073636 C12.6412952,15.1901195 12.6573229,15.1743144 12.6750811,15.1603128 C12.8918664,14.9232704 12.8472798,14.5870349 12.6013279,14.0073894 C12.5929551,13.990587 12.5846201,13.9736739 12.5763225,13.9566508 C12.4555556,13.7088883 12.4031973,13.5838791 12.2105923,13.1039587 C12.0237121,12.6380852 11.8658847,12.1475832 11.5033216,10.9529641 C11.2239232,10.0323667 11.1019427,9.64409728 10.9568671,9.23388882 C10.7659667,8.69410842 10.3301463,7.74607661 9.84227653,6.77366319 C9.45064269,5.62485509 9.17547925,4.68836977 8.98445523,3.90919401 C9.39767693,4.57814989 9.92491958,5.55225247 10.4015554,6.50221098 C10.4674971,6.69812866 10.3800589,6.87431303 10.2174615,6.92905 C10.0690708,6.97900438 9.90936385,6.91054306 9.84098188,6.77460572 C9.16965288,5.43300168 8.39809377,4.04599563 8.03304053,3.61862316 C7.57700445,3.08456674 6.32093314,3.46764926 5.33291803,4.27388412 C5.12783627,4.44114462 4.97316315,4.82462205 4.8871026,5.35806699 C4.8314443,5.70306405 4.80792128,6.08159709 4.80822348,6.45839604 C4.80836914,6.64001332 4.81364039,6.77849733 4.81822581,6.84822291 L5.09601974,10.0680165 C5.8161965,10.1687044 6.69561417,10.5109071 7.451891,10.9168101 Z M13.1654969,13.7465172 C13.6905276,14.7930012 14.3073209,15.2385968 15.2298847,14.9756686 C16.64921,14.571083 16.9743079,13.7254295 16.6248417,11.7936034 C16.6124435,11.7257348 16.6124435,11.7257348 16.5995583,11.6577166 C16.5116244,11.1975255 16.3952211,10.7081788 16.2560826,10.2004808 C16.1128789,9.67794911 15.9535696,9.16420123 15.790467,8.68162894 C15.7334185,8.51283924 15.680009,8.36010789 15.6317772,8.22621095 C15.603007,8.14634185 15.5824797,8.090821 15.5806252,8.08353194 C15.5565242,8.031731 15.5158684,7.94044092 15.464625,7.81866596 C15.379513,7.61640528 15.2959197,7.4019545 15.2197864,7.18406096 C15.1512522,6.98791606 15.0920336,6.79807377 15.0443472,6.61747767 C15.0172059,6.51468942 14.9939954,6.41558928 14.9750206,6.32046027 C14.9649242,6.26981598 14.8423087,5.55476259 14.783248,5.24422714 C14.666627,4.63104398 14.5371039,4.06211892 14.3828431,3.52233515 C13.8699542,1.72765313 13.1903058,0.662094485 12.3972427,0.629174193 C10.5007223,0.550325844 9.41285984,1.04985978 9.27517046,1.8987819 C9.26724841,2.00718362 9.28887266,2.30129407 9.38500569,2.82581822 C9.54862327,3.71855381 9.87318705,4.92924844 10.4015554,6.50221098 C10.9000163,7.49566784 11.3431296,8.46271891 11.5426017,9.02673617 C11.6920176,9.44921726 11.8154586,9.84213505 12.0974928,10.7714176 C12.4541941,11.9467226 12.6098853,12.4305853 12.7871971,12.8726057 C12.9731336,13.33591 13.0229126,13.4548091 13.1339696,13.6827335 C13.1424818,13.6962445 13.1500593,13.710587 13.1565782,13.7257118 C13.1595741,13.7326626 13.162547,13.7395977 13.1654969,13.7465172 Z"></path>
                </g>
            </g>
            <g id="slices"></g>
        </g>
    </g>
</svg>