<?xml version="1.0" encoding="UTF-8"?>
<svg width="50px" height="50px" viewBox="0 0 50 50" version="1.1" xmlns="http://www.w3.org/2000/svg" xmlns:xlink="http://www.w3.org/1999/xlink">
    <!-- Generator: Sketch 49.1 (51147) - http://www.bohemiancoding.com/sketch -->
    <title>n</title>
    <desc>Created with Sketch.</desc>
    <defs></defs>
    <g id="Finger" stroke="none" stroke-width="1" fill="none" fill-rule="evenodd">
        <g id="Finger-Alphabet" transform="translate(-700.000000, 0.000000)">
            <g id="letters" transform="translate(11.000000, 0.000000)" fill="#000000" fill-rule="nonzero">
                <g id="n" transform="translate(701.000000, 0.000000)">
                    <path d="M12.9377535,16.5759114 C12.9265753,16.5352794 12.9233018,16.5229452 12.9258961,16.531729 C12.9299444,16.5471633 12.9338978,16.5618962 12.9377535,16.5759114 Z M13.1523049,17.3576914 C13.2807004,17.8631608 13.3682687,18.3232094 13.407671,18.7637251 C13.5453442,20.3029007 13.0514052,21.3399151 11.6822472,21.4965289 C10.1489051,21.6719232 9.28560175,20.5242917 8.74516485,18.4198147 C8.60702218,17.8818831 8.29022459,16.2655821 8.29531538,16.2882925 C7.77110215,13.9497295 6.96908334,11.1669346 6.55533726,10.5516816 C6.15670895,9.95890921 5.29938015,9.80234574 4.64106566,10.128657 C3.41760987,10.7350956 2.20845223,11.6171599 1.74290956,12.4742637 C1.67341387,12.6022112 1.43733922,13.0307591 1.38762623,13.1225656 C1.27270152,13.3348004 1.19285892,13.4913857 1.12433413,13.6417259 C0.915610514,14.0996558 0.798594643,14.5430049 0.702794358,15.2849733 C0.656954447,15.6400011 0.639810384,15.8962814 0.641528852,16.164117 C0.642305188,16.2851146 0.646685781,16.4102145 0.655618055,16.5849674 C0.658269789,16.6368465 0.678071949,16.9963373 0.684313898,17.1208497 C0.730285088,18.037868 0.743259877,19.0320866 0.709645861,20.5649619 C0.661117649,22.7779584 1.01819991,24.7584638 1.69290764,26.794852 C1.89379502,27.4011659 2.51384529,29.0536659 2.47793759,28.9528071 C2.72529314,29.6475881 2.89610686,30.3277113 3.01677995,31.0321974 C3.06241033,31.2985862 3.09912351,31.5566955 3.13486857,31.8486206 C3.14898115,31.9638761 3.19728791,32.3837731 3.20871095,32.4743673 C3.2543803,32.8365631 3.40025759,39.2223449 3.6120755,49.5490187 C3.61570779,49.7261026 3.47509754,49.8726019 3.29801371,49.8762342 C3.12092989,49.8798665 2.97443052,49.7392563 2.97079823,49.5621724 C2.76394235,39.4774107 2.61320055,32.8786847 2.57233761,32.5546078 C2.56037224,32.4597124 2.51188653,32.0382599 2.49821136,31.9265767 C2.4636194,31.6440688 2.42829416,31.3957173 2.38457552,31.1404892 C2.26981978,30.4705485 2.10788962,29.8257966 1.87367816,29.1679352 C1.91332283,29.2792906 1.28964829,27.6171315 1.08404492,26.9965839 C0.38788612,24.8954525 0.0180932268,22.8444494 0.0683878641,20.5509 C0.101668989,19.0332053 0.0888950385,18.0543763 0.0437062002,17.1529641 C0.0375652689,17.0304668 0.0177863012,16.671397 0.0150421397,16.6177096 C0.00566421436,16.434238 0.000977957644,16.3004089 0.000129894917,16.1682323 C-0.00178219505,15.8702194 0.0172744849,15.5853481 0.0666627702,15.2028383 C0.170202811,14.4009258 0.303377778,13.8963533 0.540689743,13.3757019 C0.616333185,13.2097437 0.702283634,13.0411798 0.823597777,12.8171454 C0.874721279,12.7227341 1.11106188,12.2937034 1.17927338,12.1681202 C1.72696148,11.1597797 3.02097779,10.2158121 4.35620673,9.55397013 C5.07595722,9.19720651 5.96477448,9.2494832 6.60367679,9.69981149 C6.3730097,7.22772021 6.79075596,6.37196678 7.9217658,5.87633716 C7.94833528,5.86471412 7.94833528,5.86471412 7.97445168,5.85332235 C8.00366103,5.8405733 8.00366103,5.8405733 8.03224915,5.82801397 C9.46847712,5.19520962 11.4317953,5.69857408 11.5194392,7.52318214 C11.595923,9.11545428 12.5892714,15.2483537 12.9258961,16.531729 C12.9390391,16.5762294 13.1027869,17.1627478 13.1523049,17.3576914 Z M8.92119568,16.1479949 C8.91976138,16.1415964 9.2338263,17.7439554 9.36641882,18.2602745 C9.8355255,20.0869896 10.5109852,20.9849112 11.6093533,20.8592722 C12.5489363,20.7517962 12.8794551,20.057879 12.7688094,18.8208687 C12.7328834,18.4192186 12.6513205,17.9907194 12.5306351,17.5156032 C12.4825306,17.3262248 12.3183321,16.7383482 12.3077574,16.703062 C11.9597009,15.3811423 10.9575701,9.19453874 10.8787658,7.55395649 C10.8187729,6.30499954 9.3785416,5.93574648 8.2908664,6.41497791 C8.2606639,6.42824635 8.2606639,6.42824635 8.23096051,6.44121076 C8.20487412,6.45258956 8.20487412,6.45258956 8.1792102,6.46381647 C7.20066263,6.89263428 6.93850395,7.64474475 7.37722806,10.7727558 C7.85108532,11.9097263 8.472677,14.1471122 8.92119568,16.1479949 Z M21.4737613,9.59583345 C21.4993909,9.6459147 21.5325335,9.7109564 21.5725059,9.78981603 C21.6831407,10.0080826 21.8063743,10.2540474 21.9390646,10.522458 C22.3181957,11.2893776 22.6973447,12.0828624 23.0514331,12.8610637 C23.1834585,13.1512237 23.3097587,13.434441 23.4295636,13.7094379 C23.9300147,14.8581603 24.3004595,15.8236492 24.5062408,16.5516991 C24.7805189,17.521055 24.3232974,18.9884455 23.3176945,20.8756685 C23.0205272,21.4333648 22.6800425,22.0171427 22.3029641,22.6218307 C21.8506647,23.347144 21.3713816,24.0627422 20.8631273,24.7858848 C20.6127549,25.1421138 20.1063032,25.8445113 20.086139,25.874496 C19.7029266,26.4443446 18.3824956,28.0613909 17.5553915,28.9669278 C17.1900551,29.3672454 16.99165,30.3400235 16.9355979,31.7691531 C16.9153287,32.2859469 16.913401,32.73548 16.9206454,33.5524704 C16.9238186,33.9103354 16.924494,34.0041625 16.924494,34.1533329 C16.924494,35.0714447 17.6803443,43.2752204 18.3680366,49.6448421 C18.3870489,49.8209398 18.259706,49.9791077 18.0836083,49.99812 C17.9075105,50.0171323 17.7493426,49.8897894 17.7303304,49.7136916 C17.0389205,43.3096374 16.2830819,35.1059877 16.2830819,34.1533329 C16.2830819,34.0068765 16.2824114,33.9137388 16.2792585,33.5581577 C16.2719265,32.7312933 16.2738869,32.2741282 16.2946785,31.7440155 C16.356788,30.1604446 16.5752295,29.0894282 17.0817079,28.5344542 C17.8893242,27.6502531 19.1910388,26.0561275 19.5538845,25.5165649 C19.5810069,25.4762331 20.0933082,24.7657229 20.3383634,24.4170591 C20.8403308,23.7028615 21.3132899,22.9967053 21.7587035,22.2824342 C22.1285134,21.6894022 22.4617958,21.1179728 22.7516285,20.5740415 C23.6803662,18.831072 24.1018498,17.4783776 23.8890344,16.7262438 C23.6928031,16.0319817 23.3313695,15.0899785 22.8415322,13.9656189 C22.7231554,13.6938999 22.598255,13.4138215 22.467615,13.1267061 C22.1268192,12.3777188 21.7621684,11.6135389 21.3968096,10.8729886 C21.3946393,10.9204446 21.3927839,10.9645699 21.3912517,11.0052683 C21.3098968,13.2010703 20.7584205,14.4585861 19.0159558,14.4585861 C18.1077289,14.4585861 17.4683875,14.1145564 17.0810169,13.5425766 C17.0635973,13.5168552 17.0469406,13.4911469 17.0310214,13.4654894 C16.9191011,13.6702163 16.7801343,13.8481875 16.6136268,13.9947745 C18.4887788,15.9760762 19.9963815,17.0285565 21.0983948,17.1620255 C21.2742309,17.1833217 21.3995103,17.343129 21.3782141,17.5189652 C21.3569179,17.6948013 21.1971106,17.8200807 21.0212744,17.7987845 C19.7084568,17.6397841 18.0640167,16.4799579 16.0478912,14.3296378 C15.7789463,14.4283888 15.4683721,14.4738155 15.1152736,14.4575373 C13.2863487,14.3732222 12.5752434,13.2668462 12.3103486,11.1660108 C12.2926614,11.025736 12.2758713,10.8806566 12.2599506,10.7311956 C12.1991171,10.1601016 12.1531935,9.54949917 12.1200253,8.93907758 C12.108424,8.72556918 12.099241,8.52726713 12.09222,8.34918776 C12.0879949,8.24202489 12.0854233,8.16517422 12.0909208,8.18029076 C12.0844681,8.14945136 12.0844681,8.14945136 12.0554957,8.0106322 C12.0168714,7.82533188 12.0168714,7.82533188 11.9621586,7.56208475 C11.8656017,7.09709256 11.7690428,6.62927546 11.678908,6.18863955 C11.6716704,6.15325099 11.6716704,6.15325099 11.6644351,6.11784908 C11.5434115,5.52557407 11.4446285,5.03409478 11.3752868,4.67698705 C11.3415248,4.50311354 11.4551076,4.33479166 11.6289811,4.30102962 C11.8028546,4.26726758 11.9711765,4.38085038 12.0049385,4.5547239 C12.0737964,4.90933985 12.1722222,5.39904245 12.2928619,5.98943828 C12.3000834,6.02477307 12.3000834,6.02477307 12.3073078,6.06009652 C12.397301,6.50004041 12.4937365,6.96725958 12.5901738,7.4316756 C12.6448245,7.69462413 12.6448245,7.69462413 12.6833979,7.87968009 C12.7123237,8.01827638 12.7123237,8.01827638 12.7254073,8.10555516 C12.7265144,8.14475182 12.7290065,8.21922631 12.7331342,8.32391868 C12.7400343,8.49893137 12.749071,8.69407477 12.7604927,8.90427684 C12.7931043,9.5044566 12.8382304,10.1044555 12.8977545,10.6632561 C12.9132498,10.8087235 12.9295668,10.9497158 12.946722,11.0857703 C13.1773349,12.9147218 13.7147614,13.7508791 15.1448119,13.8168057 C15.8641546,13.849968 16.285991,13.5659812 16.5218181,13.0507328 C16.601756,12.8760801 16.6538741,12.6855426 16.6825957,12.4936624 C16.6986497,12.3864108 16.7047286,12.3003004 16.7054363,12.2463144 L16.2836422,6.14115315 C16.2811216,6.0985675 16.2760324,6.01797772 16.2683746,5.90482827 C16.2555847,5.7158484 16.2402257,5.50517303 16.2222993,5.27825574 C16.1711048,4.63022098 16.1096521,3.98232228 16.0380274,3.37852465 C15.9902028,2.97536176 15.9393677,2.60568839 15.8856159,2.27701371 C15.6842716,1.0458602 14.9515672,0.641412159 13.4769037,0.641412159 C12.5141298,0.641412159 11.9855232,1.03440637 11.4788726,1.9384922 C11.3379583,2.18994495 11.2316192,2.98779501 11.1800048,4.09220045 C11.1446454,4.84879425 11.1365363,5.64777809 11.1437872,6.34377852 C11.1446056,6.42233641 11.1454259,6.47808847 11.1459568,6.50666589 C11.1492387,6.68375656 11.0083388,6.82997737 10.8312481,6.83325921 C10.6541575,6.83654106 10.5079366,6.69564116 10.5046548,6.51855049 C10.5040821,6.48757498 10.5032469,6.43080621 10.5024099,6.35046036 C10.4950426,5.64329297 10.5032651,4.83313137 10.539292,4.06225672 C10.5965235,2.83765951 10.7078653,2.00227479 10.9193324,1.62492526 C11.5293623,0.536365546 12.2508139,0 13.4769037,0 C15.2288403,0 16.2558779,0.566918051 16.5186188,2.17349168 C16.5570827,2.40868551 16.5939465,2.66314788 16.6292429,2.93459281 C17.5123418,1.88363526 19.3483638,1.68500177 20.5603457,2.68657434 C20.9633102,3.0195811 21.2588209,3.43285468 21.4588018,3.90553966 C21.7372938,4.56379746 21.8056516,5.24621503 21.758764,5.83699096 C21.7541165,5.89554828 21.7492668,5.93856652 21.747795,5.944597 C21.7449728,5.97964177 21.7449728,5.97964177 21.732234,6.13938806 C21.7152454,6.35346318 21.7060417,6.47008812 21.6911749,6.66014978 C21.6486989,7.20317306 21.6062235,7.75863425 21.5665853,8.29441376 C21.5533956,8.47316522 21.5533956,8.47316522 21.5402902,8.65283261 C21.515416,8.99492671 21.4931374,9.31044391 21.4737613,9.59583345 Z M17.3468715,12.2252037 L17.3699939,12.5599091 C17.38248,12.7039689 17.4507063,12.9446004 17.612097,13.1829052 C17.8809255,13.5798493 18.3219672,13.8171739 19.0159558,13.8171739 C20.2613138,13.8171739 20.6806447,12.8609853 20.7502865,10.9813289 C20.767005,10.5372513 20.8203408,9.70966553 20.900567,8.60631733 C20.9137034,8.42622279 20.9137034,8.42622279 20.9269213,8.24708992 C20.9666326,7.71032244 21.0091746,7.15399061 21.051716,6.61013052 C21.0666052,6.419783 21.075822,6.30299234 21.0928404,6.08854152 C21.1056067,5.92845021 21.1056067,5.92845021 21.1106358,5.87353507 C21.1124503,5.86082355 21.1158053,5.83106392 21.1193625,5.78624408 C21.1588091,5.28922348 21.100197,4.70409778 20.8680817,4.15545817 C20.7067515,3.7741299 20.4716958,3.44540319 20.1517525,3.18100443 C18.935677,2.17604896 16.9189383,2.73755615 16.7701868,4.18749946 C16.8036537,4.52997383 16.8341591,4.87887706 16.8617193,5.22774179 C16.8798431,5.45715749 16.8953761,5.67021991 16.9083228,5.86151754 C16.916107,5.97653458 16.9213097,6.05892088 16.9237313,6.10009942 L17.3442208,12.1868344 C17.3458117,12.1991336 17.3467072,12.2116546 17.3468663,12.2243574 C17.3468681,12.2246394 17.3468698,12.2249215 17.3468715,12.2252037 Z M4.33017618,15.9909852 C4.29883544,16.0012105 4.26537209,16.0067388 4.23061754,16.0067388 C4.16573992,16.0065907 4.16573992,16.0065907 4.10091158,16.005873 C3.61307671,15.9994406 3.09341702,15.9583047 2.57178944,15.8937813 C2.37260325,15.8691427 2.18686713,15.8427357 2.01939547,15.8162917 C1.91825875,15.800322 1.84516409,15.7877902 1.80495956,15.7804233 C1.6307391,15.7484998 1.51538459,15.5813872 1.54730804,15.4071667 C1.5792315,15.2329462 1.74634416,15.1175917 1.92056462,15.1495152 C1.95576267,15.1559647 2.02369607,15.1676117 2.11943581,15.1827291 C2.28009157,15.2080969 2.45877706,15.2335015 2.65052958,15.2572206 C3.10452539,15.3133782 3.55614755,15.3509904 3.98095333,15.3619969 C3.8681267,15.1713282 3.75931585,15.0007539 3.65508148,14.8521241 C3.08891854,14.0455825 2.84705568,13.4100917 2.79566861,13.0278173 C2.77207143,12.8522751 2.89524718,12.6908408 3.07078934,12.6672436 C3.24633149,12.6436465 3.40776582,12.7668222 3.431363,12.9423644 C3.43930313,13.0014319 3.47240805,13.1339257 3.54725692,13.3305898 C3.67741573,13.67258 3.88268529,14.0599713 4.18014373,14.4837233 C4.38432066,14.7748631 4.59911327,15.1341234 4.8241007,15.5535054 C4.89501732,15.6856433 4.96656357,15.8230958 5.03869182,15.965519 C5.36230802,16.604526 5.59557003,17.1207523 5.95371117,17.9500827 C6.49103862,19.1930062 7.53091357,20.3807 8.54511013,20.325556 C9.05930591,20.2976113 9.26080545,20.1913678 9.29524466,20.0822789 C9.30736316,20.0438926 9.30012193,19.9862621 9.27517625,19.9241657 C9.26503744,19.8989275 9.25598818,19.8820251 9.25395762,19.8788633 C9.15824559,19.7298294 9.20147145,19.5314237 9.35050529,19.4357117 C9.49953912,19.3399997 9.69794484,19.3832255 9.79365687,19.5322594 C9.8161062,19.5672153 9.84377678,19.6188992 9.8703578,19.6850664 C9.94567079,19.8725403 9.97083906,20.072846 9.90690016,20.2753776 C9.77570221,20.6909576 9.33148346,20.9251781 8.57992543,20.9660226 C7.1955243,21.0412954 6.00194146,19.6780441 5.3649102,18.2044898 C5.01169574,17.3865679 4.78243557,16.879198 4.46647603,16.2553097 C4.42074148,16.1650031 4.37530257,16.0768627 4.33017618,15.9909852 Z M12.3193172,16.7460469 C12.3155492,16.7323504 12.3116951,16.7180175 12.3077574,16.703062 C12.3058044,16.6965452 12.3090913,16.7088764 12.3193172,16.7460469 Z"></path>
                </g>
            </g>
            <g id="slices"></g>
        </g>
    </g>
</svg>