<?xml version="1.0" encoding="UTF-8"?>
<svg width="50px" height="50px" viewBox="0 0 50 50" version="1.1" xmlns="http://www.w3.org/2000/svg" xmlns:xlink="http://www.w3.org/1999/xlink">
    <!-- Generator: Sketch 49.1 (51147) - http://www.bohemiancoding.com/sketch -->
    <title>o</title>
    <desc>Created with Sketch.</desc>
    <defs></defs>
    <g id="Finger" stroke="none" stroke-width="1" fill="none" fill-rule="evenodd">
        <g id="Finger-Alphabet" transform="translate(-750.000000, 0.000000)">
            <g id="letters" transform="translate(11.000000, 0.000000)" fill="#1D1D1B" fill-rule="nonzero">
                <g id="o" transform="translate(752.000000, 0.000000)">
                    <path d="M18.8692452,26.0559585 C18.87755,26.0284291 18.8898635,26.0016047 18.906357,25.9762972 C19.0546841,25.748706 19.1313712,24.9110394 19.0042654,24.0173734 C18.8326587,22.810826 18.345232,21.6093383 17.5125182,20.568232 C17.4058149,20.4348254 17.4274622,20.2401778 17.5608688,20.1334745 C17.6942754,20.0267712 17.8889229,20.0484184 17.9956262,20.181825 C19.3610378,21.8889406 19.8949239,24.2753687 19.6673311,25.6210847 C19.7465035,25.731933 19.7452392,25.8861739 19.6548314,25.99665 C19.5597271,26.1128649 18.1842002,28.2553163 17.5571585,29.075226 C16.4389466,30.5373821 15.3013682,31.5739973 14.0546228,32.1032822 C13.7593299,32.2286382 13.6448585,34.9937758 13.9220003,36.1428654 C14.5495087,38.7447358 16.4891767,43.4867308 19.2935234,49.5609564 C19.3651292,49.7160549 19.297445,49.899835 19.1423466,49.9714408 C18.9872481,50.0430466 18.803468,49.9753624 18.7318622,49.820264 C15.9096127,43.7072608 13.9611305,38.9437171 13.3206133,36.2879079 C12.9694595,34.8319487 13.0933498,31.8392909 13.8128811,31.5338398 C14.9418553,31.0545527 16.0067321,30.0841868 17.0657595,28.6994193 C17.5155483,28.1112827 18.3973738,26.7664981 18.8692452,26.0559585 Z M9.82723364,18.4266502 C9.09405476,18.7983771 8.323431,18.7643392 7.6022749,18.4848781 C7.39773359,18.4056146 7.24449321,18.324996 7.15408363,18.2670763 C7.01023992,18.1749247 6.96833515,17.9836128 7.06048669,17.8397691 C7.15263824,17.6959254 7.34395019,17.6540206 7.48779389,17.7461721 C7.54554732,17.7831711 7.66293985,17.8449304 7.82580827,17.9080449 C8.42562485,18.1404848 9.05140715,18.1581149 9.63212236,17.8294945 C9.65283827,17.8177716 9.67346951,17.8056118 9.6940152,17.79301 C9.74075603,17.6960133 9.80667453,17.5546771 9.88643734,17.3760101 C10.0600658,16.9870862 10.2337685,16.565575 10.3957591,16.1271322 C10.6199103,15.5204461 10.8031027,14.9308213 10.9309772,14.3782507 C11.0953991,13.6677513 11.1600778,13.0520992 11.1147999,12.5588408 C10.7902467,13.053361 10.3878731,13.4936797 9.90071411,13.8663964 C9.76503854,13.9701994 9.57090282,13.9443616 9.46709984,13.808686 C9.36329686,13.6730104 9.3891347,13.4788747 9.52481027,13.3750717 C10.0204508,12.995866 10.4167133,12.5374783 10.724286,12.0158387 C10.7989066,11.8892831 10.8674895,11.7605409 10.9302993,11.6301092 C10.9371445,11.6110881 10.9458432,11.5927323 10.956291,11.5753363 C11.1538257,11.1528629 11.2916059,10.7135147 11.3785309,10.2740129 C11.4196522,10.0660994 11.4461322,9.87351285 11.4608891,9.70157084 C11.4695408,9.60076456 11.4724041,9.53099881 11.4724662,9.49758136 C11.4728007,9.31754721 11.6262188,9.1758382 11.8057136,9.18976801 C11.8217289,9.19101089 11.8547332,9.1930519 11.9024089,9.19514842 C12.2846999,9.21195948 12.7209428,9.19663499 13.1281035,9.12549255 C13.3718914,9.08289594 13.5860505,9.02246456 13.7616847,8.94382174 C13.8898031,8.88645067 14.0128915,8.82229456 14.1375061,8.74927431 C14.2893853,8.6602779 14.7792179,8.33493046 14.7029926,8.38387869 C14.9314654,8.23716434 15.0894885,8.16457902 15.2701457,8.15130932 C15.4123527,8.14080418 15.5791457,8.17581024 15.8531976,8.25757473 C15.9621978,8.29009537 16.463624,8.45015457 16.6001568,8.4916602 C17.0965811,8.64257185 17.4977388,8.73736313 17.8807493,8.78155135 C18.8057248,8.88556489 19.816877,8.70263079 20.1366915,8.48661227 C20.5613855,8.19962306 20.8942568,7.90802309 21.0937607,7.59300117 C21.3270437,7.22464113 21.3249833,6.90357953 21.018621,6.56330461 C20.9489949,6.55338074 20.8603176,6.54081297 20.7566303,6.52622871 C20.4784574,6.48710194 20.1950589,6.4479769 19.9233319,6.41147514 C19.8506112,6.40172348 19.8506112,6.40172348 19.7776567,6.39201407 C19.1006342,6.30209332 18.6252697,6.24693413 18.5091689,6.24693413 C18.304967,6.24693413 18.2451462,6.22445873 17.2652077,5.82476394 C17.2050135,5.8002432 17.2050135,5.8002432 17.1448664,5.77591428 C16.6194124,5.56385718 16.2941913,5.45637821 16.131904,5.44872396 C15.5976614,5.42352651 11.4703706,5.63041242 11.1146417,5.70070017 C11.0888848,5.70576278 11.0888848,5.70576278 11.063383,5.71070618 C10.5051505,5.81873872 10.2651221,5.91495076 9.86050716,6.27453197 C9.8547261,6.27967346 8.93877206,7.67933076 7.9525332,9.20221839 C7.50945046,9.88643821 7.05273886,10.5932249 6.59668049,11.3000163 C6.43705769,11.5473969 6.33829743,11.7005387 6.15603954,11.983253 C6.01939279,12.1952801 6.01939279,12.1952801 5.98906477,12.2423666 C5.89656174,12.3859845 5.70514789,12.4274213 5.56152997,12.3349183 C5.41791204,12.2424153 5.37647523,12.0510014 5.46897826,11.9073835 C5.49935992,11.8602137 5.49935992,11.8602137 5.6360708,11.6480872 C5.81839915,11.3652635 5.91719148,11.212072 6.0768688,10.9646069 C6.5330965,10.2575531 6.98998373,9.55049458 7.41735121,8.89054198 C8.82818461,6.71202161 9.37188502,5.88120018 9.4494741,5.81219501 C9.95235639,5.36528361 10.2884395,5.23056939 10.9458428,5.10334472 C10.9705721,5.09855086 10.9705721,5.09855086 10.9947261,5.09380321 C11.4051807,5.01270231 15.5806027,4.80340377 16.1610492,4.83078042 C16.4228054,4.8431261 16.7747306,4.9594302 17.3763841,5.2022391 C17.4377919,5.22707803 17.4377919,5.22707803 17.4988459,5.2519491 C18.2506949,5.55861134 18.4361891,5.62830365 18.5091689,5.62830365 C18.6545079,5.62830365 19.0621886,5.67426201 19.6905054,5.75652866 C19.4533961,5.4845165 19.2146532,5.21521071 18.984081,4.96112016 C18.9317973,4.9035036 18.8803433,4.84712718 18.8297927,4.79208446 C18.2267164,4.13541675 17.7624097,3.68611699 17.6344572,3.632429 C16.9442845,3.34291097 11.0619273,2.35567009 10.4571003,2.53537836 C9.949429,2.68621941 5.27912271,10.4505801 4.51467356,12.0592152 C3.99741159,13.1476356 3.5631198,15.1949369 3.17218179,17.7599724 C2.92294133,19.3946834 2.81447687,20.0002281 1.93271516,24.7982133 C1.86499404,25.1667084 1.80613801,25.4880798 1.75019063,25.795107 C1.36309244,27.9194183 1.09294029,29.4852757 0.873492425,30.918247 C0.430884758,33.8094331 0.594762964,35.7715378 1.13016271,37.5089787 C1.43728561,38.5059075 2.62240908,41.5358007 3.12529979,42.5471473 C3.26329964,42.946406 3.39174137,43.37996 3.51996889,43.8690214 C3.66532341,44.4234053 4.07129262,46.1831773 4.12203341,46.3852038 C4.14782813,46.4879066 4.17259472,46.5833598 4.19675094,46.6729656 C4.30466903,47.0729947 4.5493132,48.065454 4.91157327,49.5677734 C4.95161842,49.7338435 4.84945494,49.900933 4.68338476,49.9409782 C4.51731458,49.9810233 4.35022509,49.8788598 4.31017995,49.7127897 C3.94948367,48.2169555 3.70532484,47.226465 3.59945893,46.834043 C3.57431362,46.7407682 3.54866181,46.6419032 3.52203768,46.5358982 C3.46902423,46.3248229 3.06403707,44.5693079 2.92156497,44.0259175 C2.79705888,43.5510498 2.67295538,43.1321394 2.55631466,42.7865631 C2.0530476,41.780389 0.855637096,38.7190827 0.538958418,37.6911356 C-0.0233437649,35.8663929 -0.19507681,33.8102426 0.261988558,30.8246164 C0.482506965,29.3846547 0.753525218,27.8137771 1.14158212,25.6842045 C1.19759089,25.3768405 1.25650092,25.0551743 1.32427416,24.6863955 C2.20435189,19.8975735 2.31279527,19.2921465 2.56061618,17.6667459 C2.96206366,15.0327554 3.40184237,12.9595882 3.95592806,11.7936834 C4.85409874,9.90365733 9.50400962,2.17320387 10.2809038,1.94237041 C11.051901,1.71328906 17.0641211,2.72232494 17.8737877,3.06196907 C18.1273495,3.1683618 18.5871135,3.61326577 19.2854276,4.37363438 C19.336828,4.42960238 19.3891108,4.48688688 19.4422064,4.54539821 C19.7256427,4.8577449 20.0205864,5.19201786 20.3098938,5.52624086 C20.4347687,5.67050283 20.5387775,5.79177471 20.6154848,5.88182266 C20.6914197,5.89239042 20.7673006,5.9030095 20.8427964,5.91362845 C21.010418,5.93720548 21.1390907,5.95555085 21.2119978,5.96605289 C21.2773002,5.97545949 21.337884,6.00549996 21.3848996,6.0517862 C21.9763162,6.6340279 22.01438,7.29556645 21.616399,7.92398888 C21.3596046,8.32947399 20.9731896,8.66797904 20.4830105,8.9992201 C20.0282988,9.30635486 18.8720138,9.51554588 17.823567,9.39766887 C17.5317919,9.36401932 17.2429354,9.30768225 16.9274419,9.22675221 L15.8295526,13.3906211 C15.8368483,13.4347472 15.8466934,13.4930942 15.8590108,13.5643136 C15.8919434,13.7547317 15.9305697,13.9670702 15.9745697,14.1958045 C16.1002051,14.848922 16.2435486,15.5018439 16.4018335,16.1099069 C16.7632283,17.4982311 17.1599437,18.4537428 17.4879549,18.6653914 C17.6314972,18.7580118 17.6727776,18.9494594 17.5801572,19.0930017 C17.4875369,19.236544 17.2960892,19.2778243 17.1525469,19.185204 C16.6340617,18.8506525 16.210418,17.8302825 15.8031543,16.2657491 C15.6411358,15.6433433 15.4950445,14.9779055 15.3670768,14.3126634 C15.3223156,14.0799719 15.2829999,13.8638435 15.2494298,13.6697401 C15.2292214,13.5528938 15.2153736,13.469061 15.2081915,13.4237165 L15.2146052,13.2964655 L16.3325785,9.05642561 C16.134318,8.99450048 15.7626789,8.87614542 15.6763309,8.85038314 C15.4775961,8.79108981 15.3549908,8.76535777 15.3155923,8.76826819 C15.2676589,8.77178903 15.1838889,8.81026738 15.037262,8.90442417 C15.1270608,8.84675967 14.6198529,9.18364782 14.4502649,9.28302106 C14.3070434,9.36694432 14.1641655,9.44141516 14.0145065,9.50843203 C13.7873387,9.61014981 13.52528,9.68409747 13.2345825,9.73489052 C12.8460399,9.80277985 12.4438175,9.82519088 12.0726155,9.81913126 C12.0565674,9.97999356 12.0289336,10.1739588 11.9854056,10.3940411 C11.8957266,10.8474674 11.757109,11.3010268 11.5607861,11.7409929 C11.8312832,12.4323154 11.7980706,13.3752412 11.5336796,14.5177265 C11.3993588,15.0981526 11.2086385,15.7120071 10.9760494,16.341531 C10.8090274,16.7935917 10.6302165,17.2274986 10.4513313,17.6281974 C10.3886645,17.7685698 10.3339714,17.88728 10.2895653,17.9813222 C10.550365,18.4122638 10.6607496,18.9639604 10.6526388,19.6069541 C10.6462697,20.1118644 10.5672308,20.6468417 10.4396879,21.1818961 C10.3932974,21.3765087 10.3435761,21.5576196 10.2937403,21.7207895 C10.2855775,21.7475155 10.2778785,21.7722654 10.2707061,21.7949503 C11.3887782,23.84179 11.2147957,27.551421 10.212778,29.6408738 C10.1389096,29.7949075 9.95415844,29.8598944 9.80012474,29.786026 C9.64609104,29.7121576 9.58110421,29.5274065 9.65497259,29.3733728 C10.595211,27.412745 10.746416,23.806283 9.66777146,21.9860036 C9.62095349,21.9069954 9.61166505,21.8112682 9.64242028,21.724733 C9.65372624,21.6929217 9.67468403,21.6298174 9.70209014,21.5400858 C9.74831416,21.3887416 9.7946528,21.219952 9.83791813,21.0384499 C9.95568939,20.5443886 10.0283367,20.052673 10.0340575,19.5991512 C10.0399879,19.1290137 9.97279,18.7319622 9.82723364,18.4266502 Z M19.9215305,18.0443581 C19.9721576,18.2075139 19.8809351,18.3808192 19.7177794,18.4314463 C19.5546236,18.4820735 19.3813183,18.390851 19.3306911,18.2276952 C19.2116257,17.8439839 18.9603377,17.5336075 18.5588662,17.1961372 C18.4280984,17.0862159 18.4111989,16.8910988 18.5211202,16.760331 C18.6310414,16.6295631 18.8261585,16.6126636 18.9569264,16.7225849 C19.4409588,17.1294545 19.7598597,17.5233425 19.9215305,18.0443581 Z M21.058094,9.85534724 C21.1520908,9.71270252 21.3439267,9.6732656 21.4865714,9.76726242 C21.6292162,9.86125924 21.6686531,10.0530951 21.5746562,10.1957398 C20.9737742,11.1076074 20.5907726,12.3556854 20.4923711,13.6443609 C20.4531095,14.1584773 20.7366708,14.6391675 21.260914,15.0844634 C21.5323029,15.3149831 22.1771099,15.7223284 22.1343019,15.6863543 C22.2650841,15.7962585 22.2820091,15.9913733 22.172105,16.1221556 C22.0622008,16.2529378 21.8670859,16.2698628 21.7363037,16.1599586 C21.8223669,16.2322827 21.1757101,15.8237688 20.8604213,15.5559602 C20.2003814,14.9953176 19.8182413,14.3475176 19.8755365,13.5972576 C19.9814898,12.2096832 20.3953234,10.8611337 21.058094,9.85534724 Z M23.5027077,7.55416247 C23.9186042,7.45144363 24.2923107,7.49713047 24.6195089,7.68732114 C25.0763627,7.95287673 25.3811101,8.46219023 25.578221,9.13822911 C25.6739097,9.4664162 25.7380111,9.81473045 25.7770854,10.1625406 C25.8005344,10.3712666 25.810541,10.5349421 25.8127468,10.6319811 L25.8078684,10.694172 C25.7989366,10.7434536 25.7820934,10.8355829 25.7583015,10.9644446 C25.7186754,11.1790673 25.6740283,11.4181822 25.6253221,11.6756773 C25.4861407,12.4114892 25.3422906,13.1473514 25.2014387,13.8344931 C25.15104,14.0803617 25.1018238,14.3160112 25.0539974,14.5401156 C24.8122401,15.6729369 24.617608,16.4603698 24.4779537,16.8242097 C24.3046794,17.275501 23.4721905,18.8907301 22.1645858,21.3457035 C22.1274127,21.4154845 22.1274127,21.4154845 22.0902298,21.4852452 C21.5645294,22.4714029 21.0013399,23.5195145 20.4381586,24.5620296 C20.2410514,24.9268984 20.0580209,25.2650119 19.8937569,25.5679212 C19.7951827,25.749696 19.7247572,25.879364 19.6871708,25.9484753 C19.6055537,26.0985472 19.4177327,26.1540407 19.2676608,26.0724236 C19.117589,25.9908065 19.0620954,25.8029855 19.1437125,25.6529136 C19.1811834,25.5840147 19.2514904,25.4545649 19.3499416,25.2730169 C19.5140534,24.9703882 19.6969273,24.6325639 19.893871,24.2679979 C20.4565495,23.2264134 21.0192198,22.1792683 21.5443219,21.1942329 C21.5814551,21.1245654 21.5814551,21.1245654 21.6185771,21.0548802 C22.9024988,18.6443707 23.7413375,17.0168214 23.9004181,16.6024976 C24.0238291,16.2809762 24.2148179,15.508283 24.4489909,14.4110001 C24.4964547,14.188595 24.5453327,13.954565 24.5954092,13.7102678 C24.7355572,13.0265603 24.8788292,12.2936552 25.0174703,11.5607 C25.0660021,11.3041266 25.1104848,11.0658922 25.149953,10.8521245 C25.169171,10.7480359 25.1838104,10.668155 25.1933544,10.6157618 C25.1902385,10.5320255 25.1811011,10.3987614 25.1623222,10.2316053 C25.1269232,9.91650906 25.0690278,9.60191691 24.98432,9.31139137 C24.8274164,8.7732534 24.5984856,8.39064952 24.3086225,8.22216065 C23.9721166,8.02655975 23.5065764,8.09673615 22.8576774,8.54051797 C22.8566121,8.54569831 22.8555285,8.55089547 22.8544266,8.55610909 C22.8558862,8.56331373 22.8553512,8.57683129 22.8542558,8.5985676 C22.8437451,8.80730043 22.8172355,8.93461643 22.7082321,9.04173496 C22.6792518,9.11527427 22.6466042,9.18974795 22.6099557,9.26443917 C21.9304714,10.6492575 20.4445284,10.8864749 18.1110644,9.36205563 C17.9680481,9.26862511 17.9278509,9.0769471 18.0212815,8.93393082 C18.114712,8.79091455 18.30639,8.75071735 18.4494063,8.84414788 C20.4951686,10.1806157 21.554293,10.011536 22.0545779,8.99193378 C22.0879152,8.92399101 22.1176555,8.85384861 22.1439795,8.78229421 C22.1486736,8.76375648 22.1550804,8.74563631 22.1631473,8.72819275 C22.1993068,8.62213906 22.2281956,8.51346607 22.2503859,8.40466871 C22.2593392,8.36077134 22.2665054,8.3207441 22.2721322,8.28535269 L22.0781549,8.10476072 C22.0443482,8.0836064 22.0156611,8.05651542 21.9929508,8.02543607 L21.3513501,7.42810893 C21.2263182,7.31170477 21.219324,7.11598213 21.3357281,6.99095017 C21.4521323,6.86591821 21.6478549,6.858924 21.7728869,6.97532816 L22.4141895,7.57237782 C22.74255,7.6437456 23.0434561,7.26141817 22.9819761,7.13963112 C22.7323959,6.64523219 19.4866981,2.73496898 18.7801577,2.29610632 C18.2463958,1.96449897 13.1592363,0.618630472 12.565499,0.618630472 C12.5293554,0.618630472 12.4041883,0.705674423 12.2473462,0.881116178 C12.1205415,1.02295838 11.9828667,1.20856506 11.8398095,1.42660815 C11.7084662,1.62679729 11.5801562,1.84248948 11.460573,2.05831983 C11.38888,2.1877152 11.3363527,2.28778457 11.3083034,2.34354363 C11.2315345,2.49615242 11.045587,2.55763275 10.8929782,2.48086379 C10.7403694,2.40409482 10.6788891,2.21814741 10.7556581,2.06553861 C10.7871952,2.00284605 10.8434764,1.89562509 10.9194498,1.75850431 C11.045977,1.5301411 11.1819069,1.30163973 11.3225683,1.0872482 C11.4811154,0.845595867 11.636123,0.636621866 11.7861447,0.468809372 C12.0525688,0.17079057 12.2981616,0 12.565499,0 C13.2707752,0 18.4711123,1.37581099 19.1065955,1.77061412 C19.9197299,2.27568692 23.237151,6.27235901 23.5342282,6.86084573 C23.6397921,7.06995963 23.6157481,7.3237702 23.5027077,7.55416247 Z M19.285726,15.2938056 C19.3220949,15.2004718 19.3589728,15.1034483 19.4046831,14.9813618 C19.4223697,14.934123 19.5004595,14.7245521 19.5214907,14.6684364 C19.6776545,14.2517593 19.7831998,13.9930014 19.9065322,13.7408583 C19.9815931,13.5874022 20.1668428,13.5238504 20.3202989,13.5989113 C20.473755,13.6739722 20.5373068,13.8592219 20.4622459,14.012678 C20.349917,14.2423254 20.2504198,14.4862553 20.1007737,14.8855421 C20.0800067,14.9409528 20.0019644,15.1503963 19.9840373,15.1982773 C19.9374449,15.3227198 19.8996581,15.4221346 19.8621412,15.5184145 C19.5886271,16.2203354 19.3397294,16.7125926 19.0024621,17.1486214 L18.9552671,17.1974519 C18.9226173,17.2245328 18.8657747,17.2694512 18.7892292,17.3263528 C18.6626137,17.4204749 18.5255772,17.5145358 18.3822936,17.6027434 C18.1814333,17.7263962 17.9842729,17.8286569 17.7943015,17.9023749 C17.3629352,18.0697657 16.9853146,18.0868188 16.6911114,17.8710857 C16.5379055,17.7587305 16.3971774,17.5910114 16.2610662,17.3800325 C16.1841601,17.2608243 16.1133938,17.1346473 16.0497975,17.0086283 C16.0115166,16.9327729 15.9837054,16.8729015 15.9679227,16.8365704 C15.8998569,16.6798861 15.9716965,16.4976902 16.1283808,16.4296244 C16.2850651,16.3615587 16.467261,16.4333983 16.5353268,16.5900826 C16.5833949,16.7007332 16.6709535,16.8742349 16.7809041,17.0446637 C16.8796732,17.1977606 16.9766397,17.3133248 17.0569426,17.3722158 C17.1390126,17.432396 17.3160016,17.4244033 17.5705026,17.3256448 C17.721609,17.2670082 17.8866943,17.1813838 18.0579828,17.075936 C18.1847302,16.9979083 18.3071794,16.91386 18.420161,16.8298729 C18.468732,16.7937667 18.5074471,16.7638042 18.5344749,16.7422571 C18.8177072,16.3687442 19.0380648,15.92938 19.285726,15.2938056 Z M11.9074311,5.01369735 C12.0684425,5.01458097 12.2035951,5.14001578 12.2140939,5.30315391 C12.2250651,5.47363133 12.0957597,5.62072447 11.9252823,5.63169562 C11.6330188,5.65050437 11.4907673,5.45480898 11.2633949,4.98873183 C11.2195334,4.89882261 11.1742709,4.80013376 11.1207595,4.67902583 C11.1206601,4.67880095 10.9566094,4.30219285 10.91661,4.21506688 C10.8453347,4.05981628 10.9134101,3.87618075 11.0686607,3.80490544 C11.2239114,3.73363014 11.4075469,3.80170557 11.4788222,3.95695617 C11.5217998,4.0505692 11.6888041,4.43395781 11.6866149,4.4290033 C11.7372406,4.54358026 11.7794907,4.63570085 11.8193922,4.71749261 C11.8836877,4.84928812 11.9388737,4.9473636 11.9834716,5.00871697 C11.9893899,5.01685873 11.9819268,5.01157612 11.9295598,5.01247718 L11.9074311,5.01369735 Z"></path>
                </g>
            </g>
            <g id="slices"></g>
        </g>
    </g>
</svg>