<?xml version="1.0" encoding="UTF-8"?>
<svg width="50px" height="50px" viewBox="0 0 50 50" version="1.1" xmlns="http://www.w3.org/2000/svg" xmlns:xlink="http://www.w3.org/1999/xlink">
    <!-- Generator: Sketch 49.1 (51147) - http://www.bohemiancoding.com/sketch -->
    <title>p</title>
    <desc>Created with Sketch.</desc>
    <defs></defs>
    <g id="Finger" stroke="none" stroke-width="1" fill="none" fill-rule="evenodd">
        <g id="Finger-Alphabet" transform="translate(-850.000000, 0.000000)">
            <g id="letters" transform="translate(11.000000, 0.000000)" fill="#1D1D1B" fill-rule="nonzero">
                <g id="p" transform="translate(843.000000, 0.000000)">
                    <path d="M19.1910231,33.5783212 C18.4163564,34.120089 17.5424824,34.6593274 16.720571,35.110018 C17.2707015,35.9964185 17.5656436,37.8386723 17.4772365,39.0400649 C18.2004206,39.0034791 19.0069733,39.1166682 19.7836297,39.4809765 C20.0447279,39.6034506 20.2925178,39.7516135 20.5247399,39.9270693 C20.5630166,39.9220684 20.6064903,39.9168536 20.6547099,39.9116725 C21.1350635,39.8600586 21.6454683,39.8587206 22.1309664,39.9420471 C22.1749847,39.949602 22.2184645,39.9578227 22.2613875,39.9667254 C22.1764778,39.7576966 22.1066484,39.5621283 22.0551049,39.3893633 C21.9531964,39.0477832 21.8726672,38.5981575 21.7998692,37.9479402 C21.6395123,37.8117104 21.4616359,37.6916777 21.2688462,37.5870213 C20.9420397,37.4096134 20.5891569,37.2844889 20.2359489,37.2035828 C20.0251504,37.1552971 19.8637321,37.1327943 19.7775753,37.1265768 L19.4739096,37.1046628 L19.490714,36.8006716 C19.5067771,36.5100915 19.5378737,36.2669553 19.5924907,35.9495241 C19.5961678,35.928153 19.6343941,35.7107533 19.6443374,35.651083 C19.6616304,35.5473066 19.6734533,35.4648438 19.6817246,35.38692 C19.7359318,34.8762319 19.6268573,34.402903 19.1910231,33.5783212 Z M19.6976956,33.2128049 C20.2217252,34.1888018 20.367701,34.790947 20.2975032,35.4522822 C20.2877575,35.5440959 20.2742962,35.6379861 20.2551528,35.7528673 C20.2446663,35.8157979 20.2060231,36.0355684 20.2027611,36.0545268 C20.1709293,36.2395313 20.1479459,36.395285 20.1316322,36.5503742 C20.2050009,36.5634601 20.2862459,36.5798283 20.3742112,36.5999777 C20.7788318,36.6926605 21.1837776,36.8362453 21.5642778,37.042801 C21.6173816,37.0716286 21.6696289,37.1015017 21.7209794,37.1324389 C21.6643244,36.4645405 21.6094555,35.637831 21.5487946,34.6009256 C21.5063764,33.875852 21.3072201,32.9662905 21.0316736,32.0685097 C20.703773,32.4165086 20.2380199,32.809943 19.6976956,33.2128049 Z M27.0025138,36.2075456 C28.2822473,36.9015273 29.3638623,38.5531393 28.8916799,39.632041 C28.7411915,39.9758957 28.5072289,40.1794702 28.2259308,40.2401917 C28.3832791,40.5524191 28.4305181,40.8641735 28.3699762,41.16662 C28.2844571,41.5938439 27.9719532,41.9540443 27.6221553,42.1066766 C27.57695,42.2994713 27.5032282,42.4539564 27.3969933,42.5712672 C27.0270474,42.9798344 26.6515378,43.2485462 26.2763936,43.3896489 C26.036693,44.345611 25.4501324,44.4718207 23.8880452,44.3378016 C23.8275985,44.33263 23.8275985,44.33263 23.7668078,44.3275469 C23.6236009,44.315684 23.4504428,44.3052348 23.2050767,44.2930936 C23.0754538,44.2866795 22.5656191,44.2631608 22.4885139,44.2594926 C22.1654417,44.2441228 21.8903237,44.2296829 21.6053899,44.2125883 C20.8542913,44.1675262 20.1239372,44.1086632 19.3517754,44.0265272 C18.9714139,43.9860499 18.5639166,43.935717 18.1307747,43.8763129 C17.6691414,43.8130013 17.1845511,43.7402617 16.6738184,43.6584735 C15.8677604,43.5293923 13.9819876,43.1994904 14.028935,43.207145 C12.845477,43.0141694 12.5524353,42.3650006 12.3842043,40.5091369 C12.3629878,40.2750849 12.3464154,40.0938676 12.3322474,39.9454781 C12.320545,39.9618031 12.309242,39.9777045 12.298364,39.9931537 C12.159791,40.189891 12.0137449,40.3910902 11.8611075,40.5959542 C11.4529531,41.1437634 11.016177,41.6936448 10.5794437,42.2192461 C10.4266008,42.4031899 10.2846271,42.5710239 10.1571222,42.7194219 C10.080376,42.8087438 10.0253267,42.8719411 10.0074081,42.8914255 C9.95678236,42.9562818 9.8680658,43.0695965 9.75358652,43.2152369 C9.5627797,43.4579812 9.37089936,43.7007428 9.19023367,43.9274377 C8.79463818,44.4233902 8.52608637,44.7515518 8.39202636,44.8995287 C8.25276762,45.0532564 8.0495255,45.2566768 7.79555629,45.4994001 C7.52604643,45.7552695 7.32609043,45.9405556 7.12617595,46.1229193 C7.04679975,46.1953269 6.97904781,46.2567093 6.92674381,46.3038559 C6.86014458,46.5149506 6.71724811,46.8184978 6.46643989,47.1889037 C5.99060964,47.8916332 5.26649516,48.6053927 4.24547244,49.2898923 C3.00707738,50.1201282 1.85641854,50.192789 0.967595788,49.661788 C0.241799469,49.2281822 -0.214539945,48.3902096 0.102117292,47.939337 C0.290929791,47.6705332 0.55508925,47.4058781 0.876023629,47.1461193 C1.09878341,46.9658214 1.33613423,46.7981944 1.57339734,46.6469436 C1.68281524,46.5771917 1.77416374,46.5221904 1.8406942,46.483852 C1.86739193,46.4508685 1.90311437,46.4064212 1.94698656,46.3513533 C2.06134536,46.2078114 2.18888769,46.044845 2.32630097,45.8656503 C2.71891885,45.3536543 3.11150996,44.8148341 3.47746167,44.2750209 C3.71484254,43.9248617 3.93318887,43.5855419 4.12842427,43.2611178 C4.61525709,42.452144 4.93987404,41.7665016 5.06177601,41.2556619 C5.14617408,40.9023582 5.36567355,40.4967211 5.68489514,40.0462478 C5.8950386,39.7497015 6.10447206,39.4918404 6.34328142,39.2172789 C7.90184489,37.426321 10.1452346,32.2971804 10.365682,30.0074994 C10.7077807,26.4542844 16.6495721,12.2227179 19.5656281,9.73938498 C20.3810847,9.0449283 23.7520237,7.38528656 29.0197695,5.00490278 C29.3263161,4.86638081 29.6380453,4.72600152 29.9546821,4.58387519 C32.2497403,3.55370996 34.7084411,2.47355327 37.1671018,1.40905488 C38.0276023,1.03649376 38.8266489,0.692494684 39.5437688,0.385269993 C39.7947863,0.277730413 40.0176423,0.182465133 40.2097774,0.100500826 C40.4045289,0.0174856065 40.4045289,0.0174856065 40.4456707,0 L40.6878831,0.569902337 C40.6471085,0.587231776 40.6471085,0.587231776 40.4527568,0.670076561 C40.2609086,0.751918455 40.0383439,0.847059201 39.7876232,0.954471666 C39.0712052,1.26139568 38.272881,1.60508372 37.4131361,1.9773177 C34.9568099,3.04080531 32.5005237,4.11990124 30.2082608,5.14881174 C29.8920894,5.29072918 29.5808318,5.43089609 29.2747643,5.5692016 C24.1048524,7.90537631 20.713865,9.57488865 19.9671175,10.2108314 C17.1904352,12.5754728 11.3100886,26.6598691 10.9820696,30.0668444 C10.7491232,32.4863466 8.45280928,37.7364897 6.81045825,39.6237286 C6.22612231,40.2955453 5.7760831,40.9306234 5.66408456,41.399467 C5.52412808,41.9859656 5.17592033,42.7214354 4.65899673,43.5804113 C4.45765586,43.9149809 4.23335136,44.26356 3.99002039,44.6224961 C3.61667994,45.1732084 3.21717232,45.7215214 2.81769146,46.2424671 C2.67787018,46.424802 2.54798043,46.5907678 2.43131043,46.7372107 C2.36104168,46.8254112 2.31059796,46.8877416 2.28327179,46.9210396 C2.13807365,47.0262876 2.0372014,47.0856375 1.90626619,47.1691062 C1.68738137,47.3086412 1.46858425,47.4631648 1.26560595,47.627452 C0.985647136,47.8540458 0.75988863,48.0802279 0.608852049,48.2952519 C0.559117574,48.3660663 0.825779203,48.8557351 1.28518224,49.1301919 C1.96033535,49.5335424 2.85420214,49.4770972 3.90064952,48.7755454 C4.85629239,48.1348769 5.52314539,47.47756 5.95368939,46.8417115 C6.20373192,46.4724364 6.31945275,46.2007383 6.35114946,46.0638906 L6.44640264,45.9029499 C6.49862909,45.8562503 6.59053853,45.7733568 6.70885125,45.6654309 C6.90603257,45.4855604 7.10317237,45.302884 7.28687496,45.1286838 C7.61178935,44.8184647 7.80607588,44.6240078 7.93310289,44.4837827 C8.05487091,44.3493738 8.31985999,44.0255658 8.67957827,43.5746057 C8.88567485,43.3160156 9.07673108,43.0742966 9.26674559,42.8325603 C9.38075912,42.6875124 9.46905411,42.5747361 9.53110523,42.4961433 C9.55915346,42.4643326 9.61247236,42.4031219 9.68744162,42.3158681 C9.81279581,42.1699732 9.95257942,42.0047283 10.1031675,41.8234981 C10.5333797,41.3057449 10.9635491,40.764181 11.3645439,40.2259812 C11.5139916,40.0253982 11.6568154,39.8286381 11.7920748,39.6366052 C12.2648955,38.9651015 13.4270571,37.5698789 13.4944922,37.4631193 C13.6233848,37.2590123 13.7763209,36.9982549 13.9911748,36.6192564 C14.085882,36.4521946 14.5041403,35.7073385 14.6176464,35.5067881 L14.7705197,35.3724609 C16.6212049,34.6202537 20.0520438,32.4534732 20.8068766,31.3860253 C20.6521554,30.9463943 20.4834585,30.5222544 20.3108399,30.1381652 C19.3647621,30.0954959 18.2382297,31.0578227 16.9735443,32.8617229 L16.4665032,32.5062446 C17.7272683,30.707936 18.885133,29.6540021 20.0160643,29.5294532 C19.8400996,29.1944652 19.6659419,28.9147428 19.5040187,28.7157574 L19.9843252,28.3249107 C20.8826685,29.4288733 22.0516412,32.5932973 22.1669755,34.5647608 C22.3250312,37.2664838 22.4451656,38.530796 22.6484969,39.2123281 C22.8695926,39.9534033 23.4857267,41.2059416 24.1464046,41.9816551 C25.0785299,43.0760798 25.9689483,43.2258162 26.9379814,42.1556189 C27.1014791,41.9750751 27.0948853,41.2584866 26.9131711,40.2210884 C26.8701324,39.9753824 26.8188501,39.7159401 26.7574448,39.4281518 C26.7053257,39.1838856 26.532088,38.4128261 26.5486135,38.4876221 C26.4755027,38.1567164 26.446183,37.9990729 26.446183,37.8937636 C26.446183,37.8188076 26.4417753,37.679724 26.4322724,37.4434401 C26.4289528,37.3609002 26.4076487,36.8527984 26.4011174,36.6899191 C26.3893004,36.3952245 26.3800849,36.1404537 26.3727849,35.8973007 C26.3538727,35.2673587 26.349688,34.7699905 26.3641902,34.4050466 C26.3664162,34.3506363 26.3664162,34.3506363 26.3688902,34.296292 C26.4000987,33.6273998 26.7266935,30.4713434 26.7357105,30.3741768 C26.7841932,29.8522965 26.8387832,28.9917831 26.8581325,28.5275076 C26.8713704,28.2110384 26.9255567,27.9795174 27.1374137,27.2117188 C27.1699893,27.0936603 27.1926076,27.0104212 27.2143781,26.9277678 C27.2804138,26.6770579 27.3257171,26.4779755 27.3558215,26.2964462 C27.8063799,23.5780546 27.9412819,21.4446121 27.6048017,19.786955 C27.3610639,18.5863213 28.403017,17.8288695 29.9814319,17.4780559 C30.5122842,17.3600555 32.6059342,16.6723013 35.7227647,15.6058386 C35.8318321,15.5685118 35.8318321,15.5685118 35.9408573,15.5311687 C37.2016315,15.0992431 38.5395957,14.6364286 39.8689253,14.1736093 C40.3342012,14.0116189 40.7651575,13.8612007 41.151071,13.7262138 C41.3825906,13.6452316 41.5476253,13.5873968 41.6354529,13.556568 L41.8405465,14.1408557 C41.7525121,14.1717571 41.587265,14.2296663 41.3555248,14.3107256 C40.9693387,14.445808 40.5381015,14.5963241 40.0725319,14.7584168 C38.7423031,15.2215492 37.4034053,15.6846866 36.14155,16.1169826 C36.0324151,16.1543633 36.0324151,16.1543633 35.9232344,16.1917288 C32.7635515,17.2728541 30.6815468,17.9567828 30.1157915,18.0825417 C28.8317738,18.3679235 28.0621721,18.9273883 28.2116621,19.6637645 C28.5675847,21.4172034 28.4290274,23.6084527 27.9667205,26.3977277 C27.9329372,26.6014406 27.8837102,26.8177657 27.8131923,27.0854925 C27.7906806,27.1709599 27.7675077,27.2562398 27.7343443,27.3764285 C27.5385831,28.0858937 27.4872012,28.3054324 27.4768312,28.5533402 C27.4570726,29.0274378 27.4018313,29.8982185 27.3522962,30.4314264 C27.3414912,30.5478612 27.0177076,33.6767517 26.9874551,34.3251524 C26.9850773,34.3773854 26.9850773,34.3773854 26.9829397,34.4296347 C26.9691478,34.776703 26.9732319,35.2621066 26.9917439,35.8787182 C26.99494,35.9851769 26.9985104,36.0939799 27.0025138,36.2075456 Z M27.0318816,36.9574444 C27.0399548,37.1519807 27.0489338,37.3669309 27.0510101,37.4185556 C27.060881,37.6639895 27.0654209,37.8072448 27.0654209,37.8937636 C27.0654209,37.9321435 27.0939609,38.0855952 27.153269,38.3540287 C27.1369533,38.2801823 27.29332,38.9760899 27.3543199,39.2583088 C27.4470845,39.3299321 27.5335733,39.4020499 27.613817,39.474546 C27.7494549,39.5630009 27.8781614,39.620306 27.9848553,39.6359508 C28.1324149,39.6575879 28.2286358,39.6025628 28.324392,39.3837669 C28.6027368,38.74777 27.9162268,37.5960817 27.0318816,36.9574444 Z M27.5588387,40.3257773 C27.6162058,40.6796297 27.6545589,40.9946336 27.6701768,41.271846 C27.7134931,41.2029069 27.7466194,41.125828 27.7627838,41.0450759 C27.8056561,40.8309008 27.7458068,40.5888814 27.5588387,40.3257773 Z M16.172381,35.4013547 C15.7905258,35.5975402 15.4287692,35.7685321 15.1041407,35.9046404 C14.9484409,36.1808216 14.6139694,36.7762964 14.5298717,36.9246432 C14.310534,37.3115511 14.1534751,37.5793378 14.018052,37.7937863 C13.953223,37.8964201 13.3757859,38.5973856 12.8755265,39.2326022 C12.9152537,39.5222511 12.9381974,39.7613719 13.0009135,40.4532332 C13.1454376,42.0475708 13.3345465,42.466501 14.1286058,42.5959811 C14.0866675,42.5891433 15.9712765,42.9188417 16.7717349,43.0470262 C17.2781347,43.1281205 17.7582107,43.2001825 18.2149137,43.2628179 C18.642173,43.3214152 19.0435499,43.3709921 19.4172893,43.4107648 C20.1794145,43.4918331 20.9004078,43.5499417 21.6424743,43.5944619 C21.924544,43.6113847 22.1972253,43.6256967 22.5179402,43.6409543 C22.5941254,43.6445788 23.104819,43.6681371 23.2356805,43.6746124 C23.4873368,43.6870649 23.6663965,43.6978703 23.8179454,43.7104242 C23.8799386,43.7156079 23.8799386,43.7156079 23.9409782,43.7208302 C24.9404211,43.8065774 25.3566186,43.7889401 25.557431,43.5069383 C24.906663,43.476574 24.2686196,43.0801728 23.6749795,42.3831696 C23.2783182,41.9174426 22.902684,41.3075566 22.6041392,40.7169082 C22.4339053,40.6435728 22.2398561,40.5890281 22.0262177,40.5523611 C21.6055455,40.4801607 21.1490555,40.4813574 20.720866,40.5273663 C20.6118082,40.5390845 20.5332388,40.5505801 20.4932548,40.5577216 L20.3538893,40.5826137 L20.2438944,40.4934875 C20.0204885,40.3124672 19.7786114,40.1626013 19.5206559,40.0416014 C18.7774221,39.6929707 17.9878338,39.6084317 17.3099364,39.6729785 C17.2426737,39.679383 17.1971976,39.6855175 17.1765251,39.68904 L16.7432924,39.7628622 L16.8196002,39.3300604 C17.000543,38.3037915 16.7068403,36.2010486 16.172381,35.4013547 Z"></path>
                </g>
            </g>
            <g id="slices"></g>
        </g>
    </g>
</svg>