<?xml version="1.0" encoding="UTF-8"?>
<svg width="50px" height="50px" viewBox="0 0 50 50" version="1.1" xmlns="http://www.w3.org/2000/svg" xmlns:xlink="http://www.w3.org/1999/xlink">
    <!-- Generator: Sketch 49.1 (51147) - http://www.bohemiancoding.com/sketch -->
    <title>q</title>
    <desc>Created with Sketch.</desc>
    <defs></defs>
    <g id="Finger" stroke="none" stroke-width="1" fill="none" fill-rule="evenodd">
        <g id="Finger-Alphabet" transform="translate(-900.000000, 0.000000)">
            <g id="letters" transform="translate(11.000000, 0.000000)" fill="#1D1D1B" fill-rule="nonzero">
                <g id="q" transform="translate(894.000000, 0.000000)">
                    <path d="M14.7247856,32.058379 C15.3842266,33.1359754 15.2698467,34.2861106 14.7152147,35.234443 L14.1462567,34.901688 C14.5885759,34.1453928 14.6790148,33.2473782 14.1589879,32.3972882 C13.9869843,32.5210614 13.7247378,32.7986216 13.413904,33.1858094 C13.3201578,33.3025836 13.2228615,33.4280701 13.1227302,33.5610155 C12.9040408,33.8513721 12.6821532,34.1632787 12.4688862,34.4752846 C12.3551153,34.6417296 12.2662944,34.7750164 12.2105478,34.8602555 C12.1966124,34.8972056 12.1767683,34.9496701 12.1515468,35.0161125 C12.0944073,35.166638 12.0303555,35.3343287 11.9608838,35.5149045 C11.7623509,36.030946 11.5600972,36.5470378 11.3660074,37.0290649 C11.3344498,37.1074391 11.303319,37.1843812 11.2726469,37.2597995 C12.6072852,37.820229 15.1532509,36.9575032 17.4877489,35.5472578 C17.7201242,33.7936087 18.0713562,32.1483635 18.4833762,30.9059062 C17.2865669,30.9645851 16.298606,31.2412574 15.3904284,31.6922915 C15.1723325,31.8006059 14.9700804,31.9127225 14.7337405,32.0528883 C14.7394955,32.0494752 14.7357603,32.0517598 14.7247856,32.058379 Z M11.020525,37.8698185 C10.7615347,38.4846105 10.5604881,38.919124 10.4267839,39.139394 C10.4219991,39.1472711 9.57111319,40.4378351 9.47797603,40.6755559 C9.1317989,41.5587625 8.9162924,42.0226493 8.43684638,42.8102075 C7.70767651,44.0085837 7.16590618,44.9043281 7.06780209,45.0757799 C7.00636763,45.1832321 6.95336894,45.2876737 6.89108849,45.4211301 C6.38756631,46.5221879 5.98903669,47.1316805 4.65140847,48.6374891 C3.5801321,49.8431717 2.51000949,50.2096658 1.51776435,49.8903659 C0.880224564,49.6852085 0.370816212,49.2271213 0.087472476,48.8031317 C-0.141091154,48.4611138 0.0667199369,48.1084936 0.847568254,47.0510056 C0.891638617,46.9914148 0.891638617,46.9914148 0.935748081,46.9320783 C0.997453258,46.8491574 1.06445294,46.7596436 1.1889379,46.5934325 C1.28807382,46.4608841 1.35647489,46.3686955 1.41896725,46.2830369 C1.57208156,46.0731625 1.66958799,45.9288678 1.71724351,45.8402535 C2.57107833,44.2540386 3.45918524,41.2904515 3.72028305,39.6593651 C3.7494532,39.4772442 3.78711415,39.2906331 3.83303677,39.0984014 C3.97122962,38.5199272 4.16219051,37.9553613 4.47601686,37.1418949 C4.48438488,37.1202042 4.75378465,36.4287727 4.8252593,36.239844 C4.83991491,36.2010966 5.08196989,35.5688769 5.16920143,35.3368117 C5.32990426,34.9092883 5.47190869,34.5167413 5.60672549,34.1221125 C5.82486367,33.4835896 6.00908612,32.8823846 6.15584129,32.3147529 C6.29003177,31.7957199 6.3899971,31.3152181 6.45204549,30.8778066 C6.0791083,29.8663095 5.916067,28.1462923 6.15171781,26.9487387 C6.31505427,26.1184968 6.53576913,25.5742091 6.97604102,24.7677538 C7.00793268,24.7093372 7.04956584,24.6336271 7.12309337,24.4998914 C7.18144485,24.3934843 7.22610722,24.3110149 7.26939211,24.2293221 C7.34731289,24.0810503 9.41523938,19.2011323 10.3925424,17.1468258 C11.2228142,15.4015813 12.0080929,13.9281791 12.7539782,12.7577165 C13.3012416,11.8989366 13.8201717,11.215351 14.3119961,10.7211019 C15.416072,9.61153861 18.1990679,8.05609881 22.3171823,6.14157966 C23.3027339,5.68339484 24.3545787,5.2097196 25.4638571,4.72337925 C27.9905189,3.61561617 30.6969099,2.4927834 33.4032003,1.41247666 C34.3503277,1.03439896 35.2298334,0.688625035 36.0192076,0.38237112 C36.2955594,0.275154782 36.5409307,0.180527223 36.752507,0.0993908287 C36.8795735,0.0506626865 36.9672135,0.0172315657 37.0126122,0 L37.2465067,0.616224313 C37.201801,0.633192861 37.1148636,0.666355982 36.9885113,0.714810225 C36.7777228,0.795644472 36.533151,0.889963726 36.2576129,0.996864388 C35.4701588,1.30237333 34.5926271,1.64737118 33.6475604,2.0246263 C30.9475822,3.10241332 28.2477045,4.22254385 25.7285156,5.32703056 C24.6234713,5.81151457 23.5759902,6.28322472 22.595048,6.73926657 C18.554392,8.6177752 15.8065685,10.1535568 14.7792135,11.186018 C14.3256291,11.6418386 13.8337188,12.289831 13.3098273,13.1119351 C12.5807947,14.255952 11.8073543,15.7071423 10.9877412,17.429982 C10.0212813,19.4614961 7.94627688,24.3581167 7.87925801,24.4858525 C7.80680755,24.6228476 7.76075907,24.7078765 7.70101966,24.8168145 C7.62689786,24.9516331 7.58588021,25.0262238 7.55456266,25.0835888 C7.1437836,25.8360214 6.94682782,26.3217187 6.79843845,27.0759844 C6.58103772,28.1807929 6.74711283,29.835291 7.09643361,30.7177782 L7.11670889,30.8823813 C7.05203403,31.3702658 6.94285565,31.9038983 6.79397875,32.4797366 C6.64264088,33.0650937 6.45364623,33.6818726 6.23045184,34.3351957 C6.09325554,34.7367897 5.94905808,35.135399 5.78617341,35.5687268 C5.69806537,35.8031237 5.4556813,36.436203 5.44174613,36.4730457 C5.36890026,36.6655989 5.09829192,37.3601323 5.09096141,37.3791337 C4.78690335,38.1672798 4.60386906,38.7084111 4.47411743,39.2515504 C4.43194066,39.428102 4.3975563,39.5984775 4.37111236,39.7635775 C4.09926852,41.4617949 3.19077947,44.4933966 2.29768288,46.1525501 C2.2313724,46.275853 2.12185487,46.4379223 1.95144339,46.671506 C1.88706665,46.7597475 1.81733493,46.8537295 1.71675971,46.9882023 C1.59192559,47.1548806 1.52559025,47.2435068 1.46452636,47.325566 C1.42104803,47.3840536 1.42104803,47.3840536 1.37780201,47.4425298 C1.11385432,47.7999891 0.934190106,48.0593975 0.812478401,48.2659217 C0.752514129,48.3676709 0.710477875,48.4508338 0.687816885,48.5107697 C0.90708675,48.8037977 1.28345855,49.1225613 1.71966966,49.262932 C2.44619028,49.496723 3.25121684,49.2210186 4.1586608,48.1997234 C5.45298182,46.7426671 5.81545699,46.1883144 6.24826541,45.241163 C6.36319329,44.9937109 6.42406875,44.873747 6.49565849,44.7485327 C6.59845531,44.5688796 7.1377618,43.6772088 7.87380824,42.4675311 C8.32992622,41.7182926 8.53083707,41.2858235 8.86429399,40.4350701 C8.98700034,40.1218777 9.89936234,38.7380351 9.8608359,38.8015085 C10.0104981,38.5549508 10.2900589,37.9252518 10.6524867,37.0350867 C10.685963,36.952865 10.7200126,36.8687523 10.7545909,36.7828761 C10.9472605,36.304376 11.14832,35.7913316 11.3457193,35.2782367 C11.4148239,35.0986149 11.4785274,34.9318363 11.5353304,34.782197 C11.5693775,34.692505 11.593584,34.6283903 11.6062963,34.5945587 C11.6943196,34.4447937 11.7935834,34.2952184 11.9247385,34.1033407 C12.1432953,33.7835959 12.3708295,33.4637518 12.5962379,33.1644744 C12.7002829,33.0263325 12.8017042,32.895526 12.8999202,32.773184 C13.3047412,32.2689218 13.6341457,31.9301509 13.9002958,31.7812969 C13.9922146,31.7298367 14.4293869,31.4670721 14.3975198,31.4859715 C14.6468111,31.3381246 14.8626574,31.2184722 15.0972505,31.1019647 C16.1534622,30.5774114 17.3116617,30.2695049 18.7266539,30.2377684 C18.7842177,30.0946296 18.8426583,29.9595996 18.9018395,29.8333693 L19.4986261,30.1131635 C18.0634775,33.174262 17.0567752,41.9744356 18.677838,44.9254497 C19.1820311,45.8433188 20.1411474,46.3673377 21.0794186,46.3551918 C21.9124009,46.3444089 22.3945447,45.9295149 22.2795437,45.3127978 C22.1085124,44.3944832 22.1127787,42.6935515 22.3574985,41.091013 C22.4120759,40.7334106 22.7261988,38.6195975 22.8228509,37.9898187 C23.0842273,36.2867067 23.2974887,35.0569827 23.5042605,34.1304232 C23.6346361,33.5462008 23.7585085,33.1044813 23.8805937,32.8055916 C24.0826234,32.3109841 24.2648944,31.907236 24.4527679,31.5285636 C24.524981,31.3830131 24.5947804,31.2473539 24.6819089,31.0818408 C24.6765314,31.0920561 24.8410723,30.7809379 24.8845761,30.6972944 C24.9545746,30.5627107 25.011664,30.4487961 25.0662678,30.3336477 C25.2687684,29.9066146 25.4454786,29.439343 25.6547577,28.7513171 C25.9362945,27.8257792 26.0990618,26.767469 26.1646561,25.563751 C26.2286441,24.3895076 26.2044051,23.3007931 26.1091632,21.5441975 C25.9733696,19.0396861 25.9698276,18.5413654 26.188535,18.0341001 C26.4242828,17.4874461 27.7629908,16.8815991 30.1818424,16.0686755 C30.8355642,15.8489738 31.5551741,15.6203483 32.3299761,15.3849434 C33.6360493,14.9881247 35.0346771,14.5910849 36.4332039,14.2126721 C36.9226119,14.0802483 37.3770896,13.9596004 37.785024,13.8530967 C38.0299734,13.7891451 38.2051201,13.7440832 38.2988438,13.7202815 L38.4610816,14.3591225 C38.3687371,14.382574 38.1950059,14.4272718 37.9515263,14.4908396 C37.5454124,14.5968681 37.0928077,14.7170187 36.6053577,14.8489127 C35.2128617,15.2256937 33.8204667,15.6209641 32.5215852,16.0155978 C31.7525839,16.2492403 31.0389874,16.4759553 30.3918173,16.6934552 C28.279513,17.4033548 26.9113173,18.0225468 26.7937836,18.2950851 C26.6391727,18.6536864 26.6431925,19.2192307 26.7673164,21.5085128 C26.8637706,23.2874681 26.8884327,24.3951826 26.8227995,25.5996152 C26.7545301,26.8524251 26.5839611,27.9614618 26.28535,28.9431308 C26.067062,29.6607741 25.8789855,30.1581015 25.6618197,30.6160605 C25.603384,30.7392896 25.5427968,30.8601836 25.4693319,31.0014321 C25.4245958,31.0874448 25.2588023,31.4009316 25.2651524,31.3888687 C25.1802863,31.5500839 25.1127768,31.6812926 25.0432122,31.821505 C24.8624561,32.1858317 24.6867664,32.5750015 24.4907742,33.054828 C24.385863,33.3116722 24.2705175,33.7229853 24.1475567,34.2739817 C23.9448871,35.1821589 23.7336046,36.4004722 23.4743431,38.0898032 C23.3779955,38.7175983 23.0639265,40.8310491 23.0090692,41.1904844 C22.7749508,42.7236004 22.7708689,44.3510059 22.9275079,45.192044 C23.1290757,46.2729939 22.28568,46.9987519 21.0879501,47.0142565 C19.9128205,47.0294685 18.7251312,46.3805675 18.1001399,45.2427886 C17.1148022,43.4490607 17.0151509,39.7940698 17.3883171,36.3708907 C15.0020351,37.7374829 12.540299,38.5105693 11.020525,37.8698185 Z"></path>
                </g>
            </g>
            <g id="slices"></g>
        </g>
    </g>
</svg>