<?xml version="1.0" encoding="UTF-8"?>
<svg width="50px" height="50px" viewBox="0 0 50 50" version="1.1" xmlns="http://www.w3.org/2000/svg" xmlns:xlink="http://www.w3.org/1999/xlink">
    <!-- Generator: Sketch 49.1 (51147) - http://www.bohemiancoding.com/sketch -->
    <title>r</title>
    <desc>Created with Sketch.</desc>
    <defs></defs>
    <g id="Finger" stroke="none" stroke-width="1" fill="none" fill-rule="evenodd">
        <g id="Finger-Alphabet" transform="translate(-950.000000, 0.000000)">
            <g id="letters" transform="translate(11.000000, 0.000000)" fill="#000000" fill-rule="nonzero">
                <g id="r" transform="translate(956.000000, 0.000000)">
                    <path d="M8.59288816,25.6503126 C8.62534293,25.7681627 8.66687801,25.8842815 8.71781591,25.9907463 C8.86869256,26.3060921 9.05641884,26.4581253 9.30080143,26.4307998 C9.89646482,26.364643 10.1415895,25.9993731 10.1628468,25.3554767 C10.1651809,25.282539 10.1890228,24.8690054 10.1947083,24.7455521 C10.2520967,23.4994351 10.1687776,22.4015659 9.82921819,21.3363066 C9.79416442,21.2263366 9.75658525,21.1182466 9.71642223,21.012098 C9.58445309,20.731838 9.4717703,20.3987433 9.37477245,20.0204568 C9.27023907,19.6127822 9.19044695,19.1766196 9.13178064,18.7396883 C9.11127939,18.5870003 9.09486085,18.4449889 9.08212679,18.3172054 C9.07611752,18.2569036 9.07187797,18.209649 9.06904721,18.1743409 C9.06842107,18.1701191 9.06788815,18.1658625 9.06745077,18.1615731 C9.04902845,17.9809052 9.03746592,17.8052667 9.03545082,17.6237352 C8.98779078,16.9328791 8.92549155,16.4202318 8.84735538,16.0458656 C8.83176965,16.0115296 8.8230423,15.9737132 8.82267232,15.9344008 C8.71188237,15.4632029 8.57153744,15.2404426 8.39861933,15.1655072 C8.30137763,15.1232976 8.04971337,15.113785 7.71884648,15.1427012 C7.54630445,15.1577805 7.36084724,15.1818978 7.17260666,15.2119895 C7.01903739,15.2365388 6.89710935,15.2593767 6.85609088,15.2662859 C6.25892354,15.4575647 5.78045856,16.1766335 5.43898869,17.2638597 C5.29391238,17.7257768 5.18395088,18.2206657 5.10475842,18.7142626 C5.07701088,18.8872096 5.05512353,19.0474628 5.03848289,19.1908168 C5.02859408,19.2760058 5.02269707,19.3360085 5.01100564,19.4179633 C4.97336138,19.5536043 4.881192,19.7383727 4.70917671,19.924097 C4.56610051,20.0785759 4.38722266,20.2067125 4.17070705,20.2980702 C3.63589439,20.5243372 2.51348548,21.2946112 1.68026365,22.0194554 C1.384467,22.2763922 1.16882171,22.8032337 1.03003242,23.5351202 C0.932644665,24.0486813 0.816864997,25.329593 0.816374381,25.33209 C0.789807698,25.4673006 0.74539567,25.8659152 0.691157912,26.439068 C0.682040302,26.535857 0.682040302,26.535857 0.673017543,26.6332519 C0.645029856,26.9365203 0.616508905,27.2615367 0.588973321,27.5865241 C0.572451143,27.7815264 0.559933683,27.9331293 0.553836638,27.9969306 C0.557210604,31.0093036 0.909054487,32.7453913 1.64785309,34.4782354 C1.71015551,34.6243651 2.05111037,35.389902 2.14010905,35.6053867 C2.17825153,35.6977377 2.21320172,35.7856616 2.24583529,35.8717041 C2.64137071,36.9156568 2.67079613,37.5812136 2.51085188,38.6641146 C2.47150899,38.9304853 2.46801936,38.9547869 2.45543316,39.057321 C2.44253992,39.1623565 2.43360691,39.2558791 2.42831755,39.3454212 C2.40610616,39.7214312 2.42742924,40.153343 2.49246487,40.9092253 C2.50074021,41.0049361 2.50074021,41.0049361 2.50910647,41.1006975 C2.576641,41.873446 2.59792034,42.1845963 2.59681027,42.535791 C2.59537642,42.989424 2.61267097,45.7046096 2.64111763,49.7206647 C2.64220266,49.8738484 2.51890235,49.9989079 2.36571868,49.9999929 C2.212535,50.0010779 2.0874755,49.8777776 2.08639046,49.7245939 C2.05790049,45.7024245 2.04062835,42.990757 2.04207196,42.5340376 C2.04310819,42.2062028 2.02238707,41.9032149 1.95647186,41.1489951 C1.94809192,41.0530775 1.94809192,41.0530775 1.93976576,40.9567791 C1.87244432,40.1743298 1.8502276,39.7243168 1.8745418,39.3127089 C1.88057701,39.2105407 1.89059582,39.1056504 1.90482482,38.9897331 C1.918223,38.8805842 1.92182638,38.8554904 1.96206446,38.5830589 C2.10938783,37.5856074 2.08394543,37.0101403 1.72711376,36.0683399 C1.69651547,35.9876637 1.66354258,35.9047141 1.62737834,35.8171528 C1.54192093,35.6102423 1.20273482,34.8486767 1.1375561,34.6958007 C0.369355217,32.8939939 0.00255294404,31.0840976 0,27.9748623 C0.00705384564,27.8877203 0.0196272694,27.7354395 0.0362127834,27.5396898 C0.0638566844,27.2134239 0.0924938441,26.8870832 0.120623803,26.5822732 C0.129702116,26.4842785 0.129702116,26.4842785 0.138884107,26.386806 C0.195436043,25.7891984 0.240260071,25.3868859 0.272041022,25.2251373 C0.265232962,25.2597868 0.380792051,23.9813155 0.485004492,23.4317653 C0.645196317,22.5870155 0.901328841,21.9612598 1.31632292,21.6007851 C2.18969229,20.8410153 3.35678665,20.0400752 3.95480287,19.7870683 C4.09714197,19.7270089 4.21140011,19.6451617 4.30218231,19.5471445 C4.40712619,19.4338369 4.46069457,19.3264505 4.46730955,19.320935 C4.47033109,19.2843878 4.47682389,19.2183228 4.48744195,19.1268515 C4.50497943,18.9757715 4.52795017,18.8075861 4.55702215,18.626384 C4.64017117,18.1081263 4.75577424,17.5878472 4.90973719,17.0976354 C5.30050339,15.8534517 5.86825619,15.0001953 6.71524116,14.7305262 C6.7923457,14.7145609 6.92233545,14.6902129 7.08503881,14.6642035 C7.28538712,14.6321763 7.48348724,14.6064149 7.67054885,14.5900666 C8.09222992,14.5532136 8.40880361,14.5651798 8.61935121,14.656572 C8.75119017,14.7137054 8.86658954,14.7975801 8.9677552,14.9161565 C9.05646829,14.3251541 9.14920004,13.7363713 9.24222888,13.1836763 C9.28525161,12.9280733 9.32750228,12.6853066 9.36877111,12.4573144 C9.52318269,11.6042581 9.65771698,10.9889071 9.7702775,10.659709 C10.1122518,9.6605762 10.9307971,6.66406818 11.0502583,5.99028069 C11.1066436,5.67225513 11.2069055,5.30472174 11.5534488,4.09631315 C11.8035827,3.22381867 11.9197358,2.79900037 11.9955311,2.45895409 C12.0074857,2.40532087 12.0196059,2.34774617 12.0343691,2.27508349 C12.0408798,2.24303879 12.0722584,2.08651469 12.0813035,2.04214106 C12.1003842,1.94853489 12.116719,1.87187387 12.1336652,1.79760465 C12.4066855,0.601053726 12.9408054,-0.0141777046 14.1508983,0.000247944968 C15.0374965,0.010817179 15.4373873,0.795185443 15.5101624,2.01457414 C15.5350345,2.43131923 15.5197844,2.87649362 15.4770332,3.32160713 C15.4626708,3.47114484 15.4461489,3.61003634 15.4288409,3.73490794 C15.4259413,3.75582734 15.423192,3.77514818 15.4206217,3.79279847 C15.8173965,4.51808693 16.1300617,6.28950198 16.3946542,8.8642172 C16.5040736,9.92896243 16.5977258,11.0679255 16.6766564,12.2252701 C16.7058008,12.6526088 16.731394,13.0602346 16.7538237,13.4455266 C16.768916,13.7047796 16.7788786,13.8875967 16.7906758,14.1128106 C16.8006255,14.3026681 16.7946728,14.5492743 16.7750966,14.9207854 C16.7644143,15.1235104 16.714965,15.9318769 16.7091424,16.0325338 C16.6766427,16.5943602 16.6572481,17.0424467 16.6497015,17.4753748 C16.6402472,18.01774 16.6511218,18.4948907 16.6860594,18.913868 C16.7363279,19.5166959 16.7363593,20.4593916 16.6971659,21.6550551 C16.6847125,22.0349659 16.6684843,22.4330719 16.6490901,22.8438036 C16.6235789,23.3840811 16.5939478,23.9188812 16.56278,24.4244021 C16.5518696,24.601362 16.5415447,24.762047 16.5321282,24.9034768 C16.5299586,24.9360615 16.5280193,24.9649139 16.5263265,24.989892 C16.5895234,25.0964863 16.64739,25.2002091 16.7009491,25.303209 C16.9149557,25.7147663 17.0448039,26.0899651 17.0785892,26.4414746 C17.1064078,26.730905 17.0874445,26.9802068 17.0215365,27.2405074 C16.9540083,27.5072065 16.4812072,28.6572039 16.4891184,28.6364079 C16.1916033,29.4184775 15.937323,30.2987323 15.6945629,31.4940473 C15.5341147,32.2840706 15.3477561,32.9829647 15.1381985,33.6002194 C14.8404803,34.4771522 14.5095915,35.1558929 14.1423892,35.7106712 C13.9395475,36.0171295 13.4964658,36.5648838 13.5036777,36.5541826 C13.4347158,36.6565097 13.3795916,36.8631747 13.348781,37.1333236 C13.3290191,37.3065974 13.3200657,37.4938457 13.3194291,37.6809856 C13.3190468,37.7933626 13.3215086,37.879896 13.3215381,37.9022738 C13.3265325,37.9369312 13.3343805,38.0003212 13.3435374,38.0901891 C13.3795448,38.443572 13.4021853,38.8755787 13.3990282,39.3684271 C13.3957576,39.828292 13.6063649,43.861104 13.9262448,49.659532 C13.9346828,49.8124869 13.8175287,49.9433218 13.6645737,49.9517598 C13.5116188,49.9601978 13.3807839,49.8430437 13.3723459,49.6900887 C13.0493647,43.8354432 12.840894,39.8435441 12.8442998,39.3646778 C12.8473215,38.8929504 12.8257185,38.4807389 12.7916538,38.1464223 C12.7832928,38.0643653 12.776388,38.008594 12.7700131,37.9563526 C12.7670201,37.8992421 12.764271,37.8026114 12.7646912,37.6790984 C12.765392,37.4730884 12.7752812,37.2662694 12.797613,37.0704628 C12.8377389,36.7186359 12.9123167,36.4390379 13.0436544,36.2441563 C13.0549131,36.2274504 13.4960514,35.6820987 13.6797995,35.4044876 C14.0204448,34.8898322 14.3303684,34.2540967 14.6129047,33.4218824 C14.8147122,32.8274558 14.9950316,32.1512102 15.1509203,31.3836373 C15.3996615,30.1588721 15.6623321,29.2495723 15.9706279,28.4391637 C15.9782486,28.4191313 16.4275983,27.326175 16.4837659,27.1043441 C16.5340231,26.9058555 16.548117,26.7205704 16.5263929,26.4945489 C16.5003929,26.2240397 16.3926911,25.9128333 16.2087719,25.5591372 C16.0606377,25.2742594 15.8720665,24.9761586 15.6173868,24.6122974 C15.5132545,24.4635235 15.1677378,23.9842127 15.1159009,23.9107795 C14.9334506,23.6523168 14.818759,23.4734345 14.7420195,23.3180564 C14.665649,23.1634254 14.5791344,22.9687656 14.4838095,22.7394138 C14.4406385,22.6355445 14.3959529,22.5252481 14.3499913,22.4093273 C14.2397484,22.1312813 14.127112,21.8336152 14.018019,21.5358356 C13.952571,21.3571889 13.9027799,21.218015 13.8838962,21.1609434 C13.8489874,21.0842146 13.7858073,20.9487732 13.7017975,20.7744231 C13.5617875,20.4838529 13.4157245,20.193703 13.2712355,19.9240504 C13.1862672,19.7654781 13.1043163,19.6187163 13.0263525,19.4861933 C12.9025013,19.2756708 12.791201,19.1053746 12.6969312,18.9839379 C12.1433782,18.27086 11.725942,17.0468867 11.6053642,15.7295153 C11.502157,14.6019255 10.6893223,14.3434767 10.1505317,15.3284221 C9.72587599,16.105375 9.5797176,16.8441173 9.58861683,17.5816211 C9.60022453,17.7494974 9.61084189,17.9262728 9.62059063,18.1123862 C9.6286335,18.2214075 9.64798701,18.4156159 9.68158786,18.6658662 C9.73757342,19.082832 9.8135996,19.4984091 9.91212964,19.882671 C9.96557188,20.091093 10.0239199,20.2829799 10.086777,20.4557576 L10.0885358,20.4596134 C10.1369377,20.5678591 10.1825515,20.6780039 10.2254454,20.7899871 C10.3087919,20.9648506 10.3983148,21.1091846 10.4933146,21.2184485 C10.7094739,21.467064 10.8692883,21.7363389 10.9809195,22.0283785 C11.1573235,22.4898713 11.1973355,22.8708556 11.2034832,23.6154082 C11.2054386,23.8522326 11.206937,23.9358698 11.2127384,24.0465653 C11.2207556,24.1995429 11.103242,24.330055 10.9502644,24.3380722 C10.8804553,24.3417307 10.8153245,24.3192485 10.7643776,24.2791844 C10.7617799,24.4409131 10.7565202,24.6047849 10.748862,24.7710729 C10.7428838,24.9008821 10.7193654,25.3088042 10.717295,25.3735001 C10.6878682,26.2648618 10.274521,26.8808066 9.36224116,26.982128 C9.21528043,26.9985604 9.07988643,26.9864891 8.95579986,26.9495335 C9.01868485,27.1145828 9.08709676,27.2707931 9.16214875,27.4192385 C9.53705243,28.1596919 9.17414481,28.9034274 8.42543696,29.15195 C7.67425763,29.4012929 6.82192027,29.0718617 6.29765075,28.2235525 C5.65414236,27.1823055 5.45154012,26.8176369 5.30912503,26.4429934 C5.28831913,26.3882605 5.26818862,26.3317938 5.24634876,26.2673886 C5.22786387,26.2128771 5.11230873,25.8563863 5.06648265,25.721317 C5.00450805,25.5386511 4.91908519,25.3777912 4.78544832,25.1940449 C4.49096279,25.3307505 4.06347628,25.4161447 3.51839138,25.4707448 C3.11202949,25.5114493 2.67848092,25.5299905 2.26243882,25.5331403 C2.12867534,25.534153 2.02854673,25.5333717 1.97219014,25.5322299 C1.81903405,25.5291269 1.69739197,25.4024539 1.70049495,25.2492978 C1.70359793,25.0961417 1.83027094,24.9744997 1.98342703,24.9776026 C2.03487692,24.978645 2.12991673,24.9793866 2.25823908,24.9784151 C2.65861506,24.9753839 3.07612464,24.9575286 3.46310072,24.918766 C3.86163451,24.8788456 4.18948671,24.8185314 4.41267944,24.7449995 C4.38163535,24.7104807 4.34102664,24.6655675 4.27326481,24.5906159 C3.85357659,24.1252359 3.63940273,23.8360685 3.46709889,23.436375 C3.40645619,23.295702 3.47133354,23.1325035 3.61200649,23.0718608 C3.75267944,23.0112181 3.91587802,23.0760954 3.97652072,23.2167684 C4.11842543,23.5459449 4.30345513,23.7957633 4.68522791,24.2191 C4.76068,24.3025562 4.80339891,24.3498023 4.83674094,24.3869472 C5.24696727,24.8439626 5.45584074,25.1423188 5.59181181,25.5430842 C5.63925299,25.6829139 5.75482631,26.0394608 5.7717063,26.0892395 C5.79151878,26.147666 5.80944174,26.1979404 5.82766464,26.2458783 C5.95326343,26.5762841 6.14475299,26.9209507 6.76954528,27.9319137 C7.16109402,28.5654702 7.74800033,28.7923115 8.25067501,28.625456 C8.69235995,28.4788452 8.88105459,28.0921382 8.66715725,27.6696802 C8.56070608,27.4591305 8.46704848,27.2366394 8.38334959,26.9996941 C8.2843838,26.7195294 8.2013737,26.426202 8.12203776,26.0905424 C8.09695157,25.9844061 8.0727808,25.8766144 8.04615102,25.753033 L8.04422149,25.7455431 C8.01877474,25.646251 8.00348151,25.5673098 7.99628807,25.5184016 L7.99587483,25.5154868 C7.97546693,25.4182323 7.95204626,25.3065073 7.94380037,25.2677335 C7.84051079,24.7820451 7.76872192,24.5276094 7.67468976,24.3474281 C7.25117878,23.5359103 6.81213865,22.4987337 6.43360844,21.3470749 C6.33528287,21.1669692 6.24717868,20.9766047 6.16875303,20.7769597 C6.07538186,20.6361157 5.96966523,20.5196239 5.85379748,20.4248801 C5.6173401,20.2315316 5.39281423,20.1610267 5.2629471,20.1543234 C5.10996324,20.1464268 4.99234676,20.0160074 5.00024334,19.8630236 C5.00813992,19.7100397 5.13855928,19.5924232 5.29154314,19.6003198 C5.44985429,19.6084914 5.65101771,19.6576962 5.8676152,19.7710046 C5.72291966,19.1119146 5.6689069,18.4468924 5.67525484,17.8406874 C5.67628562,17.7422525 5.67885221,17.671153 5.68118491,17.631448 C5.69016926,17.4785241 5.82142177,17.3618381 5.9743456,17.3708225 C6.12726943,17.3798068 6.24395543,17.5110593 6.23497109,17.6639832 C6.23314603,17.6950477 6.23089984,17.7572711 6.22996551,17.8464961 C6.2220419,18.603171 6.3156556,19.4644372 6.5747274,20.2650626 C6.60340603,20.3536899 6.63385747,20.4403925 6.66611167,20.5250697 C6.77889908,20.7056922 6.8748075,20.9121644 6.95136447,21.1456596 C7.32251565,22.2797536 7.75345158,23.2993256 8.16648735,24.0907711 C8.29191754,24.3311163 8.37249336,24.616695 8.48640691,25.1523394 C8.52776527,25.3468147 8.56262616,25.5103412 8.59288816,25.6503126 Z M9.43736729,15.5326852 C9.50377628,15.3741865 9.57908819,15.2172726 9.66380169,15.0622802 C10.4861298,13.5590088 12.0080515,14.0429188 12.1577961,15.6789517 C12.1698682,15.8108453 12.1851219,15.9416287 12.2033382,16.0707852 C12.1876156,15.0614393 12.2151028,14.0069073 12.2761858,12.8802684 C12.3013359,12.4163906 12.4110806,10.7943793 12.4129644,10.6078656 C12.4304114,8.99286627 12.4148416,5.76063753 12.3597243,4.70893729 C12.2816589,3.21936108 13.847761,2.34511209 14.9303804,3.20899156 C14.9663218,2.81030956 14.9782681,2.41392403 14.9564067,2.04762319 C14.8990502,1.08658145 14.6309686,0.560751417 14.1442856,0.554949615 C13.2483343,0.544268881 12.8960532,0.950047452 12.674506,1.9210098 C12.658652,1.99049225 12.6431592,2.06320214 12.6248668,2.15294117 C12.6160501,2.19619417 12.5847182,2.35248512 12.578003,2.38553618 C12.5626034,2.46133111 12.5498143,2.52208389 12.5369846,2.57964242 C12.4578068,2.9348642 12.3402838,3.36469303 12.096582,4.21475717 C11.7494152,5.42534508 11.6477156,5.79814858 11.5964806,6.08712482 C11.4715117,6.79197752 10.6456891,9.81512584 10.2951548,10.839268 C10.194765,11.1328713 10.0640011,11.7309771 9.91464166,12.5561223 C9.87380001,12.7817545 9.83193606,13.0222993 9.78927487,13.2757543 C9.69004396,13.8652965 9.59102818,14.4969631 9.49691778,15.1284278 C9.47579579,15.2701527 9.45589446,15.4053684 9.43736729,15.5326852 Z M14.8897661,3.98564531 C14.1904516,2.92301607 12.8523912,3.50996445 12.9137052,4.67990439 C12.9696402,5.74720824 12.985247,8.98711621 12.9676751,10.6136631 C12.9656041,10.8187234 12.854412,12.4621264 12.8301134,12.9103007 C12.7326749,14.7074945 12.7217799,16.3164481 12.8366969,17.8451646 C12.846491,17.9754534 12.8571898,18.1043811 12.8688101,18.2319247 C12.9530985,18.3859086 13.0422845,18.5241602 13.1351337,18.643767 C13.2463068,18.7869783 13.3696234,18.9756601 13.5044885,19.2049041 C13.5864599,19.3442393 13.6719451,19.4973304 13.7602044,19.6620445 C13.9088535,19.9394609 14.0583477,20.236427 14.2015489,20.5336199 C14.2874657,20.7119277 14.3523355,20.8509913 14.3980558,20.9541417 C14.4253926,21.0319533 14.4743709,21.1688553 14.5389048,21.3450065 C14.6464483,21.6385567 14.7574316,21.9318543 14.865677,22.2048623 C14.9105656,22.3180768 14.9541204,22.4255822 14.9960669,22.5265054 C15.0871735,22.7457078 15.1691412,22.9301371 15.2394049,23.0724034 C15.299801,23.1946903 15.4023859,23.3546898 15.5691015,23.5908626 C15.6121641,23.6518658 15.8802439,24.0239178 16.0194615,24.2199904 C16.0466645,23.7678354 16.0724356,23.2947973 16.0949664,22.8176385 C16.1142408,22.4094451 16.1303617,22.0139722 16.1427226,21.6368807 C16.181249,20.4615647 16.1812181,19.5353644 16.133237,18.9599667 C16.0965716,18.5202688 16.0852905,18.0252792 16.0950447,17.4657063 C16.1027435,17.0240439 16.1224334,16.5691359 16.1553271,16.0004975 C16.1612692,15.8977755 16.2105888,15.0915287 16.221124,14.8915946 C16.2397157,14.5387685 16.2453229,14.3064785 16.2373302,14.15397 C16.2249485,13.9175975 16.2150396,13.7357659 16.2000202,13.4777661 C16.1776933,13.09424 16.1522146,12.6884365 16.123201,12.2630156 C16.0446709,11.1115453 15.9515199,9.97867709 15.8428194,8.92092692 C15.5798585,6.36208818 15.2567914,4.57447891 14.9066288,4.01188679 C14.9005264,4.00346539 14.8948953,3.99470384 14.8897661,3.98564531 Z"></path>
                </g>
            </g>
            <g id="slices"></g>
        </g>
    </g>
</svg>