<?xml version="1.0" encoding="UTF-8"?>
<svg width="50px" height="50px" viewBox="0 0 50 50" version="1.1" xmlns="http://www.w3.org/2000/svg" xmlns:xlink="http://www.w3.org/1999/xlink">
    <!-- Generator: Sketch 49.1 (51147) - http://www.bohemiancoding.com/sketch -->
    <title>s</title>
    <desc>Created with Sketch.</desc>
    <defs></defs>
    <g id="Finger" stroke="none" stroke-width="1" fill="none" fill-rule="evenodd">
        <g id="Finger-Alphabet" transform="translate(-1000.000000, 0.000000)">
            <g id="letters" transform="translate(11.000000, 0.000000)" fill="#000000" fill-rule="nonzero">
                <g id="s" transform="translate(1001.000000, 0.000000)">
                    <path d="M19.675422,11.518152 C19.6935257,11.5212167 19.7112039,11.525818 19.7282904,11.5318379 C20.3867627,11.6924649 20.9766249,11.4679793 21.5101113,10.9723172 C21.6586011,10.8343554 21.7895419,10.6858082 21.900947,10.5375818 C21.9666577,10.4501525 22.010126,10.3841725 22.029872,10.3506606 C22.1199655,10.1977592 22.3169517,10.1468433 22.4698531,10.2369367 C22.6227545,10.3270301 22.6736704,10.5240164 22.583577,10.6769178 C22.4668556,10.8750106 22.2534889,11.1588988 21.9475547,11.4431422 C21.3727022,11.9772375 20.7118856,12.2728433 19.9905306,12.2231912 C20.0391554,12.7919789 20.0331462,13.4137977 19.9395532,14.0381756 C19.8189164,14.8429686 20.1263852,15.1030352 21.5008657,15.4918168 C21.6716358,15.5401204 21.7709146,15.7177147 21.722611,15.8884848 C21.6743075,16.0592549 21.4967132,16.1585337 21.325943,16.1102301 C19.6770159,15.6438193 19.1196779,15.1724056 19.3039777,13.9429041 C19.3951793,13.3344798 19.3951793,12.7214573 19.3402562,12.1706492 C19.3371814,12.1398136 19.3341191,12.1110073 19.3311242,12.0843254 C19.2046369,12.0400051 19.0766634,11.9851062 18.9473231,11.9191271 C18.6301222,11.7573166 18.3179733,11.5800013 18.0151903,11.3910767 C18.0368057,11.7654478 17.9900533,12.1481914 17.8478924,12.5192428 C17.5510057,13.2941406 16.8796219,13.875602 15.7880018,14.1812328 C14.602018,14.5129772 13.7456404,14.2039652 13.2064622,13.4603896 C13.0530732,14.2936218 12.6692331,14.8698647 11.9800243,15.0646452 C11.0888403,15.316885 10.4310221,15.0995843 9.83556202,14.4002737 C9.82608124,14.4939737 9.81165605,14.5871707 9.79186188,14.6795479 C9.6622122,15.2846083 9.31200613,15.7785549 8.71176783,16.098718 C7.11922421,16.9477782 6.15582642,16.4946449 5.16825952,14.6364146 C5.11664626,14.642988 5.05893259,14.6497575 4.99538624,14.6564914 C4.23021087,14.7375764 3.34038088,14.7375764 2.38663981,14.6028058 C2.21091537,14.5779747 2.08859219,14.4153922 2.11342334,14.2396678 C2.13825449,14.0639434 2.30083692,13.9416202 2.47656136,13.9664513 C3.34126939,14.0886409 4.15082882,14.0930825 4.84911917,14.0253624 C4.57724705,13.5333341 4.36134872,13.268061 3.8503198,12.699686 C3.61029272,12.4327239 3.45919624,12.2402683 3.30158178,11.9820627 C3.20777317,11.8283845 3.11887178,11.6604225 3.03213955,11.4713754 C2.95813539,11.3100712 3.02890605,11.119316 3.19021026,11.0453119 C3.35151447,10.9713077 3.5422696,11.0420784 3.61627377,11.2033826 C3.69266603,11.369892 3.76975484,11.5155365 3.85013391,11.6472143 C3.98370371,11.8660297 4.11234608,12.0298848 4.32822995,12.2699945 C4.99722982,13.0140674 5.20667975,13.2921751 5.63404089,14.1383501 C6.5160266,15.8846818 7.13217348,16.212564 8.40935973,15.5316357 C8.83609149,15.3040199 9.0721222,14.9711114 9.16345007,14.5448945 C9.23801494,14.1969087 9.21093573,13.8123693 9.11870071,13.439973 C9.08620453,13.3087705 9.05445155,13.2128218 9.04030125,13.1765681 C9.02657696,13.1456878 9.02657696,13.1456878 8.96486198,13.0067604 C8.89043894,12.8391862 8.88332989,12.8231791 8.79640092,12.6273408 C8.71451659,12.4495522 8.60922803,12.2107055 8.32294465,11.5609693 C8.32049432,11.5554081 8.31821424,11.549815 8.31610216,11.5441957 C8.26415823,11.4269255 8.21290859,11.3111748 8.16259979,11.197496 C7.78231895,10.3381743 7.50736797,9.71385381 7.37307936,9.40355851 C7.35862349,9.37015589 7.26303059,9.14609834 7.23326242,9.07780261 C7.17653097,8.94764624 7.12682625,8.83928154 7.0759241,8.73649394 C6.64215655,7.86057949 6.18770471,7.53930429 5.45904743,7.80981831 C4.05619601,8.3306269 2.7853468,9.07948663 1.77040176,9.98693411 C1.33775584,10.3740467 1.13422812,10.84357 1.02380727,11.55826 C1.00061561,11.7083661 0.987602727,11.8142105 0.953838491,12.1111964 C0.895658174,12.6229429 0.857831487,12.8626536 0.775885006,13.1383298 C0.686950621,13.4375141 0.644404558,13.8182217 0.642731244,14.2668429 C0.641287797,14.6538361 0.66859512,15.0568652 0.720329831,15.5380744 C0.732442814,15.6507431 0.779516891,16.0569483 0.787590141,16.1371624 C0.811303069,16.3727689 0.818741435,16.816471 0.814405728,17.4195206 C0.812464799,17.6894827 0.808201016,17.9776659 0.802311286,18.2704018 C0.797351864,18.5168988 0.792390237,18.714188 0.789044776,18.8102223 C0.883096475,21.783647 2.47532837,27.0129595 3.2361455,28.1770097 C3.75250448,28.9670389 3.99418975,30.1557949 3.82106261,31.4124694 C3.7332152,32.0504735 3.65961201,33.3371055 3.55867527,35.7077432 C3.54908664,35.9329453 3.49794966,37.1543604 3.48371035,37.4853688 C3.45568998,38.136733 3.43319827,38.620524 3.41150378,39.0257521 C3.20252129,42.8460695 3.00681306,46.6006821 2.87560321,49.517342 C2.86762754,49.6946329 2.71743934,49.83189 2.54014846,49.8239143 C2.36285759,49.8159386 2.2256005,49.6657504 2.23357616,49.4884595 C2.36490826,46.5690824 2.56069441,42.8129748 2.76555814,39.0687895 C2.79129517,38.5888891 2.81369608,38.1070512 2.8416278,37.4577477 C2.85584759,37.127193 2.90697646,35.9059716 2.91658065,35.6804042 C3.01874105,33.281027 3.09244909,31.9925623 3.18439638,31.3247823 C3.33697196,30.217285 3.12705749,29.1847972 2.69818297,28.5286192 C1.87160098,27.2639487 0.244405513,21.9198066 0.146661672,18.8111495 C0.14992965,18.6974463 0.154846197,18.5019496 0.159764949,18.257474 C0.165602834,17.9673149 0.169826965,17.6818117 0.171745962,17.4149001 C0.175904959,16.8364291 0.168682046,16.4055789 0.148144297,16.2015202 C0.140660976,16.1271676 0.0939372857,15.7239858 0.0813357081,15.6067726 C0.0272806516,15.1039807 -0.00148832119,14.6793791 5.93398803e-05,14.2644458 C0.00194177126,13.7597595 0.0508908126,13.3217572 0.159849431,12.9552094 C0.227412609,12.7279201 0.261376685,12.512687 0.31527569,12.0385983 C0.350061788,11.7326243 0.363680806,11.6218497 0.388666838,11.4601297 C0.519743128,10.611749 0.780449973,10.0103177 1.34195258,9.50790988 C2.41861032,8.54528595 3.75911053,7.75538372 5.23537072,7.20732213 C5.55258707,7.08955556 5.83954811,7.04778358 6.10072661,7.07444923 C6.1044835,6.95458488 6.11102038,6.82338496 6.12110798,6.68123155 C6.15253968,6.23829897 6.21182136,5.79882431 6.30623812,5.38528016 C6.50732167,4.50453689 6.84207541,3.83783835 7.36572142,3.4750139 C8.51809773,2.67655408 10.2876564,2.59488137 11.2927862,3.30287668 C11.5538926,1.65802196 13.3192222,0.426510792 15.4632407,0.831013559 C16.1728608,0.964894546 16.71158,1.3396414 17.0998341,1.89977961 C17.190538,1.7033877 17.2935106,1.50952429 17.4093874,1.32368297 C17.9343766,0.481713678 18.6123791,-0.0300195662 19.4615395,0.00136540258 C21.2297468,0.0667183441 23.0767578,1.59399493 23.3374965,3.2443303 C23.3662795,3.42651126 23.3866982,3.61600355 23.3992919,3.81209247 C23.4427331,4.48848818 23.3933387,5.20722013 23.2847115,5.9125763 C23.2612433,6.0649638 23.2363668,6.2071315 23.2112005,6.33707871 C24.2628287,6.82509536 24.9830967,8.08037761 25.0677661,9.969141 C25.0702131,10.0235393 25.0730596,10.0782642 25.0763014,10.1333088 C25.1368585,11.1615401 25.3312164,12.2668975 25.6175221,13.3849153 C25.7406661,13.8657898 25.8726115,14.3163739 26.0044467,14.723511 C26.0832177,14.9667738 26.144114,15.140625 26.1882593,15.2639106 C26.2055403,15.3307576 26.2297517,15.4462628 26.253463,15.602179 C26.368833,16.3608063 26.3426576,17.1837069 26.0728428,17.96715 C25.8538653,18.6029799 25.4865651,19.156682 24.9512856,19.5984289 C24.3024459,20.1338929 23.6791362,20.8869721 22.8468379,22.0810539 C22.6993095,22.29271 22.5490666,22.5120769 22.3445717,22.8134302 C22.286653,22.898782 22.2180299,23.0000692 22.0906995,23.1880203 C21.9878064,23.3398296 21.9103365,23.4538594 21.8341258,23.5655528 C21.0385578,24.7315263 20.4827734,25.478571 19.8679951,26.1631948 C18.9167528,27.2225085 18.5157397,27.7941561 18.3313146,28.3414863 C18.2151,28.6863836 18.1768282,28.9975544 18.1405144,29.7448651 C18.1329112,29.9038948 18.1279598,30.0080422 18.1246799,30.075099 C18.118027,30.2111141 18.1119473,30.3272614 18.1052273,30.4441259 C18.003073,32.2106189 18.0283912,46.5986873 18.1056617,49.6705794 C18.1101243,49.8479934 17.9699196,49.9954337 17.7925055,49.9998964 C17.6150914,50.004359 17.4676512,49.8641542 17.4631885,49.6867402 C17.3854936,46.5979732 17.3601514,32.1962919 17.4636168,30.407127 C17.4702131,30.2924135 17.4762009,30.1780216 17.4827709,30.0437014 C17.4860237,29.9771994 17.4909475,29.8736331 17.4985954,29.7136726 C17.5376951,28.9090297 17.5812658,28.5547761 17.722283,28.1362706 C17.9421385,27.4837915 18.384077,26.8538044 19.3898175,25.7338009 C19.9808696,25.0755989 20.5225795,24.3474721 21.3032532,23.2033274 C21.3790216,23.0922823 21.4561526,22.9787513 21.5587044,22.8274455 C21.685913,22.6396742 21.7547011,22.5381434 21.8127768,22.4525603 C22.0186485,22.1491781 22.1702426,21.9278382 22.3195998,21.7135585 C23.1829009,20.4749977 23.8369395,19.6847919 24.5422194,19.1027498 C24.9824222,18.7394663 25.2833953,18.2857517 25.4651931,17.7578778 C25.6961582,17.0872403 25.719179,16.363513 25.6180919,15.6988045 C25.5978318,15.5655816 25.5780717,15.4713124 25.5760883,15.4566799 C25.5388186,15.3568028 25.4748262,15.1741128 25.3930261,14.9214953 C25.2572426,14.502165 25.1215693,14.0388504 24.9949358,13.5443493 C24.6991973,12.3894965 24.4979971,11.2452259 24.4347367,10.1710934 C24.4313211,10.1130985 24.4283202,10.0554058 24.4257367,9.99797168 C24.3454906,8.20788159 23.6682849,7.14899992 22.75229,6.84541896 C22.7449769,6.84332791 22.7377918,6.8409962 22.7307415,6.83843458 C22.5863957,6.79275955 22.4426448,6.77019933 22.3067245,6.77019933 C20.2754054,6.77019933 18.2130138,6.56466527 16.6044543,5.98558383 C15.8402328,5.7104641 15.3974365,5.82857705 15.1889222,6.21772825 C14.990845,6.58740061 15.0071746,7.20088075 15.2260489,7.74243226 C15.6743739,8.85270321 17.363452,10.3896967 19.2393622,11.346636 C19.3879727,11.4224452 19.5332856,11.4792415 19.675422,11.518152 Z M13.2585353,11.8559947 C13.3007655,12.1110999 13.3676379,12.3644422 13.463442,12.5990066 C13.8270808,13.489331 14.478858,13.880082 15.6148032,13.5623345 C16.5160214,13.3100122 17.0258694,12.8684511 17.247755,12.2893121 C17.404194,11.880994 17.4073283,11.4347135 17.3163057,11.0169521 C17.3067275,10.9729916 17.297309,10.9347731 17.2887512,10.9029839 C16.0127811,9.98156123 14.9967689,8.89106094 14.6301601,7.98315924 C14.3454874,7.27880554 14.3239904,6.47119532 14.6224403,5.91419694 C14.9968443,5.21544517 15.7813032,5.00619602 16.8221413,5.38089772 C16.9528126,5.4279394 17.0870694,5.47241235 17.2245763,5.51441043 C17.22466,5.50560386 17.2251042,5.49672997 17.2259216,5.48780418 C17.2277429,5.46791605 17.2307383,5.42658103 17.2338176,5.36635125 C17.2648404,4.75955939 17.223328,4.05256322 17.0536124,3.38823179 C17.0032262,3.19100088 16.9437118,3.00697753 16.8746281,2.83691739 C16.8563499,2.80779325 16.8427502,2.77580189 16.8345155,2.74219025 C16.5245354,2.0397418 16.0391168,1.59367595 15.3440917,1.46254855 C13.2413965,1.06584206 11.6461271,2.50002314 11.9371259,4.11055502 C11.978236,4.21683691 12.0097268,4.32983252 12.0305567,4.44959677 C12.1332576,5.03891499 12.2984254,6.00517425 12.5088844,7.24546823 L12.5160949,7.28796451 C12.6447808,8.04644645 12.7822113,8.85908347 12.9193457,9.67171737 C12.9970298,10.1322051 12.9970298,10.1322051 13.0518099,10.45726 C13.0928775,10.701057 13.0928775,10.701057 13.098786,10.7387995 C13.1228708,10.8470551 13.1579666,11.0337844 13.1928259,11.2768273 C13.2204417,11.469368 13.2427143,11.6630811 13.2585353,11.8559947 Z M12.5714811,11.4757489 C12.5667462,11.4398302 12.5618031,11.4039316 12.5566597,11.3680716 C12.5242996,11.1424529 12.4921761,10.9715381 12.4682352,10.8619156 C12.4591231,10.8077731 12.4591231,10.8077731 12.4180665,10.5640415 C12.3632985,10.2390584 12.3632985,10.2390584 12.2856294,9.77865893 C12.1485241,8.96619776 12.0111238,8.15373969 11.8824734,7.39546623 L11.8752652,7.35298379 C11.6649597,6.11359478 11.4999109,5.1480314 11.3974042,4.55982715 C11.1844817,3.33560481 8.99443326,3.12838199 7.73174398,4.00327559 C7.37061924,4.25349211 7.10146586,4.78954039 6.93279205,5.52832944 C6.78948982,6.15599129 6.73876675,6.80409278 6.73899582,7.3023205 C7.09438698,7.5333857 7.39229048,7.92715515 7.65184901,8.45128625 C7.70799203,8.56465684 7.76183081,8.6820345 7.82240685,8.82101132 C7.85341416,8.89214995 7.94945402,9.11725514 7.96289038,9.14830199 C8.09621495,9.45636974 8.37078791,10.0798319 8.7446752,10.9247062 C8.94219859,11.3710345 9.14781823,11.8348697 9.35343936,12.2981835 C9.36344622,12.3207275 9.37259368,12.3413355 9.38100765,12.360291 C9.42423174,12.4541029 9.46077699,12.5304909 9.51507007,12.6436955 C10.2713558,14.2206006 10.8493226,14.7167547 11.805119,14.446227 C12.3178735,14.3013151 12.5888095,13.7208654 12.635924,12.7920137 C12.6499111,12.5162593 12.6430801,12.2264166 12.6198924,11.9326723 C12.6179149,11.9202551 12.6159875,11.9078376 12.6141097,11.895421 C12.5867252,11.714345 12.5746085,11.5691886 12.5714811,11.4757489 Z M22.5931458,6.14889998 C22.6111184,6.05170662 22.6302964,5.93960311 22.6495234,5.81475518 C22.7516379,5.15168826 22.7979999,4.47707973 22.7579369,3.85328316 C22.7465751,3.67637424 22.7282728,3.50652325 22.7026941,3.34462362 C22.4914218,2.00738411 20.9078414,0.697935906 19.4378024,0.643603265 C18.86643,0.622485342 18.3706552,0.996679336 17.954737,1.66372229 C17.8057232,1.90270815 17.679204,2.16090336 17.5756013,2.4192603 C17.5399967,2.50804835 17.5116628,2.58491673 17.4905108,2.6463006 C17.5621423,2.82963703 17.6239454,3.02425789 17.6762907,3.22915729 C17.8646658,3.96652908 17.9096937,4.73339805 17.8756557,5.39916583 C17.8721231,5.46826171 17.8685065,5.51816854 17.8659199,5.54641369 C17.8615465,5.59417026 17.8469353,5.63852537 17.8244515,5.6775108 C19.170134,6.00201718 20.7517556,6.12752296 22.3067245,6.12752296 C22.4010196,6.12752296 22.4968121,6.13465748 22.5931458,6.14889998 Z"></path>
                </g>
            </g>
            <g id="slices"></g>
        </g>
    </g>
</svg>