<?xml version="1.0" encoding="UTF-8"?>
<svg width="50px" height="50px" viewBox="0 0 50 50" version="1.1" xmlns="http://www.w3.org/2000/svg" xmlns:xlink="http://www.w3.org/1999/xlink">
    <!-- Generator: Sketch 49.1 (51147) - http://www.bohemiancoding.com/sketch -->
    <title>t</title>
    <desc>Created with Sketch.</desc>
    <defs></defs>
    <g id="Finger" stroke="none" stroke-width="1" fill="none" fill-rule="evenodd">
        <g id="Finger-Alphabet" transform="translate(-1050.000000, 0.000000)">
            <g id="letters" transform="translate(11.000000, 0.000000)" fill="#1D1D1B" fill-rule="nonzero">
                <g id="t" transform="translate(1044.000000, 0.000000)">
                    <path d="M34.8264392,20.6770371 C34.5080998,21.0329094 34.1790393,21.3591796 33.862854,21.6226489 C33.5362508,21.8947639 33.1187666,22.2490721 32.6318623,22.6665318 C32.6057357,22.6889345 32.6057357,22.6889345 32.5796137,22.7113425 C32.149701,23.0801666 31.692139,23.4754174 31.236667,23.8706795 C31.0772418,24.0090298 30.9294705,24.1374951 30.7970662,24.2527767 C30.6609819,24.3713278 30.6609819,24.3713278 30.6308892,24.3975942 L30.2511044,23.9624828 C30.2814413,23.9360034 30.2814413,23.9360034 30.4178171,23.8171983 C30.5504507,23.7017171 30.6984583,23.5730465 30.8581309,23.4344813 C31.314367,23.0385562 31.7727226,22.6426198 32.2035598,22.2730026 C32.2297479,22.2505379 32.2297479,22.2505379 32.2559422,22.2280772 C32.7447333,21.8089999 33.1641044,21.4530901 33.493148,21.1789419 C34.6994962,20.1737224 36.1549234,18.1079627 36.2024821,17.4230221 C36.2875297,16.2008479 35.9401549,15.4839463 34.7327724,15.4839463 L34.7327724,15.4558712 C34.2108793,15.7214399 33.1456709,16.3071029 31.7005378,17.1186945 C31.654529,17.144536 31.654529,17.144536 31.6085294,17.1703838 C30.8745572,17.5828557 30.0936094,18.0248443 29.3163471,18.4668404 C29.0442954,18.6215447 28.7921419,18.7651966 28.566215,18.8941098 C28.4306834,18.9714437 28.3339941,19.0266897 28.282585,19.0560989 L27.9958037,18.5547857 C28.0474651,18.5252323 28.1442644,18.4699235 28.2799869,18.3924806 C28.5061501,18.2634326 28.7585471,18.1196419 29.0308538,17.9647927 C29.8089012,17.5223501 30.590664,17.0799002 31.3255833,16.666896 C31.3716527,16.6410091 31.3716527,16.6410091 31.4177328,16.6151274 C33.1521905,15.6410502 34.3294876,14.9974849 34.7255277,14.8166596 C35.3554829,14.5291439 35.5836016,13.0567742 35.3136136,12.2257678 C35.0895615,11.5351388 34.759857,11.2324996 33.4675865,10.7621403 L30.5610837,11.5193353 L24.9982474,14.0597643 L24.7583291,13.5344096 L30.368041,10.9772865 L34.5815593,9.8750305 C36.2559599,10.3049449 38.3494877,9.81362868 39.7875113,9.02539419 C40.9482177,8.38903214 41.0454739,7.3473591 40.2140387,6.77815884 C39.8155373,6.50534492 38.7144572,6.35342098 37.1413182,6.31749008 C36.4511526,6.30172652 35.7683992,6.3072757 34.8679616,6.32806787 C34.7622253,6.33050944 34.6388389,6.33348974 34.434741,6.33842395 C33.7883385,6.35384255 33.353915,6.35227202 32.4862922,6.33849863 C32.4202615,6.33744981 32.4202615,6.33744981 32.3543636,6.33641414 C31.625865,6.32503238 31.1983294,6.32418728 30.6399195,6.33841232 C29.8485232,6.35858263 26.1371909,7.7236258 23.605563,8.99034594 C23.6036392,8.99366255 23.6017152,8.99697654 23.599791,9.00028792 L23.5932719,8.99649977 C23.2806664,9.15311166 22.9862043,9.3081841 22.7176395,9.45898754 C22.6543949,9.49449278 22.5918731,9.53020454 22.5300684,9.56611891 C21.519636,10.1532762 20.7264328,10.7768839 20.1085263,11.4194443 C19.6975903,11.8467764 19.4816492,12.1355333 19.1810554,12.5963837 C19.0412121,12.8107447 18.1520876,15.6333315 17.0001752,19.5076955 C16.8937182,19.8657139 16.7869171,20.2376143 16.6788748,20.6256691 C16.5638469,21.0388144 14.9074422,27.6144701 14.6196211,28.1625458 C14.371809,28.6342153 11.9080904,30.9928009 7.7212711,34.8443329 C7.60154619,34.9544515 7.60154619,34.9544515 7.4817824,35.064533 C5.92955528,36.491041 4.26657252,38.0061706 2.60360593,39.5125097 C2.02158002,40.0397172 1.48112312,40.5281739 0.996086775,40.9656985 C0.826313628,41.1188415 0.675590952,41.2546826 0.545650303,41.371699 C0.413954868,41.4902591 0.413954868,41.4902591 0.386171757,41.5152422 L0,41.0857893 C0.0276332601,41.060941 0.0276332601,41.060941 0.159165588,40.9425278 C0.28898918,40.8256168 0.439593022,40.6898828 0.609245148,40.5368489 C1.0939953,40.0995825 1.63415764,39.611392 2.21587553,39.0844635 C3.87789121,37.5789858 5.53989073,36.064752 7.09098039,34.6392894 C7.21064076,34.5293029 7.21064076,34.5293029 7.33025918,34.4192823 C11.3274422,30.7422002 13.9116906,28.2682281 14.1083209,27.8939747 C14.3587918,27.4170219 15.9761442,20.9963978 16.122492,20.470761 C16.2314068,20.0795722 16.339132,19.7044541 16.4465826,19.3430938 C17.6628153,15.2523938 18.506928,12.5727003 18.6973289,12.2808412 C19.0159925,11.7922875 19.2512535,11.4776959 19.6922321,11.0191226 C20.3472906,10.3379278 21.1829228,9.68096288 22.2398945,9.06676183 C22.3041733,9.02940979 22.3691779,8.99227982 22.434891,8.95538879 C22.6697096,8.82353444 22.9231609,8.68872956 23.1905472,8.55264907 C23.9479273,7.20927026 24.670748,5.42775612 24.6340148,4.81790378 C24.538924,3.23494873 24.544114,3.09110231 24.7488783,1.57388472 C24.9658421,-0.0356364521 26.6666131,-0.657370064 27.9631267,0.89594058 C29.1787742,2.35225767 29.4966762,3.37146238 29.5603885,5.98677489 C30.0407585,5.84807271 30.4136073,5.76644764 30.6252081,5.76105457 C31.1931921,5.74658564 31.6276342,5.74744439 32.3633858,5.75893947 C32.4294149,5.7599772 32.4294149,5.7599772 32.4954595,5.76102624 C33.3559921,5.77468708 33.78408,5.7762347 34.420991,5.7610425 C34.6247542,5.75611628 34.7485283,5.75312662 34.8546289,5.75067663 C35.7631888,5.72969692 36.4535627,5.7240858 37.1545061,5.74009552 C38.8551068,5.77893768 40.0095127,5.93821936 40.5402955,6.30159308 C41.7387997,7.12208867 41.5919682,8.69474362 40.0651393,9.5318338 C38.5321135,10.3721426 36.3414722,10.8928833 34.5839683,10.4713032 L34.4020037,10.5187082 C35.2877066,10.9292339 35.634076,11.3419839 35.8629343,12.047428 C36.1488942,12.9275946 36.0162612,14.2777434 35.4255062,14.9816661 C36.5208379,15.2467658 36.8672051,16.1903056 36.778637,17.4630712 C36.7399827,18.0197698 36.1083892,19.100186 35.3161062,20.096159 C35.9681026,20.2189907 36.5499964,20.7586916 36.5667904,21.3931019 C36.5987692,22.6048706 35.2378061,25.1816417 33.1379205,27.9380807 C30.3589918,31.5856693 27.4368052,34.4218267 25.527256,34.8167538 C24.856017,34.9556067 20.0952711,41.5769747 14.391139,50 L13.9129315,49.6761545 C20.129298,40.4967363 24.4817322,34.4432588 25.4102734,34.2511802 C27.1258111,33.896378 29.9913901,31.1151617 32.6785067,27.5880845 C34.6990366,24.9358127 36.0166991,22.4410246 35.9894468,21.4083617 C35.9773999,20.9532755 35.329571,20.5307289 34.8264392,20.6770371 Z M24.0755932,8.12071589 C25.705207,7.35536322 27.6157793,6.60523335 28.9866166,6.16292292 C28.9350342,3.54705563 28.6641438,2.63699942 27.5197444,1.2660359 C26.5618596,0.118425364 25.4742485,0.516012305 25.3212405,1.6510851 C25.1214995,3.13108211 25.1176613,3.23746281 25.2105179,4.78322577 C25.2490284,5.42258538 24.7257939,6.83282759 24.0755932,8.12071589 Z"></path>
                </g>
            </g>
            <g id="slices"></g>
        </g>
    </g>
</svg>