<?xml version="1.0" encoding="UTF-8"?>
<svg width="50px" height="50px" viewBox="0 0 50 50" version="1.1" xmlns="http://www.w3.org/2000/svg" xmlns:xlink="http://www.w3.org/1999/xlink">
    <!-- Generator: Sketch 49.1 (51147) - http://www.bohemiancoding.com/sketch -->
    <title>u</title>
    <desc>Created with Sketch.</desc>
    <defs></defs>
    <g id="Finger" stroke="none" stroke-width="1" fill="none" fill-rule="evenodd">
        <g id="Finger-Alphabet" transform="translate(-1100.000000, 0.000000)">
            <g id="letters" transform="translate(11.000000, 0.000000)" fill="#000000" fill-rule="nonzero">
                <g id="u" transform="translate(1105.000000, 0.000000)">
                    <path d="M8.97133408,28.063015 C8.67602564,28.0569825 8.42634017,27.9870594 8.21818639,27.8668929 C8.21964628,27.8771593 8.22108282,27.8874074 8.2224958,27.8976371 C8.38266584,29.0572283 8.23879133,29.8458733 7.57590088,30.0596538 C6.42816831,30.4297946 5.38812133,29.4268348 4.72359219,27.9758978 C4.60949498,27.7267773 4.52711102,27.5315137 4.46325168,27.3635741 C4.42596412,27.2655139 4.34333011,27.0276976 4.35221182,27.0520552 C4.34216873,27.0245119 4.33849631,27.0147793 4.3318659,26.9981893 C4.30510317,26.931226 4.27287907,26.8677117 4.23126097,26.7957033 L4.21577131,26.7726844 C4.18501504,26.721506 4.15398467,26.672742 4.12146836,26.6245274 C3.85503204,26.7366922 3.46341764,26.8096044 2.95417445,26.86304 C2.65289621,26.8946535 2.33142943,26.9160169 2.01015158,26.9291269 C1.8174572,26.93699 1.66717926,26.9403689 1.58020266,26.9411294 C1.43046503,26.9424385 1.30801741,26.8221135 1.30670823,26.6723759 C1.30539905,26.5226383 1.42572407,26.4001906 1.57546169,26.3988815 C1.65699098,26.3981686 1.80159835,26.3949172 1.98804223,26.3873092 C2.29866148,26.3746341 2.6090918,26.3540042 2.89758419,26.3237323 C3.26427322,26.2852551 3.56804443,26.2319741 3.77142419,26.1733184 C3.67490326,26.0573237 3.54860672,25.9053163 3.49082874,25.8330938 C3.02819977,25.2548076 2.49298848,24.4403944 2.29346548,23.9214223 C2.2397299,23.7816527 2.30947431,23.6247857 2.44924397,23.5710501 C2.58901362,23.5173146 2.74588061,23.587059 2.79961618,23.7268286 C2.97404868,24.1805387 3.48396294,24.9564582 3.91426939,25.4943413 C4.00343298,25.6057958 4.27674429,25.9320353 4.31454946,25.9786023 C4.46210377,26.1603545 4.57254308,26.3136116 4.66507586,26.4703421 L4.68056553,26.493361 C4.75193925,26.6121268 4.79719156,26.7013199 4.83540821,26.7969421 C4.84461691,26.8199833 4.84986565,26.8339067 4.86283622,26.8695236 C4.85526618,26.8487421 4.93597042,27.0810495 4.9701131,27.1708392 C5.02952831,27.3270915 5.10729879,27.5114203 5.21661174,27.7500949 C5.77690898,28.9734513 6.62907693,29.7952316 7.40946181,29.5435595 C7.70720667,29.4475376 7.81075813,28.8799225 7.68532726,27.9718342 C7.64251134,27.6618576 7.57589814,27.3300308 7.49195055,26.9893382 C7.43763778,26.7689154 7.37940622,26.5581984 7.32122471,26.364721 C7.28648757,26.2492057 7.2596778,26.1656668 7.24476704,26.1215471 C7.243507,26.1178187 7.24233267,26.1140821 7.24124299,26.1103393 C7.05927392,25.6268463 6.81655938,25.0400569 6.70718427,24.8330544 C6.48703013,24.4165844 6.27170791,23.8858253 5.98830939,23.0990583 C5.93648147,22.9551744 5.64745125,22.1381108 5.56964685,21.9251587 C5.42190802,21.5207949 5.30996543,21.2434983 5.21313938,21.0499914 C5.00117797,20.6260685 3.73427946,20.9465965 2.98396919,21.4953431 C2.25799944,22.0262881 1.50566431,22.9504051 1.1892893,23.9085423 C1.0290213,24.3939117 0.993868888,24.6742247 0.984563241,25.2183102 C0.982813297,25.3206265 0.981744548,25.3686905 0.97955537,25.4277023 C0.966348574,25.7837063 0.916722143,26.0608397 0.786625575,26.3955649 C0.74813893,26.4944176 0.714364586,26.5986346 0.685144529,26.7076066 C0.557627542,27.1831628 0.526247683,27.6904487 0.549383913,28.124934 C0.551648837,28.167468 0.553836826,28.1964498 0.556360778,28.235806 L0.556255816,32.3542216 C0.56104657,32.5263445 0.570264328,32.7011427 0.583799953,32.8784851 C0.6876759,34.2394574 1.03827058,35.7023742 1.5581411,37.1812234 C1.77895692,37.8093669 2.01558431,38.3976783 2.25207421,38.9291405 C2.33470431,39.1148346 2.41134035,39.2800153 2.4799865,39.4225673 C2.52085183,39.5074291 2.54974698,39.5654607 2.55976555,39.5854174 C2.8329353,40.0710525 2.95739886,40.339674 3.02814643,40.6236981 C3.09422174,40.8889648 3.10716503,41.1497553 3.08366572,41.5601731 C3.07328894,41.7414048 2.99093101,42.7417046 2.966753,43.0922857 C2.8974911,44.0965832 2.80707564,46.5059231 2.70762145,49.7372043 C2.70301475,49.8868768 2.57794677,50.0044759 2.4282743,49.9998691 C2.27860184,49.9952624 2.1610028,49.8701945 2.1656095,49.720522 C2.26533193,46.4805255 2.35582069,44.0692325 2.42576939,43.0549765 C2.45038231,42.698089 2.53237654,41.7022066 2.5422838,41.5291752 C2.5629361,41.1684808 2.5524674,40.95755 2.50195613,40.7547668 C2.44611815,40.530599 2.33798356,40.2972192 2.08222718,39.8421367 C2.06524669,39.8090483 2.03431177,39.7469201 1.99141498,39.6578397 C1.92045763,39.5104883 1.84153547,39.34038 1.75664136,39.1495981 C1.51449065,38.6054144 1.27247744,38.0037126 1.04656202,37.3610625 C0.512209686,35.8410176 0.151046031,34.334 0.0431039549,32.9197536 C0.0289123022,32.733816 0.0192345828,32.5502955 0.014092161,32.3617653 L0.01531835,28.261563 C0.0133194754,28.2406167 0.0105625086,28.2040984 0.00788247561,28.1537689 C-0.0180265398,27.6672122 0.0166278985,27.1069894 0.161378634,26.5671625 C0.195574668,26.4396334 0.23542441,26.3166695 0.281247676,26.1989729 C0.387374929,25.9259182 0.426546225,25.7071704 0.437659507,25.4075994 C0.439671593,25.3533613 0.440684935,25.3077891 0.442373919,25.209037 C0.452532778,24.6150656 0.493928409,24.2849678 0.674365838,23.7385156 C1.02987664,22.6618562 1.85323948,21.6504936 2.66385327,21.0576434 C3.17682884,20.6824738 3.84331494,20.3940116 4.43122169,20.3202744 C4.43035987,20.291283 4.42929228,20.2487263 4.42823058,20.1940114 C4.41714812,19.6228745 4.42796774,18.9735613 4.47772988,18.3553601 C4.55452507,17.4013239 4.70551236,16.7266288 4.98695437,16.3925572 C5.07541804,16.2874624 5.16917966,16.1933377 5.26759935,16.1097911 C5.65081725,15.7844846 6.04428589,15.6502209 6.36721254,15.6278413 C6.54724497,15.4280106 6.76429649,15.2968575 7.01314629,15.255272 C7.57948646,15.1606302 7.98601464,15.3723763 8.65077273,16.2118246 L8.65083783,13.8384597 C8.6520532,13.7906683 8.65547858,13.7008903 8.66214102,13.5726152 C8.67317729,13.3601286 8.68950552,13.1161457 8.71215514,12.8441524 C8.77677596,12.0681382 8.87904613,11.2221106 9.02725752,10.3338953 C9.17301754,9.46037073 9.28762322,8.53685898 9.37439292,7.62230444 C9.40477174,7.30211112 9.42949212,7.00599439 9.44898762,6.74127211 C9.46065592,6.58283252 9.46797401,6.47036266 9.47118704,6.41496919 L9.62029874,3.00598903 C9.61620839,2.83528746 9.6201048,2.65741361 9.63640287,2.45353835 C9.66077294,2.14868916 9.7086871,1.84722079 9.78630358,1.56264438 C10.0379284,0.640076339 10.5565689,0.0428862988 11.4070995,0.0042258182 C12.9317771,-0.0650777072 13.3599327,0.707479619 13.472122,3.10465241 C13.6761867,2.87334495 13.9533224,2.74449908 14.3136725,2.72553328 C15.7135044,2.65185792 16.2623827,3.79256419 16.609371,6.16318851 C16.8678565,7.92916153 16.9192303,8.37407987 17.0148531,9.80027344 C17.1699508,12.1135193 17.283287,14.327343 17.283287,15.5089785 C17.283287,17.8289337 17.3040809,18.9846977 17.3939973,19.8564546 C17.4460814,20.36142 17.4667582,20.5707862 17.4970337,20.9206014 C17.653291,22.7260625 17.7005638,24.5370838 17.5810259,26.4855889 C17.5584706,26.8532479 17.5234899,27.23777 17.4769587,27.6373698 C17.3689857,28.5646183 17.2020049,29.5499789 16.9920012,30.5590971 C16.8569876,31.2078698 16.7123559,31.8274973 16.5676854,32.397036 C16.5170096,32.5965361 16.4699253,32.7756067 16.4276295,32.931622 C16.4021507,33.0256052 16.3838586,33.0912629 16.3739506,33.1259666 C16.3571237,33.184904 16.3220445,33.2336903 16.2765998,33.2679421 C16.0761596,35.238929 15.5359431,37.2420786 15.0326304,37.9385445 C14.8982198,38.1245371 14.797475,38.4538266 14.7367647,38.8787264 C14.6780472,39.2896796 14.6626534,39.7249712 14.6714791,40.0925525 C14.6798121,40.2521172 14.6917778,40.4342105 14.7073726,40.6683554 C14.7333636,41.0585901 14.7598409,41.4488155 14.7852306,41.8129636 C14.7919899,41.9097403 14.7919899,41.9097403 14.7987717,42.0061174 C14.8213219,42.3259334 14.8415679,42.6034782 14.8589272,42.8291502 C14.8962802,43.3147389 14.9006695,45.8690773 14.8833016,49.6824635 C14.8826196,49.8322053 14.760677,49.9530421 14.6109352,49.9523601 C14.4611934,49.9516781 14.3403566,49.8297356 14.3410386,49.6799938 C14.3582128,45.9091527 14.3537853,43.332623 14.3182559,42.8707403 C14.3007954,42.6437542 14.2804707,42.3651297 14.2578461,42.044258 C14.2510485,41.9476578 14.2510485,41.9476578 14.2442752,41.8506809 C14.218842,41.4859074 14.1923283,41.0951453 14.1663028,40.7043925 C14.1506878,40.4699449 14.138704,40.2875774 14.1316066,40.1774929 C14.1198828,39.7105706 14.1362461,39.2478633 14.199948,38.8020253 C14.2720448,38.2974335 14.3952534,37.8947199 14.5931173,37.6209229 C15.1162662,36.8970084 15.7435313,34.3165472 15.8094168,32.1417989 C15.8506799,30.7797872 15.8506799,29.5982066 15.8259527,28.6435388 C15.8197925,28.4057061 15.8136546,28.2419973 15.8093978,28.1375797 C15.8144815,27.7963613 15.7874674,27.3725419 15.7012576,26.9668148 C15.6391824,26.6746719 15.5520296,26.4314691 15.4407693,26.2552329 C15.3165654,26.058494 15.1347412,25.8321567 14.8775333,25.5462925 C14.8058176,25.4665866 14.7291239,25.3831327 14.635534,25.2826283 C13.8463156,24.4351018 13.8024617,24.3857315 13.6472687,24.1239531 C12.7897121,22.6761536 11.7557715,21.0840138 11.0215401,20.1657352 C10.7244478,19.7941717 10.6353288,19.6965269 10.3003587,19.3529899 C9.96857794,19.0101428 9.70956327,18.6753441 9.14439542,17.8364915 C7.97201152,16.096376 7.5760679,15.7109897 7.10252598,15.7901238 C6.96764542,15.8126639 6.84166782,15.8988786 6.73170126,16.0362217 C6.72182283,16.0525589 6.71027777,16.0677453 6.69731441,16.0815576 C6.43521631,16.4458769 6.27465705,17.1118359 6.32159715,17.8924043 C6.4291923,19.6816075 6.75432178,20.6951385 8.05255026,22.3256516 C8.35854427,22.7099655 9.4916475,24.0612031 9.67610892,24.3362745 C9.8126263,24.539851 9.92112415,24.741686 10.0271025,24.9902571 C10.1205275,25.2093846 10.2148485,25.471003 10.3351147,25.8404608 C10.4818066,26.2910981 10.6738987,26.7329505 10.9004928,27.1599968 C11.093442,27.5236351 11.3002452,27.8560875 11.5067555,28.1499263 C11.6297282,28.3249013 11.7242972,28.446985 11.7762536,28.508917 C11.8724951,28.6236369 11.8575154,28.7946548 11.7427956,28.8908963 C11.6280757,28.9871378 11.4570578,28.9721581 11.3608163,28.8574383 C11.299329,28.7841455 11.1953718,28.6499422 11.0630964,28.4617305 C10.8441931,28.150258 10.6255828,27.7988246 10.4214794,27.414165 C10.2640603,27.117488 10.1221094,26.8135893 9.99882176,26.5039023 C9.8090445,26.8810607 9.60469905,27.5876925 9.40026747,28.6948308 C9.3730772,28.8420848 9.23166214,28.9394158 9.08440808,28.9122255 C8.93715402,28.8850352 8.83982308,28.7436202 8.86701334,28.5963661 C8.90179109,28.4080205 8.93654903,28.2303614 8.97133408,28.063015 Z M9.09318324,27.5191641 C9.31408731,26.6092268 9.53826806,26.0947237 9.77761625,25.8809588 C9.68162248,25.59198 9.60366318,25.3797444 9.52827863,25.2029307 C9.43536883,24.9850116 9.34295892,24.8131045 9.22573234,24.6382947 C9.06030985,24.3916144 7.95202766,23.0699762 7.62832615,22.6634225 C6.25302558,20.9361105 5.89409952,19.8172249 5.78030639,17.9249553 C5.743336,17.3101735 5.81851762,16.7390394 5.98798144,16.2830543 C5.86879414,16.3387139 5.74368705,16.4169517 5.61853019,16.523195 C5.54315317,16.5871812 5.4707789,16.6598356 5.40174169,16.7418518 C5.22119482,16.9561609 5.08561261,17.5620175 5.01825018,18.3988693 C4.97017843,18.9960707 4.95963453,19.6288375 4.97039714,20.1834911 C4.97167367,20.2492776 4.97294096,20.2960979 4.97378622,20.3211621 C5.29529268,20.3714717 5.55590838,20.5229799 5.69812279,20.8074087 C5.80656075,21.0241221 5.92462989,21.316595 6.07898459,21.7390665 C6.15795539,21.955211 6.44755895,22.7738954 6.49848953,22.9152882 C6.77370859,23.6793474 6.98169328,24.1920199 7.18661583,24.5796759 C7.37590246,24.9379184 7.88321794,26.2153043 7.98057584,26.6041529 C8.12514719,27.1815726 8.4563543,27.5496037 9.09318324,27.5191641 Z M9.19301882,16.9480072 C9.317798,17.1262942 9.45100031,17.3210753 9.59411682,17.5334966 C10.1430027,18.3481827 10.3838479,18.6594957 10.6608618,18.9458562 C11.034944,19.3296102 11.134602,19.4388023 11.4450689,19.8270928 C12.1992658,20.7703418 13.2442116,22.379428 14.1137805,23.8475079 C14.237923,24.0569105 14.2959848,24.1222758 15.032384,24.9130808 C15.1279111,25.0156656 15.2065794,25.1012682 15.2806475,25.1835884 C15.5566657,25.4903588 15.7552268,25.7375302 15.8993064,25.9657524 C16.0497134,26.203997 16.1573969,26.5044911 16.2316844,26.8541085 C16.3278882,27.3068705 16.3572362,27.7673054 16.3519039,28.129802 C16.3554835,28.2198057 16.3617727,28.3875496 16.3680395,28.6294981 C16.3845728,29.2678151 16.3901636,30.0056617 16.3799988,30.8296132 C16.407366,30.7038709 16.4344276,30.5768147 16.4611068,30.4486147 C16.6680398,29.454252 16.8323975,28.48437 16.9383295,27.5746494 C16.9837588,27.1845129 17.0178497,26.8097712 17.0397749,26.452384 C17.1575044,24.5333563 17.1109048,22.7481259 16.9567846,20.9673583 C16.9268455,20.621429 16.9063771,20.4141726 16.8545904,19.9120911 C16.7619027,19.0134667 16.7410184,17.8526743 16.7410184,15.5089785 C16.7410184,14.3437471 16.628062,12.1373436 16.4737993,9.83654982 C16.3792507,8.42637919 16.3294166,7.99479497 16.0728195,6.24172356 C15.7667645,4.15075576 15.3168654,3.21575282 14.3421735,3.26705239 C13.6048011,3.30586147 13.4866253,3.92567233 13.5645394,6.63851323 C13.5840859,7.31908694 13.592173,7.71985267 13.592173,8.17864556 C13.592173,8.74981098 13.5934951,9.21976926 13.5961475,9.78214497 C13.6015799,10.9339594 13.6017238,11.0051695 13.5969039,11.3687571 C13.5907059,11.8363086 13.5743025,12.3032257 13.5369796,13.0758332 C13.5160408,13.5092803 13.5034676,14.0098018 13.4983375,14.5641335 C13.4910567,15.3508417 13.498896,16.1946008 13.5164236,17.0226026 C13.5209628,17.2370349 13.5258256,17.4337133 13.5306869,17.6083152 C13.5336,17.7129421 13.5358618,17.7868628 13.5371474,17.8257576 C13.5420941,17.9754192 13.4247795,18.100754 13.2751179,18.1057007 C13.1254563,18.1106474 13.0001215,17.9933328 12.9951748,17.8436712 C12.9938589,17.8038617 12.9915684,17.7290037 12.9886283,17.6234074 C12.9837345,17.4476372 12.9788421,17.2497587 12.9742764,17.0340791 C12.9566417,16.2010133 12.9487538,15.3520331 12.9560921,14.5591152 C12.9612828,13.998239 12.9740266,13.4909218 12.9953426,13.0496679 C13.0323855,12.2828563 13.0485813,11.8218482 13.0546829,11.3615692 C13.0594385,11.0028348 13.0592949,10.9317538 13.0538849,9.78470252 C13.0512568,9.227474 13.0499324,8.76069559 13.0499048,8.19670637 C13.0496319,8.19257107 13.0494514,8.18840968 13.0493653,8.18422418 C13.047958,8.11584182 13.047958,8.11584182 13.0415275,7.80796033 C13.0352492,7.50862034 13.0281723,7.17506623 13.0204493,6.81585272 C12.9983838,5.78954087 12.9755628,4.76323456 12.9532063,3.80538561 C12.8912396,1.15233848 12.6319544,0.491379118 11.4317227,0.545935107 C10.8645673,0.571714897 10.5060601,0.984518955 10.3094625,1.70533278 C10.1900831,2.14303059 10.153365,2.60234283 10.1614439,2.96083035 C10.1618008,2.9741513 10.112237,4.134644 10.0127527,6.44230845 C10.009186,6.50431444 10.0016803,6.61966857 9.98979167,6.78109968 C9.97002565,7.04949523 9.94498992,7.34938934 9.91423727,7.67352297 C9.82634564,8.5999026 9.71021941,9.53566726 9.56213084,10.4231465 C9.41649365,11.2959349 9.31599264,12.1273272 9.25255334,12.8891529 C9.23038191,13.1554036 9.21442948,13.3937712 9.20367969,13.600742 C9.19727049,13.7241414 9.19402724,13.809146 9.19301882,13.8453526 L9.19301882,16.9480072 Z"></path>
                </g>
            </g>
            <g id="slices"></g>
        </g>
    </g>
</svg>