<?xml version="1.0" encoding="UTF-8"?>
<svg width="50px" height="50px" viewBox="0 0 50 50" version="1.1" xmlns="http://www.w3.org/2000/svg" xmlns:xlink="http://www.w3.org/1999/xlink">
    <!-- Generator: Sketch 49.1 (51147) - http://www.bohemiancoding.com/sketch -->
    <title>v</title>
    <desc>Created with Sketch.</desc>
    <defs></defs>
    <g id="Finger" stroke="none" stroke-width="1" fill="none" fill-rule="evenodd">
        <g id="Finger-Alphabet" transform="translate(-1200.000000, 0.000000)">
            <g id="letters" transform="translate(11.000000, 0.000000)" fill="#000000" fill-rule="nonzero">
                <g id="v" transform="translate(1203.000000, 0.000000)">
                    <path d="M4.91831989,21.7369906 C4.91807822,21.7361507 4.91783533,21.7353117 4.91759121,21.7344736 C4.91774435,21.7349964 4.91801754,21.7359398 4.91831989,21.7369906 Z M3.25116793,21.1975766 C2.73815858,21.2702547 2.40026437,21.634331 1.94851864,22.4671971 C1.91499104,22.5290106 1.76795412,22.8046324 1.72824298,22.8775734 C1.65353146,23.0148027 1.59103866,23.1240181 1.52881277,23.2242487 C0.985442424,24.0990814 0.453241292,28.0776386 0.539952373,31.8107642 C0.583084568,33.6677115 0.922655674,35.4185657 1.47491386,37.0259849 C1.85220931,38.1241524 2.28503065,39.0315061 2.65731587,39.6468261 C2.72384769,39.7567911 2.78407352,39.8727365 2.83837191,39.9939101 C2.97370216,40.2959164 3.06710901,40.6167023 3.12688056,40.9370798 C3.16283652,41.1298049 3.17979687,41.2814521 3.18528744,41.3872489 L3.18528744,43.9621486 C3.18528744,44.1922007 3.11065483,46.3091152 2.99241159,49.5177293 C2.98701684,49.6641197 2.86397064,49.7784193 2.71758022,49.7730245 C2.5711898,49.7676298 2.45689023,49.6445836 2.46228498,49.4981932 C2.57924207,46.3244798 2.65480098,44.1812911 2.65480098,43.9621486 L2.65480098,42.7134702 C2.65480098,41.7188043 2.65480098,41.7188043 2.65521291,41.4020257 C2.65133005,41.3324365 2.63685571,41.2030175 2.60539216,41.0343718 C2.55279785,40.7524645 2.47083067,40.4709657 2.35426705,40.2108395 C2.30860756,40.1089447 2.25837157,40.0122315 2.2034372,39.921435 C1.06732005,38.0436393 0.0878801956,35.1928522 0.00960896188,31.8230828 C-0.079389078,27.9914979 0.463338709,23.9342469 1.07814686,22.9443985 C1.13419759,22.8541146 1.19203597,22.7530334 1.26233044,22.6239174 C1.30066615,22.5535028 1.44744089,22.2783724 1.48220925,22.2142713 C2.00914205,21.2427858 2.44195659,20.7764342 3.17675684,20.6723349 C4.37945078,20.501949 5.19514896,20.7812816 5.42803291,21.589992 C5.3949545,21.4751867 5.77806973,22.8939757 5.92634638,23.3686037 C6.1049625,23.9403471 6.28100867,24.3992609 6.4496143,24.7184268 C6.47359211,24.7559915 6.51422838,24.8221901 6.5660236,24.910877 C6.65198683,25.0580684 6.73792453,25.2152273 6.81838358,25.3764264 C6.89699102,25.5339158 6.96626684,25.6872153 7.02369884,25.8339131 C7.09305682,26.0110732 7.14383956,26.1751959 7.17303328,26.325216 C7.18711966,26.3979506 7.19819288,26.4741701 7.21302398,26.592677 C7.25731939,26.9466166 7.26403887,26.9940074 7.29632107,27.1408523 C7.43549784,27.7739378 7.7451236,28.0778684 8.48038818,28.0778684 C8.62687797,28.0778684 8.7456314,28.1966219 8.7456314,28.3431117 C8.7456314,28.4896014 8.62687797,28.6083549 8.48038818,28.6083549 C7.47160305,28.6083549 6.96685976,28.1128957 6.77820689,27.2547539 C6.74086917,27.0849125 6.73348308,27.0328203 6.68664371,26.6585533 C6.67318641,26.5510236 6.66347297,26.4841639 6.65226937,26.4263139 C6.62992259,26.3114791 6.58826349,26.1768427 6.52971976,26.0273053 C6.47853997,25.8965775 6.41567273,25.7574594 6.3437367,25.6133361 C6.2688726,25.4633465 6.18839264,25.3161685 6.10793821,25.1784095 C6.05988284,25.0961262 6.02285753,25.0358101 5.99179649,24.9855809 C5.79410294,24.6134602 5.60756205,24.127189 5.41999414,23.5267912 C5.26915266,23.0439533 4.88832793,21.6342108 4.91749994,21.7341591 C4.776056,21.2485433 4.22297037,21.0599012 3.25116793,21.1975766 Z M7.77556446,17.2451056 C7.32143868,16.6543062 6.96389944,16.4909331 6.62536444,16.5982224 C6.45356427,16.6526698 6.30065361,16.7630782 6.17238201,16.9334419 C6.15834772,16.9684331 6.13665287,17.0008765 6.10753211,17.0280952 C5.80976609,17.5050266 5.67120826,18.3585388 5.78080973,19.6504255 C5.84444159,20.3999048 6.0656875,21.1469857 6.41567544,21.8739358 C6.87818693,22.8352484 7.55273757,23.7184442 8.09545354,24.2134312 C8.85375514,24.9054745 9.50173162,26.0582632 9.40393723,26.7769235 C9.37029972,27.024115 9.27894163,27.4025246 9.14307346,27.8835686 C9.12016339,27.9646821 9.09617079,28.0480186 9.07121387,28.1332677 C8.99694764,28.3869497 8.91746152,28.6464653 8.83798155,28.8979637 C8.79027383,29.0489252 8.75311315,29.163842 8.73174978,29.2287551 C8.68595526,29.3679029 8.53602985,29.4435807 8.39688202,29.3977862 C8.25773418,29.3519917 8.18205637,29.2020663 8.2278509,29.0629184 C8.24859435,28.9998889 8.28512059,28.8869342 8.33215319,28.7381089 C8.41057377,28.4899628 8.48898821,28.2339461 8.56209582,27.9842217 C8.58659296,27.9005433 8.61012143,27.8188188 8.6325594,27.7393767 C8.76196629,27.2812091 8.84898904,26.9207567 8.87829522,26.7053948 C8.94709815,26.1997837 8.38049146,25.1917566 7.73791337,24.6053252 C7.14660723,24.0660212 6.43062059,23.1285729 5.93766974,22.1039932 C5.56115297,21.3219409 5.32167316,20.5132896 5.25222354,19.6952866 C5.15736682,18.5771982 5.24373048,17.7171519 5.48194616,17.1112629 C5.35389025,17.1551105 5.18522163,17.2261585 4.9716915,17.334502 C4.73523742,17.4544768 4.61495788,18.0569283 4.65588517,18.9555944 C4.67253682,19.321225 4.71330743,19.7140468 4.77085795,20.112917 C4.79791079,20.3004143 4.82689548,20.4768111 4.85584835,20.6367055 C4.8731264,20.7321248 4.88646087,20.8004004 4.89388425,20.8361698 C4.92365167,20.9796032 4.83150712,21.1200103 4.68807366,21.1497777 C4.54464019,21.1795451 4.40423313,21.0874006 4.37446572,20.9439671 C4.36615889,20.9039409 4.35196548,20.8312673 4.33385054,20.7312262 C4.30381508,20.5653531 4.27381146,20.3827553 4.24580854,20.1886731 C4.18596474,19.7739087 4.14347039,19.3644788 4.125948,18.9797289 C4.07519712,17.8653602 4.22422961,17.1188921 4.73165736,16.8614274 C5.22470923,16.611257 5.57488855,16.5106923 5.81917567,16.5286738 C5.99874048,16.316876 6.21537216,16.1716681 6.46509743,16.0925245 C6.85539747,15.9688297 7.22486669,16.0341423 7.60684794,16.3226727 C7.5677343,16.0912781 7.52922161,15.8592527 7.49238684,15.6320591 C7.47791452,15.542795 7.46385921,15.4552342 7.45026114,15.3695801 C7.39423298,15.0166593 7.34700899,14.7027776 7.31058695,14.43795 C7.25460979,14.0309356 7.22977062,13.6650055 7.20036676,12.9487603 C7.14397427,11.5751021 7.11624009,11.0903832 7.01550506,10.0804805 C6.88894501,8.81167335 6.81514728,8.30856262 6.60660947,7.11076102 C6.5385604,6.71990007 6.49722395,6.46560189 6.45365904,6.15635177 C6.4087806,5.83886871 6.36833323,5.54367578 6.32619623,5.22803769 C6.29897957,5.02416425 6.27255821,4.82325495 6.22303125,4.44580572 C6.15589464,3.93715367 6.11272866,3.62120145 6.06167124,3.2667691 C6.04782219,3.17063121 6.03186076,3.06991334 5.9969036,2.85233576 C5.95312201,2.57621438 5.9271568,2.38789629 5.90891568,2.19335745 C5.7971584,1.0014824 6.10591984,0.246032944 7.12068033,0.0535908882 C8.88919197,-0.281794669 9.77146298,0.921282632 10.2856596,4.67481501 C10.5439774,6.56048255 10.6643428,7.09799659 11.2133519,9.17551845 C11.4612559,10.1136191 11.6020472,10.7830721 11.7306706,11.7439164 C12.0301658,13.9812087 12.173893,15.752853 12.173893,16.5400795 C12.173893,17.1400781 12.3429536,17.3678715 13.157802,17.3678715 C13.8745098,17.3678715 14.0876175,17.1929915 14.3481508,16.5211616 C14.3822472,16.4332383 14.5312391,16.0258354 14.5755078,15.9104802 C14.7213648,15.5304068 15.3738289,13.7146391 15.3748426,13.7118625 C15.4686841,13.4548218 15.554505,13.2235734 15.6366146,13.0071751 C15.7965405,12.5856932 15.9405335,12.2255793 16.0739555,11.9169488 C16.5332303,10.8545586 17.0925547,9.07935879 17.4560608,7.61081157 C17.4709852,7.55051781 17.48633,7.4828006 17.502619,7.40572786 C17.498646,7.42452647 17.7346853,6.17979537 17.8316108,5.77562695 C18.278554,3.91192558 19.0104113,2.96024399 20.3527773,3.3128729 C21.5363823,3.62413599 21.8322547,4.81507467 21.5668762,6.63777839 C21.5058668,7.05681031 21.4185268,7.49214297 21.2983998,8.00568528 C21.299588,8.00060557 21.0255908,9.12326598 20.9867552,9.327283 C20.9279709,9.63595774 20.6518528,11.4696696 20.5587287,12.0165283 C20.3213592,13.41045 20.0497896,14.6299318 19.6902885,15.7953807 C19.6392836,15.9607308 19.5867816,16.123837 19.5327189,16.2847114 C19.3944068,16.6962867 19.2632932,17.0778169 19.1086939,17.5210177 C19.0961012,17.5571182 18.8358188,18.3004983 18.7707906,18.4885227 C18.5424394,19.1487831 18.4149427,19.5548829 18.3141688,19.9600709 C18.2037096,20.4042018 18.1296337,20.8410044 18.0756044,21.3760734 C18.0247617,21.8797582 17.970684,22.3071154 17.8244096,23.4034952 C17.5720819,25.2956782 17.4882989,26.0984322 17.5135281,26.6569028 C17.5576575,27.6337515 16.7886505,31.0121246 15.9733045,33.8437882 C15.9460657,33.9383872 15.870758,34.0061107 15.7815673,34.0280584 C15.5860751,35.652408 15.2172417,36.9090542 14.8137638,37.6734862 C14.578005,38.1201562 14.5268878,39.1235852 14.5992371,42.304614 C14.6366674,43.9503334 14.7075114,46.6108435 14.794637,49.7273424 C14.7987307,49.873775 14.6833423,49.9958007 14.5369097,49.9998944 C14.3904771,50.0039881 14.2684514,49.8885996 14.2643577,49.742167 C14.1772066,46.6247559 14.1063459,43.9636166 14.0688878,42.3166763 C13.9934782,39.0010923 14.0447858,37.9939252 14.3446167,37.4258637 C14.8623429,36.4449763 15.3336427,34.5310216 15.3915206,32.0055524 C15.397369,31.7503625 15.4042728,31.5002579 15.4136691,31.1920169 C15.5029942,28.2617734 15.4463621,27.7812667 14.7614668,26.9567159 C14.6809559,26.8597882 14.5908744,26.7619566 14.4899998,26.6619202 C13.9099664,26.0867061 13.2572657,25.2806513 12.5636966,24.3184423 C12.1000561,23.6752201 11.7128752,23.0986031 11.319052,22.4884769 C11.2897932,22.4431915 11.2616307,22.397022 11.2341319,22.3494229 C11.1625721,22.2255566 11.1037765,22.1086006 11.0169194,21.9235604 C10.6804788,21.2068083 10.5144681,20.9355996 10.0298544,20.441556 C9.63417637,20.0381786 9.29496568,19.6293499 9.01186808,19.2355576 C8.91235972,19.0971403 8.82682848,18.9702204 8.75524607,18.8573501 C8.71153836,18.7884322 8.68175545,18.7387044 8.66143963,18.7025675 C8.35313764,18.1119364 8.08334979,17.6626404 7.84098216,17.3322627 C7.81376353,17.3083938 7.79129283,17.2788774 7.77556446,17.2451056 Z M15.9216367,32.0276975 C16.5275283,29.7131065 17.016006,27.3985775 16.9835821,26.6808433 C16.9562554,26.0759407 17.0405409,25.2683712 17.2897476,23.3995746 C17.4440279,22.2431739 17.4977508,21.8186205 17.547801,21.322787 C17.6043046,20.7632134 17.6826048,20.3015016 17.7993654,19.8320347 C17.9048013,19.4081016 18.0363454,18.9891102 18.2694412,18.315131 C18.3348611,18.1259743 18.5955149,17.3815333 18.6078065,17.346296 C18.7617888,16.9048638 18.8922707,16.5251719 19.0298674,16.1157254 C19.0825057,15.9590896 19.1336542,15.8001883 19.183371,15.639014 C19.5351486,14.4986035 19.8019656,13.3004632 20.0357706,11.9274742 C20.127317,11.3898796 20.4045288,9.54890444 20.4656304,9.22806192 C20.5074446,9.00839754 20.7864805,7.86509149 20.7818572,7.88485638 C20.8988397,7.38475694 20.9834179,6.9631896 21.0419246,6.56134748 C21.2722757,4.97922341 21.0394281,4.04197103 20.2179268,3.82593353 C19.2810869,3.57983312 18.7327141,4.29291797 18.3474708,5.89933781 C18.2541009,6.28867939 18.0200106,7.52313316 18.0216405,7.5154211 C18.0041735,7.59806748 17.9875176,7.67157059 17.9710064,7.73827485 C17.6010521,9.2328726 17.0334686,11.0342854 16.5608891,12.1274518 C16.431063,12.4277643 16.2899003,12.7807999 16.1325972,13.1953694 C16.0513488,13.4094982 15.9662839,13.6387093 15.8731581,13.8937896 C15.8740576,13.8913258 15.2190327,15.7142202 15.0707768,16.1005446 C15.0286371,16.2103521 14.8792162,16.618928 14.842749,16.7129651 C14.5086801,17.5744188 14.1139299,17.898358 13.157802,17.898358 C12.0098647,17.898358 11.6434065,17.4045898 11.6434065,16.5400795 C11.6434065,15.7794015 11.5014916,14.0300957 11.2048743,11.8143022 C11.0795056,10.8777714 10.943119,10.2292623 10.7004716,9.31105302 C10.1463521,7.21419324 10.0220394,6.65905163 9.76008184,4.74681395 C9.28151884,1.25340018 8.59286572,0.314342991 7.2195216,0.57478786 C6.54689953,0.702345815 6.3476373,1.18988255 6.43708537,2.14383312 C6.45403011,2.32454627 6.47869179,2.50341024 6.52084473,2.76926005 C6.55562326,2.98565428 6.57226652,3.09067457 6.5867377,3.19113114 C6.63813435,3.54791844 6.68156645,3.86581852 6.73743463,4.28898894 C6.79854038,4.75427052 6.8248813,4.95456819 6.85201787,5.15784165 C6.89398262,5.47218946 6.93424682,5.76604558 6.97894118,6.08222664 C7.02157224,6.38484751 7.0620846,6.63407596 7.12923442,7.01977178 C7.33979713,8.22920402 7.41532407,8.74410351 7.543372,10.0278272 C7.64543234,11.0510165 7.67360874,11.5434644 7.73040676,12.9270007 C7.75914937,13.6271385 7.78311792,13.9802427 7.83612645,14.365672 C7.8719835,14.6263915 7.91868862,14.9368244 7.97418634,15.286404 C7.98769101,15.3714697 8.00165434,15.4584576 8.01603564,15.5471602 C8.07314794,15.8994239 8.13436378,16.2636518 8.19558181,16.6189949 C8.22494497,16.7894349 8.24908258,16.9276481 8.26590241,17.0230081 C8.53599719,17.3879382 8.81985983,17.8599025 9.12727569,18.4489407 C9.17788436,18.5381418 9.28305712,18.7039771 9.44260042,18.9259038 C9.7105994,19.2986936 10.0327046,19.6869062 10.4085618,20.070077 C10.9441435,20.6160804 11.1374532,20.9318871 11.4971338,21.6981497 C11.5780981,21.8706357 11.6311802,21.9762266 11.6934735,22.084053 C11.716658,22.1241842 11.7402459,22.1628542 11.7646907,22.2006887 C12.1540735,22.8039357 12.536669,23.3737238 12.9940393,24.0082472 C13.6719914,24.9487901 14.3083722,25.7346907 14.8635423,26.285248 C14.9761938,26.3969636 15.0777948,26.5073057 15.1695402,26.6177586 C15.9726747,27.5846586 16.0375804,28.1353652 15.9439093,31.2081806 C15.9345503,31.5151948 15.9276812,31.7640437 15.9218678,32.0177067 C15.9217915,32.021038 15.9217145,32.0243682 15.9216367,32.0276975 Z M1.78097998,24.0628531 C1.71059534,23.9343803 1.7576851,23.7731745 1.8861579,23.7027899 C2.0146307,23.6324052 2.17583651,23.679495 2.24622115,23.8079678 C2.29475654,23.8965592 2.38270006,24.0529379 2.49988664,24.2543813 C2.69521731,24.5901541 2.89959165,24.925834 3.10262737,25.2384415 C3.21391372,25.4097855 3.32183883,25.569529 3.42534743,25.71543 C3.57230821,25.9225791 3.70820285,26.0987628 3.83013869,26.2387196 C4.12101748,26.5725876 4.29872343,26.8610134 4.42877497,27.1884706 C4.47361393,27.3013708 4.51111943,27.4126422 4.55987987,27.5716229 C4.73500473,28.1426077 4.74701253,28.1790197 4.86638295,28.4587924 C5.40774258,29.7275961 5.9351785,30.1989849 6.93694476,29.911079 C7.38039865,29.7836311 7.50047307,29.4691242 7.38545321,28.9203293 C7.34280276,28.716831 7.26892581,28.4969124 7.16700924,28.2533273 C7.11425216,28.1272356 6.90710412,27.6819053 6.88613156,27.6140903 C6.84285048,27.4741403 6.92121613,27.3256021 7.06116614,27.282321 C7.20111616,27.2390399 7.34965431,27.3174056 7.39293539,27.4573556 C7.40135658,27.4845856 7.59096376,27.8922062 7.65638694,28.0485705 C7.77019108,28.3205674 7.85413897,28.5704654 7.90465881,28.811511 C8.07035091,29.6020787 7.84082604,30.2032654 7.08347421,30.420927 C5.74370887,30.8059733 5.01212147,30.1521268 4.37845356,28.6669769 C4.30372436,28.4918314 4.24180383,28.3256167 4.18323881,28.1480264 C4.16043047,28.0788632 4.13882204,28.0102332 4.11339281,27.926987 C4.10443575,27.8976648 4.0636796,27.7629348 4.05271175,27.7271747 C4.00776837,27.5806393 3.97430506,27.4813603 3.93574861,27.3842789 C3.82818078,27.1134335 3.68216172,26.8764371 3.43016234,26.5871946 C3.29531222,26.4324148 3.14908299,26.2428327 2.99268431,26.0223803 C2.88471283,25.8701886 2.77278078,25.7045143 2.65774092,25.5273912 C2.44946458,25.2067149 2.24073178,24.8638763 2.04134488,24.5211308 C1.97159565,24.4012321 1.90796707,24.2898591 1.85170873,24.1898221 C1.81782306,24.1295676 1.79382853,24.0863055 1.78097998,24.0628531 Z"></path>
                </g>
            </g>
            <g id="slices"></g>
        </g>
    </g>
</svg>