<?xml version="1.0" encoding="UTF-8"?>
<svg width="50px" height="50px" viewBox="0 0 50 50" version="1.1" xmlns="http://www.w3.org/2000/svg" xmlns:xlink="http://www.w3.org/1999/xlink">
    <!-- Generator: Sketch 49.1 (51147) - http://www.bohemiancoding.com/sketch -->
    <title>w</title>
    <desc>Created with Sketch.</desc>
    <defs></defs>
    <g id="Finger" stroke="none" stroke-width="1" fill="none" fill-rule="evenodd">
        <g id="Finger-Alphabet" transform="translate(-1250.000000, 0.000000)">
            <g id="letters" transform="translate(11.000000, 0.000000)" fill="#000000" fill-rule="nonzero">
                <g id="w" transform="translate(1253.000000, 0.000000)">
                    <path d="M9.00937523,16.6655914 L9.23123323,13.4156265 C9.23375785,13.3707659 9.23931783,13.2881305 9.24852124,13.1727456 C9.2637814,12.9814263 9.28390128,12.7674592 9.30949543,12.535854 C9.38265044,11.8738636 9.48509449,11.2020671 9.62200747,10.5600681 C9.96944627,8.9308919 10.1939296,7.38078208 10.1939296,6.43562145 C10.1939296,5.97888102 10.2395357,5.4791427 10.3881204,4.11502127 C10.3922455,4.07714553 10.3922455,4.07714553 10.3963673,4.03927207 C10.5285107,2.82472959 10.5790596,2.24959663 10.5790596,1.79727344 C10.5790596,0.635249095 11.2870115,0 12.2420313,0 C13.4539175,0 14.2513119,0.938152371 14.2513119,3.24200479 C14.2513119,6.96483192 14.1647774,9.85682693 13.9038114,12.6587052 C13.8204343,13.5538884 13.7379301,14.2197751 13.648712,14.7644016 C13.6144226,14.9737191 13.5806083,15.1573782 13.5398426,15.361609 C13.5309031,15.4063945 13.4649906,15.7289395 13.4478015,15.8176901 C13.3627119,16.2570256 13.3195399,16.6374604 13.2921408,17.3058615 C13.7907879,17.1103077 14.1310205,16.8513454 14.2577669,16.5390873 C14.3142081,16.3999553 14.3725093,16.2384892 14.4347963,16.0501321 C14.558971,15.6746254 15.0099485,14.1176939 15.0522064,13.9787648 C15.2721197,13.2557657 15.4693678,12.6971476 15.6865341,12.2147877 C15.8158829,11.9274843 15.9431115,11.6262533 16.0708167,11.3065761 C16.2602722,10.8323228 16.4416526,10.3422075 16.6613706,9.72028826 C16.6926922,9.63163141 17.0744589,8.53853666 17.1808033,8.24297236 C17.2639505,8.01188028 17.7014034,6.30545935 17.8436347,5.8327161 C18.4752352,3.73342495 19.2013876,2.65456878 20.3280065,2.97611869 C21.2397995,3.23635482 21.6250243,3.9487184 21.6060326,5.06877339 C21.5927925,5.84962706 21.5119883,6.25902371 20.9897552,8.52868842 C20.9593495,8.66083385 20.9324781,8.77869323 20.907003,8.8918618 C20.8211914,9.27306311 20.7405043,9.64381415 20.6433543,10.1000437 C20.6275627,10.1742033 20.4587995,10.9711991 20.4103369,11.1970296 C20.3465585,11.4942299 20.2911492,11.7465937 20.236251,11.9885209 C19.9028154,13.4579146 19.5474402,14.6940519 18.9718948,16.3001487 C18.783279,16.8264935 18.3241943,18.090049 18.3360756,18.057095 C18.1695441,18.5189892 18.0840757,18.7709389 18.0241215,18.9816732 C17.9160025,19.3617031 17.9077279,19.4330457 17.8319764,20.4687722 C17.7101059,22.1350709 17.64256,24.2624278 17.6785533,25.5518911 C17.6860924,26.0443472 17.6687346,26.42435 17.6290991,26.9013993 C17.6278862,26.9159985 17.6264397,26.93286 17.6247875,26.951707 C17.6244264,26.9599225 17.623704,26.9680506 17.6226352,26.9760758 C17.5894072,27.3497703 17.4912388,28.348848 17.497466,28.2831007 C17.4107926,29.1982004 17.3585848,29.9610916 17.3322314,30.8527542 C17.2612792,33.2534054 16.9557796,34.8593076 16.4525877,35.80579 C16.0472047,36.5666084 16.0391748,36.863741 16.3684123,41.1647161 C16.5024906,42.9162397 16.7001817,44.4369019 16.9628682,45.907016 C17.1029076,46.6907408 17.607269,49.0820257 17.6756709,49.5433559 C17.6980683,49.6944133 17.5937688,49.8350261 17.4427115,49.8574235 C17.2916542,49.8798209 17.1510414,49.7755214 17.1286439,49.6244641 C17.063221,49.1832248 16.5612456,46.8032524 16.4184833,46.0042891 C16.1526219,44.5164069 15.9525492,42.977425 15.8170183,41.206925 C15.4780716,36.7791143 15.4871922,36.4416203 15.9644176,35.5459691 C16.4197858,34.6894408 16.7108006,33.1596802 16.7794656,30.836417 C16.8062126,29.9314384 16.8592048,29.1570831 16.9469228,28.2309561 C16.9410718,28.2927307 17.03822,27.3040324 17.0713329,26.9324092 C17.0353609,26.3102701 16.6172902,25.8131916 15.681805,25.1115932 C15.5913515,25.0437546 15.2801701,24.8141871 15.2714369,24.8077043 C15.108758,24.6869442 14.9894414,24.5956172 14.8788863,24.5059436 C14.1520002,23.9157706 13.4775532,23.2455143 12.836762,22.4647621 C12.6934877,22.2901939 12.504839,22.070995 12.2426613,21.7729407 C12.0914155,21.6009983 11.5254817,20.9625335 11.4983278,20.9318167 C11.4594586,20.8878364 11.4594586,20.8878364 11.4206022,20.8438203 C10.7651031,20.1010407 10.3606807,19.6228674 10.0931509,19.2597299 C9.9751748,19.0995925 9.33964561,18.0695484 9.17048096,17.8153257 C8.75832642,17.1959347 8.39972389,16.7620917 8.07495057,16.5229913 C7.6652377,16.2213579 7.39968632,16.2678372 7.11729139,16.7771156 C6.88902654,17.1887743 6.7717663,17.6711743 6.75410239,18.212613 C6.73097502,18.9215195 6.87732644,19.6906839 7.13639742,20.4586302 C7.2210511,20.7095633 7.31173878,20.9418087 7.40224672,21.1492596 C7.45602456,21.2725224 7.49726979,21.3591385 7.51119706,21.3876209 C8.15323248,22.4671715 8.47224768,22.7798511 9.63803161,23.6864235 C10.2718306,24.1792976 10.6181745,24.5556149 10.9475782,25.205976 C11.2399012,25.7832971 11.6219082,26.3571842 12.0721388,26.91816 C12.4599056,27.4013074 12.8759593,27.8478276 13.2918773,28.2463031 C13.4372566,28.3855855 13.5720643,28.5087686 13.6927498,28.6144652 C13.7644076,28.6772232 13.8148924,28.7197767 13.8406566,28.7407516 C13.9590828,28.8371632 13.9769292,29.0113236 13.8805177,29.1297498 C13.7841061,29.248176 13.6099457,29.2660224 13.4915195,29.1696108 C13.4607341,29.1445482 13.4051882,29.0977287 13.328403,29.0304801 C13.2016836,28.9194989 13.0608116,28.7907746 12.909305,28.6456218 C12.4769776,28.2314251 12.044786,27.7675852 11.640857,27.2643001 C11.3037254,26.8442428 11.0021485,26.4159782 10.7440783,25.9820924 C10.6228635,26.2031957 10.501461,26.4630836 10.3873943,26.7605274 C9.96830643,27.8533536 9.75495428,29.150018 9.86013827,30.6346443 C9.87093044,30.7869712 9.75619388,30.9192053 9.60386699,30.9299975 C9.45154009,30.9407897 9.31930595,30.8260531 9.30851377,30.6737262 C9.1973971,29.1053626 9.42397152,27.7283388 9.87105296,26.5625157 C10.0009545,26.2237806 10.1405742,25.9281803 10.2808518,25.6770528 C10.342567,25.5665692 10.3952552,25.4805052 10.4355676,25.4193478 C10.1544348,24.8754249 9.860988,24.560346 9.29855264,24.1229679 C8.08236266,23.1771972 7.7220633,22.8240533 7.02735122,21.6548247 C6.99992885,21.6011866 6.95386112,21.5044431 6.89537944,21.3703988 C6.85661472,21.2815472 6.81787895,21.1885869 6.77957674,21.0918874 C6.27328568,21.1214398 5.77950657,21.0131816 5.30270299,20.7933357 C4.74895788,21.4165663 4.20652441,21.8274065 3.69031596,22.0615697 C3.31977925,22.2296531 3.02025909,22.2841788 2.81367383,22.2746646 C2.8008003,22.2739644 2.8008003,22.2739644 2.79342765,22.2733404 C2.64134109,22.2595697 2.52921396,22.1251158 2.54298469,21.9730292 C2.55663305,21.8222941 2.68882942,21.7108113 2.83924596,21.7222489 C2.96034001,21.727791 3.17278498,21.6890886 3.46186565,21.5579554 C3.88055249,21.36803 4.33184809,21.0332989 4.80436573,20.519993 C4.56848882,20.3699351 4.3374005,20.1934621 4.11168617,19.994013 C3.84465782,19.7580574 3.6045591,19.5059066 3.39447734,19.25357 C3.26760397,19.1011779 3.178013,18.9812558 3.12921186,18.9098019 C3.04308594,18.7836977 3.07549478,18.6116511 3.20159902,18.5255252 C3.32770327,18.4393993 3.49974981,18.4718081 3.58587573,18.5979124 C3.62525976,18.6555778 3.70447726,18.7616146 3.81947384,18.899741 C4.01250867,19.131602 4.23346434,19.3636488 4.47786633,19.5796109 C4.75756555,19.826763 5.04360161,20.0323834 5.33368552,20.1893371 C5.35467068,20.1972834 5.37494523,20.2079041 5.3940087,20.2212422 C5.78474986,20.4231499 6.18252112,20.5361978 6.58175995,20.5430466 C6.32239549,19.7480362 6.17675635,18.949635 6.20138924,18.1945813 C6.20596527,18.0543156 6.21647964,17.9169131 6.23314221,17.7825627 C6.1958157,17.7580321 6.14676407,17.7262925 6.08811103,17.6891202 C5.93615885,17.5928181 5.77674042,17.4965298 5.61801487,17.4069698 C5.52416025,17.3540129 5.43329921,17.3049995 5.34647018,17.2607398 C5.13741939,17.1541796 4.95907441,17.0790105 4.82620465,17.0432508 C4.23534923,16.8842322 3.25255265,16.87002 2.49589654,17.0455571 C2.14842027,17.1264104 1.87268532,17.6734086 1.67612226,18.6136686 C1.63615859,18.8048349 1.60025594,19.0055009 1.56187028,19.2449008 C1.54365379,19.3585115 1.48541168,19.7386916 1.47384745,19.8109775 C1.44139313,20.0138437 1.38397387,20.2835797 1.29127156,20.6797851 C1.24721756,20.8680699 1.06269438,21.6371389 1.02109148,21.8135188 C0.97517139,22.008202 0.934759264,22.1829245 0.89727987,22.3495158 C0.671322529,23.3538684 0.553007214,24.0667265 0.553007214,24.5321742 C0.553007214,24.8540925 0.593934932,25.244147 0.681569656,25.8107316 C0.721838507,26.0710816 0.919886065,27.2461908 0.971397008,27.5712496 C1.13820982,28.6239188 1.25174648,29.5478464 1.32256849,30.5451187 C1.41085066,31.7845323 1.96644993,33.542771 2.83533079,35.5693979 C3.41872336,36.9301357 4.15460226,38.4084542 4.46868946,38.9402905 C4.70656687,39.3423927 4.88510187,42.7536115 5.06412152,49.7163877 C5.06804651,49.869046 4.94747436,49.9959818 4.79481608,49.9999068 C4.64215781,50.0038318 4.51522199,49.8832597 4.511297,49.7306014 C4.34264791,43.1711769 4.14985046,39.4874494 3.99262609,39.221681 C3.66562676,38.6679811 2.91932397,37.1687219 2.3270666,35.7873073 C1.43549609,33.7077578 0.864788671,31.9017081 0.770954657,30.5843508 C0.701380097,29.6046443 0.589710658,28.6959117 0.425205159,27.6578028 C0.374323606,27.3367156 0.176046172,26.1602426 0.13506098,25.8952611 C0.0434407444,25.3029091 0,24.8889046 0,24.5321742 C0,24.0126409 0.122969069,23.2717437 0.357758107,22.2281352 C0.395694272,22.0595137 0.436524681,21.8829827 0.482854063,21.6865643 C0.524829048,21.5086068 0.709194835,20.7401939 0.75280695,20.5537977 C0.842667929,20.169736 0.897992033,19.9098422 0.927783873,19.7236188 C0.938957241,19.6537761 0.997219081,19.2734672 1.01583758,19.1573493 C1.05548618,18.9100728 1.09283019,18.7013508 1.13481681,18.5005077 C1.37496616,17.3517526 1.72511839,16.6571267 2.37074496,16.5068976 C2.89711197,16.3847854 3.51283267,16.3447852 4.06651424,16.3761863 C4.06461774,16.1909584 4.06272712,15.9864198 4.06095694,15.7674302 C4.05591736,15.1439808 4.05278168,14.5222821 4.05248118,13.9417381 C4.05205775,13.1237052 4.05732475,12.4528893 4.06952966,11.9793078 C4.08065349,11.547675 4.08601839,11.1379818 4.08667246,10.7060472 C4.08718816,10.3654873 4.08486853,10.0123044 4.07966265,9.56615466 C4.07650937,9.29591442 4.06154386,8.20565338 4.06217906,8.25367782 C4.05827415,7.9584502 4.05506356,7.69459185 4.0521999,7.42708161 C4.02207818,4.61324933 4.25243145,3.65561182 5.48499325,3.57440789 C7.05557173,3.47087938 7.62392147,4.65408706 7.58824219,8.45293417 C7.57135224,10.2512427 7.69470073,11.5230576 7.96918456,13.0710573 C8.00057991,13.2481169 8.10540761,13.8209192 8.11854441,13.894003 C8.1748814,14.2074222 8.21471839,14.4464507 8.24825254,14.6798626 C8.31421293,15.1389748 8.35074475,15.550428 8.35846828,15.9730962 C8.35889502,15.9964494 8.3564138,16.0191791 8.35135787,16.0409398 C8.36849339,16.0527786 8.38564528,16.0650174 8.40281053,16.0776546 C8.60228171,16.2245066 8.80216834,16.4201188 9.00937523,16.6655914 Z M9.51754684,17.3412304 C9.55495309,17.3957156 9.59271854,17.4516272 9.63087572,17.5089703 C9.81118947,17.779948 10.4365179,18.7934591 10.538379,18.9317224 C10.792888,19.2771857 11.1907521,19.7476049 11.8352388,20.4779057 C11.8739273,20.5217317 11.8739273,20.5217317 11.9126526,20.5655492 C11.939191,20.5955695 12.5058171,21.2348155 12.6578873,21.4076952 C12.9239069,21.7101171 13.1160259,21.9333483 13.2642305,22.1139236 C13.8813729,22.8658617 14.5293755,23.5098379 15.2273552,24.0765412 C15.3304684,24.1601786 15.4441876,24.2472212 15.6010551,24.3636673 C15.6082435,24.3690034 15.921074,24.5997874 16.0136046,24.6691839 C16.4983984,25.0327712 16.8666291,25.3551877 17.1280225,25.6783111 C17.089348,24.2524671 17.1574497,22.1100762 17.2804424,20.4284339 C17.3592594,19.3507919 17.3696557,19.2611571 17.4922217,18.8303471 C17.5566701,18.6038159 17.6451918,18.3428655 17.8158477,17.8695319 C17.8043591,17.9013968 18.263189,16.6385424 18.4513041,16.1135949 C19.0190835,14.5291696 19.3683137,13.3144071 19.6969544,11.8661435 C19.7513196,11.6265656 19.8062823,11.3762355 19.8696396,11.0809974 C19.9179132,10.8560478 20.0865433,10.0596808 20.102474,9.98486807 C20.2000339,9.52671336 20.2811512,9.15398557 20.3674962,8.77041439 C20.3931806,8.65631668 20.4202411,8.53762762 20.45083,8.40468571 C21.3004476,4.71218367 21.3153549,3.83300939 20.1762326,3.50789089 C19.5044113,3.3161454 18.9146523,4.19235969 18.3731935,5.99204112 C18.2376662,6.44250185 17.7949035,8.16963539 17.7011537,8.43019513 C17.5958542,8.72285534 17.2148768,9.81369046 17.1827939,9.90450205 C16.9608023,10.5328567 16.7770306,11.0294339 16.5843628,11.5117283 C16.4538367,11.8384668 16.32355,12.1469382 16.1907925,12.4418131 C15.9851455,12.8985866 15.7949258,13.4373 15.5812804,14.1396923 C15.5416828,14.2698756 15.0878748,15.8365787 14.9598406,16.2237567 C14.8939989,16.4228632 14.8316981,16.5954061 14.7701927,16.7470218 C14.5685482,17.243802 14.0932791,17.5958433 13.4371125,17.8425554 C13.1467083,17.9517445 12.8382316,18.033141 12.5301307,18.0914081 C12.3450823,18.1264039 12.1998912,18.14611 12.1136988,18.1543569 C11.9616843,18.1689017 11.8266613,18.0574605 11.8121165,17.905446 C11.7975717,17.7534316 11.9090129,17.6184086 12.0610273,17.6038637 C12.1313897,17.5971314 12.2601694,17.5796529 12.4273692,17.5480325 C12.5357693,17.5275322 12.6441126,17.5038985 12.7511855,17.4769809 C12.7401005,17.4452742 12.7346467,17.4109998 12.7359821,17.375406 C12.7642182,16.622805 12.8104365,16.2001869 12.9048833,15.7125388 C12.9227199,15.620445 12.9890903,15.2956591 12.9975334,15.2533607 C13.0371212,15.0550309 13.0698013,14.877532 13.1029788,14.6750022 C13.1899814,14.1438997 13.2709348,13.4905304 13.3531874,12.6074202 C13.6122085,9.82642332 13.6983047,6.94907613 13.6983047,3.24200479 C13.6983047,1.22544331 13.1267591,0.553007214 12.2420313,0.553007214 C11.5798747,0.553007214 11.1320668,0.954827602 11.1320668,1.79727344 C11.1320668,2.27812028 11.0808449,2.86091093 10.9461301,4.09908681 C10.9420036,4.13700355 10.9420036,4.13700355 10.937876,4.17490249 C10.7922641,5.51173165 10.7469368,6.00841441 10.7469368,6.43562145 C10.7469368,7.42866871 10.5177493,9.01126177 10.1628526,10.6754089 C10.0301746,11.2975499 9.93042536,11.9516745 9.85915661,12.5965957 C9.83420245,12.8224096 9.81460579,13.0308126 9.79977766,13.2167154 C9.79092811,13.3276639 9.7856563,13.4060162 9.7831617,13.4499929 L9.51754684,17.3412304 Z M6.34998378,17.200448 C6.41937904,16.9567615 6.51341672,16.7257907 6.63365958,16.5089416 C6.94603562,15.9455945 7.35496642,15.7187711 7.80018947,15.7982221 C7.78687172,15.4631711 7.75398107,15.1282104 7.70086575,14.7585053 C7.66840872,14.5325906 7.6295486,14.2994235 7.57426019,13.9918379 C7.56138202,13.9201929 7.45639148,13.3465008 7.42467103,13.1676078 C7.14459749,11.588084 7.01802236,10.283 7.03525936,8.44774048 C7.06829889,4.92995359 6.64659861,4.05204519 5.52135746,4.1262182 C4.76552005,4.17601446 4.57874841,4.95247196 4.60517543,7.42116208 C4.60803366,7.68816515 4.61123875,7.95157098 4.61513791,8.24636396 C4.61449541,8.19778785 4.62947113,9.28879277 4.63263223,9.55970236 C4.63786418,10.0080875 4.64019892,10.3635693 4.63967904,10.7068846 C4.63901835,11.1431938 4.63359503,11.5573482 4.62235332,11.9935549 C4.61030193,12.4611791 4.6050672,13.1278858 4.60548832,13.9414518 C4.60578802,14.5204417 4.60891694,15.1408018 4.61394609,15.7629602 C4.61580151,15.9924956 4.61778942,16.2061147 4.61977717,16.3981817 C4.61990903,16.4109226 4.62003765,16.4232629 4.62016286,16.4351947 C4.74501025,16.4555717 4.86242428,16.4803138 4.96992313,16.5092452 C5.14694299,16.5568871 5.35724758,16.6455266 5.59761175,16.7680484 C5.69177226,16.8160452 5.78942777,16.8687237 5.88977069,16.9253416 C6.04551538,17.0132196 6.20091842,17.106642 6.34998378,17.200448 Z"></path>
                </g>
            </g>
            <g id="slices"></g>
        </g>
    </g>
</svg>