<?xml version="1.0" encoding="UTF-8"?>
<svg width="50px" height="50px" viewBox="0 0 50 50" version="1.1" xmlns="http://www.w3.org/2000/svg" xmlns:xlink="http://www.w3.org/1999/xlink">
    <!-- Generator: Sketch 49.1 (51147) - http://www.bohemiancoding.com/sketch -->
    <title>x</title>
    <desc>Created with Sketch.</desc>
    <defs></defs>
    <g id="Finger" stroke="none" stroke-width="1" fill="none" fill-rule="evenodd">
        <g id="Finger-Alphabet" transform="translate(-1300.000000, 0.000000)">
            <g id="letters" transform="translate(11.000000, 0.000000)" fill="#000000" fill-rule="nonzero">
                <g id="x" transform="translate(1303.000000, 0.000000)">
                    <path d="M16.557887,19.8607492 C16.5195868,19.8790929 16.4805472,19.8970489 16.4407922,19.9146247 C16.1698651,20.0344017 15.8821173,20.1285056 15.5946946,20.2004552 C15.5344369,20.2155393 15.4786842,20.228591 15.4281897,20.2397235 C15.5043212,21.0947197 15.4430641,21.734596 15.208953,22.1013713 C14.56767,23.106051 14.0205354,23.433976 13.1059928,23.5459254 C12.799042,23.5834993 12.5239602,23.5549911 12.2849221,23.4794082 C12.1812384,23.886766 11.9639015,24.2354748 11.6111365,24.5488 C10.1147235,25.8779115 7.33439592,25.5584082 7.00991578,23.6350817 C6.83361747,23.7449464 6.63515069,23.8349345 6.41813717,23.9066028 C5.93697872,24.0655043 5.4495524,24.1139756 5.06479982,24.1054642 C5.05501362,24.1052081 4.12410595,24.1050482 2.2720768,24.1049844 C2.11229708,24.1049844 1.98277002,23.9754574 1.98277002,23.8156776 C1.98277002,23.6558979 2.11229708,23.5263709 2.2720768,23.5263709 L5.06433961,23.5266257 C5.4022,23.534173 5.82936157,23.4916946 6.23668989,23.3571753 C6.68128563,23.2103485 7.00406744,22.9790706 7.17363775,22.6514019 C6.82146157,22.6525973 6.43587712,22.5754833 6.02111495,22.4313341 C5.55525945,22.2694276 5.06492482,22.0271118 4.56396227,21.7257619 C4.23444964,21.5275463 3.91980972,21.3155632 3.63024145,21.1035058 C3.45589831,20.9758303 3.32788377,20.8758733 3.25668474,20.8173735 C3.13323147,20.7159395 3.11538131,20.5336324 3.21681528,20.4101791 C3.31824926,20.2867258 3.50055639,20.2688757 3.62400965,20.3703096 C3.68729959,20.4223111 3.80694269,20.5157314 3.97210561,20.636684 C4.24838078,20.8390066 4.54879216,21.0414034 4.86221842,21.2299424 C5.33153144,21.5122538 5.78745207,21.7375628 6.21106518,21.8847881 C6.70940977,22.0579861 7.13971128,22.1143088 7.47968708,22.0415211 C7.63592612,22.0080708 7.78969971,22.1076107 7.82314999,22.2638498 C7.84714849,22.3759416 7.80269462,22.4867644 7.71796101,22.5527959 C7.7645604,22.6304764 7.77407345,22.7288019 7.73491196,22.8180709 C7.68045229,22.9422122 7.61345018,23.0564599 7.53494511,23.1612608 C7.54911137,23.1949265 7.55709649,23.2318537 7.55746711,23.2706364 C7.57300443,24.8964774 9.95643045,25.2446137 11.2268935,24.1161905 C11.5800874,23.8024844 11.7620201,23.5748817 11.7885643,23.1310325 C11.7757502,23.0806319 11.7765485,23.0271119 11.7917069,22.9764806 C11.7843948,22.4882596 11.6276326,21.7573785 11.3366472,20.4937833 C11.2564853,20.1456827 11.1917023,19.8400482 11.134565,19.532162 C10.9789545,18.6936496 10.6583279,18.1384457 10.2266929,17.8041206 C9.88064802,17.5360899 9.53190228,17.4496289 9.29421697,17.454901 C9.29397329,17.4549089 8.87323811,17.4570923 8.03201143,17.4614514 C2.7777986,17.4230532 1.96152123,17.5311151 1.23073839,18.2883111 C0.620808749,18.9202858 0.460366352,20.2467639 0.664353238,21.7071112 C0.712137563,22.0492004 0.758964228,22.4934269 0.804459693,23.0163558 C0.842858984,23.4577207 0.8781834,23.9301517 0.909651758,24.4025183 C0.920662333,24.5677964 0.930406154,24.7212842 0.938782845,24.8590704 C0.943815583,24.9418527 0.947269183,25.0009235 0.949531497,25.0491661 C0.949531497,27.7414361 1.17217946,29.6001564 1.56904843,31.0614992 C1.69669346,31.5315111 2.09974258,32.7131327 2.06472246,32.6007765 C2.66103293,34.5139392 3.36730963,37.5518345 3.36730963,38.8129364 C3.36730963,39.5131202 3.48726275,43.5487305 3.6823427,49.6271417 C3.68746802,49.7868392 3.56216251,49.9204545 3.402465,49.9255798 C3.2427675,49.9307051 3.10915221,49.8053996 3.10402689,49.6457021 C2.90834461,43.5485231 2.78869606,39.5231595 2.78869606,38.8129364 C2.78869606,37.6304291 2.09110159,34.6298785 1.51231989,32.7729539 C1.48639075,32.6897646 1.45657475,32.6004666 1.41269101,32.4733211 C1.41955346,32.4932038 1.32049195,32.207706 1.29087182,32.1208685 C1.1813935,31.7999102 1.09502889,31.523805 1.01066044,31.2131452 C0.59962301,29.6996316 0.370917926,27.7903449 0.371377409,25.0654649 C0.369639906,25.0346669 0.366215594,24.976097 0.361235601,24.8941823 C0.352924406,24.7574734 0.343251039,24.6050954 0.33231788,24.4409794 C0.301089855,23.9722204 0.2660448,23.5035256 0.228023594,23.0665065 C0.183322925,22.552713 0.137445175,22.1174885 0.0913032128,21.787157 C-0.135382917,20.1643052 0.0435151379,18.6852426 0.814399729,17.8864955 C1.16622905,17.5219498 1.51475896,17.2827783 2.13880256,17.1291547 C2.13875147,17.128512 2.13870043,17.1278664 2.13864944,17.1272178 C2.10913241,16.7516895 2.15607551,16.3173995 2.34363326,15.8960484 C2.59535138,15.3305602 3.06043302,14.9097913 3.76367426,14.706643 C4.16043567,14.5920438 4.60225468,14.4693029 5.20413397,14.3056049 C5.24418671,13.9305681 5.47636064,13.4077792 6.04463077,12.8993453 C6.21747246,12.7447031 6.41482214,12.6005144 6.6379229,12.4684876 C7.21597118,12.1264095 7.68579099,11.7573214 8.61328218,10.9581245 C8.74211345,10.8470643 8.80605434,10.7919726 8.87124087,10.7359717 C9.34727083,10.3270206 9.66205845,10.0684846 9.99268361,9.82333457 C9.97804246,9.77240272 9.96156688,9.71499947 9.94355248,9.65211456 C9.8655252,9.37973574 9.78749397,9.10511544 9.71463677,8.84558434 C9.70664622,8.81711137 9.70664622,8.81711137 9.6986603,8.78861727 C9.55390798,8.27195838 9.45073667,7.88977212 9.40428782,7.69172464 C9.40547642,7.69679256 9.25202622,7.11505285 9.19123538,6.85151691 C9.07573781,6.35082042 8.99812111,5.88386023 8.96876084,5.43918298 C8.910062,4.55015732 9.05082816,3.84322615 9.47052811,3.3750282 C9.98761479,2.79819008 10.3815881,2.49231652 11.2467295,1.92355062 C11.2778813,1.9030701 11.2778813,1.9030701 11.308956,1.8826242 C11.7037551,1.62276718 11.922031,1.46974476 12.1637254,1.27453006 C12.22184,1.22759138 12.2825141,1.17717061 12.3619815,1.11008471 C12.3788251,1.09586545 12.525458,0.971600201 12.5696187,0.934456305 C13.806969,-0.106286425 14.6879138,-0.338408285 15.9376827,0.547539962 C16.6243484,1.03431018 17.2721453,1.4887314 17.8612917,1.89837967 C18.0674503,2.04172693 18.2515348,2.16922672 18.4110732,2.27932667 C18.5067159,2.34533117 18.5729784,2.39090661 18.6031995,2.4116732 C18.6884978,2.46815831 18.8045147,2.56609652 18.9200707,2.70569987 C19.3927491,3.27674321 19.3927491,4.00100463 18.6454818,4.72994428 C17.9142261,5.44326514 16.4246028,5.58653402 15.12812,5.29787544 C15.0607886,5.46076995 14.9359999,5.66181495 14.7349658,5.86072505 C14.7449081,5.87985833 14.7528531,5.90041059 14.7584639,5.92218298 C14.7655583,5.94971217 14.7779781,6.00206512 14.7949545,6.08012269 C14.8227008,6.20769963 14.8534656,6.36274122 14.8864801,6.54612876 C14.9802091,7.06677038 15.0737063,7.71135982 15.1608179,8.48695122 C15.1664456,8.53723482 15.1664456,8.53723482 15.1720714,8.58822537 C15.174524,8.61053542 15.1743708,8.63253138 15.1718552,8.65390966 C15.1835714,8.66229599 15.1948752,8.67056602 15.205774,8.67871924 C15.7383636,8.48578262 16.3598826,8.72461909 16.7954295,9.22643371 C17.6987432,10.2671849 19.2524317,11.6168156 20.0771923,11.9754331 C21.3362653,12.5228957 22.2657186,13.621391 22.3064245,14.8970748 C22.3818961,17.2622797 22.5383351,20.4044581 22.6663128,21.3519846 C22.8039903,22.3713278 22.5791731,23.0598493 21.8695646,24.398005 C21.8310316,24.4706486 21.8310316,24.4706486 21.7927937,24.5428958 C21.4015142,25.2834899 21.0462549,26.4017599 20.0785473,29.7453138 C19.8441574,30.5551609 19.6018128,31.0018086 18.5517107,32.7352738 C17.400519,34.6356135 16.9468411,35.7082724 16.9468411,36.9843439 C16.9468411,38.3369643 17.3042691,42.4227934 18.0138109,49.6825306 C18.0293531,49.8415526 17.9130398,49.9830649 17.7540178,49.9986072 C17.5949958,50.0141494 17.4534835,49.8978361 17.4379412,49.7388141 C16.724556,42.4397529 16.3682275,38.3664918 16.3682275,36.9843439 C16.3682275,35.5688062 16.8529061,34.4228505 18.0568206,32.4354782 C19.0743042,30.7558582 19.3087878,30.3236985 19.5227445,29.5844507 C20.509336,26.1756505 20.8616174,25.0667542 21.2779092,24.2788169 C21.3198471,24.1995691 21.3198471,24.1995691 21.3583784,24.1269288 C22.0144589,22.8897144 22.209472,22.2924704 22.0929057,21.4294318 C21.9610837,20.4534417 21.8043839,17.3060278 21.7281053,14.9155284 C21.6954093,13.890869 20.9178691,12.9719155 19.8464699,12.5060561 C18.9236285,12.1047918 17.313765,10.7063639 16.3584539,9.60570404 C16.0491169,9.24930201 15.6387529,9.10589954 15.3529511,9.24376172 C15.3505922,9.24489957 15.3482386,9.24605552 15.3458904,9.24722958 C15.3458738,9.24724337 15.3458572,9.24725716 15.3458405,9.24727095 C15.3224825,9.26665427 15.2969796,9.28174326 15.2702902,9.29262706 C14.9433233,9.52381652 14.7397039,10.1480533 14.7707145,11.1972895 C14.8291861,13.1756624 15.3959265,14.2057104 16.8227886,15.6177788 C16.8857127,15.6800505 17.1046308,15.8952147 17.1425328,15.9326307 C17.2600776,16.0486686 17.39037,16.1386782 17.5330623,16.2045328 C17.5624553,16.2118452 17.5904393,16.2237172 17.6159939,16.2395655 C17.7545301,16.2928684 17.9039603,16.3251512 18.0639958,16.3379688 C18.4573866,16.3694762 18.8917857,16.2823324 19.3252668,16.1159423 C19.5507433,16.029394 19.7227431,15.9434876 19.8151891,15.8891288 C19.9529224,15.8081406 20.1302313,15.8541417 20.2112194,15.991875 C20.2922076,16.1296084 20.2462065,16.3069172 20.1084731,16.3879054 C19.990447,16.4573055 19.7907657,16.5570377 19.532615,16.6561278 C19.0253105,16.8508548 18.5102616,16.9541775 18.0178014,16.9147354 C17.9533021,16.9095695 17.8897594,16.9019439 17.8272371,16.8918096 C17.8871018,17.4032725 17.8737129,17.9783801 17.7466119,18.5846583 C17.6660311,18.9690329 17.434221,19.285473 17.0877677,19.5453083 C17.095851,19.612415 17.1160272,19.7030176 17.1546295,19.8186161 C17.2586109,20.1299991 17.4664669,20.5161741 17.8048946,20.9803063 C17.899032,21.1094097 17.8706864,21.2903822 17.741583,21.3845196 C17.6124795,21.4786571 17.431507,21.4503115 17.3373696,21.321208 C16.898166,20.7188682 16.6565392,20.2347369 16.557887,19.8607492 Z M16.6270171,19.160618 C16.6360058,19.1538419 16.645378,19.1475954 16.6550811,19.1419104 C16.9447431,18.94557 17.1273251,18.718673 17.1803089,18.4659378 C17.3068845,17.8621654 17.3068845,17.2920554 17.2312672,16.8020999 C17.2249045,16.7608737 17.2186105,16.7240843 17.2126574,16.6919746 C17.0408225,16.6031396 16.8812881,16.4877899 16.7360393,16.3444034 C16.6988494,16.3076903 16.4795813,16.0921822 16.4157846,16.0290468 C14.8928628,14.5219146 14.2558929,13.364225 14.1923535,11.2143832 C14.1622935,10.1973113 14.3408733,9.46167194 14.7035921,9.03435846 C14.4995259,8.91071445 14.1607161,8.73995079 13.646772,8.52995282 C13.2826608,8.38117672 12.8678341,8.45903227 12.3511153,8.75536249 C12.0234068,8.94329823 11.7109535,9.17729005 11.1825739,9.61163592 C10.5704047,10.1148597 10.5615792,10.1220101 10.3423443,10.2843901 C10.0237146,10.5203885 9.71705332,10.7721569 9.24828922,11.174866 C9.18347293,11.2305488 9.11989868,11.2853246 8.99098309,11.3964573 C8.0379719,12.2176442 7.54956521,12.6013341 6.9326024,12.9664411 C6.74179536,13.0793571 6.57498875,13.2012302 6.43043958,13.330559 C6.16073163,13.5718679 5.98040055,13.8265409 5.87094129,14.0781581 C5.86292684,14.0965811 5.8555248,14.1143715 5.84870039,14.1314899 C6.28912065,14.0129827 6.84890539,13.8626047 6.7985828,13.8761475 C6.95114356,13.8350905 7.08823345,13.7981193 7.21900591,13.7627513 C8.19943699,13.4975896 8.90877049,13.2994531 9.5233274,13.1161589 C11.8969663,12.4083149 13.5219684,12.6738348 14.0732769,14.4614316 C14.7027347,16.502424 15.1677675,18.2944957 15.3607712,19.6617289 C15.3901783,19.65489 15.4213767,19.6473742 15.4541876,19.6391608 C15.7117903,19.5746759 15.969068,19.4905368 16.2068312,19.3854216 C16.3639785,19.3159467 16.5045693,19.2409013 16.6270171,19.160618 Z M14.5569631,8.30138082 C14.4796949,7.64920739 14.3982663,7.09994465 14.3170209,6.64864623 C14.2845348,6.46819429 14.2565635,6.32709625 14.2344331,6.22384124 C13.6783642,6.50983407 12.9323339,6.57611823 11.9705526,6.34601161 C11.9178084,6.32694324 11.8293324,6.29223158 11.7167258,6.24342801 C11.5294287,6.16225367 11.3419529,6.07022225 11.1654419,5.96834971 C10.9707413,5.85597917 10.8007483,5.73805236 10.6617295,5.6134009 C10.5427684,5.50673412 10.5328018,5.32382653 10.6394686,5.20486537 C10.7461353,5.0859042 10.9290429,5.07593763 11.0480041,5.18260441 C11.1537108,5.27738653 11.2920523,5.37335617 11.4546717,5.46721123 C11.6101606,5.55695095 11.778399,5.63953877 11.9468162,5.71253057 C12.0476381,5.75622669 12.1251621,5.78664155 12.1358339,5.79247835 C13.2002091,6.04554418 13.8945892,5.87516654 14.3238694,5.4534914 C14.4391072,5.34029514 14.5168119,5.22881254 14.5635092,5.14016189 C13.9073903,4.91677528 13.3486041,4.57395714 13.0360332,4.13331985 C12.9435886,4.00299889 12.9742935,3.82241171 13.1046144,3.72996709 C13.2349354,3.63752248 13.4155226,3.66822732 13.5079672,3.79854829 C14.2866027,4.8962058 17.2680327,5.26529908 18.241451,4.31575498 C18.7628905,3.8071045 18.7628905,3.42323949 18.4743449,3.07464729 C18.3995949,2.98434175 18.3253058,2.92162897 18.2798651,2.8914927 C18.2450881,2.86764749 18.1785592,2.82188878 18.0824267,2.75554627 C17.9223399,2.64506789 17.7376981,2.51718211 17.5309708,2.3734394 C16.9404429,1.9628306 16.2912227,1.50741092 15.6030592,1.0195789 C14.6204829,0.323040755 14.001548,0.486125119 12.9420655,1.37726224 C12.8988987,1.41357003 12.752828,1.53735897 12.7352272,1.55221741 C12.6528359,1.62177168 12.5892291,1.67462946 12.5272898,1.72465739 C12.2672635,1.93467867 12.0364874,2.09646424 11.6270747,2.36593996 C11.5957938,2.38652156 11.5957938,2.38652156 11.5645866,2.40703846 C10.7381667,2.95034785 10.3767351,3.23095668 9.90137524,3.76124628 C9.60932227,4.08704715 9.49670141,4.65263193 9.5461173,5.40106243 C9.57315543,5.81056953 9.64595601,6.24855484 9.75504313,6.72146122 C9.81320371,6.97359466 9.96629284,7.55396554 9.96761553,7.55960517 C10.0114682,7.74658325 10.1134503,8.12436404 10.2558198,8.63251791 C10.2637646,8.6608654 10.2637646,8.6608654 10.2717156,8.68919765 C10.3392841,8.92988926 10.4113736,9.18379715 10.4837767,9.43683009 C10.5691483,9.36686923 10.6763553,9.27874742 10.8151436,9.16465874 C11.3675831,8.71053474 11.699061,8.46229568 12.063265,8.25343034 C12.7197285,7.87695876 13.30812,7.76652818 13.8656292,7.99432684 C14.1350854,8.10442686 14.3640584,8.20688425 14.5569631,8.30138082 Z M2.71171107,17.0224101 C3.7230673,16.8819487 5.30439372,16.8628999 8.032652,16.8828493 L9.27113318,16.876751 C9.64046225,16.8684651 10.115729,16.9862931 10.5810079,17.3466772 C11.1290611,17.7711745 11.5227769,18.4529412 11.7034651,19.4265859 C11.7589335,19.7254795 11.8220632,20.0233139 11.900503,20.3639365 C11.9208486,20.4522865 12.1402715,21.3717433 12.1933098,21.6166832 C12.2890863,22.0589959 12.3413824,22.3964641 12.354822,22.7055038 C12.3575486,22.7682009 12.3585758,22.8296838 12.357856,22.8900033 C12.3641607,22.8927068 12.3707149,22.8954469 12.3775168,22.8982133 C12.5556662,22.9706678 12.7748333,23.0035302 13.0356893,22.9715988 C13.7832761,22.8800865 14.1755248,22.6449923 14.7212263,21.7900573 C15.1964578,21.0455258 14.5836381,18.0795883 13.5203615,14.6319549 C13.0955391,13.2544844 11.7961595,13.0421701 9.68869136,13.6706392 C9.06831508,13.855669 8.35490799,14.0549434 7.37006716,14.3212978 C7.23904327,14.3567337 7.10172691,14.393766 6.94894863,14.4348816 C7.01965496,14.4158532 5.872216,14.7241101 5.56632074,14.806827 C4.85719837,14.9990675 4.36220601,15.1360311 3.9242453,15.2625302 C3.38893931,15.4171663 3.05611252,15.7182816 2.87224163,16.1313501 C2.73962789,16.4292687 2.69839601,16.747534 2.71171107,17.0224101 Z"></path>
                </g>
            </g>
            <g id="slices"></g>
        </g>
    </g>
</svg>