<?xml version="1.0" encoding="UTF-8"?>
<svg width="50px" height="50px" viewBox="0 0 50 50" version="1.1" xmlns="http://www.w3.org/2000/svg" xmlns:xlink="http://www.w3.org/1999/xlink">
    <!-- Generator: Sketch 49.1 (51147) - http://www.bohemiancoding.com/sketch -->
    <title>y</title>
    <desc>Created with Sketch.</desc>
    <defs></defs>
    <g id="Finger" stroke="none" stroke-width="1" fill="none" fill-rule="evenodd">
        <g id="Finger-Alphabet" transform="translate(-1350.000000, 0.000000)">
            <g id="letters" transform="translate(11.000000, 0.000000)" fill="#000000" fill-rule="nonzero">
                <g id="y" transform="translate(1346.000000, 0.000000)">
                    <path d="M29.0713189,15.450876 C29.109911,15.3625247 29.1504027,15.2604591 29.1913661,15.1442884 C29.2643797,14.9372248 29.329071,14.7076357 29.3829796,14.4548126 C29.3926257,14.4095737 29.402628,14.3531553 29.4132318,14.2842754 C29.4246478,14.210119 29.5874841,12.8672622 29.6731349,12.3200964 C29.8360121,11.2795816 30.0527877,10.3335649 30.3609144,9.43453245 C30.8438682,8.02540106 31.5181848,6.84364083 32.4327371,5.93726078 C33.7149573,4.66649837 34.8785921,4.27394972 35.7363896,4.71703576 C36.4688482,5.09537939 36.7912619,6.04169016 36.523988,6.83614523 C36.365146,7.30829294 36.2530702,7.99565198 36.1409117,9.05136291 C36.1246395,9.20452748 36.1087006,9.36113769 36.0880102,9.56940355 C36.0626727,9.82566832 36.0492773,9.96101986 36.0377283,10.0756593 C35.9555203,10.8916847 35.8966763,11.3340653 35.8134139,11.6649374 C35.7455886,11.9344646 35.3924051,13.0774236 35.3471322,13.2340424 C35.0310293,14.3275797 34.8508141,15.2797106 34.8092993,16.3284457 C34.7937705,16.7207308 34.7879366,17.0028815 34.7788811,17.6513121 C34.7747883,17.9443821 34.772478,18.0886607 34.7687949,18.258299 C34.7347214,19.8276708 34.5942987,21.0100612 34.1676068,22.7868938 C33.8239683,24.2178744 33.4873875,25.2506372 33.0287712,26.3822999 C32.9430633,26.5937893 32.8644115,26.7824694 32.7273787,27.1073806 C32.3672954,27.9611546 32.2362506,28.2830345 32.0469642,28.8013922 C31.3754841,30.6402286 30.2973019,31.9176842 28.9571776,32.683321 C28.2541428,33.0849772 28.1009299,33.7420669 28.0653852,35.7719922 C28.0607047,36.0392909 28.0589121,36.1338837 28.0555719,36.2740043 C28.0373058,37.0402648 28.4072492,41.4496997 29.151523,49.6680405 C29.1666898,49.8355138 29.043221,49.9835728 28.8757477,49.9987396 C28.7082744,50.0139064 28.5602154,49.8904376 28.5450486,49.7229644 C27.7925682,41.4140053 27.4276107,37.0639986 27.4467886,36.2594921 C27.4500869,36.1211279 27.4518654,36.0272771 27.4565222,35.7613308 C27.496093,33.5014774 27.6802923,32.7114955 28.6550948,32.1545736 C29.870291,31.4603105 30.8528362,30.2961679 31.4749525,28.5925132 C31.6687625,28.0617678 31.8023719,27.7335886 32.166284,26.8707363 C32.3022761,26.5482928 32.3800474,26.3617247 32.4643987,26.153583 C32.911958,25.049204 33.2391645,24.0452052 33.5754844,22.6447004 C33.9914807,20.9124072 34.1268108,19.7728969 34.1599821,18.2450807 C34.1636204,18.0775028 34.1659128,17.9343473 34.1699842,17.6428088 C34.1791106,16.9892961 34.1850205,16.7034701 34.2008196,16.3043587 C34.244532,15.2001067 34.4334626,14.2019298 34.7621266,13.064938 C34.8113816,12.8945437 35.1597322,11.7672245 35.2228688,11.5163295 C35.2961031,11.2253075 35.3528494,10.7986978 35.4318388,10.0146208 C35.4433249,9.90060637 35.4566554,9.76590972 35.4820369,9.50920257 C35.5028524,9.29967697 35.5189182,9.1418206 35.5353632,8.98702955 C35.6521616,7.8876447 35.7691741,7.17000886 35.9468187,6.64197149 C36.1225299,6.11968095 35.9084377,5.49130261 35.4569208,5.25807644 C34.8795892,4.95986201 33.9767012,5.26444851 32.8613975,6.36978608 C32.0204905,7.20317878 31.3917434,8.30507718 30.9369764,9.63196705 C30.6417143,10.4934637 30.4325614,11.4062149 30.2747648,12.4142727 C30.1912486,12.9478025 30.028536,14.2896393 30.0150979,14.3769303 C30.002859,14.4564318 29.990916,14.523797 29.9785475,14.5818036 C29.9191751,14.8602508 29.8473767,15.115063 29.765665,15.3467943 C29.6131406,15.7793476 29.455836,16.0634438 29.3419963,16.2104176 C29.3207451,16.2378542 29.295734,16.2606633 29.2682516,16.2786812 C29.3210165,16.4422273 29.3606841,16.5668109 29.4048032,16.7115955 C29.4764215,16.9466239 29.5433546,17.1825172 29.6065169,17.4279132 C29.8016647,18.1860945 29.9321491,18.9221159 29.9720316,19.6170173 C30.0768325,21.4430361 29.5410418,22.7382999 28.1642405,23.1641957 C28.1089594,23.1875732 28.0185064,23.2193665 27.9004499,23.2503876 C27.5586259,23.3402068 27.2019798,23.3656421 26.8575016,23.2840733 C26.7730372,23.264073 26.6917475,23.2380936 26.6138649,23.2060743 C26.6696873,23.464919 26.70989,23.7108112 26.7339033,23.9523311 C26.8562154,25.1825158 26.5222301,26.1018054 25.5559371,26.5470319 C24.7137478,26.9350768 24.0105677,26.8688397 23.4806655,26.4520962 C23.4578364,27.2891824 23.0730731,27.8004708 22.1942702,28.1065246 C20.3906845,28.7346454 18.4481561,26.7483795 17.6830807,23.6273924 L17.4088732,22.5399704 L17.3996314,22.4655227 C17.3996314,22.373012 17.3216488,22.1643316 17.0575657,21.8762998 C16.8847259,21.6877859 16.5762225,21.2445255 16.1557598,20.5975977 C16.1155017,20.5355885 16.1155017,20.5355885 16.0753401,20.4734717 C15.8885706,20.1843177 15.6935278,19.8765519 15.5000712,19.5672065 C14.4063794,20.0793568 13.335676,19.8672283 12.3784841,19.2038271 C12.0362579,18.9666403 11.7872028,18.7286722 11.6467183,18.563096 C11.5379254,18.4348718 11.5536776,18.2427315 11.6819018,18.1339386 C11.810126,18.0251457 12.0022662,18.0408979 12.1110591,18.1691221 C12.1356349,18.1980873 12.1884252,18.254646 12.2668189,18.3295499 C12.399965,18.4567688 12.5537762,18.5844028 12.7253661,18.7033266 C13.4983653,19.2390694 14.3246061,19.4144862 15.1766137,19.044789 C15.1762892,19.0442513 15.1759672,19.0437178 15.175648,19.0431885 C15.1412408,18.9942803 15.0841332,18.9071323 15.0118855,18.7868051 C14.906627,18.6114994 14.8015593,18.4183882 14.7019299,18.2108463 C14.1919019,18.2085557 13.6533008,17.8868 12.9845762,17.2811793 C12.77964,17.0955818 12.5698629,16.8905103 12.3035911,16.6192627 C12.3562168,16.6728719 11.7340613,16.0336379 11.5792148,15.8803175 C11.3302511,15.6338076 11.1406339,15.4640092 10.9836226,15.3508683 C9.69805238,14.4244981 8.999393,13.8218985 8.22403943,12.8703941 C7.93567267,12.516514 7.6509528,12.1010999 7.34446368,11.5954291 C7.09118742,11.1775531 6.83645303,10.7228957 6.47685362,10.0557944 C6.37863089,9.87357915 6.0261462,9.21575335 6.02021903,9.20471364 C5.83162903,8.85345334 5.68314058,8.57942848 5.53366651,8.30791041 C5.28325191,7.85303491 5.09761846,7.40995723 4.94161342,6.91637633 C4.85077866,6.62898622 4.77584499,6.34841093 4.67203826,5.92276765 C4.23959654,4.14960777 4.05453021,3.54480795 3.45660067,2.26751582 C2.89790207,1.07402853 2.21731219,0.562376063 1.57157204,0.612367264 C1.07282527,0.650978693 0.649258539,1.05305533 0.617037043,1.45225128 C0.594152886,1.73576584 0.619699361,1.94286963 0.696728617,2.20245096 C0.722158491,2.28814725 0.833147066,2.61903113 0.854082965,2.68549905 C1.01992661,3.21202446 1.10784313,3.7257289 1.12448965,4.47379268 C1.15756985,5.96035508 1.35712807,7.00306353 1.55628596,7.39562053 C1.61321912,7.50784059 2.43527349,10.2279877 2.48505964,10.3882333 C2.53110642,10.536443 2.57574584,10.678999 2.61918574,10.8164875 C3.02675413,12.1064529 3.33053788,12.9499833 3.48133353,13.1806136 C3.69512867,13.5075967 4.34306106,15.0357574 5.5212189,17.9285153 C5.54801328,17.9943112 5.54801328,17.9943112 5.57480165,18.0601197 C5.78797154,18.5838461 6.65625617,20.7250062 6.84752226,21.1941459 C7.25206541,22.1864141 7.47921546,22.7295012 7.55064911,22.8710559 C7.68638133,23.1400262 7.80189932,23.5622049 7.90635584,24.1081698 C7.9657442,24.4185761 8.01764169,24.7498782 8.06185632,25.0810028 C8.08837804,25.2796248 8.10650274,25.4345161 8.11674625,25.5339546 C8.21274678,26.8680099 8.86856518,28.6053824 10.2458584,31.5040556 C10.3458715,31.7145448 10.4509368,31.9341884 10.5780055,32.198706 C12.6900715,36.5953722 13.186238,37.8117369 13.1046082,39.0465424 C13.0337021,40.1191323 13.0977401,43.931811 13.2594394,49.5947977 C13.264239,49.7628878 13.1318659,49.9030426 12.9637757,49.9078422 C12.7956856,49.9126418 12.6555308,49.7802687 12.6507312,49.6121785 C12.4880681,43.9154377 12.4241251,40.1084154 12.4969782,39.0063736 C12.5677722,37.9354795 12.0584673,36.6869054 10.0290985,32.4623894 C9.90168519,32.1971543 9.79626625,31.9767715 9.69583297,31.7653981 C8.28403435,28.7941042 7.61287116,27.0160808 7.51022832,25.5874935 C7.50141894,25.5032985 7.48395279,25.354035 7.45825728,25.1616006 C7.41544319,24.8409646 7.36524431,24.5205061 7.30824803,24.2226026 C7.21389283,23.7294344 7.10986946,23.3492646 7.00699399,23.145404 C6.92413409,22.9812068 6.70014306,22.4456725 6.28362922,21.4240425 C6.09209574,20.9542469 5.22372192,18.8128669 5.01077657,18.2896922 C4.98401245,18.2239433 4.98401245,18.2239433 4.95724369,18.1582102 C3.82345724,15.3743985 3.15071356,13.7877199 2.9716545,13.5138629 C2.77509173,13.2132353 2.47125139,12.3695478 2.03852281,10.9999496 C1.99477888,10.8614988 1.94984995,10.7180184 1.90352359,10.5689087 C1.79288043,10.212784 1.04178477,7.72743665 1.01322153,7.67113609 C0.76639654,7.18462322 0.550616871,6.05715636 0.515684049,4.48734032 C0.500344679,3.79801759 0.422163349,3.34119677 0.2732575,2.86844599 C0.255315056,2.81148178 0.142058507,2.47383652 0.112933716,2.37568871 C0.0155142422,2.04739426 -0.0192131199,1.76586156 0.0100547764,1.4032581 C0.0668838015,0.699196546 0.733422071,0.0664757883 1.52456917,0.00522763132 C2.45559404,-0.0668494286 3.35149861,0.606671878 4.00811848,2.00933777 C4.62780994,3.33311752 4.82222369,3.96846488 5.26365451,5.77848312 C5.36450306,6.19199688 5.4364175,6.46126722 5.52225719,6.73285352 C5.66664008,7.18966337 5.83686319,7.595959 6.06712827,8.0142331 C6.21779629,8.28791999 6.36722421,8.56367858 6.55673785,8.91665921 C6.56298468,8.9282943 6.91509512,9.58542165 7.01289084,9.76684478 C7.36801516,10.4256442 7.61845692,10.87264 7.86523179,11.2797894 C8.15818572,11.7631288 8.42756689,12.1561633 8.69611062,12.4857168 C8.98929954,12.8455147 9.27111088,13.1528206 9.58315301,13.4493126 C9.64326167,13.4315608 9.71423084,13.4096474 9.79391148,13.3836644 C10.0716702,13.2930904 10.3491762,13.1863768 10.6062423,13.0649827 C10.9959534,12.8809497 11.3001484,12.680493 11.4826641,12.4755551 C12.2895358,11.569559 13.0586425,11.0197538 14.2316827,10.6323328 C15.3857463,10.2511793 16.4857637,9.67649896 17.6588196,8.8716247 C17.7782782,8.78966002 18.2130681,8.48398454 18.1458081,8.53100373 C18.3355454,8.39836477 18.4735485,8.30574509 18.6111327,8.22061419 C19.4130282,7.7244375 20.1373002,7.56831018 21.2527825,7.73409525 C21.5638898,7.7803326 21.8359905,7.87223493 22.0752099,8.00916343 C22.205373,7.85369855 22.3750406,7.67747944 22.5820346,7.50127757 C23.1472108,7.02017628 23.7902531,6.72768225 24.4998628,6.72768225 C26.1793369,6.72768225 27.5751433,7.89307541 28.0050503,9.80954207 C28.131031,10.3711466 28.2742281,11.1070271 28.4671068,12.1618758 C28.4925528,12.3010393 28.5191221,12.447128 28.5483089,12.6082602 C28.8247372,14.1343425 28.9748713,14.9594754 29.0713189,15.450876 Z M26.3018681,22.0569878 C26.4545955,22.4248232 26.6913832,22.6189429 26.997816,22.6915029 C27.230818,22.7466754 27.4921941,22.7280345 27.7456912,22.6614244 C27.833553,22.6383375 27.8970394,22.6160227 27.9553686,22.5929762 C29.0295541,22.2594718 29.4547388,21.2315958 29.3640757,19.6519098 C29.3267446,19.0014629 29.2028482,18.3026021 29.0167821,17.5797046 C28.9559862,17.3435025 28.8914485,17.1160514 28.8222913,16.8890997 C28.7784378,16.7451863 28.7393138,16.622458 28.6841964,16.4516546 C28.5532926,16.0407617 28.5066928,15.7950911 27.9491033,12.7167979 C27.9199729,12.5559774 27.8934626,12.4102131 27.868082,12.2714073 C27.6765806,11.2240911 27.5345766,10.4943416 27.4108605,9.94283233 C27.0422169,8.29946918 25.8890222,7.33663858 24.4998628,7.33663858 C23.9536731,7.33663858 23.4409156,7.56987126 22.9767583,7.96498116 C22.8188188,8.09942581 22.6777332,8.24348417 22.5555649,8.38771823 C22.978838,8.83176921 23.2669645,9.48828027 23.4837305,10.3505991 C23.5254188,10.5164397 23.5645201,10.6878996 23.609498,10.8980986 C23.6287108,10.9878874 23.7003451,11.3303831 23.7175944,11.4108939 C23.7299299,11.4682465 23.7299299,11.4682465 23.7422409,11.5243944 C24.2366158,13.7661923 25.0322295,17.077069 25.338597,18.0206167 C25.4706245,18.4279571 25.5883567,18.892133 25.7138751,19.4742224 C25.7771315,19.7675729 25.9934594,20.8446649 26.0426197,21.0716147 C26.094764,21.3123404 26.141319,21.5075443 26.1867633,21.6727625 C26.1987473,21.7163317 26.248293,21.8797868 26.3018681,22.0569878 Z M25.7236324,22.2487462 C25.6717297,22.1175963 25.6286216,21.9742664 25.594926,21.8185951 C25.5944922,21.8165907 25.5940791,21.8145868 25.5936868,21.8125833 C25.5467972,21.6399943 25.4995861,21.4411466 25.447466,21.2005328 C25.3970265,20.9676776 25.1806238,19.8902131 25.1186011,19.6025838 C24.9970359,19.0388274 24.8838987,18.5927678 24.7593583,18.208527 C24.444394,17.2385029 23.6469348,13.9199463 23.1475728,11.6555342 C23.134816,11.5973528 23.134816,11.5973528 23.122151,11.5384671 C23.1044922,11.4560456 23.0328364,11.1134467 23.0140215,11.0255173 C22.9704258,10.8217782 22.9328247,10.6568968 22.8931477,10.4990572 C22.6785092,9.64520166 22.4035351,9.05498121 21.9957492,8.70472746 C21.9860109,8.69968966 21.9764466,8.69407697 21.9670993,8.6878807 C21.9424327,8.67152941 21.9209209,8.65220387 21.9027237,8.63069341 C21.6924675,8.47602964 21.4488463,8.37887966 21.1632616,8.33643553 C20.1920925,8.19209856 19.6126915,8.31699683 18.9315501,8.73845637 C18.8055648,8.81641036 18.6759173,8.90342226 18.4947087,9.03009903 C18.5647743,8.98111854 18.1261706,9.28947539 18.0033452,9.37375009 C16.7859108,10.209074 15.6359126,10.8098657 14.4226571,11.2105686 C13.3601415,11.5614865 12.6776836,12.0493497 11.9374193,12.8805558 C11.6903811,13.1579428 11.3234707,13.3997273 10.8662737,13.6156291 C10.6244618,13.7298198 10.3693896,13.8309629 10.1125644,13.9191563 C10.4591488,14.2081335 10.8553657,14.5078607 11.3396309,14.8568178 C11.5281696,14.992677 11.7379905,15.1805675 12.0076742,15.4475932 C12.1672241,15.6055706 12.7946854,16.250256 12.7381556,16.1926698 C12.9967915,16.4561388 13.1988746,16.6536889 13.3933499,16.8298126 C13.8040917,17.201795 14.1472525,17.4410291 14.4239313,17.5438967 C14.2488122,17.0461891 14.1489893,16.5489675 14.1489893,16.0654587 C14.1489893,15.8973 14.2853088,15.7609805 14.4534674,15.7609805 C14.6216261,15.7609805 14.7579456,15.8973 14.7579456,16.0654587 C14.7579456,16.6368097 14.928802,17.2549178 15.2152287,17.871748 C15.316669,18.0902034 15.4254379,18.2925898 15.5339626,18.4733354 C15.598291,18.5804729 15.6474093,18.6554292 15.6842888,18.708912 C15.7235125,18.7729221 15.7843337,18.871556 15.8619492,18.996529 C15.8661176,19.0027058 15.8700914,19.0090796 15.8738577,19.0156469 C15.8739803,19.0158607 15.8741026,19.0160746 15.8742247,19.0162886 C15.9015216,19.0602151 15.9307761,19.1072071 15.9617927,19.1569275 C16.1715887,19.4932357 16.3843311,19.8295024 16.5868679,20.1430671 C16.6265791,20.2044874 16.6265791,20.2044874 16.6663499,20.265746 C17.0650259,20.8791526 17.3660581,21.3116782 17.5064185,21.4647673 C17.8541408,21.8440233 17.992386,22.1820483 18.0072293,22.4223391 L18.2740392,23.480451 C18.966047,26.3033465 20.6312455,28.0060382 21.9939918,27.5314452 C23.0610321,27.1598353 23.0788421,26.2834364 22.3951142,24.1476639 C22.2432731,23.6733553 22.1582654,23.2149231 22.0273849,22.2938982 C21.9113293,21.4771989 21.8788524,21.2647232 21.8039503,20.8808999 C21.6307369,19.9932964 21.3953271,19.2963837 21.0314671,18.6909089 C20.7173202,18.1681583 20.4601207,17.6684522 20.2233112,17.1306382 C20.0783637,16.8014503 19.9417019,16.4605329 19.7834356,16.0393652 C19.6871667,15.7831811 19.3444362,14.8443789 19.3151931,14.7651519 C19.1116481,14.2136986 18.9328342,13.7486028 18.7310405,13.253342 C18.4333728,12.5227779 17.9814988,12.0750556 17.4112066,11.8469406 C16.9248762,11.65241 16.3981553,11.6320206 15.9148928,11.7159054 C15.819904,11.7323936 15.7535349,11.7482823 15.7223319,11.7574999 C15.5610627,11.8051401 15.3917082,11.7130256 15.344068,11.5517565 C15.2964279,11.3904873 15.3885424,11.2211328 15.5498115,11.1734926 C15.6025318,11.1579186 15.6914986,11.13662 15.8107474,11.1159208 C16.3956555,11.0143923 17.0309797,11.0389858 17.6373657,11.2815382 C18.3608515,11.5709301 18.9348229,12.1396282 19.2949821,13.0235644 C19.4996131,13.525789 19.6807608,13.996955 19.8864759,14.5542878 C19.9165946,14.6358866 20.2584045,15.5721672 20.3534729,15.8251567 C20.5080952,16.2366271 20.6407741,16.5676089 20.7806327,16.8852393 C21.0073082,17.4000383 21.2527754,17.87695 21.553424,18.377239 C21.9590041,19.0521375 22.2159689,19.8128619 22.4016324,20.7642638 C22.4793539,21.162535 22.5125595,21.3797781 22.6302843,22.2082243 C22.756352,23.0953808 22.8371698,23.5312176 22.9750767,23.9619997 C23.0980812,24.3462309 23.201153,24.6988635 23.2815303,25.0224178 C23.3002574,25.0525684 23.3139913,25.0865288 23.3213594,25.1233839 C23.3608353,25.3208425 23.5298162,25.6701981 23.7700965,25.8980926 C24.1294645,26.2389362 24.6115647,26.3116709 25.3011052,25.99396 C25.9854014,25.6786656 26.2273681,25.0126559 26.1279348,24.01258 C26.0880635,23.6115649 25.9966402,23.1867194 25.8563068,22.69338 C25.83085,22.6038868 25.7762643,22.4228919 25.7236324,22.2487462 Z"></path>
                </g>
            </g>
            <g id="slices"></g>
        </g>
    </g>
</svg>