<?xml version="1.0" encoding="UTF-8"?>
<svg width="50px" height="50px" viewBox="0 0 50 50" version="1.1" xmlns="http://www.w3.org/2000/svg" xmlns:xlink="http://www.w3.org/1999/xlink">
    <!-- Generator: Sketch 49.1 (51147) - http://www.bohemiancoding.com/sketch -->
    <title>z</title>
    <desc>Created with Sketch.</desc>
    <defs>
        <path d="M12.9145699,35.4295897 C12.8973967,35.4618921 12.8751521,35.5055919 12.8493275,35.5593849 C12.7809249,35.7018691 12.7149768,35.8594135 12.6571779,36.0267909 C12.4938586,36.4997405 12.4282086,36.953473 12.4992122,37.3423555 C12.5860116,37.8179726 15.4138636,46.0295176 16.5290287,49.0874834 C16.5773018,49.2198561 16.5091256,49.3662984 16.3767529,49.4145714 C16.2443802,49.4628445 16.0979379,49.3946683 16.0496649,49.2622956 C14.9142409,46.1487768 12.0921665,37.9540089 11.9972623,37.433982 C11.9079204,36.9446617 11.9854546,36.4087935 12.1748803,35.8602436 L12.1759582,35.8571254 C12.1169081,35.880567 12.030474,35.9150783 11.992564,35.9308949 C11.8836375,35.9763409 11.7697065,36.0277239 11.6348473,36.0932972 C11.2829477,36.2644031 10.8184414,36.5180948 10.1881775,36.8895178 C8.6522299,37.7946725 7.09655711,38.0689796 5.68415302,37.9363103 C5.32720212,37.9027813 5.06531977,37.8512374 4.91780526,37.809262 C4.78228494,37.7706996 4.70368501,37.6295777 4.7422474,37.4940574 C4.78080979,37.3585371 4.9219317,37.2799371 5.05745202,37.3184995 C5.08411223,37.3260857 5.14139268,37.3399684 5.22680116,37.3567786 C5.37275991,37.3855063 5.54194634,37.4104624 5.73187101,37.4283024 C7.0440638,37.5515587 8.49344042,37.2959945 9.92912147,36.4499282 C10.5702677,36.072092 11.0462993,35.8121058 11.4117263,35.6344224 C11.5553887,35.5645687 11.6782079,35.5091771 11.7960956,35.4599924 C11.867434,35.4302288 12.0865888,35.3436294 12.0412337,35.3618096 C12.0763298,35.3477416 12.1039042,35.336206 12.1297217,35.3246913 C12.3172797,35.2410404 12.5160382,35.1035383 13.0669371,34.6647043 C13.6291662,34.2168326 13.9117084,34.0737011 14.242902,34.0620869 C14.286159,34.06057 14.3291199,34.0610499 14.384616,34.0631107 C14.3987043,34.0636338 14.4919236,34.0676991 14.5202448,34.0686457 C14.8178655,34.0785935 15.0961849,34.0444111 15.5553967,33.9109923 C16.8564629,33.532982 18.0856181,32.6549748 18.9998736,31.6139169 C19.7091694,30.8062454 19.949295,30.6123774 20.6566796,30.2441478 C20.7169458,30.2128716 20.7169458,30.2128716 20.7773835,30.1818626 C20.9784312,30.0789861 21.1909924,29.974263 21.4063944,29.8710783 C21.3664305,29.8525819 21.3266181,29.8334685 21.2869621,29.8137528 C21.032133,29.68706 20.8020433,29.5439111 20.5999591,29.3954062 C20.4771513,29.3051588 20.3896151,29.2318863 20.3408243,29.1865051 C20.2376532,29.090544 20.2318084,28.9291154 20.3277696,28.8259443 C20.4237307,28.7227732 20.5851593,28.7169285 20.6883304,28.8128896 C20.7233472,28.8454594 20.7959431,28.9062261 20.9021087,28.9842436 C21.081647,29.1161803 21.2870546,29.2439733 21.5141145,29.3568602 C21.7044774,29.4515025 21.8981464,29.5301532 22.0944335,29.5908436 C22.123993,29.5942189 22.1527062,29.6027379 22.1792271,29.6158927 C22.6565126,29.7503077 23.148582,29.777666 23.6456558,29.6699813 C25.4204235,29.2855005 26.2574735,28.9235019 26.5880053,28.4138893 C27.039656,27.7176615 26.9323685,26.4724169 25.953396,25.7861985 C25.5430713,25.4985781 24.9388848,25.3063037 24.198472,25.2012163 C23.7065718,25.1314005 23.1855166,25.1039904 22.669736,25.1084088 C22.5212481,25.1096808 22.382033,25.1135657 22.2544297,25.119299 C22.2672111,25.3893846 22.2069776,25.6190173 22.0782589,25.8595592 C22.025497,25.9581575 21.9618145,26.0588078 21.8722036,26.1886767 C21.8272856,26.2537743 21.6511606,26.5020048 21.6170727,26.5507648 C21.5480266,26.6495295 21.2745445,27.0526539 21.2482831,27.0909582 C21.0793425,27.3373711 20.936106,27.5379546 20.7861696,27.7345071 C20.0896196,28.647618 19.3875021,29.2756295 18.5720696,29.5874501 C18.4644822,30.2603947 17.8880032,30.8755732 16.8843096,31.6252564 C16.8198605,31.673395 16.747077,31.7273773 16.6118681,31.8276049 C15.8959566,32.3592731 15.1089643,32.5508362 14.374847,32.5274855 C14.3153696,32.5255936 14.2623721,32.5224141 14.2164327,32.5185495 C14.1893148,32.6201398 14.1484651,32.718556 14.0930836,32.8134106 C13.1977006,34.3469773 11.7956051,35.0329482 10.2529639,34.4736908 C9.77937043,34.3019978 9.36530773,34.0535151 8.87794768,33.6814076 C8.77267429,33.6010296 8.24064478,33.1761907 8.0988204,33.0714335 C7.82985002,32.872761 7.60664794,32.7440849 7.39799951,32.6784055 C7.37596925,32.6756591 7.3539359,32.6699696 7.33241408,32.661122 L7.3236656,32.6575208 C7.19658451,32.6261837 7.07363599,32.6185915 6.94745026,32.6330916 C5.91592323,32.7516254 4.45633567,32.477076 3.87169712,32.1569758 C3.74810898,32.0893091 3.70277572,31.9342664 3.77044245,31.8106783 C3.83810919,31.6870901 3.99315189,31.6417569 4.11674003,31.7094236 C4.50765562,31.9234569 5.44549474,32.1284899 6.27991858,32.1493125 C5.88063134,31.9198939 5.53855991,31.6757576 5.24986491,31.4233789 C4.93316862,31.1465213 4.74168275,30.9173772 4.65250818,30.7732513 C4.5783726,30.6534317 4.61540679,30.4962 4.73522636,30.4220644 C4.85504593,30.3479289 5.01227765,30.384963 5.08641323,30.5047826 C5.09917127,30.5254024 5.13303575,30.5725335 5.19084714,30.6417143 C5.29185599,30.7625879 5.42250426,30.896572 5.58569007,31.0392299 C6.05003219,31.4451602 6.67259552,31.8327292 7.47582981,32.1682358 C7.76855751,32.2463236 8.06310789,32.4107104 8.40197486,32.6610112 C8.55324376,32.7727446 9.08966513,33.2010905 9.18759112,33.2758586 C9.63728895,33.6192104 10.0099619,33.8428547 10.4268685,33.9939969 C11.7133458,34.4603866 12.8714532,33.8937861 13.6524459,32.5561414 C14.1615672,31.6841442 12.4258191,29.8986579 10.1801573,28.4688227 C9.9533327,28.3244013 9.7182218,28.1676674 9.47640438,28.0002777 C8.97365643,27.6522679 8.46507952,27.2747049 7.97615428,26.8937385 C7.80506307,26.7604257 7.64859393,26.6361668 7.50996354,26.5242455 C7.42654022,26.4568949 7.36742354,26.4084746 7.33583773,26.3822724 C7.22739418,26.2923123 7.21241035,26.1314744 7.30237041,26.0230309 C7.39233046,25.9145873 7.55316836,25.8996035 7.66161191,25.9895635 C7.69150542,26.0143619 7.74887766,26.0613534 7.83048317,26.1272365 C7.96690082,26.2373713 8.1210802,26.3598118 8.28976829,26.4912521 C8.77164103,26.8667233 9.27274867,27.2387412 9.76681416,27.5807408 C10.0034672,27.7445556 10.2331737,27.8976867 10.4542009,28.0384169 C12.4930736,29.3365874 14.0864625,30.819938 14.2445113,32.0088495 C14.2837631,32.0124422 14.3329669,32.0156512 14.3910686,32.0174993 C15.0190953,32.0374755 15.6949991,31.8729526 16.3076533,31.417968 C16.4433888,31.317349 16.5153275,31.2639934 16.5789684,31.2164584 C17.5137642,30.5182366 17.9991587,30.0026682 18.0579115,29.4492812 C18.0519508,29.4123252 18.0543582,29.3754364 18.0639666,29.340867 C18.0655251,29.0848271 17.9779615,28.8178567 17.80346,28.5187966 C17.746177,28.4206251 17.6815706,28.3213098 17.6098092,28.2208741 C17.2168417,27.6708853 16.6324418,27.1119063 15.8535005,26.5005453 C15.4526226,26.1859117 14.1888283,25.2746112 14.0165876,25.1340424 C14.0298165,25.1448387 12.9405869,24.3083039 12.7307202,24.0911671 C12.5714389,23.9263681 12.4537778,23.7598697 12.3703932,23.5727268 C12.3169223,23.4527201 12.2568845,23.3268602 12.1917794,23.1972764 C12.1125801,23.0396399 12.0300917,22.884732 11.9493049,22.7393904 C11.9009737,22.6524389 11.8641533,22.5883453 11.8437971,22.5538257 C11.7722256,22.4324571 11.8125943,22.2760483 11.9339629,22.2044768 C12.0553315,22.1329054 12.2117404,22.1732741 12.2833118,22.2946427 C12.3057663,22.3327204 12.3447215,22.4005301 12.3952844,22.4914967 C12.4793213,22.6426854 12.5650828,22.80374 12.6477139,22.9682071 C12.7161831,23.1044866 12.7795731,23.2373739 12.8364659,23.3650604 C12.8939462,23.4940655 12.9774919,23.6122883 13.0976069,23.7365643 C13.2767326,23.9218951 14.321416,24.7242183 14.3392045,24.7387357 C14.4967477,24.8673096 15.7551845,25.7747469 16.1685286,26.0991648 C16.9823526,26.7379039 17.5982414,27.327002 18.0249696,27.9242415 C18.1056202,28.0371183 18.1787589,28.1495499 18.2441662,28.2616447 C18.4058253,28.5386956 18.5101063,28.7955438 18.5586587,29.0397985 C19.201938,28.745564 19.7881075,28.201592 20.3804866,27.4250392 C20.5244301,27.2363429 20.6629768,27.0423268 20.8274476,26.8024335 C20.8519183,26.7667411 21.1274059,26.3606605 21.1988871,26.2584126 C21.2347632,26.2070948 21.4096195,25.9606523 21.4522339,25.8988932 C21.5318971,25.783441 21.586279,25.6974904 21.6283777,25.6188189 C21.7377409,25.4144474 21.7750059,25.2222839 21.7203608,24.9428763 C21.7185774,24.9356989 21.7170938,24.928392 21.7159252,24.9209681 C21.672318,24.712561 21.5789396,24.4557835 21.4279608,24.1113344 C21.250149,23.7056678 20.8236227,23.2033152 20.1937141,22.6345652 C19.900743,22.3700391 19.569,22.0956668 19.2019366,21.8113652 C18.8508831,21.5394638 18.483326,21.2703277 18.0760383,20.9832929 C17.8559081,20.8281567 17.2811398,20.4307596 17.2517233,20.4101292 C17.1549294,20.3422458 17.0598038,20.2707044 16.9663926,20.1958321 C16.6513837,19.9433417 16.3685369,19.6641924 16.1213566,19.378643 C16.0346761,19.2785074 15.9584821,19.1845077 15.8932693,19.0991641 C15.853404,19.0469926 15.8255847,19.0085891 15.8103262,18.9864764 C15.7303029,18.8705062 15.7594435,18.7116221 15.8754137,18.6315987 C15.9913839,18.5515754 16.150268,18.5807161 16.2302913,18.6966863 C16.2771774,18.7646337 16.3710339,18.8874632 16.5071402,19.0446968 C16.7352519,19.3082177 16.9964625,19.5660135 17.2855119,19.7976966 C17.3705713,19.8658746 17.4569975,19.9308734 17.5446988,19.9923801 C17.5618342,20.0043974 17.793783,20.1648313 18.0194499,20.3216106 C18.3828661,19.7134365 19.153294,19.1762176 20.2969615,18.6225037 C20.5709171,18.4898663 20.8576727,18.3602643 21.199644,18.2124383 C21.361544,18.1424529 21.8960207,17.9154391 21.9946497,17.8728612 C22.5684555,17.6251508 23.6361038,17.4532409 25.3063906,17.2905754 C25.5869821,17.2632492 25.8789359,17.236629 26.2359305,17.2054198 C28.3053826,17.0245041 28.2697371,17.0278813 28.6367473,16.9631675 C30.0251133,16.7183612 31.2400076,15.7941576 31.1956287,14.7778037 C31.1553416,13.8551609 30.4747033,13.5951582 29.3927909,13.7859285 C29.0316949,13.8495995 28.6714407,13.8407972 26.0782951,13.7406314 C25.9553903,13.7359011 25.9553903,13.7359011 25.8323755,13.7312551 C23.9781878,13.6616331 22.963699,13.6586604 22.5294164,13.7490053 C22.0869314,13.8410566 21.5761885,13.8963174 18.6779509,14.186231 C18.4687031,14.2071832 18.3891931,14.215166 18.2589665,14.2283067 C15.8457208,14.4718178 14.5550782,14.6323023 14.0890728,14.7722581 C13.6763764,14.8962035 13.4609453,15.0951484 13.0551525,15.6386891 C12.5798158,16.2754017 12.3034246,16.5352172 11.770645,16.7120477 C11.4927883,16.8042688 11.2016273,16.8804155 10.8069573,16.9694215 C10.7153937,16.9900709 10.6464212,17.005266 10.4764749,17.0424282 C9.37204603,17.2839337 8.92203011,17.4264797 8.50320994,17.7279929 C8.20213083,17.944743 7.99226229,18.3720557 7.72125483,19.2139719 C7.69779456,19.2868539 7.61509785,19.5473481 7.61843685,19.536874 C7.57716078,19.6663534 7.54582827,19.7624287 7.51456838,19.8543556 C7.33595191,20.3796183 7.17971653,20.6979014 6.95821052,20.9050311 C6.86198448,20.9950119 6.76319805,21.0817621 6.64753994,21.1789891 C6.57838474,21.2371239 6.32711958,21.444022 6.35677128,21.4194797 C5.87691366,21.8166515 5.64360393,22.0725189 5.42038446,22.505494 C5.30065601,22.7377292 5.23491554,22.9272161 5.11366167,23.3481946 C5.06323994,23.5232526 5.04235335,23.5939624 5.01178715,23.6898353 C4.84224269,24.2216226 4.63126182,24.6212847 4.25510258,25.0381031 C3.50072791,25.8740183 2.89061692,26.9763219 2.74811824,27.7209745 C2.68927425,28.0284744 2.60727555,28.2863391 2.47214249,28.6227478 C2.45840022,28.6569586 2.29193106,29.0593591 2.24210963,29.1873235 C2.15290163,29.4164506 2.08055456,29.6292294 1.81334908,30.0474677 L2.01477096,29.8648312 C1.89702696,30.2865274 1.83537358,31.132599 1.80900532,32.3967801 C1.80054012,32.8026298 1.7851013,34.3668527 1.77684398,34.6561364 C1.76199606,35.1763123 1.78713507,35.7085611 1.83968265,36.223112 C1.85807604,36.4032217 1.87856218,36.5680848 1.89953846,36.7140386 C1.91201565,36.8008554 1.92178145,36.86153 1.92560094,36.8840176 C2.00774461,37.2730919 2.11502011,37.5685925 2.4541287,38.4051886 C2.6279057,38.8339042 2.7200892,39.0723276 2.81156434,39.3419295 C2.92289058,39.6700379 3.00331285,39.9678987 3.05407194,40.2557678 C3.13750327,40.7289304 3.10541934,40.4980222 3.75875397,45.2618545 C3.7892866,45.4844852 3.81773101,45.6915334 3.84511235,45.8904138 C4.03890548,47.2980021 4.18871787,48.3631059 4.31765296,49.2405195 C4.33813808,49.3799225 4.24173616,49.5095373 4.10233324,49.5300225 C3.96293032,49.5505076 3.83331545,49.4541057 3.81283033,49.3147027 C3.68361985,48.435415 3.53362364,47.3690043 3.33963644,45.9600064 C3.31224221,45.7610324 3.28378585,45.5538972 3.25324174,45.3311828 C2.60432384,40.5995554 2.63312513,40.8068384 2.5515796,40.3443707 C2.50576586,40.0845481 2.43192318,39.8110562 2.32837573,39.505874 C2.24098661,39.2483147 2.15149628,39.0168569 1.98125524,38.5968647 C1.62952436,37.7291288 1.51722336,37.4197851 1.42473536,36.9810202 C1.41837637,36.9449566 1.40775432,36.8789621 1.39448367,36.7866244 C1.37254688,36.6339873 1.3512052,36.4622392 1.33207864,36.2749501 C1.27742638,35.7397902 1.2512685,35.1859694 1.26680762,34.6415779 C1.27489858,34.3581229 1.29031067,32.7966068 1.29887218,32.3861398 C1.32624104,31.0739869 1.38939972,30.2072581 1.72474612,29.5449753 L1.52332424,29.7276118 C1.59393969,29.4747049 1.67163185,29.2462058 1.76663199,29.0022018 C1.81879593,28.8682208 1.98674625,28.4622399 1.99866968,28.432557 C2.12256092,28.1241344 2.19514752,27.8958683 2.24696763,27.6250729 C2.40865483,26.7801474 3.06365307,25.5967448 3.87630361,24.6962546 C4.1990387,24.338635 4.37666254,24.0021613 4.52565213,23.5348457 C4.55425439,23.4451328 4.57428348,23.377326 4.62335063,23.2069709 C4.75344705,22.7552922 4.82733269,22.5423281 4.96686369,22.2716822 C5.22767141,21.7657978 5.5032315,21.4635951 6.03143267,21.02641 C6.0036999,21.049364 6.25239125,20.8445853 6.31920796,20.7884163 C6.42847585,20.6965611 6.52074258,20.6155363 6.6097104,20.5323427 C6.75006494,20.4010975 6.87909712,20.1382328 7.03149079,19.6900843 C7.06150112,19.601832 7.09192708,19.5085365 7.13229685,19.3819 C7.12867541,19.3932601 7.21172199,19.1316639 7.23555373,19.0576278 C7.54104785,18.1085748 7.78160988,17.6187672 8.20509624,17.3138948 C8.70211379,16.9560865 9.19105753,16.8012098 10.3674753,16.5439624 C10.5363114,16.507043 10.604605,16.4919975 10.6947061,16.4716778 C11.0744046,16.3860482 11.3510535,16.3136969 11.6099157,16.2277801 C12.0151919,16.0932682 12.229278,15.8920212 12.6314201,15.3533536 C13.1130826,14.7081872 13.3948291,14.4480018 13.9423069,14.2835774 C14.4564609,14.1291611 15.7361344,13.9700406 18.2077399,13.7206406 C18.3381262,13.7074838 18.4177425,13.6994903 18.6271642,13.6785207 C21.473434,13.3938055 22.0114215,13.3355969 22.425494,13.2494564 C22.9208603,13.1464041 23.9340734,13.149373 25.8515209,13.2213703 C25.9748509,13.2260283 25.9748509,13.2260283 26.0979897,13.2307675 C28.568684,13.3262034 29.0016474,13.3367822 29.3041879,13.2834362 C30.6464418,13.0467606 31.6474702,13.4291518 31.705387,14.7555452 C31.7638547,16.0945545 30.3344667,17.1819292 28.7253503,17.4656599 C28.3348297,17.5345192 28.3893473,17.5293539 26.2803676,17.7137252 C25.9249086,17.7448001 25.6345211,17.7712775 25.3558481,17.7984169 C23.7454792,17.9552471 22.7019773,18.123269 22.1968811,18.3413177 C22.0963764,18.3847053 21.5620525,18.6116542 21.4021038,18.6807962 C21.0662844,18.8259628 20.7857973,18.9527318 20.5193101,19.0817532 C19.4370474,19.6057376 18.7256846,20.1093862 18.4392858,20.6151642 C18.8250203,20.8881122 19.1766859,21.1464153 19.5143791,21.4079688 C19.8909532,21.6996366 20.2323533,21.9819959 20.5356576,22.255852 C21.2149411,22.8691831 21.6814296,23.4186021 21.8952838,23.9064975 C22.0136186,24.176471 22.1021216,24.407927 22.1618568,24.6129274 C22.3140865,24.6050834 22.4831545,24.5997443 22.6653652,24.5981834 C23.2047834,24.5935625 23.7504152,24.6222655 24.2701728,24.6960351 C25.0830461,24.8114069 25.7582109,25.0262693 26.2462703,25.3683783 C27.4719467,26.2275258 27.6059054,27.7823334 27.0160796,28.6915608 C26.5860375,29.3545979 25.6572268,29.7562802 23.7536877,30.1686577 C23.1822201,30.2924588 22.6207081,30.2646719 22.0802257,30.1182031 C22.0089526,30.1509765 21.9161202,30.1941311 21.8072168,30.2455053 C21.5343468,30.3742292 21.2622585,30.5069166 21.0098139,30.6360929 C20.9508899,30.6663253 20.9508899,30.6663253 20.8922783,30.6967429 C20.2432304,31.0346053 20.0523757,31.1886939 19.3832631,31.9506089 C18.4097629,33.0591285 17.102706,33.9927823 15.6977556,34.4009749 C15.1863833,34.5495484 14.8542588,34.590339 14.5031997,34.578605 C14.4716785,34.5775514 14.3771676,34.5734298 14.3656822,34.5730034 C14.3214026,34.5713591 14.2896696,34.5710046 14.260784,34.5720175 C14.0648885,34.5788871 13.86903,34.678106 13.3848533,35.0638012 C13.1940773,35.2157691 13.0416662,35.3346618 12.9145699,35.4295897 Z" id="path-1"></path>
    </defs>
    <g id="Finger" stroke="none" stroke-width="1" fill="none" fill-rule="evenodd">
        <g id="Finger-Alphabet" transform="translate(-1400.000000, 0.000000)">
            <g id="letters" transform="translate(11.000000, 0.000000)">
                <g id="z" transform="translate(1397.000000, 0.000000)">
                    <g id="Group-2">
                        <path d="M30.695111,10.0782209 L28.7159047,8.69630116 C28.4846813,8.53485658 28.4281145,8.21653633 28.5895591,7.98531297 C28.7510036,7.75408961 29.0693239,7.69752274 29.3005472,7.85896732 L32.6584522,10.2035209 C32.9405053,10.4004558 32.9510839,10.8142843 32.6794609,11.0253727 L29.321556,13.6349261 C29.0988831,13.8079734 28.7780885,13.7677441 28.6050411,13.5450712 C28.4319937,13.3223984 28.4722231,13.0016038 28.694896,12.8285564 L30.9198483,11.0994627 L0.980392157,11.0994627 C0.397606512,11.0994627 0.269698401,10.2801556 0.824751897,10.1025191 L29.0382771,1.07320612 L0.980392157,1.07320612 C0.698384013,1.07320612 0.469771242,0.844593345 0.469771242,0.562585201 C0.469771242,0.280577056 0.698384013,0.0519642855 0.980392157,0.0519642855 L32.3090266,0.0519642855 C32.8918122,0.0519642855 33.0197203,0.871271468 32.4646668,1.04890796 L4.25114159,10.0782209 L30.695111,10.0782209 Z" id="arrow" fill="#716951" fill-rule="nonzero"></path>
                        <mask id="mask-2" fill="white">
                            <use xlink:href="#path-1"></use>
                        </mask>
                        <use id="Z" fill="#000000" fill-rule="nonzero" xlink:href="#path-1"></use>
                    </g>
                </g>
            </g>
            <g id="slices"></g>
        </g>
    </g>
</svg>